%TF.GenerationSoftware,KiCad,Pcbnew,8.0.8*%
%TF.CreationDate,2025-07-28T16:06:37+02:00*%
%TF.ProjectId,Linefollower Wz.4,4c696e65-666f-46c6-9c6f-77657220577a,4.1*%
%TF.SameCoordinates,Original*%
%TF.FileFunction,Copper,L2,Bot*%
%TF.FilePolarity,Positive*%
%FSLAX46Y46*%
G04 Gerber Fmt 4.6, Leading zero omitted, Abs format (unit mm)*
G04 Created by KiCad (PCBNEW 8.0.8) date 2025-07-28 16:06:37*
%MOMM*%
%LPD*%
G01*
G04 APERTURE LIST*
G04 Aperture macros list*
%AMRoundRect*
0 Rectangle with rounded corners*
0 $1 Rounding radius*
0 $2 $3 $4 $5 $6 $7 $8 $9 X,Y pos of 4 corners*
0 Add a 4 corners polygon primitive as box body*
4,1,4,$2,$3,$4,$5,$6,$7,$8,$9,$2,$3,0*
0 Add four circle primitives for the rounded corners*
1,1,$1+$1,$2,$3*
1,1,$1+$1,$4,$5*
1,1,$1+$1,$6,$7*
1,1,$1+$1,$8,$9*
0 Add four rect primitives between the rounded corners*
20,1,$1+$1,$2,$3,$4,$5,0*
20,1,$1+$1,$4,$5,$6,$7,0*
20,1,$1+$1,$6,$7,$8,$9,0*
20,1,$1+$1,$8,$9,$2,$3,0*%
G04 Aperture macros list end*
%TA.AperFunction,ComponentPad*%
%ADD10R,1.700000X1.700000*%
%TD*%
%TA.AperFunction,ComponentPad*%
%ADD11O,1.700000X1.700000*%
%TD*%
%TA.AperFunction,ComponentPad*%
%ADD12C,1.600000*%
%TD*%
%TA.AperFunction,ComponentPad*%
%ADD13C,1.500000*%
%TD*%
%TA.AperFunction,ComponentPad*%
%ADD14R,2.250000X2.250000*%
%TD*%
%TA.AperFunction,ComponentPad*%
%ADD15C,2.250000*%
%TD*%
%TA.AperFunction,ComponentPad*%
%ADD16R,1.905000X2.000000*%
%TD*%
%TA.AperFunction,ComponentPad*%
%ADD17O,1.905000X2.000000*%
%TD*%
%TA.AperFunction,ComponentPad*%
%ADD18R,1.600000X1.600000*%
%TD*%
%TA.AperFunction,ComponentPad*%
%ADD19O,1.600000X1.600000*%
%TD*%
%TA.AperFunction,SMDPad,CuDef*%
%ADD20RoundRect,0.250000X0.450000X-0.325000X0.450000X0.325000X-0.450000X0.325000X-0.450000X-0.325000X0*%
%TD*%
%TA.AperFunction,SMDPad,CuDef*%
%ADD21RoundRect,0.205052X0.419948X0.544948X-0.419948X0.544948X-0.419948X-0.544948X0.419948X-0.544948X0*%
%TD*%
%TA.AperFunction,ViaPad*%
%ADD22C,1.000000*%
%TD*%
%TA.AperFunction,Conductor*%
%ADD23C,0.500000*%
%TD*%
G04 APERTURE END LIST*
D10*
%TO.P,J3,1,Pin_1*%
%TO.N,Net-(J3-Pin_1)*%
X114840000Y-97000000D03*
D11*
%TO.P,J3,2,Pin_2*%
%TO.N,Net-(J3-Pin_2)*%
X117380000Y-97000000D03*
%TO.P,J3,3,Pin_3*%
%TO.N,Net-(J3-Pin_3)*%
X119920000Y-97000000D03*
%TO.P,J3,4,Pin_4*%
%TO.N,Net-(J3-Pin_4)*%
X122460000Y-97000000D03*
%TO.P,J3,5,Pin_5*%
%TO.N,Net-(J3-Pin_5)*%
X125000000Y-97000000D03*
%TO.P,J3,6,Pin_6*%
%TO.N,Net-(J3-Pin_6)*%
X127540000Y-97000000D03*
%TO.P,J3,7,Pin_7*%
%TO.N,Net-(J3-Pin_7)*%
X130080000Y-97000000D03*
%TO.P,J3,8,Pin_8*%
%TO.N,Net-(J3-Pin_8)*%
X132620000Y-97000000D03*
%TO.P,J3,9,Pin_9*%
%TO.N,Net-(J3-Pin_9)*%
X135160000Y-97000000D03*
%TD*%
D10*
%TO.P,J4,1,Pin_1*%
%TO.N,Net-(D1-K)*%
X107000000Y-88000000D03*
D11*
%TO.P,J4,2,Pin_2*%
%TO.N,Net-(J4-Pin_2)*%
X104460000Y-88000000D03*
%TD*%
D12*
%TO.P,C4,1*%
%TO.N,+5V*%
X125000000Y-131000000D03*
%TO.P,C4,2*%
%TO.N,GND*%
X127500000Y-131000000D03*
%TD*%
D13*
%TO.P,Y1,1,1*%
%TO.N,Net-(U11-PA1{slash}XTAL2)*%
X123000000Y-120550000D03*
%TO.P,Y1,2,2*%
%TO.N,Net-(U11-PA0{slash}XTAL1)*%
X123000000Y-125430000D03*
%TD*%
D10*
%TO.P,12V,1,Pin_1*%
%TO.N,GND*%
X150000000Y-101460000D03*
D11*
%TO.P,12V,2,Pin_2*%
%TO.N,Net-(J2-Pin_2)*%
X150000000Y-104000000D03*
%TD*%
D12*
%TO.P,C2,1*%
%TO.N,GND*%
X89250000Y-123000000D03*
%TO.P,C2,2*%
%TO.N,+12V*%
X86750000Y-123000000D03*
%TD*%
D10*
%TO.P,M1,1,+*%
%TO.N,Net-(M1-+)*%
X108000000Y-129460000D03*
D11*
%TO.P,M1,2,-*%
%TO.N,GND*%
X108000000Y-132000000D03*
%TD*%
D10*
%TO.P,J5,1,Pin_1*%
%TO.N,GND*%
X107000000Y-97000000D03*
D11*
%TO.P,J5,2,Pin_2*%
%TO.N,+5V*%
X104460000Y-97000000D03*
%TD*%
D14*
%TO.P,SW2,1*%
%TO.N,Net-(ICSP1-~{RST})*%
X121500000Y-130750000D03*
D15*
%TO.P,SW2,2*%
%TO.N,GND*%
X121500000Y-137250000D03*
%TD*%
D16*
%TO.P,Q1,1,G*%
%TO.N,Net-(Q1-G)*%
X103460000Y-119230000D03*
D17*
%TO.P,Q1,2,S*%
%TO.N,Net-(M1-+)*%
X106000000Y-119230000D03*
%TO.P,Q1,3,D*%
%TO.N,+12V*%
X108540000Y-119230000D03*
%TD*%
D18*
%TO.P,SW1,1,A*%
%TO.N,Net-(J2-Pin_2)*%
X150000000Y-107732500D03*
D19*
%TO.P,SW1,2,B*%
%TO.N,+12V*%
X150000000Y-115352500D03*
%TD*%
D12*
%TO.P,C3,1*%
%TO.N,+5V*%
X100750000Y-123000000D03*
%TO.P,C3,2*%
%TO.N,GND*%
X98250000Y-123000000D03*
%TD*%
D16*
%TO.P,Q2,1,G*%
%TO.N,Net-(Q2-G)*%
X155460000Y-119230000D03*
D17*
%TO.P,Q2,2,S*%
%TO.N,Net-(M2-+)*%
X158000000Y-119230000D03*
%TO.P,Q2,3,D*%
%TO.N,+12V*%
X160540000Y-119230000D03*
%TD*%
D16*
%TO.P,U10,1,VI*%
%TO.N,+12V*%
X91460000Y-119230000D03*
D17*
%TO.P,U10,2,GND*%
%TO.N,GND*%
X94000000Y-119230000D03*
%TO.P,U10,3,VO*%
%TO.N,+5V*%
X96540000Y-119230000D03*
%TD*%
D18*
%TO.P,U11,1,PA2/~{RESET}*%
%TO.N,Net-(ICSP1-~{RST})*%
X130200000Y-107760000D03*
D19*
%TO.P,U11,2,PD0*%
%TO.N,Net-(J3-Pin_4)*%
X130200000Y-110300000D03*
%TO.P,U11,3,PD1*%
%TO.N,Net-(J3-Pin_5)*%
X130200000Y-112840000D03*
%TO.P,U11,4,PA1/XTAL2*%
%TO.N,Net-(U11-PA1{slash}XTAL2)*%
X130200000Y-115380000D03*
%TO.P,U11,5,PA0/XTAL1*%
%TO.N,Net-(U11-PA0{slash}XTAL1)*%
X130200000Y-117920000D03*
%TO.P,U11,6,PD2*%
%TO.N,Net-(J3-Pin_6)*%
X130200000Y-120460000D03*
%TO.P,U11,7,PD3*%
%TO.N,Net-(J3-Pin_7)*%
X130200000Y-123000000D03*
%TO.P,U11,8,PD4*%
%TO.N,Net-(J3-Pin_8)*%
X130200000Y-125540000D03*
%TO.P,U11,9,PD5*%
%TO.N,Net-(Q1-G)*%
X130200000Y-128080000D03*
%TO.P,U11,10,GND*%
%TO.N,GND*%
X130200000Y-130620000D03*
%TO.P,U11,11,PD6*%
%TO.N,Net-(J3-Pin_9)*%
X137820000Y-130620000D03*
%TO.P,U11,12,PB0*%
%TO.N,Net-(S1-Pin_3)*%
X137820000Y-128080000D03*
%TO.P,U11,13,PB1*%
%TO.N,Net-(J3-Pin_1)*%
X137820000Y-125540000D03*
%TO.P,U11,14,PB2*%
%TO.N,Net-(J3-Pin_2)*%
X137820000Y-123000000D03*
%TO.P,U11,15,PB3*%
%TO.N,Net-(Q2-G)*%
X137820000Y-120460000D03*
%TO.P,U11,16,PB4*%
%TO.N,Net-(J3-Pin_3)*%
X137820000Y-117920000D03*
%TO.P,U11,17,PB5*%
%TO.N,Net-(ICSP1-MOSI)*%
X137820000Y-115380000D03*
%TO.P,U11,18,PB6*%
%TO.N,Net-(ICSP1-MISO)*%
X137820000Y-112840000D03*
%TO.P,U11,19,PB7*%
%TO.N,Net-(ICSP1-SCK)*%
X137820000Y-110300000D03*
%TO.P,U11,20,VCC*%
%TO.N,+5V*%
X137820000Y-107760000D03*
%TD*%
D10*
%TO.P,ICSP1,1,MISO*%
%TO.N,Net-(ICSP1-MISO)*%
X120460000Y-109475000D03*
D11*
%TO.P,ICSP1,2,VCC*%
%TO.N,+5V*%
X123000000Y-109475000D03*
%TO.P,ICSP1,3,SCK*%
%TO.N,Net-(ICSP1-SCK)*%
X120460000Y-112015000D03*
%TO.P,ICSP1,4,MOSI*%
%TO.N,Net-(ICSP1-MOSI)*%
X123000000Y-112015000D03*
%TO.P,ICSP1,5,~{RST}*%
%TO.N,Net-(ICSP1-~{RST})*%
X120460000Y-114555000D03*
%TO.P,ICSP1,6,GND*%
%TO.N,GND*%
X123000000Y-114555000D03*
%TD*%
D10*
%TO.P,M2,1,+*%
%TO.N,Net-(M2-+)*%
X142000000Y-129460000D03*
D11*
%TO.P,M2,2,-*%
%TO.N,GND*%
X142000000Y-132000000D03*
%TD*%
D10*
%TO.P,J1,1,Pin_1*%
%TO.N,Net-(J1-Pin_1)*%
X114840000Y-88000000D03*
D11*
%TO.P,J1,2,Pin_2*%
%TO.N,Net-(J1-Pin_2)*%
X117380000Y-88000000D03*
%TO.P,J1,3,Pin_3*%
%TO.N,Net-(J1-Pin_3)*%
X119920000Y-88000000D03*
%TO.P,J1,4,Pin_4*%
%TO.N,Net-(J1-Pin_4)*%
X122460000Y-88000000D03*
%TO.P,J1,5,Pin_5*%
%TO.N,Net-(J1-Pin_5)*%
X125000000Y-88000000D03*
%TO.P,J1,6,Pin_6*%
%TO.N,Net-(J1-Pin_6)*%
X127540000Y-88000000D03*
%TO.P,J1,7,Pin_7*%
%TO.N,Net-(J1-Pin_7)*%
X130080000Y-88000000D03*
%TO.P,J1,8,Pin_8*%
%TO.N,Net-(J1-Pin_8)*%
X132620000Y-88000000D03*
%TO.P,J1,9,Pin_9*%
%TO.N,Net-(J1-Pin_9)*%
X135160000Y-88000000D03*
%TD*%
D12*
%TO.P,C1,1*%
%TO.N,+5V*%
X138000000Y-105000000D03*
%TO.P,C1,2*%
%TO.N,GND*%
X138000000Y-102500000D03*
%TD*%
D10*
%TO.P,S1,1,Pin_1*%
%TO.N,+5V*%
X145475000Y-120975000D03*
D11*
%TO.P,S1,2,Pin_2*%
%TO.N,GND*%
X148015000Y-120975000D03*
%TO.P,S1,3,Pin_3*%
%TO.N,Net-(S1-Pin_3)*%
X150555000Y-120975000D03*
%TD*%
D20*
%TO.P,D5,1,K*%
%TO.N,Net-(D1-K)*%
X128990000Y-72550000D03*
%TO.P,D5,2,A*%
%TO.N,Net-(D1-A)*%
X128990000Y-70500000D03*
%TD*%
D21*
%TO.P,U6,1,A*%
%TO.N,Net-(U1-A)*%
X157890000Y-73275000D03*
%TO.P,U6,2,E*%
%TO.N,Net-(D1-K)*%
X156090000Y-73275000D03*
%TO.P,U6,3,C*%
%TO.N,Net-(J1-Pin_9)*%
X157890000Y-77775000D03*
%TO.P,U6,4,K*%
%TO.N,Net-(D1-K)*%
X156090000Y-77775000D03*
%TD*%
D20*
%TO.P,D6,1,K*%
%TO.N,Net-(D1-K)*%
X136990000Y-72525000D03*
%TO.P,D6,2,A*%
%TO.N,Net-(D1-A)*%
X136990000Y-70475000D03*
%TD*%
%TO.P,D8,1,K*%
%TO.N,Net-(D1-K)*%
X152990000Y-72550000D03*
%TO.P,D8,2,A*%
%TO.N,Net-(D1-A)*%
X152990000Y-70500000D03*
%TD*%
%TO.P,D1,1,K*%
%TO.N,Net-(D1-K)*%
X96990000Y-72550000D03*
%TO.P,D1,2,A*%
%TO.N,Net-(D1-A)*%
X96990000Y-70500000D03*
%TD*%
%TO.P,D2,1,K*%
%TO.N,Net-(D1-K)*%
X104990000Y-72550000D03*
%TO.P,D2,2,A*%
%TO.N,Net-(D1-A)*%
X104990000Y-70500000D03*
%TD*%
D21*
%TO.P,U7,1,A*%
%TO.N,Net-(U1-A)*%
X149890000Y-73275000D03*
%TO.P,U7,2,E*%
%TO.N,Net-(D1-K)*%
X148090000Y-73275000D03*
%TO.P,U7,3,C*%
%TO.N,Net-(J1-Pin_8)*%
X149890000Y-77775000D03*
%TO.P,U7,4,K*%
%TO.N,Net-(D1-K)*%
X148090000Y-77775000D03*
%TD*%
D20*
%TO.P,D3,1,K*%
%TO.N,Net-(D1-K)*%
X112990000Y-72550000D03*
%TO.P,D3,2,A*%
%TO.N,Net-(D1-A)*%
X112990000Y-70500000D03*
%TD*%
D21*
%TO.P,U9,1,A*%
%TO.N,Net-(U1-A)*%
X133890000Y-73275000D03*
%TO.P,U9,2,E*%
%TO.N,Net-(D1-K)*%
X132090000Y-73275000D03*
%TO.P,U9,3,C*%
%TO.N,Net-(J1-Pin_6)*%
X133890000Y-77775000D03*
%TO.P,U9,4,K*%
%TO.N,Net-(D1-K)*%
X132090000Y-77775000D03*
%TD*%
D20*
%TO.P,D4,1,K*%
%TO.N,Net-(D1-K)*%
X120965000Y-72550000D03*
%TO.P,D4,2,A*%
%TO.N,Net-(D1-A)*%
X120965000Y-70500000D03*
%TD*%
D21*
%TO.P,U1,1,A*%
%TO.N,Net-(U1-A)*%
X93890000Y-73275000D03*
%TO.P,U1,2,E*%
%TO.N,Net-(D1-K)*%
X92090000Y-73275000D03*
%TO.P,U1,3,C*%
%TO.N,Net-(J1-Pin_1)*%
X93890000Y-77775000D03*
%TO.P,U1,4,K*%
%TO.N,Net-(D1-K)*%
X92090000Y-77775000D03*
%TD*%
%TO.P,U8,1,A*%
%TO.N,Net-(U1-A)*%
X141890000Y-73275000D03*
%TO.P,U8,2,E*%
%TO.N,Net-(D1-K)*%
X140090000Y-73275000D03*
%TO.P,U8,3,C*%
%TO.N,Net-(J1-Pin_7)*%
X141890000Y-77775000D03*
%TO.P,U8,4,K*%
%TO.N,Net-(D1-K)*%
X140090000Y-77775000D03*
%TD*%
D20*
%TO.P,D7,1,K*%
%TO.N,Net-(D1-K)*%
X144990000Y-72550000D03*
%TO.P,D7,2,A*%
%TO.N,Net-(D1-A)*%
X144990000Y-70500000D03*
%TD*%
D21*
%TO.P,U2,1,A*%
%TO.N,Net-(U1-A)*%
X101890000Y-73275000D03*
%TO.P,U2,2,E*%
%TO.N,Net-(D1-K)*%
X100090000Y-73275000D03*
%TO.P,U2,3,C*%
%TO.N,Net-(J1-Pin_2)*%
X101890000Y-77775000D03*
%TO.P,U2,4,K*%
%TO.N,Net-(D1-K)*%
X100090000Y-77775000D03*
%TD*%
%TO.P,U5,1,A*%
%TO.N,Net-(U1-A)*%
X125890000Y-73275000D03*
%TO.P,U5,2,E*%
%TO.N,Net-(D1-K)*%
X124090000Y-73275000D03*
%TO.P,U5,3,C*%
%TO.N,Net-(J1-Pin_5)*%
X125890000Y-77775000D03*
%TO.P,U5,4,K*%
%TO.N,Net-(D1-K)*%
X124090000Y-77775000D03*
%TD*%
%TO.P,U3,1,A*%
%TO.N,Net-(U1-A)*%
X109890000Y-73275000D03*
%TO.P,U3,2,E*%
%TO.N,Net-(D1-K)*%
X108090000Y-73275000D03*
%TO.P,U3,3,C*%
%TO.N,Net-(J1-Pin_3)*%
X109890000Y-77775000D03*
%TO.P,U3,4,K*%
%TO.N,Net-(D1-K)*%
X108090000Y-77775000D03*
%TD*%
%TO.P,U4,1,A*%
%TO.N,Net-(U1-A)*%
X117890000Y-73275000D03*
%TO.P,U4,2,E*%
%TO.N,Net-(D1-K)*%
X116090000Y-73275000D03*
%TO.P,U4,3,C*%
%TO.N,Net-(J1-Pin_4)*%
X117890000Y-77775000D03*
%TO.P,U4,4,K*%
%TO.N,Net-(D1-K)*%
X116090000Y-77775000D03*
%TD*%
D22*
%TO.N,Net-(J3-Pin_9)*%
X140589009Y-119589009D03*
X141750000Y-116000000D03*
%TO.N,Net-(ICSP1-MOSI)*%
X121000000Y-104000000D03*
X135000002Y-105000000D03*
%TO.N,Net-(ICSP1-~{RST})*%
X123758763Y-107787760D03*
%TO.N,Net-(U1-A)*%
X90490000Y-75525000D03*
%TO.N,Net-(D1-A)*%
X92990000Y-70525000D03*
%TO.N,Net-(J3-Pin_3)*%
X139000000Y-96000000D03*
%TO.N,Net-(J3-Pin_4)*%
X126250000Y-100790000D03*
%TO.N,Net-(J3-Pin_2)*%
X139093374Y-94359935D03*
%TO.N,Net-(J3-Pin_1)*%
X140000000Y-93000000D03*
%TO.N,Net-(Q2-G)*%
X148000000Y-118000000D03*
%TD*%
D23*
%TO.N,Net-(J3-Pin_9)*%
X140589009Y-127850991D02*
X140220000Y-128220000D01*
X140589009Y-119589009D02*
X140589009Y-127850991D01*
X140220000Y-128220000D02*
X137820000Y-130620000D01*
X141750000Y-103590000D02*
X141750000Y-116000000D01*
X135160000Y-97000000D02*
X141750000Y-103590000D01*
%TO.N,+5V*%
X96540000Y-118790000D02*
X96540000Y-118730000D01*
%TO.N,GND*%
X94000000Y-121365000D02*
X94000000Y-119230000D01*
X97230000Y-121980000D02*
X98250000Y-123000000D01*
X89250000Y-123000000D02*
X90270000Y-121980000D01*
X94615000Y-121980000D02*
X94000000Y-121365000D01*
X97230000Y-121980000D02*
X95000000Y-121980000D01*
X94000000Y-121365000D02*
X94000000Y-121980000D01*
X95000000Y-121980000D02*
X93385000Y-121980000D01*
X90270000Y-121980000D02*
X93385000Y-121980000D01*
X93385000Y-121980000D02*
X94000000Y-121365000D01*
X95000000Y-121980000D02*
X94615000Y-121980000D01*
%TO.N,+12V*%
X108540000Y-119230000D02*
X104310000Y-115000000D01*
X108540000Y-119230000D02*
X108540000Y-125040000D01*
X157352500Y-115352500D02*
X150000000Y-115352500D01*
X117500000Y-134000000D02*
X158500000Y-134000000D01*
X104310000Y-115000000D02*
X95690000Y-115000000D01*
X91020000Y-118730000D02*
X91460000Y-118730000D01*
X160540000Y-118540000D02*
X157352500Y-115352500D01*
X158500000Y-134000000D02*
X160540000Y-131960000D01*
X108540000Y-125040000D02*
X117500000Y-134000000D01*
X90520000Y-119230000D02*
X86750000Y-123000000D01*
X95690000Y-115000000D02*
X91460000Y-119230000D01*
X109005000Y-118730000D02*
X108540000Y-118730000D01*
X160540000Y-131960000D02*
X160540000Y-118540000D01*
X91460000Y-119230000D02*
X90520000Y-119230000D01*
%TO.N,Net-(ICSP1-MOSI)*%
X121000002Y-103999998D02*
X121000000Y-104000000D01*
X134000000Y-103999998D02*
X135000002Y-105000000D01*
X134000000Y-103999998D02*
X121000002Y-103999998D01*
%TO.N,Net-(ICSP1-SCK)*%
X120015000Y-112015000D02*
X120460000Y-112015000D01*
X132519999Y-104999999D02*
X122000001Y-104999999D01*
X118860000Y-108140000D02*
X118860000Y-110860000D01*
X137820000Y-110300000D02*
X132519999Y-104999999D01*
X122000001Y-104999999D02*
X118860000Y-108140000D01*
X118860000Y-110860000D02*
X120015000Y-112015000D01*
%TO.N,Net-(ICSP1-~{RST})*%
X121500000Y-130750000D02*
X120460000Y-129710000D01*
X123786523Y-107760000D02*
X123758763Y-107787760D01*
X120460000Y-129710000D02*
X120460000Y-114555000D01*
X130200000Y-107760000D02*
X123786523Y-107760000D01*
%TO.N,Net-(ICSP1-MISO)*%
X136000000Y-110460000D02*
X136000000Y-111020000D01*
X120460000Y-108125000D02*
X122585000Y-106000000D01*
X120460000Y-109475000D02*
X120460000Y-108125000D01*
X131540000Y-106000000D02*
X136000000Y-110460000D01*
X122585000Y-106000000D02*
X131540000Y-106000000D01*
X136000000Y-111020000D02*
X137820000Y-112840000D01*
%TO.N,Net-(J2-Pin_2)*%
X150000000Y-107732500D02*
X150000000Y-104000000D01*
%TO.N,Net-(U1-A)*%
X126490000Y-75525000D02*
X126290000Y-75525000D01*
X150490000Y-75525000D02*
X157490000Y-75525000D01*
X118490000Y-75525000D02*
X118290000Y-75525000D01*
X109890000Y-73275000D02*
X109890000Y-75125000D01*
X126490000Y-75525000D02*
X133490000Y-75525000D01*
X93490000Y-75525000D02*
X90490000Y-75525000D01*
X141490000Y-75525000D02*
X142490000Y-75525000D01*
X133490000Y-75525000D02*
X133890000Y-75125000D01*
X149890000Y-75025000D02*
X149890000Y-73275000D01*
X101890000Y-75125000D02*
X101890000Y-73275000D01*
X109490000Y-75525000D02*
X102490000Y-75525000D01*
X101890000Y-75425000D02*
X101990000Y-75525000D01*
X141490000Y-75525000D02*
X141890000Y-75125000D01*
X149490000Y-75525000D02*
X150490000Y-75525000D01*
X142390000Y-75525000D02*
X141890000Y-75025000D01*
X125890000Y-75125000D02*
X125890000Y-74925000D01*
X133890000Y-75425000D02*
X133990000Y-75525000D01*
X102490000Y-75525000D02*
X102290000Y-75525000D01*
X125490000Y-75525000D02*
X126490000Y-75525000D01*
X142490000Y-75525000D02*
X149490000Y-75525000D01*
X93890000Y-75125000D02*
X93890000Y-73275000D01*
X101490000Y-75525000D02*
X101990000Y-75525000D01*
X94290000Y-75525000D02*
X93890000Y-75125000D01*
X157490000Y-75525000D02*
X157890000Y-75125000D01*
X134290000Y-75525000D02*
X133890000Y-75125000D01*
X116990000Y-75525000D02*
X117490000Y-75525000D01*
X93490000Y-75525000D02*
X93890000Y-75125000D01*
X149490000Y-75525000D02*
X149890000Y-75125000D01*
X125490000Y-75525000D02*
X125890000Y-75125000D01*
X133490000Y-75525000D02*
X133990000Y-75525000D01*
X133990000Y-75525000D02*
X134490000Y-75525000D01*
X94490000Y-75525000D02*
X94290000Y-75525000D01*
X150390000Y-75525000D02*
X149890000Y-75025000D01*
X109890000Y-75125000D02*
X110290000Y-75525000D01*
X118290000Y-75525000D02*
X117890000Y-75125000D01*
X109890000Y-75125000D02*
X109490000Y-75525000D01*
X109490000Y-75525000D02*
X110290000Y-75525000D01*
X142490000Y-75525000D02*
X142390000Y-75525000D01*
X150490000Y-75525000D02*
X150390000Y-75525000D01*
X110290000Y-75525000D02*
X116990000Y-75525000D01*
X149890000Y-75125000D02*
X149890000Y-75025000D01*
X93490000Y-75525000D02*
X94490000Y-75525000D01*
X102290000Y-75525000D02*
X101890000Y-75125000D01*
X94490000Y-75525000D02*
X101490000Y-75525000D01*
X133890000Y-75125000D02*
X133890000Y-75425000D01*
X101990000Y-75525000D02*
X102490000Y-75525000D01*
X141890000Y-75125000D02*
X141890000Y-75025000D01*
X133890000Y-75125000D02*
X133890000Y-73275000D01*
X157890000Y-75125000D02*
X157890000Y-73275000D01*
X134490000Y-75525000D02*
X134290000Y-75525000D01*
X118490000Y-75525000D02*
X116990000Y-75525000D01*
X117890000Y-75125000D02*
X117890000Y-73275000D01*
X101490000Y-75525000D02*
X101890000Y-75125000D01*
X141890000Y-75025000D02*
X141890000Y-73275000D01*
X125890000Y-74925000D02*
X125890000Y-73275000D01*
X101890000Y-75125000D02*
X101890000Y-75425000D01*
X126290000Y-75525000D02*
X125890000Y-75125000D01*
X117490000Y-75525000D02*
X117890000Y-75125000D01*
X118490000Y-75525000D02*
X125490000Y-75525000D01*
X134490000Y-75525000D02*
X141490000Y-75525000D01*
%TO.N,Net-(D1-A)*%
X112990000Y-70500000D02*
X120965000Y-70500000D01*
X144990000Y-70500000D02*
X152990000Y-70500000D01*
X136990000Y-70475000D02*
X144965000Y-70475000D01*
X96990000Y-70500000D02*
X104990000Y-70500000D01*
X120965000Y-70500000D02*
X128990000Y-70500000D01*
X129990000Y-70475000D02*
X136990000Y-70475000D01*
X92990000Y-70525000D02*
X96965000Y-70525000D01*
X128990000Y-70500000D02*
X129965000Y-70500000D01*
X104990000Y-70500000D02*
X112990000Y-70500000D01*
X96965000Y-70525000D02*
X96990000Y-70500000D01*
X129965000Y-70500000D02*
X129990000Y-70475000D01*
X144965000Y-70475000D02*
X144990000Y-70500000D01*
%TO.N,Net-(J1-Pin_6)*%
X133890000Y-77775000D02*
X133890000Y-81650000D01*
X133890000Y-81650000D02*
X127540000Y-88000000D01*
%TO.N,Net-(J1-Pin_1)*%
X109365000Y-82525000D02*
X114840000Y-88000000D01*
X93890000Y-77775000D02*
X98640000Y-82525000D01*
X98640000Y-82525000D02*
X109365000Y-82525000D01*
%TO.N,Net-(J1-Pin_7)*%
X141890000Y-78525000D02*
X141890000Y-77775000D01*
X139890000Y-80525000D02*
X137555000Y-80525000D01*
X137555000Y-80525000D02*
X130080000Y-88000000D01*
X139890000Y-80525000D02*
X141890000Y-78525000D01*
%TO.N,Net-(J1-Pin_2)*%
X104490000Y-81525000D02*
X101890000Y-78925000D01*
X117380000Y-87340000D02*
X111565000Y-81525000D01*
X101890000Y-78925000D02*
X101890000Y-77775000D01*
X117380000Y-88000000D02*
X117380000Y-87340000D01*
X111565000Y-81525000D02*
X104490000Y-81525000D01*
%TO.N,Net-(J1-Pin_5)*%
X125890000Y-80713886D02*
X125000000Y-81603886D01*
X125890000Y-77775000D02*
X125890000Y-80713886D01*
X125000000Y-81603886D02*
X125000000Y-88000000D01*
%TO.N,Net-(J1-Pin_8)*%
X149890000Y-78525000D02*
X149890000Y-77775000D01*
X146890000Y-81525000D02*
X149890000Y-78525000D01*
X146890000Y-81525000D02*
X139095000Y-81525000D01*
X139095000Y-81525000D02*
X132620000Y-88000000D01*
%TO.N,Net-(J1-Pin_3)*%
X119920000Y-88000000D02*
X109890000Y-77970000D01*
X109890000Y-77970000D02*
X109890000Y-77775000D01*
%TO.N,Net-(J1-Pin_9)*%
X153890000Y-82525000D02*
X140635000Y-82525000D01*
X153890000Y-82525000D02*
X157890000Y-78525000D01*
X157890000Y-78525000D02*
X157890000Y-77775000D01*
X140635000Y-82525000D02*
X135160000Y-88000000D01*
%TO.N,Net-(J1-Pin_4)*%
X117890000Y-77775000D02*
X117890000Y-82925000D01*
X117890000Y-82925000D02*
X122460000Y-87495000D01*
X122460000Y-87495000D02*
X122460000Y-88000000D01*
%TO.N,Net-(J3-Pin_3)*%
X121520000Y-95400000D02*
X119920000Y-97000000D01*
X138400000Y-95400000D02*
X121520000Y-95400000D01*
X139000000Y-96000000D02*
X138400000Y-95400000D01*
%TO.N,Net-(J3-Pin_4)*%
X126250000Y-100790000D02*
X122460000Y-97000000D01*
%TO.N,Net-(J3-Pin_2)*%
X120020065Y-94359935D02*
X117380000Y-97000000D01*
X139093374Y-94359935D02*
X120020065Y-94359935D01*
%TO.N,Net-(J3-Pin_1)*%
X118840000Y-93000000D02*
X114840000Y-97000000D01*
X140000000Y-93000000D02*
X118840000Y-93000000D01*
%TO.N,Net-(Q2-G)*%
X140280000Y-118000000D02*
X148000000Y-118000000D01*
X137820000Y-120460000D02*
X140280000Y-118000000D01*
%TD*%
%TA.AperFunction,Conductor*%
%TO.N,GND*%
G36*
X139361889Y-92019685D02*
G01*
X139407644Y-92072489D01*
X139417588Y-92141647D01*
X139388563Y-92205203D01*
X139373508Y-92219858D01*
X139371680Y-92221358D01*
X139307369Y-92248667D01*
X139293022Y-92249500D01*
X118766080Y-92249500D01*
X118621092Y-92278340D01*
X118621082Y-92278343D01*
X118484511Y-92334912D01*
X118484498Y-92334919D01*
X118361584Y-92417048D01*
X118361580Y-92417051D01*
X115165449Y-95613181D01*
X115104126Y-95646666D01*
X115077768Y-95649500D01*
X113942129Y-95649500D01*
X113942123Y-95649501D01*
X113882516Y-95655908D01*
X113747671Y-95706202D01*
X113747664Y-95706206D01*
X113632455Y-95792452D01*
X113632452Y-95792455D01*
X113546206Y-95907664D01*
X113546202Y-95907671D01*
X113495908Y-96042517D01*
X113489501Y-96102116D01*
X113489500Y-96102135D01*
X113489500Y-97897870D01*
X113489501Y-97897876D01*
X113495908Y-97957483D01*
X113546202Y-98092328D01*
X113546206Y-98092335D01*
X113632452Y-98207544D01*
X113632455Y-98207547D01*
X113747664Y-98293793D01*
X113747671Y-98293797D01*
X113882517Y-98344091D01*
X113882516Y-98344091D01*
X113889444Y-98344835D01*
X113942127Y-98350500D01*
X115737872Y-98350499D01*
X115797483Y-98344091D01*
X115932331Y-98293796D01*
X116047546Y-98207546D01*
X116133796Y-98092331D01*
X116182810Y-97960916D01*
X116224681Y-97904984D01*
X116290145Y-97880566D01*
X116358418Y-97895417D01*
X116386673Y-97916569D01*
X116508599Y-98038495D01*
X116604738Y-98105812D01*
X116702165Y-98174032D01*
X116702167Y-98174033D01*
X116702170Y-98174035D01*
X116916337Y-98273903D01*
X117144592Y-98335063D01*
X117332918Y-98351539D01*
X117379999Y-98355659D01*
X117380000Y-98355659D01*
X117380001Y-98355659D01*
X117419234Y-98352226D01*
X117615408Y-98335063D01*
X117843663Y-98273903D01*
X118057830Y-98174035D01*
X118251401Y-98038495D01*
X118418495Y-97871401D01*
X118548425Y-97685842D01*
X118603002Y-97642217D01*
X118672500Y-97635023D01*
X118734855Y-97666546D01*
X118751575Y-97685842D01*
X118881500Y-97871395D01*
X118881505Y-97871401D01*
X119048599Y-98038495D01*
X119144738Y-98105812D01*
X119242165Y-98174032D01*
X119242167Y-98174033D01*
X119242170Y-98174035D01*
X119456337Y-98273903D01*
X119684592Y-98335063D01*
X119872918Y-98351539D01*
X119919999Y-98355659D01*
X119920000Y-98355659D01*
X119920001Y-98355659D01*
X119959234Y-98352226D01*
X120155408Y-98335063D01*
X120383663Y-98273903D01*
X120597830Y-98174035D01*
X120791401Y-98038495D01*
X120958495Y-97871401D01*
X121088425Y-97685842D01*
X121143002Y-97642217D01*
X121212500Y-97635023D01*
X121274855Y-97666546D01*
X121291575Y-97685842D01*
X121421500Y-97871395D01*
X121421505Y-97871401D01*
X121588599Y-98038495D01*
X121684738Y-98105812D01*
X121782165Y-98174032D01*
X121782167Y-98174033D01*
X121782170Y-98174035D01*
X121996337Y-98273903D01*
X122224592Y-98335063D01*
X122412918Y-98351539D01*
X122459999Y-98355659D01*
X122460000Y-98355659D01*
X122460001Y-98355659D01*
X122495284Y-98352571D01*
X122673013Y-98337022D01*
X122741512Y-98350788D01*
X122771501Y-98372869D01*
X125219405Y-100820772D01*
X125252890Y-100882095D01*
X125255127Y-100896298D01*
X125263975Y-100986128D01*
X125321188Y-101174733D01*
X125414086Y-101348532D01*
X125414090Y-101348539D01*
X125539116Y-101500883D01*
X125691460Y-101625909D01*
X125691467Y-101625913D01*
X125865266Y-101718811D01*
X125865269Y-101718811D01*
X125865273Y-101718814D01*
X126053868Y-101776024D01*
X126250000Y-101795341D01*
X126446132Y-101776024D01*
X126634727Y-101718814D01*
X126808538Y-101625910D01*
X126960883Y-101500883D01*
X127085910Y-101348538D01*
X127178814Y-101174727D01*
X127236024Y-100986132D01*
X127255341Y-100790000D01*
X127236024Y-100593868D01*
X127178814Y-100405273D01*
X127178811Y-100405269D01*
X127178811Y-100405266D01*
X127085913Y-100231467D01*
X127085909Y-100231460D01*
X126960883Y-100079116D01*
X126808539Y-99954090D01*
X126808532Y-99954086D01*
X126634733Y-99861188D01*
X126634727Y-99861186D01*
X126446132Y-99803976D01*
X126446130Y-99803975D01*
X126446128Y-99803975D01*
X126356298Y-99795127D01*
X126291511Y-99768965D01*
X126280772Y-99759405D01*
X125074951Y-98553584D01*
X125041466Y-98492261D01*
X125046450Y-98422569D01*
X125088322Y-98366636D01*
X125151822Y-98342375D01*
X125235408Y-98335063D01*
X125463663Y-98273903D01*
X125677830Y-98174035D01*
X125871401Y-98038495D01*
X126038495Y-97871401D01*
X126168425Y-97685842D01*
X126223002Y-97642217D01*
X126292500Y-97635023D01*
X126354855Y-97666546D01*
X126371575Y-97685842D01*
X126501500Y-97871395D01*
X126501505Y-97871401D01*
X126668599Y-98038495D01*
X126764738Y-98105812D01*
X126862165Y-98174032D01*
X126862167Y-98174033D01*
X126862170Y-98174035D01*
X127076337Y-98273903D01*
X127304592Y-98335063D01*
X127492918Y-98351539D01*
X127539999Y-98355659D01*
X127540000Y-98355659D01*
X127540001Y-98355659D01*
X127579234Y-98352226D01*
X127775408Y-98335063D01*
X128003663Y-98273903D01*
X128217830Y-98174035D01*
X128411401Y-98038495D01*
X128578495Y-97871401D01*
X128708425Y-97685842D01*
X128763002Y-97642217D01*
X128832500Y-97635023D01*
X128894855Y-97666546D01*
X128911575Y-97685842D01*
X129041500Y-97871395D01*
X129041505Y-97871401D01*
X129208599Y-98038495D01*
X129304738Y-98105812D01*
X129402165Y-98174032D01*
X129402167Y-98174033D01*
X129402170Y-98174035D01*
X129616337Y-98273903D01*
X129844592Y-98335063D01*
X130032918Y-98351539D01*
X130079999Y-98355659D01*
X130080000Y-98355659D01*
X130080001Y-98355659D01*
X130119234Y-98352226D01*
X130315408Y-98335063D01*
X130543663Y-98273903D01*
X130757830Y-98174035D01*
X130951401Y-98038495D01*
X131118495Y-97871401D01*
X131248425Y-97685842D01*
X131303002Y-97642217D01*
X131372500Y-97635023D01*
X131434855Y-97666546D01*
X131451575Y-97685842D01*
X131581500Y-97871395D01*
X131581505Y-97871401D01*
X131748599Y-98038495D01*
X131844738Y-98105812D01*
X131942165Y-98174032D01*
X131942167Y-98174033D01*
X131942170Y-98174035D01*
X132156337Y-98273903D01*
X132384592Y-98335063D01*
X132572918Y-98351539D01*
X132619999Y-98355659D01*
X132620000Y-98355659D01*
X132620001Y-98355659D01*
X132659234Y-98352226D01*
X132855408Y-98335063D01*
X133083663Y-98273903D01*
X133297830Y-98174035D01*
X133491401Y-98038495D01*
X133658495Y-97871401D01*
X133788425Y-97685842D01*
X133843002Y-97642217D01*
X133912500Y-97635023D01*
X133974855Y-97666546D01*
X133991575Y-97685842D01*
X134121500Y-97871395D01*
X134121505Y-97871401D01*
X134288599Y-98038495D01*
X134384738Y-98105812D01*
X134482165Y-98174032D01*
X134482167Y-98174033D01*
X134482170Y-98174035D01*
X134696337Y-98273903D01*
X134924592Y-98335063D01*
X135112918Y-98351539D01*
X135159999Y-98355659D01*
X135160000Y-98355659D01*
X135160001Y-98355659D01*
X135195284Y-98352571D01*
X135373013Y-98337022D01*
X135441512Y-98350788D01*
X135471501Y-98372869D01*
X140963181Y-103864548D01*
X140996666Y-103925871D01*
X140999500Y-103952229D01*
X140999500Y-108995684D01*
X140979815Y-109062723D01*
X140927011Y-109108478D01*
X140857853Y-109118422D01*
X140813500Y-109103071D01*
X140693189Y-109033609D01*
X140693186Y-109033608D01*
X140565892Y-108999500D01*
X139565892Y-108999500D01*
X139434108Y-108999500D01*
X139306812Y-109033608D01*
X139192686Y-109099500D01*
X139192683Y-109099502D01*
X139099502Y-109192683D01*
X139099500Y-109192686D01*
X139033609Y-109306812D01*
X139011511Y-109389281D01*
X138975145Y-109448942D01*
X138912298Y-109479470D01*
X138842923Y-109471175D01*
X138804055Y-109444868D01*
X138659141Y-109299954D01*
X138472734Y-109169432D01*
X138472728Y-109169429D01*
X138414725Y-109142382D01*
X138362285Y-109096210D01*
X138343133Y-109029017D01*
X138363348Y-108962135D01*
X138414725Y-108917618D01*
X138472734Y-108890568D01*
X138659139Y-108760047D01*
X138820047Y-108599139D01*
X138950568Y-108412734D01*
X139046739Y-108206496D01*
X139105635Y-107986692D01*
X139125468Y-107760000D01*
X139123304Y-107735270D01*
X139116223Y-107654328D01*
X139105635Y-107533308D01*
X139046739Y-107313504D01*
X138950568Y-107107266D01*
X138820047Y-106920861D01*
X138820045Y-106920858D01*
X138659141Y-106759954D01*
X138472734Y-106629432D01*
X138472732Y-106629431D01*
X138266497Y-106533261D01*
X138266488Y-106533258D01*
X138231524Y-106523890D01*
X138171863Y-106487525D01*
X138141334Y-106424678D01*
X138149629Y-106355303D01*
X138194114Y-106301425D01*
X138231522Y-106284340D01*
X138446496Y-106226739D01*
X138652734Y-106130568D01*
X138839139Y-106000047D01*
X139000047Y-105839139D01*
X139130568Y-105652734D01*
X139226739Y-105446496D01*
X139285635Y-105226692D01*
X139305468Y-105000000D01*
X139305370Y-104998885D01*
X139294217Y-104871401D01*
X139285635Y-104773308D01*
X139226739Y-104553504D01*
X139130568Y-104347266D01*
X139000047Y-104160861D01*
X139000045Y-104160858D01*
X138839141Y-103999954D01*
X138652734Y-103869432D01*
X138652732Y-103869431D01*
X138446497Y-103773261D01*
X138446488Y-103773258D01*
X138226697Y-103714366D01*
X138226693Y-103714365D01*
X138226692Y-103714365D01*
X138226691Y-103714364D01*
X138226686Y-103714364D01*
X138000002Y-103694532D01*
X137999998Y-103694532D01*
X137773313Y-103714364D01*
X137773302Y-103714366D01*
X137553511Y-103773258D01*
X137553502Y-103773261D01*
X137347267Y-103869431D01*
X137347265Y-103869432D01*
X137160858Y-103999954D01*
X136999954Y-104160858D01*
X136869432Y-104347265D01*
X136869431Y-104347267D01*
X136773261Y-104553502D01*
X136773258Y-104553511D01*
X136714366Y-104773302D01*
X136714364Y-104773313D01*
X136694532Y-104999998D01*
X136694532Y-105000001D01*
X136714364Y-105226686D01*
X136714366Y-105226697D01*
X136773258Y-105446488D01*
X136773261Y-105446497D01*
X136869431Y-105652732D01*
X136869432Y-105652734D01*
X136999954Y-105839141D01*
X137160858Y-106000045D01*
X137160861Y-106000047D01*
X137347266Y-106130568D01*
X137553504Y-106226739D01*
X137553507Y-106226739D01*
X137553516Y-106226743D01*
X137588473Y-106236109D01*
X137648134Y-106272472D01*
X137678665Y-106335319D01*
X137670371Y-106404694D01*
X137625887Y-106458573D01*
X137588476Y-106475659D01*
X137373508Y-106533259D01*
X137373502Y-106533261D01*
X137167267Y-106629431D01*
X137167265Y-106629432D01*
X136980858Y-106759954D01*
X136819954Y-106920858D01*
X136689432Y-107107265D01*
X136689431Y-107107267D01*
X136593261Y-107313502D01*
X136593258Y-107313511D01*
X136534366Y-107533302D01*
X136534364Y-107533312D01*
X136523777Y-107654328D01*
X136498324Y-107719396D01*
X136441733Y-107760375D01*
X136371972Y-107764253D01*
X136312568Y-107731201D01*
X134786608Y-106205240D01*
X134753123Y-106143917D01*
X134758107Y-106074225D01*
X134799979Y-106018292D01*
X134865443Y-105993875D01*
X134886435Y-105994155D01*
X135000002Y-106005341D01*
X135196134Y-105986024D01*
X135384729Y-105928814D01*
X135558540Y-105835910D01*
X135710885Y-105710883D01*
X135835912Y-105558538D01*
X135928816Y-105384727D01*
X135986026Y-105196132D01*
X136005343Y-105000000D01*
X135986026Y-104803868D01*
X135928816Y-104615273D01*
X135928813Y-104615269D01*
X135928813Y-104615266D01*
X135835915Y-104441467D01*
X135835911Y-104441460D01*
X135710885Y-104289116D01*
X135558541Y-104164090D01*
X135558534Y-104164086D01*
X135384735Y-104071188D01*
X135384729Y-104071186D01*
X135196134Y-104013976D01*
X135196131Y-104013975D01*
X135106300Y-104005127D01*
X135041513Y-103978965D01*
X135030775Y-103969405D01*
X134478413Y-103417043D01*
X134409639Y-103371092D01*
X134396358Y-103362218D01*
X134355495Y-103334914D01*
X134355494Y-103334913D01*
X134355492Y-103334912D01*
X134355490Y-103334911D01*
X134218917Y-103278341D01*
X134218907Y-103278338D01*
X134073920Y-103249498D01*
X134073918Y-103249498D01*
X121706975Y-103249498D01*
X121639936Y-103229813D01*
X121628318Y-103221358D01*
X121558538Y-103164090D01*
X121558534Y-103164087D01*
X121558533Y-103164087D01*
X121558532Y-103164086D01*
X121384733Y-103071188D01*
X121384727Y-103071186D01*
X121196132Y-103013976D01*
X121196129Y-103013975D01*
X121000000Y-102994659D01*
X120803870Y-103013975D01*
X120615266Y-103071188D01*
X120441467Y-103164086D01*
X120441460Y-103164090D01*
X120289116Y-103289116D01*
X120164090Y-103441460D01*
X120164086Y-103441467D01*
X120071188Y-103615266D01*
X120013975Y-103803870D01*
X119994659Y-104000000D01*
X120013975Y-104196129D01*
X120071188Y-104384733D01*
X120164086Y-104558532D01*
X120164090Y-104558539D01*
X120289116Y-104710883D01*
X120441460Y-104835909D01*
X120441467Y-104835913D01*
X120562967Y-104900856D01*
X120615273Y-104928814D01*
X120668973Y-104945104D01*
X120720016Y-104960588D01*
X120778454Y-104998885D01*
X120806911Y-105062697D01*
X120796350Y-105131764D01*
X120771701Y-105166929D01*
X118277050Y-107661580D01*
X118277044Y-107661588D01*
X118227812Y-107735268D01*
X118227813Y-107735269D01*
X118194921Y-107784496D01*
X118194914Y-107784508D01*
X118138342Y-107921086D01*
X118138340Y-107921092D01*
X118109500Y-108066079D01*
X118109500Y-108066082D01*
X118109500Y-110933918D01*
X118109500Y-110933920D01*
X118109499Y-110933920D01*
X118138340Y-111078907D01*
X118138343Y-111078917D01*
X118194914Y-111215492D01*
X118194915Y-111215494D01*
X118194916Y-111215495D01*
X118210563Y-111238913D01*
X118227659Y-111264498D01*
X118227660Y-111264501D01*
X118277046Y-111338414D01*
X118277052Y-111338421D01*
X119086877Y-112148245D01*
X119120362Y-112209568D01*
X119122724Y-112225117D01*
X119124937Y-112250408D01*
X119186094Y-112478655D01*
X119186096Y-112478659D01*
X119186097Y-112478663D01*
X119248883Y-112613308D01*
X119285965Y-112692830D01*
X119285967Y-112692834D01*
X119366129Y-112807316D01*
X119421501Y-112886396D01*
X119421506Y-112886402D01*
X119588597Y-113053493D01*
X119588603Y-113053498D01*
X119774158Y-113183425D01*
X119817783Y-113238002D01*
X119824977Y-113307500D01*
X119793454Y-113369855D01*
X119774158Y-113386575D01*
X119588597Y-113516505D01*
X119421505Y-113683597D01*
X119285965Y-113877169D01*
X119285964Y-113877171D01*
X119186098Y-114091335D01*
X119186094Y-114091344D01*
X119124938Y-114319586D01*
X119124936Y-114319596D01*
X119104341Y-114554999D01*
X119104341Y-114555000D01*
X119124936Y-114790403D01*
X119124938Y-114790413D01*
X119186094Y-115018655D01*
X119186096Y-115018659D01*
X119186097Y-115018663D01*
X119248883Y-115153308D01*
X119285965Y-115232830D01*
X119285967Y-115232834D01*
X119421501Y-115426395D01*
X119421506Y-115426402D01*
X119588595Y-115593492D01*
X119588598Y-115593494D01*
X119588599Y-115593495D01*
X119656623Y-115641125D01*
X119700248Y-115695701D01*
X119709500Y-115742700D01*
X119709500Y-129783918D01*
X119709500Y-129783920D01*
X119709499Y-129783920D01*
X119738340Y-129928907D01*
X119738343Y-129928917D01*
X119794914Y-130065492D01*
X119827812Y-130114727D01*
X119827813Y-130114729D01*
X119853603Y-130153327D01*
X119874480Y-130220005D01*
X119874500Y-130222217D01*
X119874500Y-131922870D01*
X119874501Y-131922876D01*
X119880908Y-131982483D01*
X119931202Y-132117328D01*
X119931206Y-132117335D01*
X120017452Y-132232544D01*
X120017455Y-132232547D01*
X120132664Y-132318793D01*
X120132671Y-132318797D01*
X120267517Y-132369091D01*
X120267516Y-132369091D01*
X120274444Y-132369835D01*
X120327127Y-132375500D01*
X122672872Y-132375499D01*
X122732483Y-132369091D01*
X122867331Y-132318796D01*
X122982546Y-132232546D01*
X123068796Y-132117331D01*
X123119091Y-131982483D01*
X123125500Y-131922873D01*
X123125500Y-130999998D01*
X123694532Y-130999998D01*
X123694532Y-131000001D01*
X123714364Y-131226686D01*
X123714366Y-131226697D01*
X123773258Y-131446488D01*
X123773261Y-131446497D01*
X123869431Y-131652732D01*
X123869432Y-131652734D01*
X123999954Y-131839141D01*
X124160858Y-132000045D01*
X124160861Y-132000047D01*
X124347266Y-132130568D01*
X124553504Y-132226739D01*
X124553509Y-132226740D01*
X124553511Y-132226741D01*
X124575176Y-132232546D01*
X124773308Y-132285635D01*
X124935230Y-132299801D01*
X124999998Y-132305468D01*
X125000000Y-132305468D01*
X125000002Y-132305468D01*
X125056673Y-132300509D01*
X125226692Y-132285635D01*
X125446496Y-132226739D01*
X125652734Y-132130568D01*
X125839139Y-132000047D01*
X126000047Y-131839139D01*
X126130568Y-131652734D01*
X126226739Y-131446496D01*
X126285635Y-131226692D01*
X126305468Y-131000000D01*
X126285635Y-130773308D01*
X126226739Y-130553504D01*
X126130568Y-130347266D01*
X126032839Y-130207693D01*
X126000045Y-130160858D01*
X125839141Y-129999954D01*
X125652734Y-129869432D01*
X125652732Y-129869431D01*
X125446497Y-129773261D01*
X125446488Y-129773258D01*
X125226697Y-129714366D01*
X125226693Y-129714365D01*
X125226692Y-129714365D01*
X125226691Y-129714364D01*
X125226686Y-129714364D01*
X125000002Y-129694532D01*
X124999998Y-129694532D01*
X124773313Y-129714364D01*
X124773302Y-129714366D01*
X124553511Y-129773258D01*
X124553502Y-129773261D01*
X124347267Y-129869431D01*
X124347265Y-129869432D01*
X124160858Y-129999954D01*
X123999954Y-130160858D01*
X123869432Y-130347265D01*
X123869431Y-130347267D01*
X123773261Y-130553502D01*
X123773258Y-130553511D01*
X123714366Y-130773302D01*
X123714364Y-130773313D01*
X123694532Y-130999998D01*
X123125500Y-130999998D01*
X123125499Y-129577128D01*
X123119091Y-129517517D01*
X123081923Y-129417865D01*
X123068797Y-129382671D01*
X123068793Y-129382664D01*
X122982547Y-129267455D01*
X122982544Y-129267452D01*
X122867335Y-129181206D01*
X122867328Y-129181202D01*
X122732482Y-129130908D01*
X122732483Y-129130908D01*
X122672883Y-129124501D01*
X122672881Y-129124500D01*
X122672873Y-129124500D01*
X122672865Y-129124500D01*
X121334500Y-129124500D01*
X121267461Y-129104815D01*
X121221706Y-129052011D01*
X121210500Y-129000500D01*
X121210500Y-125429997D01*
X121744723Y-125429997D01*
X121744723Y-125430002D01*
X121763793Y-125647975D01*
X121763793Y-125647979D01*
X121820422Y-125859322D01*
X121820424Y-125859326D01*
X121820425Y-125859330D01*
X121866661Y-125958484D01*
X121912897Y-126057638D01*
X121912898Y-126057639D01*
X122038402Y-126236877D01*
X122193123Y-126391598D01*
X122372361Y-126517102D01*
X122570670Y-126609575D01*
X122782023Y-126666207D01*
X122964926Y-126682208D01*
X122999998Y-126685277D01*
X123000000Y-126685277D01*
X123000002Y-126685277D01*
X123028254Y-126682805D01*
X123217977Y-126666207D01*
X123429330Y-126609575D01*
X123627639Y-126517102D01*
X123806877Y-126391598D01*
X123961598Y-126236877D01*
X124087102Y-126057639D01*
X124179575Y-125859330D01*
X124236207Y-125647977D01*
X124255277Y-125430000D01*
X124236207Y-125212023D01*
X124179575Y-125000670D01*
X124087102Y-124802362D01*
X124087100Y-124802359D01*
X124087099Y-124802357D01*
X123961599Y-124623124D01*
X123961596Y-124623121D01*
X123806877Y-124468402D01*
X123627639Y-124342898D01*
X123627640Y-124342898D01*
X123627638Y-124342897D01*
X123504834Y-124285633D01*
X123429330Y-124250425D01*
X123429326Y-124250424D01*
X123429322Y-124250422D01*
X123217977Y-124193793D01*
X123000002Y-124174723D01*
X122999998Y-124174723D01*
X122854682Y-124187436D01*
X122782023Y-124193793D01*
X122782020Y-124193793D01*
X122570677Y-124250422D01*
X122570668Y-124250426D01*
X122372361Y-124342898D01*
X122372357Y-124342900D01*
X122193121Y-124468402D01*
X122038402Y-124623121D01*
X121912900Y-124802357D01*
X121912898Y-124802361D01*
X121820426Y-125000668D01*
X121820422Y-125000677D01*
X121763793Y-125212020D01*
X121763793Y-125212024D01*
X121744723Y-125429997D01*
X121210500Y-125429997D01*
X121210500Y-120549997D01*
X121744723Y-120549997D01*
X121744723Y-120550002D01*
X121763793Y-120767975D01*
X121763793Y-120767979D01*
X121820422Y-120979322D01*
X121820424Y-120979326D01*
X121820425Y-120979330D01*
X121866661Y-121078484D01*
X121912897Y-121177638D01*
X121912898Y-121177639D01*
X122038402Y-121356877D01*
X122193123Y-121511598D01*
X122372361Y-121637102D01*
X122570670Y-121729575D01*
X122782023Y-121786207D01*
X122964926Y-121802208D01*
X122999998Y-121805277D01*
X123000000Y-121805277D01*
X123000002Y-121805277D01*
X123028254Y-121802805D01*
X123217977Y-121786207D01*
X123429330Y-121729575D01*
X123627639Y-121637102D01*
X123806877Y-121511598D01*
X123961598Y-121356877D01*
X124087102Y-121177639D01*
X124179575Y-120979330D01*
X124236207Y-120767977D01*
X124255277Y-120550000D01*
X124253163Y-120525841D01*
X124247403Y-120459998D01*
X124236207Y-120332023D01*
X124184637Y-120139561D01*
X124179577Y-120120677D01*
X124179576Y-120120676D01*
X124179575Y-120120670D01*
X124087102Y-119922362D01*
X124087100Y-119922359D01*
X124087099Y-119922357D01*
X123961599Y-119743124D01*
X123899677Y-119681202D01*
X123806877Y-119588402D01*
X123627639Y-119462898D01*
X123627640Y-119462898D01*
X123627638Y-119462897D01*
X123528484Y-119416661D01*
X123429330Y-119370425D01*
X123429326Y-119370424D01*
X123429322Y-119370422D01*
X123217977Y-119313793D01*
X123000002Y-119294723D01*
X122999998Y-119294723D01*
X122854682Y-119307436D01*
X122782023Y-119313793D01*
X122782020Y-119313793D01*
X122570677Y-119370422D01*
X122570668Y-119370426D01*
X122372361Y-119462898D01*
X122372357Y-119462900D01*
X122193121Y-119588402D01*
X122038402Y-119743121D01*
X121912900Y-119922357D01*
X121912898Y-119922361D01*
X121820426Y-120120668D01*
X121820422Y-120120677D01*
X121763793Y-120332020D01*
X121763793Y-120332024D01*
X121744723Y-120549997D01*
X121210500Y-120549997D01*
X121210500Y-115742700D01*
X121230185Y-115675661D01*
X121263375Y-115641126D01*
X121331401Y-115593495D01*
X121498495Y-115426401D01*
X121634035Y-115232830D01*
X121733903Y-115018663D01*
X121795063Y-114790408D01*
X121815659Y-114555000D01*
X121795063Y-114319592D01*
X121733903Y-114091337D01*
X121634035Y-113877171D01*
X121608040Y-113840045D01*
X121498494Y-113683597D01*
X121331402Y-113516506D01*
X121331396Y-113516501D01*
X121145842Y-113386575D01*
X121102217Y-113331998D01*
X121095023Y-113262500D01*
X121126546Y-113200145D01*
X121145842Y-113183425D01*
X121168026Y-113167891D01*
X121331401Y-113053495D01*
X121498495Y-112886401D01*
X121628425Y-112700842D01*
X121683002Y-112657217D01*
X121752500Y-112650023D01*
X121814855Y-112681546D01*
X121831575Y-112700842D01*
X121961500Y-112886395D01*
X121961505Y-112886401D01*
X122128599Y-113053495D01*
X122225384Y-113121265D01*
X122322165Y-113189032D01*
X122322167Y-113189033D01*
X122322170Y-113189035D01*
X122536337Y-113288903D01*
X122764592Y-113350063D01*
X122952918Y-113366539D01*
X122999999Y-113370659D01*
X123000000Y-113370659D01*
X123000001Y-113370659D01*
X123039234Y-113367226D01*
X123235408Y-113350063D01*
X123463663Y-113288903D01*
X123677830Y-113189035D01*
X123871401Y-113053495D01*
X124038495Y-112886401D01*
X124174035Y-112692830D01*
X124273903Y-112478663D01*
X124335063Y-112250408D01*
X124355659Y-112015000D01*
X124335063Y-111779592D01*
X124273903Y-111551337D01*
X124174035Y-111337171D01*
X124168425Y-111329158D01*
X124038494Y-111143597D01*
X123871402Y-110976506D01*
X123871396Y-110976501D01*
X123685842Y-110846575D01*
X123642217Y-110791998D01*
X123635023Y-110722500D01*
X123666546Y-110660145D01*
X123685842Y-110643425D01*
X123708026Y-110627891D01*
X123871401Y-110513495D01*
X124038495Y-110346401D01*
X124174035Y-110152830D01*
X124273903Y-109938663D01*
X124335063Y-109710408D01*
X124355659Y-109475000D01*
X124335063Y-109239592D01*
X124273903Y-109011337D01*
X124187478Y-108825999D01*
X124176986Y-108756921D01*
X124205506Y-108693137D01*
X124241405Y-108664237D01*
X124317301Y-108623670D01*
X124420901Y-108538646D01*
X124485210Y-108511334D01*
X124499566Y-108510500D01*
X128777649Y-108510500D01*
X128844688Y-108530185D01*
X128890443Y-108582989D01*
X128900939Y-108621248D01*
X128905908Y-108667483D01*
X128956202Y-108802328D01*
X128956206Y-108802335D01*
X129042452Y-108917544D01*
X129042455Y-108917547D01*
X129157664Y-109003793D01*
X129157671Y-109003797D01*
X129177882Y-109011335D01*
X129292517Y-109054091D01*
X129327596Y-109057862D01*
X129392144Y-109084599D01*
X129431993Y-109141991D01*
X129434488Y-109211816D01*
X129398836Y-109271905D01*
X129385464Y-109282725D01*
X129360858Y-109299954D01*
X129199954Y-109460858D01*
X129069432Y-109647265D01*
X129069431Y-109647267D01*
X128973261Y-109853502D01*
X128973258Y-109853511D01*
X128914366Y-110073302D01*
X128914364Y-110073313D01*
X128894532Y-110299998D01*
X128894532Y-110300001D01*
X128914364Y-110526686D01*
X128914366Y-110526697D01*
X128973258Y-110746488D01*
X128973261Y-110746497D01*
X129069431Y-110952732D01*
X129069432Y-110952734D01*
X129199954Y-111139141D01*
X129360858Y-111300045D01*
X129360861Y-111300047D01*
X129547266Y-111430568D01*
X129605275Y-111457618D01*
X129657714Y-111503791D01*
X129676866Y-111570984D01*
X129656650Y-111637865D01*
X129605275Y-111682382D01*
X129547267Y-111709431D01*
X129547265Y-111709432D01*
X129360858Y-111839954D01*
X129199954Y-112000858D01*
X129069432Y-112187265D01*
X129069431Y-112187267D01*
X128973261Y-112393502D01*
X128973258Y-112393511D01*
X128914366Y-112613302D01*
X128914364Y-112613313D01*
X128894532Y-112839998D01*
X128894532Y-112840001D01*
X128914364Y-113066686D01*
X128914366Y-113066697D01*
X128973258Y-113286488D01*
X128973261Y-113286497D01*
X129069431Y-113492732D01*
X129069432Y-113492734D01*
X129199954Y-113679141D01*
X129360858Y-113840045D01*
X129360861Y-113840047D01*
X129547266Y-113970568D01*
X129605275Y-113997618D01*
X129657714Y-114043791D01*
X129676866Y-114110984D01*
X129656650Y-114177865D01*
X129605275Y-114222382D01*
X129547267Y-114249431D01*
X129547265Y-114249432D01*
X129360858Y-114379954D01*
X129199954Y-114540858D01*
X129069432Y-114727265D01*
X129069431Y-114727267D01*
X128973261Y-114933502D01*
X128973258Y-114933511D01*
X128914366Y-115153302D01*
X128914364Y-115153313D01*
X128894532Y-115379998D01*
X128894532Y-115380001D01*
X128914364Y-115606686D01*
X128914366Y-115606697D01*
X128973258Y-115826488D01*
X128973261Y-115826497D01*
X129069431Y-116032732D01*
X129069432Y-116032734D01*
X129199954Y-116219141D01*
X129360858Y-116380045D01*
X129360861Y-116380047D01*
X129547266Y-116510568D01*
X129605275Y-116537618D01*
X129657714Y-116583791D01*
X129676866Y-116650984D01*
X129656650Y-116717865D01*
X129605275Y-116762382D01*
X129547267Y-116789431D01*
X129547265Y-116789432D01*
X129360858Y-116919954D01*
X129199954Y-117080858D01*
X129069432Y-117267265D01*
X129069431Y-117267267D01*
X128973261Y-117473502D01*
X128973258Y-117473511D01*
X128914366Y-117693302D01*
X128914364Y-117693313D01*
X128894532Y-117919998D01*
X128894532Y-117920001D01*
X128914364Y-118146686D01*
X128914366Y-118146697D01*
X128973258Y-118366488D01*
X128973261Y-118366497D01*
X129069431Y-118572732D01*
X129069432Y-118572734D01*
X129199954Y-118759141D01*
X129360858Y-118920045D01*
X129360861Y-118920047D01*
X129547266Y-119050568D01*
X129605275Y-119077618D01*
X129657714Y-119123791D01*
X129676866Y-119190984D01*
X129656650Y-119257865D01*
X129605275Y-119302382D01*
X129547267Y-119329431D01*
X129547265Y-119329432D01*
X129360858Y-119459954D01*
X129199954Y-119620858D01*
X129069432Y-119807265D01*
X129069431Y-119807267D01*
X128973261Y-120013502D01*
X128973258Y-120013511D01*
X128914366Y-120233302D01*
X128914364Y-120233313D01*
X128894532Y-120459998D01*
X128894532Y-120460001D01*
X128914364Y-120686686D01*
X128914366Y-120686697D01*
X128973258Y-120906488D01*
X128973261Y-120906497D01*
X129069431Y-121112732D01*
X129069432Y-121112734D01*
X129199954Y-121299141D01*
X129360858Y-121460045D01*
X129360861Y-121460047D01*
X129547266Y-121590568D01*
X129605275Y-121617618D01*
X129657714Y-121663791D01*
X129676866Y-121730984D01*
X129656650Y-121797865D01*
X129605275Y-121842382D01*
X129547267Y-121869431D01*
X129547265Y-121869432D01*
X129360858Y-121999954D01*
X129199954Y-122160858D01*
X129069432Y-122347265D01*
X129069431Y-122347267D01*
X128973261Y-122553502D01*
X128973258Y-122553511D01*
X128914366Y-122773302D01*
X128914364Y-122773313D01*
X128894532Y-122999998D01*
X128894532Y-123000001D01*
X128914364Y-123226686D01*
X128914366Y-123226697D01*
X128973258Y-123446488D01*
X128973261Y-123446497D01*
X129069431Y-123652732D01*
X129069432Y-123652734D01*
X129199954Y-123839141D01*
X129360858Y-124000045D01*
X129360861Y-124000047D01*
X129547266Y-124130568D01*
X129605275Y-124157618D01*
X129657714Y-124203791D01*
X129676866Y-124270984D01*
X129656650Y-124337865D01*
X129605275Y-124382382D01*
X129547267Y-124409431D01*
X129547265Y-124409432D01*
X129360858Y-124539954D01*
X129199954Y-124700858D01*
X129069432Y-124887265D01*
X129069431Y-124887267D01*
X128973261Y-125093502D01*
X128973258Y-125093511D01*
X128914366Y-125313302D01*
X128914364Y-125313313D01*
X128894532Y-125539998D01*
X128894532Y-125540001D01*
X128914364Y-125766686D01*
X128914366Y-125766697D01*
X128973258Y-125986488D01*
X128973261Y-125986497D01*
X129069431Y-126192732D01*
X129069432Y-126192734D01*
X129199954Y-126379141D01*
X129360858Y-126540045D01*
X129360861Y-126540047D01*
X129547266Y-126670568D01*
X129605275Y-126697618D01*
X129657714Y-126743791D01*
X129676866Y-126810984D01*
X129656650Y-126877865D01*
X129605275Y-126922382D01*
X129547267Y-126949431D01*
X129547265Y-126949432D01*
X129360858Y-127079954D01*
X129199954Y-127240858D01*
X129069432Y-127427265D01*
X129069431Y-127427267D01*
X128973261Y-127633502D01*
X128973258Y-127633511D01*
X128914366Y-127853302D01*
X128914364Y-127853313D01*
X128894532Y-128079998D01*
X128894532Y-128080001D01*
X128914364Y-128306686D01*
X128914366Y-128306697D01*
X128973258Y-128526488D01*
X128973261Y-128526497D01*
X129069431Y-128732732D01*
X129069432Y-128732734D01*
X129199954Y-128919141D01*
X129360858Y-129080045D01*
X129360861Y-129080047D01*
X129547266Y-129210568D01*
X129753504Y-129306739D01*
X129973308Y-129365635D01*
X130135230Y-129379801D01*
X130199998Y-129385468D01*
X130200000Y-129385468D01*
X130200002Y-129385468D01*
X130256673Y-129380509D01*
X130426692Y-129365635D01*
X130646496Y-129306739D01*
X130852734Y-129210568D01*
X131039139Y-129080047D01*
X131200047Y-128919139D01*
X131330568Y-128732734D01*
X131426739Y-128526496D01*
X131485635Y-128306692D01*
X131505468Y-128080000D01*
X131485635Y-127853308D01*
X131426739Y-127633504D01*
X131330568Y-127427266D01*
X131200047Y-127240861D01*
X131200045Y-127240858D01*
X131039141Y-127079954D01*
X130852734Y-126949432D01*
X130852728Y-126949429D01*
X130794725Y-126922382D01*
X130742285Y-126876210D01*
X130723133Y-126809017D01*
X130743348Y-126742135D01*
X130794725Y-126697618D01*
X130852734Y-126670568D01*
X131039139Y-126540047D01*
X131200047Y-126379139D01*
X131330568Y-126192734D01*
X131426739Y-125986496D01*
X131485635Y-125766692D01*
X131505468Y-125540000D01*
X131503579Y-125518414D01*
X131485635Y-125313313D01*
X131485635Y-125313308D01*
X131426739Y-125093504D01*
X131330568Y-124887266D01*
X131200047Y-124700861D01*
X131200045Y-124700858D01*
X131039141Y-124539954D01*
X130852734Y-124409432D01*
X130852728Y-124409429D01*
X130794725Y-124382382D01*
X130742285Y-124336210D01*
X130723133Y-124269017D01*
X130743348Y-124202135D01*
X130794725Y-124157618D01*
X130852734Y-124130568D01*
X131039139Y-124000047D01*
X131200047Y-123839139D01*
X131330568Y-123652734D01*
X131426739Y-123446496D01*
X131485635Y-123226692D01*
X131505468Y-123000000D01*
X131485635Y-122773308D01*
X131426739Y-122553504D01*
X131330568Y-122347266D01*
X131215231Y-122182546D01*
X131200045Y-122160858D01*
X131039141Y-121999954D01*
X130852734Y-121869432D01*
X130852728Y-121869429D01*
X130794725Y-121842382D01*
X130742285Y-121796210D01*
X130723133Y-121729017D01*
X130743348Y-121662135D01*
X130794725Y-121617618D01*
X130852734Y-121590568D01*
X131039139Y-121460047D01*
X131200047Y-121299139D01*
X131330568Y-121112734D01*
X131426739Y-120906496D01*
X131485635Y-120686692D01*
X131505468Y-120460000D01*
X131485635Y-120233308D01*
X131426739Y-120013504D01*
X131330568Y-119807266D01*
X131200047Y-119620861D01*
X131200045Y-119620858D01*
X131039141Y-119459954D01*
X130852734Y-119329432D01*
X130852728Y-119329429D01*
X130794725Y-119302382D01*
X130742285Y-119256210D01*
X130723133Y-119189017D01*
X130743348Y-119122135D01*
X130794725Y-119077618D01*
X130852734Y-119050568D01*
X131039139Y-118920047D01*
X131200047Y-118759139D01*
X131330568Y-118572734D01*
X131426739Y-118366496D01*
X131485635Y-118146692D01*
X131505468Y-117920000D01*
X131485635Y-117693308D01*
X131426739Y-117473504D01*
X131330568Y-117267266D01*
X131200047Y-117080861D01*
X131200045Y-117080858D01*
X131039141Y-116919954D01*
X130852734Y-116789432D01*
X130852728Y-116789429D01*
X130794725Y-116762382D01*
X130742285Y-116716210D01*
X130723133Y-116649017D01*
X130743348Y-116582135D01*
X130794725Y-116537618D01*
X130852734Y-116510568D01*
X131039139Y-116380047D01*
X131200047Y-116219139D01*
X131330568Y-116032734D01*
X131426739Y-115826496D01*
X131485635Y-115606692D01*
X131505468Y-115380000D01*
X131503723Y-115360060D01*
X131497858Y-115293021D01*
X131485635Y-115153308D01*
X131426739Y-114933504D01*
X131330568Y-114727266D01*
X131209947Y-114555000D01*
X131200045Y-114540858D01*
X131039141Y-114379954D01*
X130852734Y-114249432D01*
X130852728Y-114249429D01*
X130794725Y-114222382D01*
X130742285Y-114176210D01*
X130723133Y-114109017D01*
X130743348Y-114042135D01*
X130794725Y-113997618D01*
X130852734Y-113970568D01*
X131039139Y-113840047D01*
X131200047Y-113679139D01*
X131330568Y-113492734D01*
X131426739Y-113286496D01*
X131485635Y-113066692D01*
X131505468Y-112840000D01*
X131485635Y-112613308D01*
X131426739Y-112393504D01*
X131330568Y-112187266D01*
X131209947Y-112015000D01*
X131200045Y-112000858D01*
X131039141Y-111839954D01*
X130852734Y-111709432D01*
X130852728Y-111709429D01*
X130794725Y-111682382D01*
X130742285Y-111636210D01*
X130723133Y-111569017D01*
X130743348Y-111502135D01*
X130794725Y-111457618D01*
X130852734Y-111430568D01*
X131039139Y-111300047D01*
X131200047Y-111139139D01*
X131330568Y-110952734D01*
X131426739Y-110746496D01*
X131485635Y-110526692D01*
X131505468Y-110300000D01*
X131485635Y-110073308D01*
X131426739Y-109853504D01*
X131330568Y-109647266D01*
X131209947Y-109475000D01*
X131200045Y-109460858D01*
X131039143Y-109299956D01*
X131014536Y-109282726D01*
X130970912Y-109228149D01*
X130963719Y-109158650D01*
X130995241Y-109096296D01*
X131055471Y-109060882D01*
X131072404Y-109057861D01*
X131107483Y-109054091D01*
X131242331Y-109003796D01*
X131357546Y-108917546D01*
X131443796Y-108802331D01*
X131494091Y-108667483D01*
X131500500Y-108607873D01*
X131500499Y-107321227D01*
X131520184Y-107254189D01*
X131572987Y-107208434D01*
X131642146Y-107198490D01*
X131705702Y-107227515D01*
X131712180Y-107233547D01*
X135213181Y-110734548D01*
X135246666Y-110795871D01*
X135249500Y-110822229D01*
X135249500Y-111093918D01*
X135249500Y-111093920D01*
X135249499Y-111093920D01*
X135278340Y-111238907D01*
X135278343Y-111238917D01*
X135334914Y-111375492D01*
X135367812Y-111424727D01*
X135367813Y-111424730D01*
X135417046Y-111498414D01*
X135417052Y-111498421D01*
X136493282Y-112574650D01*
X136526767Y-112635973D01*
X136529129Y-112673137D01*
X136514532Y-112839996D01*
X136514532Y-112840001D01*
X136534364Y-113066686D01*
X136534366Y-113066697D01*
X136593258Y-113286488D01*
X136593261Y-113286497D01*
X136689431Y-113492732D01*
X136689432Y-113492734D01*
X136819954Y-113679141D01*
X136980858Y-113840045D01*
X136980861Y-113840047D01*
X137167266Y-113970568D01*
X137225275Y-113997618D01*
X137277714Y-114043791D01*
X137296866Y-114110984D01*
X137276650Y-114177865D01*
X137225275Y-114222382D01*
X137167267Y-114249431D01*
X137167265Y-114249432D01*
X136980858Y-114379954D01*
X136819954Y-114540858D01*
X136689432Y-114727265D01*
X136689431Y-114727267D01*
X136593261Y-114933502D01*
X136593258Y-114933511D01*
X136534366Y-115153302D01*
X136534364Y-115153313D01*
X136514532Y-115379998D01*
X136514532Y-115380001D01*
X136534364Y-115606686D01*
X136534366Y-115606697D01*
X136593258Y-115826488D01*
X136593261Y-115826497D01*
X136689431Y-116032732D01*
X136689432Y-116032734D01*
X136819954Y-116219141D01*
X136980858Y-116380045D01*
X136980861Y-116380047D01*
X137167266Y-116510568D01*
X137225275Y-116537618D01*
X137277714Y-116583791D01*
X137296866Y-116650984D01*
X137276650Y-116717865D01*
X137225275Y-116762382D01*
X137167267Y-116789431D01*
X137167265Y-116789432D01*
X136980858Y-116919954D01*
X136819954Y-117080858D01*
X136689432Y-117267265D01*
X136689431Y-117267267D01*
X136593261Y-117473502D01*
X136593258Y-117473511D01*
X136534366Y-117693302D01*
X136534364Y-117693313D01*
X136514532Y-117919998D01*
X136514532Y-117920001D01*
X136534364Y-118146686D01*
X136534366Y-118146697D01*
X136593258Y-118366488D01*
X136593261Y-118366497D01*
X136689431Y-118572732D01*
X136689432Y-118572734D01*
X136819954Y-118759141D01*
X136980858Y-118920045D01*
X136980861Y-118920047D01*
X137167266Y-119050568D01*
X137225275Y-119077618D01*
X137277714Y-119123791D01*
X137296866Y-119190984D01*
X137276650Y-119257865D01*
X137225275Y-119302382D01*
X137167267Y-119329431D01*
X137167265Y-119329432D01*
X136980858Y-119459954D01*
X136819954Y-119620858D01*
X136689432Y-119807265D01*
X136689431Y-119807267D01*
X136593261Y-120013502D01*
X136593258Y-120013511D01*
X136534366Y-120233302D01*
X136534364Y-120233313D01*
X136514532Y-120459998D01*
X136514532Y-120460001D01*
X136534364Y-120686686D01*
X136534366Y-120686697D01*
X136593258Y-120906488D01*
X136593261Y-120906497D01*
X136689431Y-121112732D01*
X136689432Y-121112734D01*
X136819954Y-121299141D01*
X136980858Y-121460045D01*
X136980861Y-121460047D01*
X137167266Y-121590568D01*
X137225275Y-121617618D01*
X137277714Y-121663791D01*
X137296866Y-121730984D01*
X137276650Y-121797865D01*
X137225275Y-121842382D01*
X137167267Y-121869431D01*
X137167265Y-121869432D01*
X136980858Y-121999954D01*
X136819954Y-122160858D01*
X136689432Y-122347265D01*
X136689431Y-122347267D01*
X136593261Y-122553502D01*
X136593258Y-122553511D01*
X136534366Y-122773302D01*
X136534364Y-122773313D01*
X136514532Y-122999998D01*
X136514532Y-123000001D01*
X136534364Y-123226686D01*
X136534366Y-123226697D01*
X136593258Y-123446488D01*
X136593261Y-123446497D01*
X136689431Y-123652732D01*
X136689432Y-123652734D01*
X136819954Y-123839141D01*
X136980858Y-124000045D01*
X136980861Y-124000047D01*
X137167266Y-124130568D01*
X137225275Y-124157618D01*
X137277714Y-124203791D01*
X137296866Y-124270984D01*
X137276650Y-124337865D01*
X137225275Y-124382382D01*
X137167267Y-124409431D01*
X137167265Y-124409432D01*
X136980858Y-124539954D01*
X136819954Y-124700858D01*
X136689432Y-124887265D01*
X136689431Y-124887267D01*
X136593261Y-125093502D01*
X136593258Y-125093511D01*
X136534366Y-125313302D01*
X136534364Y-125313313D01*
X136514532Y-125539998D01*
X136514532Y-125540001D01*
X136534364Y-125766686D01*
X136534366Y-125766697D01*
X136593258Y-125986488D01*
X136593261Y-125986497D01*
X136689431Y-126192732D01*
X136689432Y-126192734D01*
X136819954Y-126379141D01*
X136980858Y-126540045D01*
X136980861Y-126540047D01*
X137167266Y-126670568D01*
X137225275Y-126697618D01*
X137277714Y-126743791D01*
X137296866Y-126810984D01*
X137276650Y-126877865D01*
X137225275Y-126922382D01*
X137167267Y-126949431D01*
X137167265Y-126949432D01*
X136980858Y-127079954D01*
X136819954Y-127240858D01*
X136689432Y-127427265D01*
X136689431Y-127427267D01*
X136593261Y-127633502D01*
X136593258Y-127633511D01*
X136534366Y-127853302D01*
X136534364Y-127853313D01*
X136514532Y-128079998D01*
X136514532Y-128080001D01*
X136534364Y-128306686D01*
X136534366Y-128306697D01*
X136593258Y-128526488D01*
X136593261Y-128526497D01*
X136689431Y-128732732D01*
X136689432Y-128732734D01*
X136819954Y-128919141D01*
X136980858Y-129080045D01*
X136980861Y-129080047D01*
X137167266Y-129210568D01*
X137225275Y-129237618D01*
X137277714Y-129283791D01*
X137296866Y-129350984D01*
X137276650Y-129417865D01*
X137225275Y-129462382D01*
X137167267Y-129489431D01*
X137167265Y-129489432D01*
X136980858Y-129619954D01*
X136819954Y-129780858D01*
X136689432Y-129967265D01*
X136689431Y-129967267D01*
X136593261Y-130173502D01*
X136593258Y-130173511D01*
X136534366Y-130393302D01*
X136534364Y-130393313D01*
X136514532Y-130619998D01*
X136514532Y-130620001D01*
X136534364Y-130846686D01*
X136534366Y-130846697D01*
X136593258Y-131066488D01*
X136593261Y-131066497D01*
X136689431Y-131272732D01*
X136689432Y-131272734D01*
X136819954Y-131459141D01*
X136980858Y-131620045D01*
X136980861Y-131620047D01*
X137167266Y-131750568D01*
X137373504Y-131846739D01*
X137593308Y-131905635D01*
X137755230Y-131919801D01*
X137819998Y-131925468D01*
X137820000Y-131925468D01*
X137820002Y-131925468D01*
X137876673Y-131920509D01*
X138046692Y-131905635D01*
X138266496Y-131846739D01*
X138472734Y-131750568D01*
X138659139Y-131620047D01*
X138820047Y-131459139D01*
X138950568Y-131272734D01*
X139046739Y-131066496D01*
X139105635Y-130846692D01*
X139125468Y-130620000D01*
X139110869Y-130453137D01*
X139124635Y-130384639D01*
X139146713Y-130354653D01*
X140437821Y-129063544D01*
X140499142Y-129030061D01*
X140568834Y-129035045D01*
X140624767Y-129076917D01*
X140649184Y-129142381D01*
X140649500Y-129151227D01*
X140649500Y-130357870D01*
X140649501Y-130357876D01*
X140655908Y-130417483D01*
X140706202Y-130552328D01*
X140706206Y-130552335D01*
X140792452Y-130667544D01*
X140792455Y-130667547D01*
X140907664Y-130753793D01*
X140907671Y-130753797D01*
X141042517Y-130804091D01*
X141042516Y-130804091D01*
X141049444Y-130804835D01*
X141102127Y-130810500D01*
X142897872Y-130810499D01*
X142957483Y-130804091D01*
X143092331Y-130753796D01*
X143207546Y-130667546D01*
X143293796Y-130552331D01*
X143344091Y-130417483D01*
X143350500Y-130357873D01*
X143350499Y-128562128D01*
X143344091Y-128502517D01*
X143293796Y-128367669D01*
X143293795Y-128367668D01*
X143293793Y-128367664D01*
X143207547Y-128252455D01*
X143207544Y-128252452D01*
X143092335Y-128166206D01*
X143092328Y-128166202D01*
X142957482Y-128115908D01*
X142957483Y-128115908D01*
X142897883Y-128109501D01*
X142897881Y-128109500D01*
X142897873Y-128109500D01*
X142897865Y-128109500D01*
X141453886Y-128109500D01*
X141386847Y-128089815D01*
X141341092Y-128037011D01*
X141331148Y-127967853D01*
X141332269Y-127961309D01*
X141339508Y-127924912D01*
X141339509Y-127924909D01*
X141339509Y-122934108D01*
X153499500Y-122934108D01*
X153499500Y-125065892D01*
X153512368Y-125113918D01*
X153533608Y-125193187D01*
X153544484Y-125212024D01*
X153599500Y-125307314D01*
X153692686Y-125400500D01*
X153806814Y-125466392D01*
X153934108Y-125500500D01*
X153934110Y-125500500D01*
X159065890Y-125500500D01*
X159065892Y-125500500D01*
X159193186Y-125466392D01*
X159307314Y-125400500D01*
X159400500Y-125307314D01*
X159466392Y-125193186D01*
X159500500Y-125065892D01*
X159500500Y-122934108D01*
X159466392Y-122806814D01*
X159400500Y-122692686D01*
X159307314Y-122599500D01*
X159227647Y-122553504D01*
X159193187Y-122533608D01*
X159129539Y-122516554D01*
X159065892Y-122499500D01*
X154065892Y-122499500D01*
X153934108Y-122499500D01*
X153806812Y-122533608D01*
X153692686Y-122599500D01*
X153692683Y-122599502D01*
X153599502Y-122692683D01*
X153599500Y-122692686D01*
X153533608Y-122806812D01*
X153526554Y-122833139D01*
X153499500Y-122934108D01*
X141339509Y-122934108D01*
X141339509Y-120295985D01*
X141359194Y-120228946D01*
X141367641Y-120217338D01*
X141424919Y-120147547D01*
X141437760Y-120123523D01*
X141462555Y-120077135D01*
X144124500Y-120077135D01*
X144124500Y-121872870D01*
X144124501Y-121872876D01*
X144130908Y-121932483D01*
X144181202Y-122067328D01*
X144181206Y-122067335D01*
X144267452Y-122182544D01*
X144267455Y-122182547D01*
X144382664Y-122268793D01*
X144382671Y-122268797D01*
X144517517Y-122319091D01*
X144517516Y-122319091D01*
X144524444Y-122319835D01*
X144577127Y-122325500D01*
X146372872Y-122325499D01*
X146432483Y-122319091D01*
X146567331Y-122268796D01*
X146682546Y-122182546D01*
X146768796Y-122067331D01*
X146819091Y-121932483D01*
X146825500Y-121872873D01*
X146825499Y-120974999D01*
X149199341Y-120974999D01*
X149199341Y-120975000D01*
X149219936Y-121210403D01*
X149219938Y-121210413D01*
X149281094Y-121438655D01*
X149281096Y-121438659D01*
X149281097Y-121438663D01*
X149351931Y-121590567D01*
X149380965Y-121652830D01*
X149380967Y-121652834D01*
X149465292Y-121773261D01*
X149516505Y-121846401D01*
X149683599Y-122013495D01*
X149780384Y-122081265D01*
X149877165Y-122149032D01*
X149877167Y-122149033D01*
X149877170Y-122149035D01*
X150091337Y-122248903D01*
X150319592Y-122310063D01*
X150496034Y-122325500D01*
X150554999Y-122330659D01*
X150555000Y-122330659D01*
X150555001Y-122330659D01*
X150613966Y-122325500D01*
X150790408Y-122310063D01*
X151018663Y-122248903D01*
X151232830Y-122149035D01*
X151426401Y-122013495D01*
X151593495Y-121846401D01*
X151729035Y-121652830D01*
X151828903Y-121438663D01*
X151890063Y-121210408D01*
X151910659Y-120975000D01*
X151890063Y-120739592D01*
X151828903Y-120511337D01*
X151729035Y-120297171D01*
X151718153Y-120281629D01*
X151593494Y-120103597D01*
X151426402Y-119936506D01*
X151426395Y-119936501D01*
X151406195Y-119922357D01*
X151349518Y-119882671D01*
X151232834Y-119800967D01*
X151232830Y-119800965D01*
X151198889Y-119785138D01*
X151018663Y-119701097D01*
X151018659Y-119701096D01*
X151018655Y-119701094D01*
X150790413Y-119639938D01*
X150790403Y-119639936D01*
X150555001Y-119619341D01*
X150554999Y-119619341D01*
X150319596Y-119639936D01*
X150319586Y-119639938D01*
X150091344Y-119701094D01*
X150091335Y-119701098D01*
X149877171Y-119800964D01*
X149877169Y-119800965D01*
X149683597Y-119936505D01*
X149516505Y-120103597D01*
X149380965Y-120297169D01*
X149380964Y-120297171D01*
X149281098Y-120511335D01*
X149281094Y-120511344D01*
X149219938Y-120739586D01*
X149219936Y-120739596D01*
X149199341Y-120974999D01*
X146825499Y-120974999D01*
X146825499Y-120077128D01*
X146819091Y-120017517D01*
X146817594Y-120013504D01*
X146768797Y-119882671D01*
X146768793Y-119882664D01*
X146682547Y-119767455D01*
X146682544Y-119767452D01*
X146567335Y-119681206D01*
X146567328Y-119681202D01*
X146432482Y-119630908D01*
X146432483Y-119630908D01*
X146372883Y-119624501D01*
X146372881Y-119624500D01*
X146372873Y-119624500D01*
X146372864Y-119624500D01*
X144577129Y-119624500D01*
X144577123Y-119624501D01*
X144517516Y-119630908D01*
X144382671Y-119681202D01*
X144382664Y-119681206D01*
X144267455Y-119767452D01*
X144267452Y-119767455D01*
X144181206Y-119882664D01*
X144181202Y-119882671D01*
X144130908Y-120017517D01*
X144124501Y-120077116D01*
X144124501Y-120077123D01*
X144124500Y-120077135D01*
X141462555Y-120077135D01*
X141517820Y-119973742D01*
X141517822Y-119973737D01*
X141517823Y-119973736D01*
X141575033Y-119785141D01*
X141594350Y-119589009D01*
X141575033Y-119392877D01*
X141517823Y-119204282D01*
X141517820Y-119204278D01*
X141517820Y-119204275D01*
X141424922Y-119030476D01*
X141424918Y-119030469D01*
X141361476Y-118953165D01*
X141334163Y-118888855D01*
X141345954Y-118819987D01*
X141393106Y-118768427D01*
X141457329Y-118750500D01*
X147293022Y-118750500D01*
X147360061Y-118770185D01*
X147371687Y-118778647D01*
X147441460Y-118835909D01*
X147441467Y-118835913D01*
X147615266Y-118928811D01*
X147615269Y-118928811D01*
X147615273Y-118928814D01*
X147803868Y-118986024D01*
X148000000Y-119005341D01*
X148196132Y-118986024D01*
X148384727Y-118928814D01*
X148558538Y-118835910D01*
X148710883Y-118710883D01*
X148835910Y-118558538D01*
X148928814Y-118384727D01*
X148986024Y-118196132D01*
X149005341Y-118000000D01*
X148986024Y-117803868D01*
X148928814Y-117615273D01*
X148928811Y-117615269D01*
X148928811Y-117615266D01*
X148835913Y-117441467D01*
X148835909Y-117441460D01*
X148710883Y-117289116D01*
X148558539Y-117164090D01*
X148558532Y-117164086D01*
X148384733Y-117071188D01*
X148384727Y-117071186D01*
X148196132Y-117013976D01*
X148196129Y-117013975D01*
X148000000Y-116994659D01*
X147803870Y-117013975D01*
X147615266Y-117071188D01*
X147441467Y-117164086D01*
X147441460Y-117164090D01*
X147371687Y-117221353D01*
X147307377Y-117248666D01*
X147293022Y-117249500D01*
X141795091Y-117249500D01*
X141749772Y-117236192D01*
X141728014Y-117247328D01*
X141704909Y-117249500D01*
X140206080Y-117249500D01*
X140061092Y-117278340D01*
X140061082Y-117278343D01*
X139924511Y-117334912D01*
X139924498Y-117334919D01*
X139801584Y-117417048D01*
X139801580Y-117417051D01*
X139327431Y-117891200D01*
X139266108Y-117924685D01*
X139196416Y-117919701D01*
X139140483Y-117877829D01*
X139116222Y-117814328D01*
X139105635Y-117693308D01*
X139046739Y-117473504D01*
X138950568Y-117267266D01*
X138820047Y-117080861D01*
X138820045Y-117080858D01*
X138659141Y-116919954D01*
X138472734Y-116789432D01*
X138472728Y-116789429D01*
X138414725Y-116762382D01*
X138362285Y-116716210D01*
X138343133Y-116649017D01*
X138363348Y-116582135D01*
X138414725Y-116537618D01*
X138472734Y-116510568D01*
X138659139Y-116380047D01*
X138820047Y-116219139D01*
X138950568Y-116032734D01*
X139046739Y-115826496D01*
X139105635Y-115606692D01*
X139125468Y-115380000D01*
X139123723Y-115360060D01*
X139117858Y-115293021D01*
X139105635Y-115153308D01*
X139046739Y-114933504D01*
X138950568Y-114727266D01*
X138829947Y-114555000D01*
X138820045Y-114540858D01*
X138659141Y-114379954D01*
X138472734Y-114249432D01*
X138472728Y-114249429D01*
X138414725Y-114222382D01*
X138362285Y-114176210D01*
X138343133Y-114109017D01*
X138363348Y-114042135D01*
X138414725Y-113997618D01*
X138472734Y-113970568D01*
X138659139Y-113840047D01*
X138820047Y-113679139D01*
X138950568Y-113492734D01*
X139046739Y-113286496D01*
X139105635Y-113066692D01*
X139106697Y-113054550D01*
X139132148Y-112989482D01*
X139188738Y-112948502D01*
X139258500Y-112944623D01*
X139292226Y-112957969D01*
X139306814Y-112966392D01*
X139434108Y-113000500D01*
X139434110Y-113000500D01*
X140565890Y-113000500D01*
X140565892Y-113000500D01*
X140693186Y-112966392D01*
X140807314Y-112900500D01*
X140807316Y-112900497D01*
X140813499Y-112896928D01*
X140881399Y-112880455D01*
X140947426Y-112903307D01*
X140990617Y-112958228D01*
X140999500Y-113004315D01*
X140999500Y-115293021D01*
X140979815Y-115360060D01*
X140971353Y-115371686D01*
X140914091Y-115441460D01*
X140914086Y-115441467D01*
X140821188Y-115615266D01*
X140763975Y-115803870D01*
X140744659Y-116000000D01*
X140763975Y-116196129D01*
X140763976Y-116196132D01*
X140819766Y-116380047D01*
X140821188Y-116384733D01*
X140914086Y-116558532D01*
X140914090Y-116558539D01*
X141039116Y-116710883D01*
X141191460Y-116835909D01*
X141191467Y-116835913D01*
X141365266Y-116928811D01*
X141365269Y-116928811D01*
X141365273Y-116928814D01*
X141553868Y-116986024D01*
X141717063Y-117002097D01*
X141747757Y-117014491D01*
X141760156Y-117006523D01*
X141782937Y-117002097D01*
X141946132Y-116986024D01*
X142134727Y-116928814D01*
X142308538Y-116835910D01*
X142460883Y-116710883D01*
X142585910Y-116558538D01*
X142678814Y-116384727D01*
X142736024Y-116196132D01*
X142755341Y-116000000D01*
X142736024Y-115803868D01*
X142678814Y-115615273D01*
X142678811Y-115615269D01*
X142678811Y-115615266D01*
X142585913Y-115441467D01*
X142585911Y-115441465D01*
X142585910Y-115441462D01*
X142569536Y-115421511D01*
X142528647Y-115371686D01*
X142501334Y-115307376D01*
X142500500Y-115293021D01*
X142500500Y-109434108D01*
X145499500Y-109434108D01*
X145499500Y-112565891D01*
X145533608Y-112693187D01*
X145538028Y-112700842D01*
X145599500Y-112807314D01*
X145692686Y-112900500D01*
X145806814Y-112966392D01*
X145934108Y-113000500D01*
X145934110Y-113000500D01*
X147065890Y-113000500D01*
X147065892Y-113000500D01*
X147193186Y-112966392D01*
X147307314Y-112900500D01*
X147400500Y-112807314D01*
X147466392Y-112693186D01*
X147500500Y-112565892D01*
X147500500Y-109434108D01*
X147466392Y-109306814D01*
X147400500Y-109192686D01*
X147307314Y-109099500D01*
X147239764Y-109060500D01*
X147193187Y-109033608D01*
X147110095Y-109011344D01*
X147065892Y-108999500D01*
X146065892Y-108999500D01*
X145934108Y-108999500D01*
X145806812Y-109033608D01*
X145692686Y-109099500D01*
X145692683Y-109099502D01*
X145599502Y-109192683D01*
X145599500Y-109192686D01*
X145533608Y-109306812D01*
X145499500Y-109434108D01*
X142500500Y-109434108D01*
X142500500Y-103999999D01*
X148644341Y-103999999D01*
X148644341Y-104000000D01*
X148664936Y-104235403D01*
X148664938Y-104235413D01*
X148726094Y-104463655D01*
X148726096Y-104463659D01*
X148726097Y-104463663D01*
X148770338Y-104558538D01*
X148825965Y-104677830D01*
X148825967Y-104677834D01*
X148961501Y-104871395D01*
X148961506Y-104871402D01*
X149128595Y-105038492D01*
X149128598Y-105038494D01*
X149128599Y-105038495D01*
X149196623Y-105086125D01*
X149240248Y-105140701D01*
X149249500Y-105187700D01*
X149249500Y-106310148D01*
X149229815Y-106377187D01*
X149177011Y-106422942D01*
X149138755Y-106433438D01*
X149092516Y-106438409D01*
X148957671Y-106488702D01*
X148957664Y-106488706D01*
X148842455Y-106574952D01*
X148842452Y-106574955D01*
X148756206Y-106690164D01*
X148756202Y-106690171D01*
X148705908Y-106825017D01*
X148702952Y-106852517D01*
X148699501Y-106884623D01*
X148699500Y-106884635D01*
X148699500Y-108580370D01*
X148699501Y-108580376D01*
X148705908Y-108639983D01*
X148756202Y-108774828D01*
X148756206Y-108774835D01*
X148842452Y-108890044D01*
X148842455Y-108890047D01*
X148957664Y-108976293D01*
X148957671Y-108976297D01*
X149092517Y-109026591D01*
X149092516Y-109026591D01*
X149099444Y-109027335D01*
X149152127Y-109033000D01*
X150847872Y-109032999D01*
X150907483Y-109026591D01*
X151042331Y-108976296D01*
X151157546Y-108890046D01*
X151243796Y-108774831D01*
X151294091Y-108639983D01*
X151300500Y-108580373D01*
X151300499Y-106884628D01*
X151294091Y-106825017D01*
X151243796Y-106690169D01*
X151243795Y-106690168D01*
X151243793Y-106690164D01*
X151157547Y-106574955D01*
X151157544Y-106574952D01*
X151042335Y-106488706D01*
X151042328Y-106488702D01*
X150907483Y-106438408D01*
X150861243Y-106433437D01*
X150796693Y-106406699D01*
X150756845Y-106349306D01*
X150750500Y-106310148D01*
X150750500Y-105187700D01*
X150770185Y-105120661D01*
X150803375Y-105086126D01*
X150871401Y-105038495D01*
X151038495Y-104871401D01*
X151174035Y-104677830D01*
X151273903Y-104463663D01*
X151335063Y-104235408D01*
X151355659Y-104000000D01*
X151335063Y-103764592D01*
X151273903Y-103536337D01*
X151174035Y-103322171D01*
X151150891Y-103289117D01*
X151038494Y-103128597D01*
X150871402Y-102961506D01*
X150871395Y-102961501D01*
X150870842Y-102961114D01*
X150832521Y-102934281D01*
X150677834Y-102825967D01*
X150677830Y-102825965D01*
X150677828Y-102825964D01*
X150463663Y-102726097D01*
X150463659Y-102726096D01*
X150463655Y-102726094D01*
X150235413Y-102664938D01*
X150235403Y-102664936D01*
X150000001Y-102644341D01*
X149999999Y-102644341D01*
X149764596Y-102664936D01*
X149764586Y-102664938D01*
X149536344Y-102726094D01*
X149536335Y-102726098D01*
X149322171Y-102825964D01*
X149322169Y-102825965D01*
X149128597Y-102961505D01*
X148961505Y-103128597D01*
X148825965Y-103322169D01*
X148825964Y-103322171D01*
X148726098Y-103536335D01*
X148726094Y-103536344D01*
X148664938Y-103764586D01*
X148664936Y-103764596D01*
X148644341Y-103999999D01*
X142500500Y-103999999D01*
X142500500Y-103516079D01*
X142471659Y-103371092D01*
X142471658Y-103371091D01*
X142471658Y-103371087D01*
X142456674Y-103334912D01*
X142415087Y-103234511D01*
X142415080Y-103234498D01*
X142332952Y-103111585D01*
X142292553Y-103071186D01*
X142228416Y-103007049D01*
X141660239Y-102438872D01*
X155999500Y-102438872D01*
X155999500Y-102701127D01*
X156026123Y-102903339D01*
X156033730Y-102961116D01*
X156101602Y-103214418D01*
X156101605Y-103214428D01*
X156201953Y-103456690D01*
X156201958Y-103456700D01*
X156333075Y-103683803D01*
X156492718Y-103891851D01*
X156492726Y-103891860D01*
X156678140Y-104077274D01*
X156678148Y-104077281D01*
X156886196Y-104236924D01*
X157113299Y-104368041D01*
X157113309Y-104368046D01*
X157344152Y-104463664D01*
X157355581Y-104468398D01*
X157608884Y-104536270D01*
X157868880Y-104570500D01*
X157868887Y-104570500D01*
X158131113Y-104570500D01*
X158131120Y-104570500D01*
X158391116Y-104536270D01*
X158644419Y-104468398D01*
X158886697Y-104368043D01*
X159113803Y-104236924D01*
X159321851Y-104077282D01*
X159321855Y-104077277D01*
X159321860Y-104077274D01*
X159507274Y-103891860D01*
X159507277Y-103891855D01*
X159507282Y-103891851D01*
X159666924Y-103683803D01*
X159798043Y-103456697D01*
X159804352Y-103441467D01*
X159848488Y-103334911D01*
X159898398Y-103214419D01*
X159966270Y-102961116D01*
X160000500Y-102701120D01*
X160000500Y-102438880D01*
X159966270Y-102178884D01*
X159898398Y-101925581D01*
X159844451Y-101795341D01*
X159798046Y-101683309D01*
X159798041Y-101683299D01*
X159666924Y-101456196D01*
X159507281Y-101248148D01*
X159507274Y-101248140D01*
X159321860Y-101062726D01*
X159321851Y-101062718D01*
X159113803Y-100903075D01*
X158886700Y-100771958D01*
X158886690Y-100771953D01*
X158644428Y-100671605D01*
X158644421Y-100671603D01*
X158644419Y-100671602D01*
X158391116Y-100603730D01*
X158316209Y-100593868D01*
X158131127Y-100569500D01*
X158131120Y-100569500D01*
X157868880Y-100569500D01*
X157868872Y-100569500D01*
X157637772Y-100599926D01*
X157608884Y-100603730D01*
X157355581Y-100671602D01*
X157355571Y-100671605D01*
X157113309Y-100771953D01*
X157113299Y-100771958D01*
X156886196Y-100903075D01*
X156678148Y-101062718D01*
X156492718Y-101248148D01*
X156333075Y-101456196D01*
X156201958Y-101683299D01*
X156201953Y-101683309D01*
X156101605Y-101925571D01*
X156101602Y-101925581D01*
X156033730Y-102178885D01*
X155999500Y-102438872D01*
X141660239Y-102438872D01*
X136532869Y-97311501D01*
X136499384Y-97250178D01*
X136497022Y-97213012D01*
X136515659Y-97000000D01*
X136515659Y-96999999D01*
X136501303Y-96835913D01*
X136495063Y-96764592D01*
X136433903Y-96536337D01*
X136354662Y-96366405D01*
X136336243Y-96326905D01*
X136325751Y-96257827D01*
X136354271Y-96194043D01*
X136412747Y-96155804D01*
X136448625Y-96150500D01*
X137908169Y-96150500D01*
X137975208Y-96170185D01*
X138020963Y-96222989D01*
X138026829Y-96238504D01*
X138071186Y-96384728D01*
X138164086Y-96558532D01*
X138164090Y-96558539D01*
X138289116Y-96710883D01*
X138441460Y-96835909D01*
X138441467Y-96835913D01*
X138615266Y-96928811D01*
X138615269Y-96928811D01*
X138615273Y-96928814D01*
X138803868Y-96986024D01*
X139000000Y-97005341D01*
X139196132Y-96986024D01*
X139384727Y-96928814D01*
X139400980Y-96920127D01*
X139558532Y-96835913D01*
X139558538Y-96835910D01*
X139710883Y-96710883D01*
X139835910Y-96558538D01*
X139928814Y-96384727D01*
X139986024Y-96196132D01*
X140005341Y-96000000D01*
X153494696Y-96000000D01*
X153513898Y-96366404D01*
X153571295Y-96728794D01*
X153624890Y-96928814D01*
X153666260Y-97083206D01*
X153797746Y-97425739D01*
X153964320Y-97752656D01*
X154164147Y-98060364D01*
X154271705Y-98193187D01*
X154395051Y-98345506D01*
X154654494Y-98604949D01*
X154654498Y-98604952D01*
X154939635Y-98835852D01*
X155247343Y-99035679D01*
X155247348Y-99035682D01*
X155574264Y-99202255D01*
X155916801Y-99333742D01*
X156271206Y-99428705D01*
X156633596Y-99486102D01*
X156979734Y-99504241D01*
X156999999Y-99505304D01*
X157000000Y-99505304D01*
X157000001Y-99505304D01*
X157019203Y-99504297D01*
X157366404Y-99486102D01*
X157728794Y-99428705D01*
X158083199Y-99333742D01*
X158425736Y-99202255D01*
X158752652Y-99035682D01*
X159060366Y-98835851D01*
X159345506Y-98604949D01*
X159413636Y-98536819D01*
X159474959Y-98503334D01*
X159501317Y-98500500D01*
X160065890Y-98500500D01*
X160065892Y-98500500D01*
X160193186Y-98466392D01*
X160307314Y-98400500D01*
X160400500Y-98307314D01*
X160466392Y-98193186D01*
X160500500Y-98065892D01*
X160500500Y-96094913D01*
X160500670Y-96088423D01*
X160505304Y-96000000D01*
X160505304Y-95999999D01*
X160500670Y-95911575D01*
X160500500Y-95905085D01*
X160500500Y-93934110D01*
X160500500Y-93934108D01*
X160466392Y-93806814D01*
X160400500Y-93692686D01*
X160307314Y-93599500D01*
X160236356Y-93558532D01*
X160193187Y-93533608D01*
X160129539Y-93516554D01*
X160065892Y-93499500D01*
X160065891Y-93499500D01*
X159501317Y-93499500D01*
X159434278Y-93479815D01*
X159413636Y-93463181D01*
X159345509Y-93395054D01*
X159345501Y-93395047D01*
X159060364Y-93164147D01*
X158752656Y-92964320D01*
X158425739Y-92797746D01*
X158083206Y-92666260D01*
X158083199Y-92666258D01*
X157728794Y-92571295D01*
X157728790Y-92571294D01*
X157728789Y-92571294D01*
X157366405Y-92513898D01*
X157000001Y-92494696D01*
X156999999Y-92494696D01*
X156633594Y-92513898D01*
X156271211Y-92571294D01*
X156271209Y-92571294D01*
X155916793Y-92666260D01*
X155574260Y-92797746D01*
X155247343Y-92964320D01*
X154939635Y-93164147D01*
X154654498Y-93395047D01*
X154654490Y-93395054D01*
X154395054Y-93654490D01*
X154395047Y-93654498D01*
X154164147Y-93939635D01*
X153964320Y-94247343D01*
X153797746Y-94574260D01*
X153666260Y-94916793D01*
X153571294Y-95271209D01*
X153571294Y-95271211D01*
X153513898Y-95633594D01*
X153503817Y-95825964D01*
X153494696Y-96000000D01*
X140005341Y-96000000D01*
X139986024Y-95803868D01*
X139928814Y-95615273D01*
X139928811Y-95615269D01*
X139928811Y-95615266D01*
X139835913Y-95441467D01*
X139835909Y-95441460D01*
X139720075Y-95300317D01*
X139692762Y-95236007D01*
X139704553Y-95167140D01*
X139737263Y-95125799D01*
X139804257Y-95070818D01*
X139929283Y-94918474D01*
X139929287Y-94918467D01*
X140022185Y-94744668D01*
X140022185Y-94744667D01*
X140022188Y-94744662D01*
X140079398Y-94556067D01*
X140098715Y-94359935D01*
X140079398Y-94163803D01*
X140074280Y-94146934D01*
X140073656Y-94077068D01*
X140110904Y-94017955D01*
X140174198Y-93988363D01*
X140180789Y-93987535D01*
X140196132Y-93986024D01*
X140384727Y-93928814D01*
X140558538Y-93835910D01*
X140710883Y-93710883D01*
X140835910Y-93558538D01*
X140928814Y-93384727D01*
X140986024Y-93196132D01*
X141005341Y-93000000D01*
X140986024Y-92803868D01*
X140928814Y-92615273D01*
X140928811Y-92615269D01*
X140928811Y-92615266D01*
X140835913Y-92441467D01*
X140835909Y-92441460D01*
X140710883Y-92289116D01*
X140626486Y-92219853D01*
X140587152Y-92162107D01*
X140585281Y-92092262D01*
X140621469Y-92032494D01*
X140684225Y-92001778D01*
X140705151Y-92000000D01*
X164375500Y-92000000D01*
X164442539Y-92019685D01*
X164488294Y-92072489D01*
X164499500Y-92124000D01*
X164499500Y-139375500D01*
X164479815Y-139442539D01*
X164427011Y-139488294D01*
X164375500Y-139499500D01*
X159504315Y-139499500D01*
X159437276Y-139479815D01*
X159391521Y-139427011D01*
X159381577Y-139357853D01*
X159396928Y-139313499D01*
X159400497Y-139307316D01*
X159400500Y-139307314D01*
X159466392Y-139193186D01*
X159500500Y-139065892D01*
X159500500Y-136934108D01*
X159466392Y-136806814D01*
X159400500Y-136692686D01*
X159307314Y-136599500D01*
X159250250Y-136566554D01*
X159193187Y-136533608D01*
X159129539Y-136516554D01*
X159065892Y-136499500D01*
X154065892Y-136499500D01*
X153934108Y-136499500D01*
X153806812Y-136533608D01*
X153692686Y-136599500D01*
X153692683Y-136599502D01*
X153599502Y-136692683D01*
X153599500Y-136692686D01*
X153533608Y-136806812D01*
X153499500Y-136934108D01*
X153499500Y-139065891D01*
X153533608Y-139193187D01*
X153557814Y-139235112D01*
X153599500Y-139307314D01*
X153599502Y-139307316D01*
X153603072Y-139313499D01*
X153619545Y-139381399D01*
X153596693Y-139447426D01*
X153541772Y-139490617D01*
X153495685Y-139499500D01*
X96504315Y-139499500D01*
X96437276Y-139479815D01*
X96391521Y-139427011D01*
X96381577Y-139357853D01*
X96396928Y-139313499D01*
X96400497Y-139307316D01*
X96400500Y-139307314D01*
X96466392Y-139193186D01*
X96500500Y-139065892D01*
X96500500Y-136934108D01*
X96466392Y-136806814D01*
X96400500Y-136692686D01*
X96307314Y-136599500D01*
X96250250Y-136566554D01*
X96193187Y-136533608D01*
X96129539Y-136516554D01*
X96065892Y-136499500D01*
X91065892Y-136499500D01*
X90934108Y-136499500D01*
X90806812Y-136533608D01*
X90692686Y-136599500D01*
X90692683Y-136599502D01*
X90599502Y-136692683D01*
X90599500Y-136692686D01*
X90533608Y-136806812D01*
X90499500Y-136934108D01*
X90499500Y-139065891D01*
X90533608Y-139193187D01*
X90557814Y-139235112D01*
X90599500Y-139307314D01*
X90599502Y-139307316D01*
X90603072Y-139313499D01*
X90619545Y-139381399D01*
X90596693Y-139447426D01*
X90541772Y-139490617D01*
X90495685Y-139499500D01*
X85624500Y-139499500D01*
X85557461Y-139479815D01*
X85511706Y-139427011D01*
X85500500Y-139375500D01*
X85500500Y-128562135D01*
X106649500Y-128562135D01*
X106649500Y-130357870D01*
X106649501Y-130357876D01*
X106655908Y-130417483D01*
X106706202Y-130552328D01*
X106706206Y-130552335D01*
X106792452Y-130667544D01*
X106792455Y-130667547D01*
X106907664Y-130753793D01*
X106907671Y-130753797D01*
X107042517Y-130804091D01*
X107042516Y-130804091D01*
X107049444Y-130804835D01*
X107102127Y-130810500D01*
X108897872Y-130810499D01*
X108957483Y-130804091D01*
X109092331Y-130753796D01*
X109207546Y-130667546D01*
X109293796Y-130552331D01*
X109344091Y-130417483D01*
X109350500Y-130357873D01*
X109350499Y-128562128D01*
X109344091Y-128502517D01*
X109293796Y-128367669D01*
X109293795Y-128367668D01*
X109293793Y-128367664D01*
X109207547Y-128252455D01*
X109207544Y-128252452D01*
X109092335Y-128166206D01*
X109092328Y-128166202D01*
X108957482Y-128115908D01*
X108957483Y-128115908D01*
X108897883Y-128109501D01*
X108897881Y-128109500D01*
X108897873Y-128109500D01*
X108897864Y-128109500D01*
X107102129Y-128109500D01*
X107102123Y-128109501D01*
X107042516Y-128115908D01*
X106907671Y-128166202D01*
X106907664Y-128166206D01*
X106792455Y-128252452D01*
X106792452Y-128252455D01*
X106706206Y-128367664D01*
X106706202Y-128367671D01*
X106655908Y-128502517D01*
X106649501Y-128562116D01*
X106649501Y-128562123D01*
X106649500Y-128562135D01*
X85500500Y-128562135D01*
X85500500Y-123876160D01*
X85520185Y-123809121D01*
X85572989Y-123763366D01*
X85642147Y-123753422D01*
X85705703Y-123782447D01*
X85726073Y-123805035D01*
X85746319Y-123833950D01*
X85749955Y-123839142D01*
X85910858Y-124000045D01*
X85910861Y-124000047D01*
X86097266Y-124130568D01*
X86303504Y-124226739D01*
X86523308Y-124285635D01*
X86685230Y-124299801D01*
X86749998Y-124305468D01*
X86750000Y-124305468D01*
X86750002Y-124305468D01*
X86806673Y-124300509D01*
X86976692Y-124285635D01*
X87196496Y-124226739D01*
X87402734Y-124130568D01*
X87589139Y-124000047D01*
X87750047Y-123839139D01*
X87880568Y-123652734D01*
X87976739Y-123446496D01*
X88035635Y-123226692D01*
X88055468Y-123000000D01*
X88049703Y-122934108D01*
X90499500Y-122934108D01*
X90499500Y-124934108D01*
X90499500Y-125065892D01*
X90512368Y-125113918D01*
X90533608Y-125193187D01*
X90544484Y-125212024D01*
X90599500Y-125307314D01*
X90692686Y-125400500D01*
X90806814Y-125466392D01*
X90934108Y-125500500D01*
X90934110Y-125500500D01*
X96065890Y-125500500D01*
X96065892Y-125500500D01*
X96193186Y-125466392D01*
X96307314Y-125400500D01*
X96400500Y-125307314D01*
X96466392Y-125193186D01*
X96500500Y-125065892D01*
X96500500Y-122999998D01*
X99444532Y-122999998D01*
X99444532Y-123000001D01*
X99464364Y-123226686D01*
X99464366Y-123226697D01*
X99523258Y-123446488D01*
X99523261Y-123446497D01*
X99619431Y-123652732D01*
X99619432Y-123652734D01*
X99749954Y-123839141D01*
X99910858Y-124000045D01*
X99910861Y-124000047D01*
X100097266Y-124130568D01*
X100303504Y-124226739D01*
X100523308Y-124285635D01*
X100685230Y-124299801D01*
X100749998Y-124305468D01*
X100750000Y-124305468D01*
X100750002Y-124305468D01*
X100806673Y-124300509D01*
X100976692Y-124285635D01*
X101196496Y-124226739D01*
X101402734Y-124130568D01*
X101589139Y-124000047D01*
X101750047Y-123839139D01*
X101880568Y-123652734D01*
X101976739Y-123446496D01*
X102035635Y-123226692D01*
X102055468Y-123000000D01*
X102035635Y-122773308D01*
X101976739Y-122553504D01*
X101880568Y-122347266D01*
X101765231Y-122182546D01*
X101750045Y-122160858D01*
X101589141Y-121999954D01*
X101402734Y-121869432D01*
X101402732Y-121869431D01*
X101196497Y-121773261D01*
X101196488Y-121773258D01*
X100976697Y-121714366D01*
X100976693Y-121714365D01*
X100976692Y-121714365D01*
X100976691Y-121714364D01*
X100976686Y-121714364D01*
X100750002Y-121694532D01*
X100749998Y-121694532D01*
X100523313Y-121714364D01*
X100523302Y-121714366D01*
X100303511Y-121773258D01*
X100303502Y-121773261D01*
X100097267Y-121869431D01*
X100097265Y-121869432D01*
X99910858Y-121999954D01*
X99749954Y-122160858D01*
X99619432Y-122347265D01*
X99619431Y-122347267D01*
X99523261Y-122553502D01*
X99523258Y-122553511D01*
X99464366Y-122773302D01*
X99464364Y-122773313D01*
X99444532Y-122999998D01*
X96500500Y-122999998D01*
X96500500Y-122934108D01*
X96466392Y-122806814D01*
X96400500Y-122692686D01*
X96307314Y-122599500D01*
X96227647Y-122553504D01*
X96193187Y-122533608D01*
X96129539Y-122516554D01*
X96065892Y-122499500D01*
X91065892Y-122499500D01*
X90934108Y-122499500D01*
X90806812Y-122533608D01*
X90692686Y-122599500D01*
X90692683Y-122599502D01*
X90599502Y-122692683D01*
X90599500Y-122692686D01*
X90533608Y-122806812D01*
X90526554Y-122833139D01*
X90499500Y-122934108D01*
X88049703Y-122934108D01*
X88040869Y-122833137D01*
X88054635Y-122764639D01*
X88076713Y-122734653D01*
X90117000Y-120694365D01*
X90178321Y-120660882D01*
X90248013Y-120665866D01*
X90264108Y-120673217D01*
X90265169Y-120673796D01*
X90400017Y-120724091D01*
X90400016Y-120724091D01*
X90406944Y-120724835D01*
X90459627Y-120730500D01*
X92460372Y-120730499D01*
X92519983Y-120724091D01*
X92654831Y-120673796D01*
X92770046Y-120587546D01*
X92856296Y-120472331D01*
X92906591Y-120337483D01*
X92913000Y-120277873D01*
X92912999Y-119068146D01*
X95087000Y-119068146D01*
X95087000Y-119391854D01*
X95097786Y-119459953D01*
X95122778Y-119617746D01*
X95122778Y-119617749D01*
X95193450Y-119835255D01*
X95297283Y-120039038D01*
X95431714Y-120224066D01*
X95593434Y-120385786D01*
X95778462Y-120520217D01*
X95910599Y-120587544D01*
X95982244Y-120624049D01*
X96199751Y-120694721D01*
X96199752Y-120694721D01*
X96199755Y-120694722D01*
X96425646Y-120730500D01*
X96425647Y-120730500D01*
X96654353Y-120730500D01*
X96654354Y-120730500D01*
X96880245Y-120694722D01*
X96880248Y-120694721D01*
X96880249Y-120694721D01*
X97097755Y-120624049D01*
X97097755Y-120624048D01*
X97097758Y-120624048D01*
X97301538Y-120520217D01*
X97486566Y-120385786D01*
X97648286Y-120224066D01*
X97782717Y-120039038D01*
X97886548Y-119835258D01*
X97895643Y-119807266D01*
X97957221Y-119617749D01*
X97957221Y-119617748D01*
X97957222Y-119617745D01*
X97993000Y-119391854D01*
X97993000Y-119068146D01*
X97957222Y-118842255D01*
X97957221Y-118842251D01*
X97957221Y-118842250D01*
X97886549Y-118624744D01*
X97886548Y-118624742D01*
X97782717Y-118420962D01*
X97648286Y-118235934D01*
X97486566Y-118074214D01*
X97301538Y-117939783D01*
X97097755Y-117835950D01*
X96880248Y-117765278D01*
X96694812Y-117735908D01*
X96654354Y-117729500D01*
X96425646Y-117729500D01*
X96385188Y-117735908D01*
X96199753Y-117765278D01*
X96199750Y-117765278D01*
X95982244Y-117835950D01*
X95778461Y-117939783D01*
X95674194Y-118015538D01*
X95593434Y-118074214D01*
X95593432Y-118074216D01*
X95593431Y-118074216D01*
X95431716Y-118235931D01*
X95431716Y-118235932D01*
X95431714Y-118235934D01*
X95373980Y-118315396D01*
X95297283Y-118420961D01*
X95193450Y-118624744D01*
X95122778Y-118842250D01*
X95122778Y-118842253D01*
X95092967Y-119030471D01*
X95087000Y-119068146D01*
X92912999Y-119068146D01*
X92912999Y-118889728D01*
X92932684Y-118822690D01*
X92949313Y-118802053D01*
X95964548Y-115786819D01*
X96025871Y-115753334D01*
X96052229Y-115750500D01*
X103947770Y-115750500D01*
X104014809Y-115770185D01*
X104035451Y-115786819D01*
X104966497Y-116717865D01*
X105793403Y-117544770D01*
X105826888Y-117606093D01*
X105821904Y-117675785D01*
X105780032Y-117731718D01*
X105725122Y-117754924D01*
X105659750Y-117765278D01*
X105442244Y-117835950D01*
X105238461Y-117939783D01*
X105055759Y-118072525D01*
X104989952Y-118096005D01*
X104921898Y-118080180D01*
X104873203Y-118030074D01*
X104866690Y-118015538D01*
X104856296Y-117987669D01*
X104856293Y-117987664D01*
X104770047Y-117872455D01*
X104770044Y-117872452D01*
X104654835Y-117786206D01*
X104654828Y-117786202D01*
X104519982Y-117735908D01*
X104519983Y-117735908D01*
X104460383Y-117729501D01*
X104460381Y-117729500D01*
X104460373Y-117729500D01*
X104460364Y-117729500D01*
X102459629Y-117729500D01*
X102459623Y-117729501D01*
X102400016Y-117735908D01*
X102265171Y-117786202D01*
X102265164Y-117786206D01*
X102149955Y-117872452D01*
X102149952Y-117872455D01*
X102063706Y-117987664D01*
X102063702Y-117987671D01*
X102013408Y-118122517D01*
X102007001Y-118182116D01*
X102007000Y-118182135D01*
X102007000Y-120277870D01*
X102007001Y-120277876D01*
X102013408Y-120337483D01*
X102063702Y-120472328D01*
X102063706Y-120472335D01*
X102149952Y-120587544D01*
X102149955Y-120587547D01*
X102265164Y-120673793D01*
X102265171Y-120673797D01*
X102400017Y-120724091D01*
X102400016Y-120724091D01*
X102406944Y-120724835D01*
X102459627Y-120730500D01*
X104460372Y-120730499D01*
X104519983Y-120724091D01*
X104654831Y-120673796D01*
X104770046Y-120587546D01*
X104856296Y-120472331D01*
X104866690Y-120444460D01*
X104908560Y-120388527D01*
X104974023Y-120364108D01*
X105042297Y-120378958D01*
X105055746Y-120387465D01*
X105238462Y-120520217D01*
X105370599Y-120587544D01*
X105442244Y-120624049D01*
X105659751Y-120694721D01*
X105659752Y-120694721D01*
X105659755Y-120694722D01*
X105885646Y-120730500D01*
X105885647Y-120730500D01*
X106114353Y-120730500D01*
X106114354Y-120730500D01*
X106340245Y-120694722D01*
X106340248Y-120694721D01*
X106340249Y-120694721D01*
X106557755Y-120624049D01*
X106557755Y-120624048D01*
X106557758Y-120624048D01*
X106761538Y-120520217D01*
X106946566Y-120385786D01*
X107108286Y-120224066D01*
X107169683Y-120139559D01*
X107225012Y-120096896D01*
X107294625Y-120090917D01*
X107356420Y-120123523D01*
X107370314Y-120139556D01*
X107431714Y-120224066D01*
X107593434Y-120385786D01*
X107712558Y-120472335D01*
X107738385Y-120491099D01*
X107781051Y-120546429D01*
X107789500Y-120591417D01*
X107789500Y-125113918D01*
X107789500Y-125113920D01*
X107789499Y-125113920D01*
X107818340Y-125258907D01*
X107818343Y-125258917D01*
X107874914Y-125395492D01*
X107874915Y-125395494D01*
X107874916Y-125395495D01*
X107897971Y-125430000D01*
X107907812Y-125444727D01*
X107907813Y-125444730D01*
X107957046Y-125518414D01*
X107957052Y-125518421D01*
X116917049Y-134478416D01*
X117021584Y-134582951D01*
X117021587Y-134582953D01*
X117021588Y-134582954D01*
X117144503Y-134665083D01*
X117144506Y-134665085D01*
X117201079Y-134688518D01*
X117201080Y-134688518D01*
X117281088Y-134721659D01*
X117397241Y-134744763D01*
X117416468Y-134748587D01*
X117426081Y-134750500D01*
X117426082Y-134750500D01*
X158573920Y-134750500D01*
X158671462Y-134731096D01*
X158718913Y-134721658D01*
X158855495Y-134665084D01*
X158904729Y-134632186D01*
X158978416Y-134582952D01*
X161122952Y-132438415D01*
X161176236Y-132358669D01*
X161202879Y-132318795D01*
X161202880Y-132318792D01*
X161205084Y-132315495D01*
X161230256Y-132254722D01*
X161241848Y-132226740D01*
X161261657Y-132178916D01*
X161261659Y-132178912D01*
X161290500Y-132033917D01*
X161290500Y-131886082D01*
X161290500Y-120591417D01*
X161310185Y-120524378D01*
X161341615Y-120491099D01*
X161486566Y-120385786D01*
X161648286Y-120224066D01*
X161782717Y-120039038D01*
X161886548Y-119835258D01*
X161895643Y-119807266D01*
X161957221Y-119617749D01*
X161957221Y-119617748D01*
X161957222Y-119617745D01*
X161993000Y-119391854D01*
X161993000Y-119068146D01*
X161957222Y-118842255D01*
X161957221Y-118842251D01*
X161957221Y-118842250D01*
X161886549Y-118624744D01*
X161886548Y-118624742D01*
X161782717Y-118420962D01*
X161648286Y-118235934D01*
X161486566Y-118074214D01*
X161301538Y-117939783D01*
X161097755Y-117835950D01*
X160880249Y-117765278D01*
X160856350Y-117761493D01*
X160793216Y-117731562D01*
X160788069Y-117726701D01*
X157830921Y-114769552D01*
X157830914Y-114769546D01*
X157757229Y-114720312D01*
X157757229Y-114720313D01*
X157707991Y-114687413D01*
X157571417Y-114630843D01*
X157571407Y-114630840D01*
X157426420Y-114602000D01*
X157426418Y-114602000D01*
X151126663Y-114602000D01*
X151059624Y-114582315D01*
X151025088Y-114549123D01*
X151000045Y-114513358D01*
X150839141Y-114352454D01*
X150652734Y-114221932D01*
X150652732Y-114221931D01*
X150446497Y-114125761D01*
X150446488Y-114125758D01*
X150226697Y-114066866D01*
X150226693Y-114066865D01*
X150226692Y-114066865D01*
X150226691Y-114066864D01*
X150226686Y-114066864D01*
X150000002Y-114047032D01*
X149999998Y-114047032D01*
X149773313Y-114066864D01*
X149773302Y-114066866D01*
X149553511Y-114125758D01*
X149553502Y-114125761D01*
X149347267Y-114221931D01*
X149347265Y-114221932D01*
X149160858Y-114352454D01*
X148999954Y-114513358D01*
X148869432Y-114699765D01*
X148869431Y-114699767D01*
X148773261Y-114906002D01*
X148773258Y-114906011D01*
X148714366Y-115125802D01*
X148714364Y-115125813D01*
X148694532Y-115352498D01*
X148694532Y-115352501D01*
X148714364Y-115579186D01*
X148714366Y-115579197D01*
X148773258Y-115798988D01*
X148773261Y-115798997D01*
X148869431Y-116005232D01*
X148869432Y-116005234D01*
X148999954Y-116191641D01*
X149160858Y-116352545D01*
X149160861Y-116352547D01*
X149347266Y-116483068D01*
X149553504Y-116579239D01*
X149773308Y-116638135D01*
X149920173Y-116650984D01*
X149999998Y-116657968D01*
X150000000Y-116657968D01*
X150000002Y-116657968D01*
X150079827Y-116650984D01*
X150226692Y-116638135D01*
X150446496Y-116579239D01*
X150652734Y-116483068D01*
X150839139Y-116352547D01*
X151000047Y-116191639D01*
X151025088Y-116155877D01*
X151079665Y-116112252D01*
X151126663Y-116103000D01*
X156990270Y-116103000D01*
X157057309Y-116122685D01*
X157077951Y-116139319D01*
X158513724Y-117575092D01*
X158547209Y-117636415D01*
X158542225Y-117706107D01*
X158500353Y-117762040D01*
X158434889Y-117786457D01*
X158387726Y-117780704D01*
X158340253Y-117765279D01*
X158340246Y-117765278D01*
X158154818Y-117735909D01*
X158114354Y-117729500D01*
X157885646Y-117729500D01*
X157845188Y-117735908D01*
X157659753Y-117765278D01*
X157659750Y-117765278D01*
X157442244Y-117835950D01*
X157238461Y-117939783D01*
X157055759Y-118072525D01*
X156989952Y-118096005D01*
X156921898Y-118080180D01*
X156873203Y-118030074D01*
X156866690Y-118015538D01*
X156856296Y-117987669D01*
X156856293Y-117987664D01*
X156770047Y-117872455D01*
X156770044Y-117872452D01*
X156654835Y-117786206D01*
X156654828Y-117786202D01*
X156519982Y-117735908D01*
X156519983Y-117735908D01*
X156460383Y-117729501D01*
X156460381Y-117729500D01*
X156460373Y-117729500D01*
X156460364Y-117729500D01*
X154459629Y-117729500D01*
X154459623Y-117729501D01*
X154400016Y-117735908D01*
X154265171Y-117786202D01*
X154265164Y-117786206D01*
X154149955Y-117872452D01*
X154149952Y-117872455D01*
X154063706Y-117987664D01*
X154063702Y-117987671D01*
X154013408Y-118122517D01*
X154007001Y-118182116D01*
X154007000Y-118182135D01*
X154007000Y-120277870D01*
X154007001Y-120277876D01*
X154013408Y-120337483D01*
X154063702Y-120472328D01*
X154063706Y-120472335D01*
X154149952Y-120587544D01*
X154149955Y-120587547D01*
X154265164Y-120673793D01*
X154265171Y-120673797D01*
X154400017Y-120724091D01*
X154400016Y-120724091D01*
X154406944Y-120724835D01*
X154459627Y-120730500D01*
X156460372Y-120730499D01*
X156519983Y-120724091D01*
X156654831Y-120673796D01*
X156770046Y-120587546D01*
X156856296Y-120472331D01*
X156866690Y-120444460D01*
X156908560Y-120388527D01*
X156974023Y-120364108D01*
X157042297Y-120378958D01*
X157055746Y-120387465D01*
X157238462Y-120520217D01*
X157370599Y-120587544D01*
X157442244Y-120624049D01*
X157659751Y-120694721D01*
X157659752Y-120694721D01*
X157659755Y-120694722D01*
X157885646Y-120730500D01*
X157885647Y-120730500D01*
X158114353Y-120730500D01*
X158114354Y-120730500D01*
X158340245Y-120694722D01*
X158340248Y-120694721D01*
X158340249Y-120694721D01*
X158557755Y-120624049D01*
X158557755Y-120624048D01*
X158557758Y-120624048D01*
X158761538Y-120520217D01*
X158946566Y-120385786D01*
X159108286Y-120224066D01*
X159169683Y-120139559D01*
X159225012Y-120096896D01*
X159294625Y-120090917D01*
X159356420Y-120123523D01*
X159370314Y-120139556D01*
X159431714Y-120224066D01*
X159593434Y-120385786D01*
X159712558Y-120472335D01*
X159738385Y-120491099D01*
X159781051Y-120546429D01*
X159789500Y-120591417D01*
X159789500Y-131597770D01*
X159769815Y-131664809D01*
X159753181Y-131685451D01*
X158225451Y-133213181D01*
X158164128Y-133246666D01*
X158137770Y-133249500D01*
X117862229Y-133249500D01*
X117795190Y-133229815D01*
X117774548Y-133213181D01*
X109326819Y-124765451D01*
X109293334Y-124704128D01*
X109290500Y-124677770D01*
X109290500Y-120591417D01*
X109310185Y-120524378D01*
X109341615Y-120491099D01*
X109486566Y-120385786D01*
X109648286Y-120224066D01*
X109782717Y-120039038D01*
X109886548Y-119835258D01*
X109895643Y-119807266D01*
X109957221Y-119617749D01*
X109957221Y-119617748D01*
X109957222Y-119617745D01*
X109993000Y-119391854D01*
X109993000Y-119068146D01*
X109957222Y-118842255D01*
X109957221Y-118842251D01*
X109957221Y-118842250D01*
X109886549Y-118624744D01*
X109886548Y-118624742D01*
X109782717Y-118420962D01*
X109648286Y-118235934D01*
X109486566Y-118074214D01*
X109301538Y-117939783D01*
X109097755Y-117835950D01*
X108880248Y-117765278D01*
X108694812Y-117735908D01*
X108654354Y-117729500D01*
X108425646Y-117729500D01*
X108385182Y-117735909D01*
X108207678Y-117764023D01*
X108138384Y-117755068D01*
X108100599Y-117729231D01*
X104788421Y-114417052D01*
X104788414Y-114417046D01*
X104691741Y-114352452D01*
X104691740Y-114352452D01*
X104665500Y-114334919D01*
X104665488Y-114334912D01*
X104528917Y-114278343D01*
X104528907Y-114278340D01*
X104383920Y-114249500D01*
X104383918Y-114249500D01*
X95763917Y-114249500D01*
X95616082Y-114249500D01*
X95616080Y-114249500D01*
X95471092Y-114278340D01*
X95471082Y-114278343D01*
X95334511Y-114334912D01*
X95334498Y-114334919D01*
X95211584Y-114417048D01*
X95211580Y-114417051D01*
X91935449Y-117693181D01*
X91874126Y-117726666D01*
X91847768Y-117729500D01*
X90459629Y-117729500D01*
X90459623Y-117729501D01*
X90400016Y-117735908D01*
X90265171Y-117786202D01*
X90265164Y-117786206D01*
X90149955Y-117872452D01*
X90149952Y-117872455D01*
X90063706Y-117987664D01*
X90063702Y-117987671D01*
X90013408Y-118122517D01*
X90007001Y-118182116D01*
X90007000Y-118182135D01*
X90007000Y-118630269D01*
X89987315Y-118697308D01*
X89970681Y-118717950D01*
X87015348Y-121673282D01*
X86954025Y-121706767D01*
X86916861Y-121709129D01*
X86750003Y-121694532D01*
X86749998Y-121694532D01*
X86523313Y-121714364D01*
X86523302Y-121714366D01*
X86303511Y-121773258D01*
X86303502Y-121773261D01*
X86097267Y-121869431D01*
X86097265Y-121869432D01*
X85910858Y-121999954D01*
X85749954Y-122160858D01*
X85726075Y-122194962D01*
X85671498Y-122238587D01*
X85602000Y-122245781D01*
X85539645Y-122214258D01*
X85504231Y-122154029D01*
X85500500Y-122123839D01*
X85500500Y-102438872D01*
X91999500Y-102438872D01*
X91999500Y-102701127D01*
X92026123Y-102903339D01*
X92033730Y-102961116D01*
X92101602Y-103214418D01*
X92101605Y-103214428D01*
X92201953Y-103456690D01*
X92201958Y-103456700D01*
X92333075Y-103683803D01*
X92492718Y-103891851D01*
X92492726Y-103891860D01*
X92678140Y-104077274D01*
X92678148Y-104077281D01*
X92886196Y-104236924D01*
X93113299Y-104368041D01*
X93113309Y-104368046D01*
X93344152Y-104463664D01*
X93355581Y-104468398D01*
X93608884Y-104536270D01*
X93868880Y-104570500D01*
X93868887Y-104570500D01*
X94131113Y-104570500D01*
X94131120Y-104570500D01*
X94391116Y-104536270D01*
X94644419Y-104468398D01*
X94886697Y-104368043D01*
X95113803Y-104236924D01*
X95321851Y-104077282D01*
X95321855Y-104077277D01*
X95321860Y-104077274D01*
X95507274Y-103891860D01*
X95507277Y-103891855D01*
X95507282Y-103891851D01*
X95666924Y-103683803D01*
X95798043Y-103456697D01*
X95804352Y-103441467D01*
X95848488Y-103334911D01*
X95898398Y-103214419D01*
X95966270Y-102961116D01*
X96000500Y-102701120D01*
X96000500Y-102438880D01*
X96000499Y-102438872D01*
X103999500Y-102438872D01*
X103999500Y-102701127D01*
X104026123Y-102903339D01*
X104033730Y-102961116D01*
X104101602Y-103214418D01*
X104101605Y-103214428D01*
X104201953Y-103456690D01*
X104201958Y-103456700D01*
X104333075Y-103683803D01*
X104492718Y-103891851D01*
X104492726Y-103891860D01*
X104678140Y-104077274D01*
X104678148Y-104077281D01*
X104886196Y-104236924D01*
X105113299Y-104368041D01*
X105113309Y-104368046D01*
X105344152Y-104463664D01*
X105355581Y-104468398D01*
X105608884Y-104536270D01*
X105868880Y-104570500D01*
X105868887Y-104570500D01*
X106131113Y-104570500D01*
X106131120Y-104570500D01*
X106391116Y-104536270D01*
X106644419Y-104468398D01*
X106886697Y-104368043D01*
X107113803Y-104236924D01*
X107321851Y-104077282D01*
X107321855Y-104077277D01*
X107321860Y-104077274D01*
X107507274Y-103891860D01*
X107507277Y-103891855D01*
X107507282Y-103891851D01*
X107666924Y-103683803D01*
X107798043Y-103456697D01*
X107804352Y-103441467D01*
X107848488Y-103334911D01*
X107898398Y-103214419D01*
X107966270Y-102961116D01*
X108000500Y-102701120D01*
X108000500Y-102438880D01*
X107966270Y-102178884D01*
X107898398Y-101925581D01*
X107844451Y-101795341D01*
X107798046Y-101683309D01*
X107798041Y-101683299D01*
X107666924Y-101456196D01*
X107507281Y-101248148D01*
X107507274Y-101248140D01*
X107321860Y-101062726D01*
X107321851Y-101062718D01*
X107113803Y-100903075D01*
X106886700Y-100771958D01*
X106886690Y-100771953D01*
X106644428Y-100671605D01*
X106644421Y-100671603D01*
X106644419Y-100671602D01*
X106391116Y-100603730D01*
X106316209Y-100593868D01*
X106131127Y-100569500D01*
X106131120Y-100569500D01*
X105868880Y-100569500D01*
X105868872Y-100569500D01*
X105637772Y-100599926D01*
X105608884Y-100603730D01*
X105355581Y-100671602D01*
X105355571Y-100671605D01*
X105113309Y-100771953D01*
X105113299Y-100771958D01*
X104886196Y-100903075D01*
X104678148Y-101062718D01*
X104492718Y-101248148D01*
X104333075Y-101456196D01*
X104201958Y-101683299D01*
X104201953Y-101683309D01*
X104101605Y-101925571D01*
X104101602Y-101925581D01*
X104033730Y-102178885D01*
X103999500Y-102438872D01*
X96000499Y-102438872D01*
X95966270Y-102178884D01*
X95898398Y-101925581D01*
X95844451Y-101795341D01*
X95798046Y-101683309D01*
X95798041Y-101683299D01*
X95666924Y-101456196D01*
X95507281Y-101248148D01*
X95507274Y-101248140D01*
X95321860Y-101062726D01*
X95321851Y-101062718D01*
X95113803Y-100903075D01*
X94886700Y-100771958D01*
X94886690Y-100771953D01*
X94644428Y-100671605D01*
X94644421Y-100671603D01*
X94644419Y-100671602D01*
X94391116Y-100603730D01*
X94316209Y-100593868D01*
X94131127Y-100569500D01*
X94131120Y-100569500D01*
X93868880Y-100569500D01*
X93868872Y-100569500D01*
X93637772Y-100599926D01*
X93608884Y-100603730D01*
X93355581Y-100671602D01*
X93355571Y-100671605D01*
X93113309Y-100771953D01*
X93113299Y-100771958D01*
X92886196Y-100903075D01*
X92678148Y-101062718D01*
X92492718Y-101248148D01*
X92333075Y-101456196D01*
X92201958Y-101683299D01*
X92201953Y-101683309D01*
X92101605Y-101925571D01*
X92101602Y-101925581D01*
X92033730Y-102178885D01*
X91999500Y-102438872D01*
X85500500Y-102438872D01*
X85500500Y-95999999D01*
X89494696Y-95999999D01*
X89494696Y-96000000D01*
X89499330Y-96088423D01*
X89499500Y-96094913D01*
X89499500Y-98065892D01*
X89510197Y-98105813D01*
X89533608Y-98193187D01*
X89541899Y-98207547D01*
X89599500Y-98307314D01*
X89692686Y-98400500D01*
X89806814Y-98466392D01*
X89934108Y-98500500D01*
X90065892Y-98500500D01*
X90498683Y-98500500D01*
X90565722Y-98520185D01*
X90586364Y-98536819D01*
X90654494Y-98604949D01*
X90654498Y-98604952D01*
X90939635Y-98835852D01*
X91247343Y-99035679D01*
X91247348Y-99035682D01*
X91574264Y-99202255D01*
X91916801Y-99333742D01*
X92271206Y-99428705D01*
X92633596Y-99486102D01*
X92979734Y-99504241D01*
X92999999Y-99505304D01*
X93000000Y-99505304D01*
X93000001Y-99505304D01*
X93019203Y-99504297D01*
X93366404Y-99486102D01*
X93728794Y-99428705D01*
X94083199Y-99333742D01*
X94425736Y-99202255D01*
X94752652Y-99035682D01*
X95060366Y-98835851D01*
X95345506Y-98604949D01*
X95604949Y-98345506D01*
X95835851Y-98060366D01*
X96035682Y-97752652D01*
X96202255Y-97425736D01*
X96333742Y-97083199D01*
X96356035Y-96999999D01*
X103104341Y-96999999D01*
X103104341Y-97000000D01*
X103124936Y-97235403D01*
X103124938Y-97235413D01*
X103186094Y-97463655D01*
X103186096Y-97463659D01*
X103186097Y-97463663D01*
X103266004Y-97635023D01*
X103285965Y-97677830D01*
X103285967Y-97677834D01*
X103394281Y-97832521D01*
X103421505Y-97871401D01*
X103588599Y-98038495D01*
X103684738Y-98105812D01*
X103782165Y-98174032D01*
X103782167Y-98174033D01*
X103782170Y-98174035D01*
X103996337Y-98273903D01*
X104224592Y-98335063D01*
X104412918Y-98351539D01*
X104459999Y-98355659D01*
X104460000Y-98355659D01*
X104460001Y-98355659D01*
X104499234Y-98352226D01*
X104695408Y-98335063D01*
X104923663Y-98273903D01*
X105137830Y-98174035D01*
X105331401Y-98038495D01*
X105498495Y-97871401D01*
X105634035Y-97677830D01*
X105733903Y-97463663D01*
X105795063Y-97235408D01*
X105815659Y-97000000D01*
X105795063Y-96764592D01*
X105733903Y-96536337D01*
X105634035Y-96322171D01*
X105627803Y-96313270D01*
X105498494Y-96128597D01*
X105331402Y-95961506D01*
X105331395Y-95961501D01*
X105137834Y-95825967D01*
X105137830Y-95825965D01*
X105090443Y-95803868D01*
X104923663Y-95726097D01*
X104923659Y-95726096D01*
X104923655Y-95726094D01*
X104695413Y-95664938D01*
X104695403Y-95664936D01*
X104460001Y-95644341D01*
X104459999Y-95644341D01*
X104224596Y-95664936D01*
X104224586Y-95664938D01*
X103996344Y-95726094D01*
X103996335Y-95726098D01*
X103782171Y-95825964D01*
X103782169Y-95825965D01*
X103588597Y-95961505D01*
X103421505Y-96128597D01*
X103285965Y-96322169D01*
X103285964Y-96322171D01*
X103186098Y-96536335D01*
X103186094Y-96536344D01*
X103124938Y-96764586D01*
X103124936Y-96764596D01*
X103104341Y-96999999D01*
X96356035Y-96999999D01*
X96428705Y-96728794D01*
X96486102Y-96366404D01*
X96505304Y-96000000D01*
X96486102Y-95633596D01*
X96428705Y-95271206D01*
X96333742Y-94916801D01*
X96202255Y-94574264D01*
X96035682Y-94247348D01*
X96035679Y-94247343D01*
X95835852Y-93939635D01*
X95604952Y-93654498D01*
X95604949Y-93654494D01*
X95345506Y-93395051D01*
X95060366Y-93164149D01*
X95060364Y-93164147D01*
X94752656Y-92964320D01*
X94425739Y-92797746D01*
X94083206Y-92666260D01*
X94083199Y-92666258D01*
X93728794Y-92571295D01*
X93728790Y-92571294D01*
X93728789Y-92571294D01*
X93366405Y-92513898D01*
X93000001Y-92494696D01*
X92999999Y-92494696D01*
X92633594Y-92513898D01*
X92271211Y-92571294D01*
X92271209Y-92571294D01*
X91916793Y-92666260D01*
X91574260Y-92797746D01*
X91247343Y-92964320D01*
X90939635Y-93164147D01*
X90654498Y-93395047D01*
X90654490Y-93395054D01*
X90586364Y-93463181D01*
X90525041Y-93496666D01*
X90498683Y-93499500D01*
X89934108Y-93499500D01*
X89806812Y-93533608D01*
X89692686Y-93599500D01*
X89692683Y-93599502D01*
X89599502Y-93692683D01*
X89599500Y-93692686D01*
X89533608Y-93806812D01*
X89499500Y-93934108D01*
X89499500Y-95905085D01*
X89499330Y-95911575D01*
X89494696Y-95999999D01*
X85500500Y-95999999D01*
X85500500Y-92124000D01*
X85520185Y-92056961D01*
X85572989Y-92011206D01*
X85624500Y-92000000D01*
X139294850Y-92000000D01*
X139361889Y-92019685D01*
G37*
%TD.AperFunction*%
%TD*%
%TA.AperFunction,Conductor*%
%TO.N,Net-(D1-K)*%
G36*
X92381742Y-69520185D02*
G01*
X92427497Y-69572989D01*
X92437441Y-69642147D01*
X92408416Y-69705703D01*
X92393368Y-69720353D01*
X92279116Y-69814116D01*
X92154090Y-69966460D01*
X92154086Y-69966467D01*
X92061188Y-70140266D01*
X92003975Y-70328870D01*
X91984659Y-70525000D01*
X92003975Y-70721129D01*
X92003976Y-70721132D01*
X92050656Y-70875016D01*
X92061188Y-70909733D01*
X92154086Y-71083532D01*
X92154090Y-71083539D01*
X92279116Y-71235883D01*
X92431460Y-71360909D01*
X92431467Y-71360913D01*
X92605266Y-71453811D01*
X92605269Y-71453811D01*
X92605273Y-71453814D01*
X92793868Y-71511024D01*
X92990000Y-71530341D01*
X93186132Y-71511024D01*
X93374727Y-71453814D01*
X93548538Y-71360910D01*
X93618313Y-71303647D01*
X93682623Y-71276334D01*
X93696978Y-71275500D01*
X95877769Y-71275500D01*
X95944808Y-71295185D01*
X95965450Y-71311818D01*
X96071344Y-71417712D01*
X96220666Y-71509814D01*
X96387203Y-71564999D01*
X96489991Y-71575500D01*
X97490008Y-71575499D01*
X97490016Y-71575498D01*
X97490019Y-71575498D01*
X97546302Y-71569748D01*
X97592797Y-71564999D01*
X97759334Y-71509814D01*
X97908656Y-71417712D01*
X98032712Y-71293656D01*
X98032712Y-71293655D01*
X98037819Y-71288549D01*
X98039705Y-71290435D01*
X98086625Y-71257212D01*
X98126868Y-71250500D01*
X103853132Y-71250500D01*
X103920171Y-71270185D01*
X103941346Y-71289383D01*
X103942181Y-71288549D01*
X103947287Y-71293655D01*
X103947288Y-71293656D01*
X104071344Y-71417712D01*
X104220666Y-71509814D01*
X104387203Y-71564999D01*
X104489991Y-71575500D01*
X105490008Y-71575499D01*
X105490016Y-71575498D01*
X105490019Y-71575498D01*
X105546302Y-71569748D01*
X105592797Y-71564999D01*
X105759334Y-71509814D01*
X105908656Y-71417712D01*
X106032712Y-71293656D01*
X106032712Y-71293655D01*
X106037819Y-71288549D01*
X106039705Y-71290435D01*
X106086625Y-71257212D01*
X106126868Y-71250500D01*
X111853132Y-71250500D01*
X111920171Y-71270185D01*
X111941346Y-71289383D01*
X111942181Y-71288549D01*
X111947287Y-71293655D01*
X111947288Y-71293656D01*
X112071344Y-71417712D01*
X112220666Y-71509814D01*
X112387203Y-71564999D01*
X112489991Y-71575500D01*
X113490008Y-71575499D01*
X113490016Y-71575498D01*
X113490019Y-71575498D01*
X113546302Y-71569748D01*
X113592797Y-71564999D01*
X113759334Y-71509814D01*
X113908656Y-71417712D01*
X114032712Y-71293656D01*
X114032712Y-71293655D01*
X114037819Y-71288549D01*
X114039705Y-71290435D01*
X114086625Y-71257212D01*
X114126868Y-71250500D01*
X119828132Y-71250500D01*
X119895171Y-71270185D01*
X119916346Y-71289383D01*
X119917181Y-71288549D01*
X119922287Y-71293655D01*
X119922288Y-71293656D01*
X120046344Y-71417712D01*
X120195666Y-71509814D01*
X120362203Y-71564999D01*
X120464991Y-71575500D01*
X121465008Y-71575499D01*
X121465016Y-71575498D01*
X121465019Y-71575498D01*
X121521302Y-71569748D01*
X121567797Y-71564999D01*
X121734334Y-71509814D01*
X121883656Y-71417712D01*
X122007712Y-71293656D01*
X122007712Y-71293655D01*
X122012819Y-71288549D01*
X122014705Y-71290435D01*
X122061625Y-71257212D01*
X122101868Y-71250500D01*
X127853132Y-71250500D01*
X127920171Y-71270185D01*
X127941346Y-71289383D01*
X127942181Y-71288549D01*
X127947287Y-71293655D01*
X127947288Y-71293656D01*
X128071344Y-71417712D01*
X128220666Y-71509814D01*
X128387203Y-71564999D01*
X128489991Y-71575500D01*
X129490008Y-71575499D01*
X129490016Y-71575498D01*
X129490019Y-71575498D01*
X129546302Y-71569748D01*
X129592797Y-71564999D01*
X129759334Y-71509814D01*
X129908656Y-71417712D01*
X130032712Y-71293656D01*
X130033819Y-71291861D01*
X130034902Y-71290886D01*
X130037191Y-71287992D01*
X130037685Y-71288382D01*
X130085760Y-71245133D01*
X130115164Y-71235332D01*
X130152626Y-71227881D01*
X130176809Y-71225500D01*
X135853132Y-71225500D01*
X135920171Y-71245185D01*
X135941346Y-71264383D01*
X135942181Y-71263549D01*
X135947288Y-71268656D01*
X136071344Y-71392712D01*
X136220666Y-71484814D01*
X136387203Y-71539999D01*
X136489991Y-71550500D01*
X137490008Y-71550499D01*
X137490016Y-71550498D01*
X137490019Y-71550498D01*
X137546302Y-71544748D01*
X137592797Y-71539999D01*
X137759334Y-71484814D01*
X137908656Y-71392712D01*
X138032712Y-71268656D01*
X138032712Y-71268655D01*
X138037819Y-71263549D01*
X138039705Y-71265435D01*
X138086625Y-71232212D01*
X138126868Y-71225500D01*
X143836042Y-71225500D01*
X143903081Y-71245185D01*
X143941580Y-71284402D01*
X143947288Y-71293656D01*
X144071344Y-71417712D01*
X144220666Y-71509814D01*
X144387203Y-71564999D01*
X144489991Y-71575500D01*
X145490008Y-71575499D01*
X145490016Y-71575498D01*
X145490019Y-71575498D01*
X145546302Y-71569748D01*
X145592797Y-71564999D01*
X145759334Y-71509814D01*
X145908656Y-71417712D01*
X146032712Y-71293656D01*
X146032712Y-71293655D01*
X146037819Y-71288549D01*
X146039705Y-71290435D01*
X146086625Y-71257212D01*
X146126868Y-71250500D01*
X151853132Y-71250500D01*
X151920171Y-71270185D01*
X151941346Y-71289383D01*
X151942181Y-71288549D01*
X151947287Y-71293655D01*
X151947288Y-71293656D01*
X152071344Y-71417712D01*
X152220666Y-71509814D01*
X152387203Y-71564999D01*
X152489991Y-71575500D01*
X153490008Y-71575499D01*
X153490016Y-71575498D01*
X153490019Y-71575498D01*
X153546302Y-71569748D01*
X153592797Y-71564999D01*
X153759334Y-71509814D01*
X153908656Y-71417712D01*
X154032712Y-71293656D01*
X154124814Y-71144334D01*
X154179999Y-70977797D01*
X154190500Y-70875009D01*
X154190499Y-70124992D01*
X154179999Y-70022203D01*
X154124814Y-69855666D01*
X154032712Y-69706344D01*
X154032708Y-69706340D01*
X154028812Y-69701413D01*
X154002671Y-69636618D01*
X154015710Y-69567975D01*
X154063789Y-69517279D01*
X154126077Y-69500500D01*
X164375500Y-69500500D01*
X164442539Y-69520185D01*
X164488294Y-69572989D01*
X164499500Y-69624500D01*
X164499500Y-89901000D01*
X164479815Y-89968039D01*
X164427011Y-90013794D01*
X164375500Y-90025000D01*
X85624500Y-90025000D01*
X85557461Y-90005315D01*
X85511706Y-89952511D01*
X85500500Y-89901000D01*
X85500500Y-85999999D01*
X89494696Y-85999999D01*
X89494696Y-86000000D01*
X89499330Y-86088423D01*
X89499500Y-86094913D01*
X89499500Y-88065892D01*
X89510197Y-88105813D01*
X89533608Y-88193187D01*
X89557982Y-88235403D01*
X89599500Y-88307314D01*
X89692686Y-88400500D01*
X89806814Y-88466392D01*
X89934108Y-88500500D01*
X90065892Y-88500500D01*
X90498683Y-88500500D01*
X90565722Y-88520185D01*
X90586364Y-88536819D01*
X90654494Y-88604949D01*
X90813311Y-88733557D01*
X90939635Y-88835852D01*
X91247343Y-89035679D01*
X91247348Y-89035682D01*
X91574264Y-89202255D01*
X91916801Y-89333742D01*
X92271206Y-89428705D01*
X92633596Y-89486102D01*
X92979734Y-89504241D01*
X92999999Y-89505304D01*
X93000000Y-89505304D01*
X93000001Y-89505304D01*
X93019203Y-89504297D01*
X93366404Y-89486102D01*
X93728794Y-89428705D01*
X94083199Y-89333742D01*
X94425736Y-89202255D01*
X94752652Y-89035682D01*
X95060366Y-88835851D01*
X95345506Y-88604949D01*
X95604949Y-88345506D01*
X95835851Y-88060366D01*
X95875054Y-87999999D01*
X103104341Y-87999999D01*
X103104341Y-88000000D01*
X103124936Y-88235403D01*
X103124938Y-88235413D01*
X103186094Y-88463655D01*
X103186096Y-88463659D01*
X103186097Y-88463663D01*
X103266004Y-88635023D01*
X103285965Y-88677830D01*
X103285967Y-88677834D01*
X103394281Y-88832521D01*
X103421505Y-88871401D01*
X103588599Y-89038495D01*
X103685384Y-89106265D01*
X103782165Y-89174032D01*
X103782167Y-89174033D01*
X103782170Y-89174035D01*
X103996337Y-89273903D01*
X104224592Y-89335063D01*
X104401034Y-89350500D01*
X104459999Y-89355659D01*
X104460000Y-89355659D01*
X104460001Y-89355659D01*
X104518966Y-89350500D01*
X104695408Y-89335063D01*
X104923663Y-89273903D01*
X105137830Y-89174035D01*
X105331401Y-89038495D01*
X105498495Y-88871401D01*
X105634035Y-88677830D01*
X105733903Y-88463663D01*
X105795063Y-88235408D01*
X105815659Y-88000000D01*
X105795063Y-87764592D01*
X105733903Y-87536337D01*
X105634035Y-87322171D01*
X105628425Y-87314158D01*
X105498494Y-87128597D01*
X105331402Y-86961506D01*
X105331395Y-86961501D01*
X105137834Y-86825967D01*
X105137830Y-86825965D01*
X105108521Y-86812298D01*
X104923663Y-86726097D01*
X104923659Y-86726096D01*
X104923655Y-86726094D01*
X104695413Y-86664938D01*
X104695403Y-86664936D01*
X104460001Y-86644341D01*
X104459999Y-86644341D01*
X104224596Y-86664936D01*
X104224586Y-86664938D01*
X103996344Y-86726094D01*
X103996335Y-86726098D01*
X103782171Y-86825964D01*
X103782169Y-86825965D01*
X103588597Y-86961505D01*
X103421505Y-87128597D01*
X103285965Y-87322169D01*
X103285964Y-87322171D01*
X103186098Y-87536335D01*
X103186094Y-87536344D01*
X103124938Y-87764586D01*
X103124936Y-87764596D01*
X103104341Y-87999999D01*
X95875054Y-87999999D01*
X96035682Y-87752652D01*
X96202255Y-87425736D01*
X96333742Y-87083199D01*
X96428705Y-86728794D01*
X96486102Y-86366404D01*
X96505304Y-86000000D01*
X96486102Y-85633596D01*
X96428705Y-85271206D01*
X96333742Y-84916801D01*
X96202255Y-84574264D01*
X96035682Y-84247348D01*
X95835851Y-83939634D01*
X95604949Y-83654494D01*
X95345506Y-83395051D01*
X95197873Y-83275500D01*
X95060364Y-83164147D01*
X94752656Y-82964320D01*
X94425739Y-82797746D01*
X94083206Y-82666260D01*
X94083199Y-82666258D01*
X93728794Y-82571295D01*
X93728790Y-82571294D01*
X93728789Y-82571294D01*
X93366405Y-82513898D01*
X93000001Y-82494696D01*
X92999999Y-82494696D01*
X92633594Y-82513898D01*
X92271211Y-82571294D01*
X92271209Y-82571294D01*
X91916793Y-82666260D01*
X91574260Y-82797746D01*
X91247343Y-82964320D01*
X90939635Y-83164147D01*
X90654498Y-83395047D01*
X90654490Y-83395054D01*
X90586364Y-83463181D01*
X90525041Y-83496666D01*
X90498683Y-83499500D01*
X89934108Y-83499500D01*
X89806812Y-83533608D01*
X89692686Y-83599500D01*
X89692683Y-83599502D01*
X89599502Y-83692683D01*
X89599500Y-83692686D01*
X89533608Y-83806812D01*
X89499500Y-83934108D01*
X89499500Y-85905085D01*
X89499330Y-85911575D01*
X89494696Y-85999999D01*
X85500500Y-85999999D01*
X85500500Y-77173029D01*
X92764500Y-77173029D01*
X92764500Y-78376980D01*
X92770958Y-78448054D01*
X92770960Y-78448061D01*
X92821932Y-78611639D01*
X92821934Y-78611643D01*
X92910569Y-78758265D01*
X92910573Y-78758270D01*
X93031729Y-78879426D01*
X93031734Y-78879430D01*
X93178356Y-78968065D01*
X93178360Y-78968067D01*
X93236221Y-78986097D01*
X93341939Y-79019040D01*
X93413027Y-79025500D01*
X94027769Y-79025499D01*
X94094808Y-79045183D01*
X94115450Y-79061818D01*
X98057048Y-83003415D01*
X98057049Y-83003416D01*
X98161584Y-83107951D01*
X98161585Y-83107952D01*
X98284498Y-83190080D01*
X98284511Y-83190087D01*
X98421082Y-83246656D01*
X98421087Y-83246658D01*
X98421091Y-83246658D01*
X98421092Y-83246659D01*
X98566079Y-83275500D01*
X98566082Y-83275500D01*
X109002770Y-83275500D01*
X109069809Y-83295185D01*
X109090451Y-83311819D01*
X113453181Y-87674548D01*
X113486666Y-87735871D01*
X113489500Y-87762229D01*
X113489500Y-88897870D01*
X113489501Y-88897876D01*
X113495908Y-88957483D01*
X113546202Y-89092328D01*
X113546206Y-89092335D01*
X113632452Y-89207544D01*
X113632455Y-89207547D01*
X113747664Y-89293793D01*
X113747671Y-89293797D01*
X113882517Y-89344091D01*
X113882516Y-89344091D01*
X113889444Y-89344835D01*
X113942127Y-89350500D01*
X115737872Y-89350499D01*
X115797483Y-89344091D01*
X115932331Y-89293796D01*
X116047546Y-89207546D01*
X116133796Y-89092331D01*
X116182810Y-88960916D01*
X116224681Y-88904984D01*
X116290145Y-88880566D01*
X116358418Y-88895417D01*
X116386673Y-88916569D01*
X116508599Y-89038495D01*
X116605384Y-89106265D01*
X116702165Y-89174032D01*
X116702167Y-89174033D01*
X116702170Y-89174035D01*
X116916337Y-89273903D01*
X117144592Y-89335063D01*
X117321034Y-89350500D01*
X117379999Y-89355659D01*
X117380000Y-89355659D01*
X117380001Y-89355659D01*
X117438966Y-89350500D01*
X117615408Y-89335063D01*
X117843663Y-89273903D01*
X118057830Y-89174035D01*
X118251401Y-89038495D01*
X118418495Y-88871401D01*
X118548425Y-88685842D01*
X118603002Y-88642217D01*
X118672500Y-88635023D01*
X118734855Y-88666546D01*
X118751575Y-88685842D01*
X118881500Y-88871395D01*
X118881505Y-88871401D01*
X119048599Y-89038495D01*
X119145384Y-89106265D01*
X119242165Y-89174032D01*
X119242167Y-89174033D01*
X119242170Y-89174035D01*
X119456337Y-89273903D01*
X119684592Y-89335063D01*
X119861034Y-89350500D01*
X119919999Y-89355659D01*
X119920000Y-89355659D01*
X119920001Y-89355659D01*
X119978966Y-89350500D01*
X120155408Y-89335063D01*
X120383663Y-89273903D01*
X120597830Y-89174035D01*
X120791401Y-89038495D01*
X120958495Y-88871401D01*
X121088425Y-88685842D01*
X121143002Y-88642217D01*
X121212500Y-88635023D01*
X121274855Y-88666546D01*
X121291575Y-88685842D01*
X121421500Y-88871395D01*
X121421505Y-88871401D01*
X121588599Y-89038495D01*
X121685384Y-89106265D01*
X121782165Y-89174032D01*
X121782167Y-89174033D01*
X121782170Y-89174035D01*
X121996337Y-89273903D01*
X122224592Y-89335063D01*
X122401034Y-89350500D01*
X122459999Y-89355659D01*
X122460000Y-89355659D01*
X122460001Y-89355659D01*
X122518966Y-89350500D01*
X122695408Y-89335063D01*
X122923663Y-89273903D01*
X123137830Y-89174035D01*
X123331401Y-89038495D01*
X123498495Y-88871401D01*
X123628425Y-88685842D01*
X123683002Y-88642217D01*
X123752500Y-88635023D01*
X123814855Y-88666546D01*
X123831575Y-88685842D01*
X123961500Y-88871395D01*
X123961505Y-88871401D01*
X124128599Y-89038495D01*
X124225384Y-89106265D01*
X124322165Y-89174032D01*
X124322167Y-89174033D01*
X124322170Y-89174035D01*
X124536337Y-89273903D01*
X124764592Y-89335063D01*
X124941034Y-89350500D01*
X124999999Y-89355659D01*
X125000000Y-89355659D01*
X125000001Y-89355659D01*
X125058966Y-89350500D01*
X125235408Y-89335063D01*
X125463663Y-89273903D01*
X125677830Y-89174035D01*
X125871401Y-89038495D01*
X126038495Y-88871401D01*
X126168425Y-88685842D01*
X126223002Y-88642217D01*
X126292500Y-88635023D01*
X126354855Y-88666546D01*
X126371575Y-88685842D01*
X126501500Y-88871395D01*
X126501505Y-88871401D01*
X126668599Y-89038495D01*
X126765384Y-89106265D01*
X126862165Y-89174032D01*
X126862167Y-89174033D01*
X126862170Y-89174035D01*
X127076337Y-89273903D01*
X127304592Y-89335063D01*
X127481034Y-89350500D01*
X127539999Y-89355659D01*
X127540000Y-89355659D01*
X127540001Y-89355659D01*
X127598966Y-89350500D01*
X127775408Y-89335063D01*
X128003663Y-89273903D01*
X128217830Y-89174035D01*
X128411401Y-89038495D01*
X128578495Y-88871401D01*
X128708425Y-88685842D01*
X128763002Y-88642217D01*
X128832500Y-88635023D01*
X128894855Y-88666546D01*
X128911575Y-88685842D01*
X129041500Y-88871395D01*
X129041505Y-88871401D01*
X129208599Y-89038495D01*
X129305384Y-89106265D01*
X129402165Y-89174032D01*
X129402167Y-89174033D01*
X129402170Y-89174035D01*
X129616337Y-89273903D01*
X129844592Y-89335063D01*
X130021034Y-89350500D01*
X130079999Y-89355659D01*
X130080000Y-89355659D01*
X130080001Y-89355659D01*
X130138966Y-89350500D01*
X130315408Y-89335063D01*
X130543663Y-89273903D01*
X130757830Y-89174035D01*
X130951401Y-89038495D01*
X131118495Y-88871401D01*
X131248425Y-88685842D01*
X131303002Y-88642217D01*
X131372500Y-88635023D01*
X131434855Y-88666546D01*
X131451575Y-88685842D01*
X131581500Y-88871395D01*
X131581505Y-88871401D01*
X131748599Y-89038495D01*
X131845384Y-89106265D01*
X131942165Y-89174032D01*
X131942167Y-89174033D01*
X131942170Y-89174035D01*
X132156337Y-89273903D01*
X132384592Y-89335063D01*
X132561034Y-89350500D01*
X132619999Y-89355659D01*
X132620000Y-89355659D01*
X132620001Y-89355659D01*
X132678966Y-89350500D01*
X132855408Y-89335063D01*
X133083663Y-89273903D01*
X133297830Y-89174035D01*
X133491401Y-89038495D01*
X133658495Y-88871401D01*
X133788425Y-88685842D01*
X133843002Y-88642217D01*
X133912500Y-88635023D01*
X133974855Y-88666546D01*
X133991575Y-88685842D01*
X134121500Y-88871395D01*
X134121505Y-88871401D01*
X134288599Y-89038495D01*
X134385384Y-89106265D01*
X134482165Y-89174032D01*
X134482167Y-89174033D01*
X134482170Y-89174035D01*
X134696337Y-89273903D01*
X134924592Y-89335063D01*
X135101034Y-89350500D01*
X135159999Y-89355659D01*
X135160000Y-89355659D01*
X135160001Y-89355659D01*
X135218966Y-89350500D01*
X135395408Y-89335063D01*
X135623663Y-89273903D01*
X135837830Y-89174035D01*
X136031401Y-89038495D01*
X136198495Y-88871401D01*
X136334035Y-88677830D01*
X136433903Y-88463663D01*
X136495063Y-88235408D01*
X136515659Y-88000000D01*
X136497022Y-87786985D01*
X136510788Y-87718486D01*
X136532866Y-87688500D01*
X138221367Y-85999999D01*
X153494696Y-85999999D01*
X153494696Y-86000000D01*
X153513898Y-86366405D01*
X153566782Y-86700298D01*
X153571295Y-86728794D01*
X153610966Y-86876849D01*
X153666260Y-87083206D01*
X153797746Y-87425739D01*
X153964320Y-87752656D01*
X154164147Y-88060364D01*
X154271705Y-88193187D01*
X154395051Y-88345506D01*
X154654494Y-88604949D01*
X154813311Y-88733557D01*
X154939635Y-88835852D01*
X155247343Y-89035679D01*
X155247348Y-89035682D01*
X155574264Y-89202255D01*
X155916801Y-89333742D01*
X156271206Y-89428705D01*
X156633596Y-89486102D01*
X156979734Y-89504241D01*
X156999999Y-89505304D01*
X157000000Y-89505304D01*
X157000001Y-89505304D01*
X157019203Y-89504297D01*
X157366404Y-89486102D01*
X157728794Y-89428705D01*
X158083199Y-89333742D01*
X158425736Y-89202255D01*
X158752652Y-89035682D01*
X159060366Y-88835851D01*
X159345506Y-88604949D01*
X159413636Y-88536819D01*
X159474959Y-88503334D01*
X159501317Y-88500500D01*
X160065890Y-88500500D01*
X160065892Y-88500500D01*
X160193186Y-88466392D01*
X160307314Y-88400500D01*
X160400500Y-88307314D01*
X160466392Y-88193186D01*
X160500500Y-88065892D01*
X160500500Y-86094913D01*
X160500670Y-86088423D01*
X160505304Y-86000000D01*
X160505304Y-85999999D01*
X160500670Y-85911575D01*
X160500500Y-85905085D01*
X160500500Y-83934110D01*
X160500500Y-83934108D01*
X160466392Y-83806814D01*
X160400500Y-83692686D01*
X160307314Y-83599500D01*
X160250250Y-83566554D01*
X160193187Y-83533608D01*
X160129539Y-83516554D01*
X160065892Y-83499500D01*
X160065891Y-83499500D01*
X159501317Y-83499500D01*
X159434278Y-83479815D01*
X159413636Y-83463181D01*
X159345509Y-83395054D01*
X159345501Y-83395047D01*
X159060364Y-83164147D01*
X158752656Y-82964320D01*
X158425739Y-82797746D01*
X158083206Y-82666260D01*
X158083199Y-82666258D01*
X157728794Y-82571295D01*
X157728790Y-82571294D01*
X157728789Y-82571294D01*
X157366405Y-82513898D01*
X157000001Y-82494696D01*
X156999999Y-82494696D01*
X156633594Y-82513898D01*
X156271211Y-82571294D01*
X156271209Y-82571294D01*
X155916793Y-82666260D01*
X155574260Y-82797746D01*
X155247343Y-82964320D01*
X154939635Y-83164147D01*
X154654498Y-83395047D01*
X154654490Y-83395054D01*
X154395054Y-83654490D01*
X154395047Y-83654498D01*
X154164147Y-83939635D01*
X153964320Y-84247343D01*
X153797746Y-84574260D01*
X153666260Y-84916793D01*
X153571294Y-85271209D01*
X153571294Y-85271211D01*
X153513898Y-85633594D01*
X153494696Y-85999999D01*
X138221367Y-85999999D01*
X140909548Y-83311819D01*
X140970871Y-83278334D01*
X140997229Y-83275500D01*
X153963920Y-83275500D01*
X154061462Y-83256096D01*
X154108913Y-83246658D01*
X154245495Y-83190084D01*
X154314595Y-83143913D01*
X154368416Y-83107952D01*
X158444437Y-79031928D01*
X158495224Y-79001226D01*
X158601642Y-78968066D01*
X158677109Y-78922444D01*
X158748265Y-78879430D01*
X158748266Y-78879428D01*
X158748271Y-78879426D01*
X158869426Y-78758271D01*
X158875157Y-78748792D01*
X158958065Y-78611643D01*
X158958066Y-78611642D01*
X159009040Y-78448061D01*
X159015500Y-78376973D01*
X159015499Y-77173028D01*
X159015499Y-77173027D01*
X159015499Y-77173019D01*
X159009041Y-77101945D01*
X159009040Y-77101942D01*
X159009040Y-77101939D01*
X158958066Y-76938358D01*
X158958065Y-76938356D01*
X158869430Y-76791734D01*
X158869426Y-76791729D01*
X158748270Y-76670573D01*
X158748265Y-76670569D01*
X158601643Y-76581934D01*
X158601639Y-76581932D01*
X158438061Y-76530960D01*
X158438063Y-76530960D01*
X158409625Y-76528376D01*
X158366973Y-76524500D01*
X158366970Y-76524500D01*
X157413019Y-76524500D01*
X157341945Y-76530958D01*
X157341938Y-76530960D01*
X157178360Y-76581932D01*
X157178356Y-76581934D01*
X157031734Y-76670569D01*
X157031729Y-76670573D01*
X156910573Y-76791729D01*
X156910569Y-76791734D01*
X156821934Y-76938356D01*
X156821932Y-76938360D01*
X156770960Y-77101937D01*
X156764500Y-77173029D01*
X156764500Y-78376980D01*
X156770958Y-78448054D01*
X156770959Y-78448059D01*
X156780640Y-78479127D01*
X156781790Y-78548987D01*
X156749935Y-78603696D01*
X153615451Y-81738181D01*
X153554128Y-81771666D01*
X153527770Y-81774500D01*
X148001230Y-81774500D01*
X147934191Y-81754815D01*
X147888436Y-81702011D01*
X147878492Y-81632853D01*
X147907517Y-81569297D01*
X147913549Y-81562819D01*
X148286285Y-81190083D01*
X150444437Y-79031928D01*
X150495224Y-79001226D01*
X150601642Y-78968066D01*
X150677109Y-78922444D01*
X150748265Y-78879430D01*
X150748266Y-78879428D01*
X150748271Y-78879426D01*
X150869426Y-78758271D01*
X150875157Y-78748792D01*
X150958065Y-78611643D01*
X150958066Y-78611642D01*
X151009040Y-78448061D01*
X151015500Y-78376973D01*
X151015499Y-77173028D01*
X151015499Y-77173027D01*
X151015499Y-77173019D01*
X151009041Y-77101945D01*
X151009040Y-77101942D01*
X151009040Y-77101939D01*
X150958066Y-76938358D01*
X150958065Y-76938356D01*
X150869430Y-76791734D01*
X150869426Y-76791729D01*
X150748270Y-76670573D01*
X150748265Y-76670569D01*
X150601643Y-76581934D01*
X150601639Y-76581932D01*
X150438061Y-76530960D01*
X150438063Y-76530960D01*
X150409625Y-76528376D01*
X150366973Y-76524500D01*
X150366970Y-76524500D01*
X149413019Y-76524500D01*
X149341945Y-76530958D01*
X149341938Y-76530960D01*
X149178360Y-76581932D01*
X149178356Y-76581934D01*
X149031734Y-76670569D01*
X149031729Y-76670573D01*
X148910573Y-76791729D01*
X148910569Y-76791734D01*
X148821934Y-76938356D01*
X148821932Y-76938360D01*
X148770960Y-77101937D01*
X148764500Y-77173029D01*
X148764500Y-78376980D01*
X148770958Y-78448054D01*
X148770959Y-78448059D01*
X148780640Y-78479127D01*
X148781790Y-78548987D01*
X148749935Y-78603696D01*
X146615451Y-80738181D01*
X146554128Y-80771666D01*
X146527770Y-80774500D01*
X141001230Y-80774500D01*
X140934191Y-80754815D01*
X140888436Y-80702011D01*
X140878492Y-80632853D01*
X140907517Y-80569297D01*
X140913549Y-80562819D01*
X141673027Y-79803340D01*
X142444437Y-79031928D01*
X142495224Y-79001226D01*
X142601642Y-78968066D01*
X142677109Y-78922444D01*
X142748265Y-78879430D01*
X142748266Y-78879428D01*
X142748271Y-78879426D01*
X142869426Y-78758271D01*
X142875157Y-78748792D01*
X142958065Y-78611643D01*
X142958066Y-78611642D01*
X143009040Y-78448061D01*
X143015500Y-78376973D01*
X143015499Y-77173028D01*
X143015499Y-77173027D01*
X143015499Y-77173019D01*
X143009041Y-77101945D01*
X143009040Y-77101942D01*
X143009040Y-77101939D01*
X142958066Y-76938358D01*
X142958065Y-76938356D01*
X142869430Y-76791734D01*
X142869426Y-76791729D01*
X142748270Y-76670573D01*
X142748265Y-76670569D01*
X142601643Y-76581934D01*
X142601639Y-76581932D01*
X142438061Y-76530960D01*
X142438063Y-76530960D01*
X142409625Y-76528376D01*
X142366973Y-76524500D01*
X142366970Y-76524500D01*
X141413019Y-76524500D01*
X141341945Y-76530958D01*
X141341938Y-76530960D01*
X141178360Y-76581932D01*
X141178356Y-76581934D01*
X141031734Y-76670569D01*
X141031729Y-76670573D01*
X140910573Y-76791729D01*
X140910569Y-76791734D01*
X140821934Y-76938356D01*
X140821932Y-76938360D01*
X140770960Y-77101937D01*
X140764500Y-77173029D01*
X140764500Y-78376980D01*
X140770958Y-78448054D01*
X140770959Y-78448059D01*
X140780640Y-78479127D01*
X140781790Y-78548987D01*
X140749935Y-78603696D01*
X139615451Y-79738181D01*
X139554128Y-79771666D01*
X139527770Y-79774500D01*
X137481080Y-79774500D01*
X137336092Y-79803340D01*
X137336082Y-79803343D01*
X137199511Y-79859912D01*
X137199498Y-79859919D01*
X137076584Y-79942048D01*
X137076580Y-79942051D01*
X130391500Y-86627130D01*
X130330177Y-86660615D01*
X130293012Y-86662977D01*
X130231825Y-86657624D01*
X130166756Y-86632172D01*
X130125777Y-86575581D01*
X130121899Y-86505819D01*
X130154949Y-86446417D01*
X134472951Y-82128416D01*
X134555084Y-82005495D01*
X134611658Y-81868913D01*
X134621096Y-81821462D01*
X134640500Y-81723920D01*
X134640500Y-79014511D01*
X134660185Y-78947472D01*
X134700350Y-78908394D01*
X134748271Y-78879426D01*
X134869426Y-78758271D01*
X134875157Y-78748792D01*
X134958065Y-78611643D01*
X134958066Y-78611642D01*
X135009040Y-78448061D01*
X135015500Y-78376973D01*
X135015499Y-77173028D01*
X135015499Y-77173027D01*
X135015499Y-77173019D01*
X135009041Y-77101945D01*
X135009040Y-77101942D01*
X135009040Y-77101939D01*
X134958066Y-76938358D01*
X134958065Y-76938356D01*
X134869430Y-76791734D01*
X134869426Y-76791729D01*
X134748270Y-76670573D01*
X134748265Y-76670569D01*
X134601643Y-76581934D01*
X134601639Y-76581932D01*
X134438061Y-76530960D01*
X134438063Y-76530960D01*
X134409625Y-76528376D01*
X134366973Y-76524500D01*
X134366970Y-76524500D01*
X133413019Y-76524500D01*
X133341945Y-76530958D01*
X133341938Y-76530960D01*
X133178360Y-76581932D01*
X133178356Y-76581934D01*
X133031734Y-76670569D01*
X133031729Y-76670573D01*
X132910573Y-76791729D01*
X132910569Y-76791734D01*
X132821934Y-76938356D01*
X132821932Y-76938360D01*
X132770960Y-77101937D01*
X132764500Y-77173029D01*
X132764500Y-78376980D01*
X132770958Y-78448054D01*
X132770960Y-78448061D01*
X132821932Y-78611639D01*
X132821934Y-78611643D01*
X132910569Y-78758265D01*
X132910573Y-78758270D01*
X132910574Y-78758271D01*
X133031729Y-78879426D01*
X133079649Y-78908394D01*
X133126837Y-78959920D01*
X133139500Y-79014511D01*
X133139500Y-81287769D01*
X133119815Y-81354808D01*
X133103181Y-81375450D01*
X127851500Y-86627130D01*
X127790177Y-86660615D01*
X127753012Y-86662977D01*
X127540002Y-86644341D01*
X127539999Y-86644341D01*
X127304596Y-86664936D01*
X127304586Y-86664938D01*
X127076344Y-86726094D01*
X127076335Y-86726098D01*
X126862171Y-86825964D01*
X126862169Y-86825965D01*
X126668597Y-86961505D01*
X126501505Y-87128597D01*
X126371575Y-87314158D01*
X126316998Y-87357783D01*
X126247500Y-87364977D01*
X126185145Y-87333454D01*
X126168425Y-87314158D01*
X126038494Y-87128597D01*
X125871404Y-86961507D01*
X125803375Y-86913872D01*
X125759751Y-86859294D01*
X125750500Y-86812298D01*
X125750500Y-81966116D01*
X125770185Y-81899077D01*
X125786819Y-81878435D01*
X126102435Y-81562819D01*
X126472952Y-81192302D01*
X126474435Y-81190083D01*
X126529311Y-81107953D01*
X126529312Y-81107951D01*
X126555084Y-81069381D01*
X126611658Y-80932799D01*
X126640500Y-80787804D01*
X126640500Y-79014511D01*
X126660185Y-78947472D01*
X126700350Y-78908394D01*
X126748271Y-78879426D01*
X126869426Y-78758271D01*
X126875157Y-78748792D01*
X126958065Y-78611643D01*
X126958066Y-78611642D01*
X127009040Y-78448061D01*
X127015500Y-78376973D01*
X127015499Y-77173028D01*
X127015499Y-77173027D01*
X127015499Y-77173019D01*
X127009041Y-77101945D01*
X127009040Y-77101942D01*
X127009040Y-77101939D01*
X126958066Y-76938358D01*
X126958065Y-76938356D01*
X126869430Y-76791734D01*
X126869426Y-76791729D01*
X126748270Y-76670573D01*
X126748265Y-76670569D01*
X126601643Y-76581934D01*
X126601639Y-76581932D01*
X126438061Y-76530960D01*
X126438063Y-76530960D01*
X126409625Y-76528376D01*
X126366973Y-76524500D01*
X126366970Y-76524500D01*
X125413019Y-76524500D01*
X125341945Y-76530958D01*
X125341938Y-76530960D01*
X125178360Y-76581932D01*
X125178356Y-76581934D01*
X125031734Y-76670569D01*
X125031729Y-76670573D01*
X124910573Y-76791729D01*
X124910569Y-76791734D01*
X124821934Y-76938356D01*
X124821932Y-76938360D01*
X124770960Y-77101937D01*
X124764500Y-77173029D01*
X124764500Y-78376980D01*
X124770958Y-78448054D01*
X124770960Y-78448061D01*
X124821932Y-78611639D01*
X124821934Y-78611643D01*
X124910569Y-78758265D01*
X124910573Y-78758270D01*
X124910574Y-78758271D01*
X125031729Y-78879426D01*
X125079649Y-78908394D01*
X125126837Y-78959920D01*
X125139500Y-79014511D01*
X125139500Y-80351655D01*
X125119815Y-80418694D01*
X125103181Y-80439336D01*
X124417052Y-81125464D01*
X124417049Y-81125467D01*
X124373874Y-81190083D01*
X124373875Y-81190084D01*
X124334914Y-81248394D01*
X124278343Y-81384968D01*
X124278340Y-81384978D01*
X124249500Y-81529965D01*
X124249500Y-86812298D01*
X124229815Y-86879337D01*
X124196625Y-86913872D01*
X124128595Y-86961507D01*
X123961505Y-87128597D01*
X123831575Y-87314158D01*
X123776998Y-87357783D01*
X123707500Y-87364977D01*
X123645145Y-87333454D01*
X123628425Y-87314158D01*
X123498494Y-87128597D01*
X123331402Y-86961506D01*
X123331395Y-86961501D01*
X123137834Y-86825967D01*
X123137830Y-86825965D01*
X123108521Y-86812298D01*
X122923663Y-86726097D01*
X122923659Y-86726096D01*
X122923655Y-86726094D01*
X122721896Y-86672034D01*
X122666308Y-86639940D01*
X118676819Y-82650451D01*
X118643334Y-82589128D01*
X118640500Y-82562770D01*
X118640500Y-79014511D01*
X118660185Y-78947472D01*
X118700350Y-78908394D01*
X118748271Y-78879426D01*
X118869426Y-78758271D01*
X118875157Y-78748792D01*
X118958065Y-78611643D01*
X118958066Y-78611642D01*
X119009040Y-78448061D01*
X119015500Y-78376973D01*
X119015499Y-77173028D01*
X119015499Y-77173027D01*
X119015499Y-77173019D01*
X119009041Y-77101945D01*
X119009040Y-77101942D01*
X119009040Y-77101939D01*
X118958066Y-76938358D01*
X118958065Y-76938356D01*
X118869430Y-76791734D01*
X118869426Y-76791729D01*
X118748270Y-76670573D01*
X118748265Y-76670569D01*
X118601643Y-76581934D01*
X118601639Y-76581932D01*
X118438061Y-76530960D01*
X118438063Y-76530960D01*
X118409625Y-76528376D01*
X118366973Y-76524500D01*
X118366970Y-76524500D01*
X117413019Y-76524500D01*
X117341945Y-76530958D01*
X117341938Y-76530960D01*
X117178360Y-76581932D01*
X117178356Y-76581934D01*
X117031734Y-76670569D01*
X117031729Y-76670573D01*
X116910573Y-76791729D01*
X116910569Y-76791734D01*
X116821934Y-76938356D01*
X116821932Y-76938360D01*
X116770960Y-77101937D01*
X116764500Y-77173029D01*
X116764500Y-78376980D01*
X116770958Y-78448054D01*
X116770960Y-78448061D01*
X116821932Y-78611639D01*
X116821934Y-78611643D01*
X116910569Y-78758265D01*
X116910573Y-78758270D01*
X116910574Y-78758271D01*
X117031729Y-78879426D01*
X117079649Y-78908394D01*
X117126837Y-78959920D01*
X117139500Y-79014511D01*
X117139500Y-82998918D01*
X117139500Y-82998920D01*
X117139499Y-82998920D01*
X117168340Y-83143907D01*
X117168342Y-83143913D01*
X117224914Y-83280492D01*
X117257812Y-83329727D01*
X117257813Y-83329730D01*
X117307046Y-83403414D01*
X117307052Y-83403421D01*
X120392564Y-86488933D01*
X120426049Y-86550256D01*
X120421065Y-86619948D01*
X120379193Y-86675881D01*
X120313729Y-86700298D01*
X120272790Y-86696389D01*
X120155413Y-86664938D01*
X120155403Y-86664936D01*
X119920001Y-86644341D01*
X119919998Y-86644341D01*
X119706986Y-86662977D01*
X119638486Y-86649210D01*
X119608498Y-86627130D01*
X111051818Y-78070450D01*
X111018333Y-78009127D01*
X111015499Y-77982769D01*
X111015499Y-77173019D01*
X111009041Y-77101945D01*
X111009040Y-77101942D01*
X111009040Y-77101939D01*
X110958066Y-76938358D01*
X110958065Y-76938356D01*
X110869430Y-76791734D01*
X110869426Y-76791729D01*
X110748270Y-76670573D01*
X110748265Y-76670569D01*
X110601643Y-76581934D01*
X110601639Y-76581932D01*
X110438061Y-76530960D01*
X110438063Y-76530960D01*
X110409625Y-76528376D01*
X110366973Y-76524500D01*
X110366970Y-76524500D01*
X109413019Y-76524500D01*
X109341945Y-76530958D01*
X109341938Y-76530960D01*
X109178360Y-76581932D01*
X109178356Y-76581934D01*
X109031734Y-76670569D01*
X109031729Y-76670573D01*
X108910573Y-76791729D01*
X108910569Y-76791734D01*
X108821934Y-76938356D01*
X108821932Y-76938360D01*
X108770960Y-77101937D01*
X108764500Y-77173029D01*
X108764500Y-78376980D01*
X108770958Y-78448054D01*
X108770960Y-78448061D01*
X108821932Y-78611639D01*
X108821934Y-78611643D01*
X108910569Y-78758265D01*
X108910573Y-78758270D01*
X109031729Y-78879426D01*
X109031734Y-78879430D01*
X109178356Y-78968065D01*
X109178360Y-78968067D01*
X109236221Y-78986097D01*
X109341939Y-79019040D01*
X109413027Y-79025500D01*
X109832769Y-79025499D01*
X109899808Y-79045183D01*
X109920450Y-79061818D01*
X111421451Y-80562819D01*
X111454936Y-80624142D01*
X111449952Y-80693834D01*
X111408080Y-80749767D01*
X111342616Y-80774184D01*
X111333770Y-80774500D01*
X104852229Y-80774500D01*
X104785190Y-80754815D01*
X104764548Y-80738181D01*
X102906175Y-78879807D01*
X102872690Y-78818484D01*
X102877674Y-78748792D01*
X102887735Y-78727983D01*
X102958066Y-78611642D01*
X103009040Y-78448061D01*
X103015500Y-78376973D01*
X103015499Y-77173028D01*
X103015499Y-77173027D01*
X103015499Y-77173019D01*
X103009041Y-77101945D01*
X103009040Y-77101942D01*
X103009040Y-77101939D01*
X102958066Y-76938358D01*
X102958065Y-76938356D01*
X102869430Y-76791734D01*
X102869426Y-76791729D01*
X102748270Y-76670573D01*
X102748265Y-76670569D01*
X102601643Y-76581934D01*
X102601639Y-76581932D01*
X102438061Y-76530960D01*
X102438063Y-76530960D01*
X102409625Y-76528376D01*
X102366973Y-76524500D01*
X102366970Y-76524500D01*
X101413019Y-76524500D01*
X101341945Y-76530958D01*
X101341938Y-76530960D01*
X101178360Y-76581932D01*
X101178356Y-76581934D01*
X101031734Y-76670569D01*
X101031729Y-76670573D01*
X100910573Y-76791729D01*
X100910569Y-76791734D01*
X100821934Y-76938356D01*
X100821932Y-76938360D01*
X100770960Y-77101937D01*
X100764500Y-77173029D01*
X100764500Y-78376980D01*
X100770958Y-78448054D01*
X100770960Y-78448061D01*
X100821932Y-78611639D01*
X100821934Y-78611643D01*
X100910569Y-78758265D01*
X100910573Y-78758270D01*
X100910574Y-78758271D01*
X101031729Y-78879426D01*
X101080645Y-78908996D01*
X101127831Y-78960521D01*
X101137122Y-78993179D01*
X101138311Y-78992943D01*
X101168340Y-79143907D01*
X101168343Y-79143917D01*
X101224914Y-79280492D01*
X101257812Y-79329727D01*
X101257813Y-79329730D01*
X101307046Y-79403414D01*
X101307052Y-79403421D01*
X103466452Y-81562819D01*
X103499937Y-81624142D01*
X103494953Y-81693834D01*
X103453081Y-81749767D01*
X103387617Y-81774184D01*
X103378771Y-81774500D01*
X99002229Y-81774500D01*
X98935190Y-81754815D01*
X98914548Y-81738181D01*
X95051818Y-77875450D01*
X95018333Y-77814127D01*
X95015499Y-77787769D01*
X95015499Y-77173019D01*
X95009041Y-77101945D01*
X95009040Y-77101942D01*
X95009040Y-77101939D01*
X94958066Y-76938358D01*
X94958065Y-76938356D01*
X94869430Y-76791734D01*
X94869426Y-76791729D01*
X94748270Y-76670573D01*
X94748265Y-76670569D01*
X94601643Y-76581934D01*
X94601639Y-76581932D01*
X94438061Y-76530960D01*
X94438063Y-76530960D01*
X94409625Y-76528376D01*
X94366973Y-76524500D01*
X94366970Y-76524500D01*
X93413019Y-76524500D01*
X93341945Y-76530958D01*
X93341938Y-76530960D01*
X93178360Y-76581932D01*
X93178356Y-76581934D01*
X93031734Y-76670569D01*
X93031729Y-76670573D01*
X92910573Y-76791729D01*
X92910569Y-76791734D01*
X92821934Y-76938356D01*
X92821932Y-76938360D01*
X92770960Y-77101937D01*
X92764500Y-77173029D01*
X85500500Y-77173029D01*
X85500500Y-75525000D01*
X89484659Y-75525000D01*
X89503975Y-75721129D01*
X89561188Y-75909733D01*
X89654086Y-76083532D01*
X89654090Y-76083539D01*
X89779116Y-76235883D01*
X89931460Y-76360909D01*
X89931467Y-76360913D01*
X90105266Y-76453811D01*
X90105269Y-76453811D01*
X90105273Y-76453814D01*
X90293868Y-76511024D01*
X90490000Y-76530341D01*
X90686132Y-76511024D01*
X90874727Y-76453814D01*
X91048538Y-76360910D01*
X91118313Y-76303647D01*
X91182623Y-76276334D01*
X91196978Y-76275500D01*
X157563920Y-76275500D01*
X157661462Y-76256096D01*
X157708913Y-76246658D01*
X157845495Y-76190084D01*
X157910487Y-76146658D01*
X157910487Y-76146657D01*
X157910489Y-76146657D01*
X157939451Y-76127305D01*
X157968416Y-76107952D01*
X158472951Y-75603416D01*
X158555084Y-75480495D01*
X158611658Y-75343913D01*
X158640500Y-75198918D01*
X158640500Y-75051083D01*
X158640500Y-75051082D01*
X158640500Y-74514511D01*
X158660185Y-74447472D01*
X158700350Y-74408394D01*
X158748271Y-74379426D01*
X158869426Y-74258271D01*
X158958066Y-74111642D01*
X159009040Y-73948061D01*
X159015500Y-73876973D01*
X159015499Y-72673028D01*
X159015499Y-72673027D01*
X159015499Y-72673019D01*
X159009041Y-72601945D01*
X159009040Y-72601942D01*
X159009040Y-72601939D01*
X158958066Y-72438358D01*
X158958065Y-72438356D01*
X158869430Y-72291734D01*
X158869426Y-72291729D01*
X158748270Y-72170573D01*
X158748265Y-72170569D01*
X158601643Y-72081934D01*
X158601639Y-72081932D01*
X158438061Y-72030960D01*
X158438063Y-72030960D01*
X158409625Y-72028376D01*
X158366973Y-72024500D01*
X158366970Y-72024500D01*
X157413019Y-72024500D01*
X157341945Y-72030958D01*
X157341938Y-72030960D01*
X157178360Y-72081932D01*
X157178356Y-72081934D01*
X157031734Y-72170569D01*
X157031729Y-72170573D01*
X156910573Y-72291729D01*
X156910569Y-72291734D01*
X156821934Y-72438356D01*
X156821932Y-72438360D01*
X156770960Y-72601937D01*
X156764500Y-72673029D01*
X156764500Y-73876980D01*
X156770958Y-73948054D01*
X156770960Y-73948061D01*
X156821932Y-74111639D01*
X156821934Y-74111643D01*
X156910569Y-74258265D01*
X156910573Y-74258270D01*
X156910574Y-74258271D01*
X157031729Y-74379426D01*
X157079649Y-74408394D01*
X157126837Y-74459920D01*
X157139500Y-74514511D01*
X157139500Y-74650500D01*
X157119815Y-74717539D01*
X157067011Y-74763294D01*
X157015500Y-74774500D01*
X150764500Y-74774500D01*
X150697461Y-74754815D01*
X150651706Y-74702011D01*
X150640500Y-74650500D01*
X150640500Y-74514511D01*
X150660185Y-74447472D01*
X150700350Y-74408394D01*
X150748271Y-74379426D01*
X150869426Y-74258271D01*
X150958066Y-74111642D01*
X151009040Y-73948061D01*
X151015500Y-73876973D01*
X151015499Y-72673028D01*
X151015499Y-72673027D01*
X151015499Y-72673019D01*
X151009041Y-72601945D01*
X151009040Y-72601942D01*
X151009040Y-72601939D01*
X150958066Y-72438358D01*
X150958065Y-72438356D01*
X150869430Y-72291734D01*
X150869426Y-72291729D01*
X150748270Y-72170573D01*
X150748265Y-72170569D01*
X150601643Y-72081934D01*
X150601639Y-72081932D01*
X150438061Y-72030960D01*
X150438063Y-72030960D01*
X150409625Y-72028376D01*
X150366973Y-72024500D01*
X150366970Y-72024500D01*
X149413019Y-72024500D01*
X149341945Y-72030958D01*
X149341938Y-72030960D01*
X149178360Y-72081932D01*
X149178356Y-72081934D01*
X149031734Y-72170569D01*
X149031729Y-72170573D01*
X148910573Y-72291729D01*
X148910569Y-72291734D01*
X148821934Y-72438356D01*
X148821932Y-72438360D01*
X148770960Y-72601937D01*
X148764500Y-72673029D01*
X148764500Y-73876980D01*
X148770958Y-73948054D01*
X148770960Y-73948061D01*
X148821932Y-74111639D01*
X148821934Y-74111643D01*
X148910569Y-74258265D01*
X148910573Y-74258270D01*
X148910574Y-74258271D01*
X149031729Y-74379426D01*
X149079649Y-74408394D01*
X149126837Y-74459920D01*
X149139500Y-74514511D01*
X149139500Y-74650500D01*
X149119815Y-74717539D01*
X149067011Y-74763294D01*
X149015500Y-74774500D01*
X142764500Y-74774500D01*
X142697461Y-74754815D01*
X142651706Y-74702011D01*
X142640500Y-74650500D01*
X142640500Y-74514511D01*
X142660185Y-74447472D01*
X142700350Y-74408394D01*
X142748271Y-74379426D01*
X142869426Y-74258271D01*
X142958066Y-74111642D01*
X143009040Y-73948061D01*
X143015500Y-73876973D01*
X143015499Y-72673028D01*
X143015499Y-72673027D01*
X143015499Y-72673019D01*
X143009041Y-72601945D01*
X143009040Y-72601942D01*
X143009040Y-72601939D01*
X142958066Y-72438358D01*
X142958065Y-72438356D01*
X142869430Y-72291734D01*
X142869426Y-72291729D01*
X142748270Y-72170573D01*
X142748265Y-72170569D01*
X142601643Y-72081934D01*
X142601639Y-72081932D01*
X142438061Y-72030960D01*
X142438063Y-72030960D01*
X142409625Y-72028376D01*
X142366973Y-72024500D01*
X142366970Y-72024500D01*
X141413019Y-72024500D01*
X141341945Y-72030958D01*
X141341938Y-72030960D01*
X141178360Y-72081932D01*
X141178356Y-72081934D01*
X141031734Y-72170569D01*
X141031729Y-72170573D01*
X140910573Y-72291729D01*
X140910569Y-72291734D01*
X140821934Y-72438356D01*
X140821932Y-72438360D01*
X140770960Y-72601937D01*
X140764500Y-72673029D01*
X140764500Y-73876980D01*
X140770958Y-73948054D01*
X140770960Y-73948061D01*
X140821932Y-74111639D01*
X140821934Y-74111643D01*
X140910569Y-74258265D01*
X140910573Y-74258270D01*
X140910574Y-74258271D01*
X141031729Y-74379426D01*
X141079649Y-74408394D01*
X141126837Y-74459920D01*
X141139500Y-74514511D01*
X141139500Y-74650500D01*
X141119815Y-74717539D01*
X141067011Y-74763294D01*
X141015500Y-74774500D01*
X134764500Y-74774500D01*
X134697461Y-74754815D01*
X134651706Y-74702011D01*
X134640500Y-74650500D01*
X134640500Y-74514511D01*
X134660185Y-74447472D01*
X134700350Y-74408394D01*
X134748271Y-74379426D01*
X134869426Y-74258271D01*
X134958066Y-74111642D01*
X135009040Y-73948061D01*
X135015500Y-73876973D01*
X135015499Y-72673028D01*
X135015499Y-72673027D01*
X135015499Y-72673019D01*
X135009041Y-72601945D01*
X135009040Y-72601942D01*
X135009040Y-72601939D01*
X134958066Y-72438358D01*
X134958065Y-72438356D01*
X134869430Y-72291734D01*
X134869426Y-72291729D01*
X134748270Y-72170573D01*
X134748265Y-72170569D01*
X134601643Y-72081934D01*
X134601639Y-72081932D01*
X134438061Y-72030960D01*
X134438063Y-72030960D01*
X134409625Y-72028376D01*
X134366973Y-72024500D01*
X134366970Y-72024500D01*
X133413019Y-72024500D01*
X133341945Y-72030958D01*
X133341938Y-72030960D01*
X133178360Y-72081932D01*
X133178356Y-72081934D01*
X133031734Y-72170569D01*
X133031729Y-72170573D01*
X132910573Y-72291729D01*
X132910569Y-72291734D01*
X132821934Y-72438356D01*
X132821932Y-72438360D01*
X132770960Y-72601937D01*
X132764500Y-72673029D01*
X132764500Y-73876980D01*
X132770958Y-73948054D01*
X132770960Y-73948061D01*
X132821932Y-74111639D01*
X132821934Y-74111643D01*
X132910569Y-74258265D01*
X132910573Y-74258270D01*
X132910574Y-74258271D01*
X133031729Y-74379426D01*
X133079649Y-74408394D01*
X133126837Y-74459920D01*
X133139500Y-74514511D01*
X133139500Y-74650500D01*
X133119815Y-74717539D01*
X133067011Y-74763294D01*
X133015500Y-74774500D01*
X126764500Y-74774500D01*
X126697461Y-74754815D01*
X126651706Y-74702011D01*
X126640500Y-74650500D01*
X126640500Y-74514511D01*
X126660185Y-74447472D01*
X126700350Y-74408394D01*
X126748271Y-74379426D01*
X126869426Y-74258271D01*
X126958066Y-74111642D01*
X127009040Y-73948061D01*
X127015500Y-73876973D01*
X127015499Y-72673028D01*
X127015499Y-72673027D01*
X127015499Y-72673019D01*
X127009041Y-72601945D01*
X127009040Y-72601942D01*
X127009040Y-72601939D01*
X126958066Y-72438358D01*
X126958065Y-72438356D01*
X126869430Y-72291734D01*
X126869426Y-72291729D01*
X126748270Y-72170573D01*
X126748265Y-72170569D01*
X126601643Y-72081934D01*
X126601639Y-72081932D01*
X126438061Y-72030960D01*
X126438063Y-72030960D01*
X126409625Y-72028376D01*
X126366973Y-72024500D01*
X126366970Y-72024500D01*
X125413019Y-72024500D01*
X125341945Y-72030958D01*
X125341938Y-72030960D01*
X125178360Y-72081932D01*
X125178356Y-72081934D01*
X125031734Y-72170569D01*
X125031729Y-72170573D01*
X124910573Y-72291729D01*
X124910569Y-72291734D01*
X124821934Y-72438356D01*
X124821932Y-72438360D01*
X124770960Y-72601937D01*
X124764500Y-72673029D01*
X124764500Y-73876980D01*
X124770958Y-73948054D01*
X124770960Y-73948061D01*
X124821932Y-74111639D01*
X124821934Y-74111643D01*
X124910569Y-74258265D01*
X124910573Y-74258270D01*
X124910574Y-74258271D01*
X125031729Y-74379426D01*
X125079649Y-74408394D01*
X125126837Y-74459920D01*
X125139500Y-74514511D01*
X125139500Y-74650500D01*
X125119815Y-74717539D01*
X125067011Y-74763294D01*
X125015500Y-74774500D01*
X118764500Y-74774500D01*
X118697461Y-74754815D01*
X118651706Y-74702011D01*
X118640500Y-74650500D01*
X118640500Y-74514511D01*
X118660185Y-74447472D01*
X118700350Y-74408394D01*
X118748271Y-74379426D01*
X118869426Y-74258271D01*
X118958066Y-74111642D01*
X119009040Y-73948061D01*
X119015500Y-73876973D01*
X119015499Y-72673028D01*
X119015499Y-72673027D01*
X119015499Y-72673019D01*
X119009041Y-72601945D01*
X119009040Y-72601942D01*
X119009040Y-72601939D01*
X118958066Y-72438358D01*
X118958065Y-72438356D01*
X118869430Y-72291734D01*
X118869426Y-72291729D01*
X118748270Y-72170573D01*
X118748265Y-72170569D01*
X118601643Y-72081934D01*
X118601639Y-72081932D01*
X118438061Y-72030960D01*
X118438063Y-72030960D01*
X118409625Y-72028376D01*
X118366973Y-72024500D01*
X118366970Y-72024500D01*
X117413019Y-72024500D01*
X117341945Y-72030958D01*
X117341938Y-72030960D01*
X117178360Y-72081932D01*
X117178356Y-72081934D01*
X117031734Y-72170569D01*
X117031729Y-72170573D01*
X116910573Y-72291729D01*
X116910569Y-72291734D01*
X116821934Y-72438356D01*
X116821932Y-72438360D01*
X116770960Y-72601937D01*
X116764500Y-72673029D01*
X116764500Y-73876980D01*
X116770958Y-73948054D01*
X116770960Y-73948061D01*
X116821932Y-74111639D01*
X116821934Y-74111643D01*
X116910569Y-74258265D01*
X116910573Y-74258270D01*
X116910574Y-74258271D01*
X117031729Y-74379426D01*
X117079649Y-74408394D01*
X117126837Y-74459920D01*
X117139500Y-74514511D01*
X117139500Y-74650500D01*
X117119815Y-74717539D01*
X117067011Y-74763294D01*
X117015500Y-74774500D01*
X110764500Y-74774500D01*
X110697461Y-74754815D01*
X110651706Y-74702011D01*
X110640500Y-74650500D01*
X110640500Y-74514511D01*
X110660185Y-74447472D01*
X110700350Y-74408394D01*
X110748271Y-74379426D01*
X110869426Y-74258271D01*
X110958066Y-74111642D01*
X111009040Y-73948061D01*
X111015500Y-73876973D01*
X111015499Y-72673028D01*
X111015499Y-72673027D01*
X111015499Y-72673019D01*
X111009041Y-72601945D01*
X111009040Y-72601942D01*
X111009040Y-72601939D01*
X110958066Y-72438358D01*
X110958065Y-72438356D01*
X110869430Y-72291734D01*
X110869426Y-72291729D01*
X110748270Y-72170573D01*
X110748265Y-72170569D01*
X110601643Y-72081934D01*
X110601639Y-72081932D01*
X110438061Y-72030960D01*
X110438063Y-72030960D01*
X110409625Y-72028376D01*
X110366973Y-72024500D01*
X110366970Y-72024500D01*
X109413019Y-72024500D01*
X109341945Y-72030958D01*
X109341938Y-72030960D01*
X109178360Y-72081932D01*
X109178356Y-72081934D01*
X109031734Y-72170569D01*
X109031729Y-72170573D01*
X108910573Y-72291729D01*
X108910569Y-72291734D01*
X108821934Y-72438356D01*
X108821932Y-72438360D01*
X108770960Y-72601937D01*
X108764500Y-72673029D01*
X108764500Y-73876980D01*
X108770958Y-73948054D01*
X108770960Y-73948061D01*
X108821932Y-74111639D01*
X108821934Y-74111643D01*
X108910569Y-74258265D01*
X108910573Y-74258270D01*
X108910574Y-74258271D01*
X109031729Y-74379426D01*
X109079649Y-74408394D01*
X109126837Y-74459920D01*
X109139500Y-74514511D01*
X109139500Y-74650500D01*
X109119815Y-74717539D01*
X109067011Y-74763294D01*
X109015500Y-74774500D01*
X102764500Y-74774500D01*
X102697461Y-74754815D01*
X102651706Y-74702011D01*
X102640500Y-74650500D01*
X102640500Y-74514511D01*
X102660185Y-74447472D01*
X102700350Y-74408394D01*
X102748271Y-74379426D01*
X102869426Y-74258271D01*
X102958066Y-74111642D01*
X103009040Y-73948061D01*
X103015500Y-73876973D01*
X103015499Y-72673028D01*
X103015499Y-72673027D01*
X103015499Y-72673019D01*
X103009041Y-72601945D01*
X103009040Y-72601942D01*
X103009040Y-72601939D01*
X102958066Y-72438358D01*
X102958065Y-72438356D01*
X102869430Y-72291734D01*
X102869426Y-72291729D01*
X102748270Y-72170573D01*
X102748265Y-72170569D01*
X102601643Y-72081934D01*
X102601639Y-72081932D01*
X102438061Y-72030960D01*
X102438063Y-72030960D01*
X102409625Y-72028376D01*
X102366973Y-72024500D01*
X102366970Y-72024500D01*
X101413019Y-72024500D01*
X101341945Y-72030958D01*
X101341938Y-72030960D01*
X101178360Y-72081932D01*
X101178356Y-72081934D01*
X101031734Y-72170569D01*
X101031729Y-72170573D01*
X100910573Y-72291729D01*
X100910569Y-72291734D01*
X100821934Y-72438356D01*
X100821932Y-72438360D01*
X100770960Y-72601937D01*
X100764500Y-72673029D01*
X100764500Y-73876980D01*
X100770958Y-73948054D01*
X100770960Y-73948061D01*
X100821932Y-74111639D01*
X100821934Y-74111643D01*
X100910569Y-74258265D01*
X100910573Y-74258270D01*
X100910574Y-74258271D01*
X101031729Y-74379426D01*
X101079649Y-74408394D01*
X101126837Y-74459920D01*
X101139500Y-74514511D01*
X101139500Y-74650500D01*
X101119815Y-74717539D01*
X101067011Y-74763294D01*
X101015500Y-74774500D01*
X94764500Y-74774500D01*
X94697461Y-74754815D01*
X94651706Y-74702011D01*
X94640500Y-74650500D01*
X94640500Y-74514511D01*
X94660185Y-74447472D01*
X94700350Y-74408394D01*
X94748271Y-74379426D01*
X94869426Y-74258271D01*
X94958066Y-74111642D01*
X95009040Y-73948061D01*
X95015500Y-73876973D01*
X95015499Y-72673028D01*
X95015499Y-72673027D01*
X95015499Y-72673019D01*
X95009041Y-72601945D01*
X95009040Y-72601942D01*
X95009040Y-72601939D01*
X94958066Y-72438358D01*
X94958065Y-72438356D01*
X94869430Y-72291734D01*
X94869426Y-72291729D01*
X94748270Y-72170573D01*
X94748265Y-72170569D01*
X94601643Y-72081934D01*
X94601639Y-72081932D01*
X94438061Y-72030960D01*
X94438063Y-72030960D01*
X94409625Y-72028376D01*
X94366973Y-72024500D01*
X94366970Y-72024500D01*
X93413019Y-72024500D01*
X93341945Y-72030958D01*
X93341938Y-72030960D01*
X93178360Y-72081932D01*
X93178356Y-72081934D01*
X93031734Y-72170569D01*
X93031729Y-72170573D01*
X92910573Y-72291729D01*
X92910569Y-72291734D01*
X92821934Y-72438356D01*
X92821932Y-72438360D01*
X92770960Y-72601937D01*
X92764500Y-72673029D01*
X92764500Y-73876980D01*
X92770958Y-73948054D01*
X92770960Y-73948061D01*
X92821932Y-74111639D01*
X92821934Y-74111643D01*
X92910569Y-74258265D01*
X92910573Y-74258270D01*
X92910574Y-74258271D01*
X93031729Y-74379426D01*
X93079649Y-74408394D01*
X93126837Y-74459920D01*
X93139500Y-74514511D01*
X93139500Y-74650500D01*
X93119815Y-74717539D01*
X93067011Y-74763294D01*
X93015500Y-74774500D01*
X91196978Y-74774500D01*
X91129939Y-74754815D01*
X91118313Y-74746353D01*
X91048539Y-74689090D01*
X91048532Y-74689086D01*
X90874733Y-74596188D01*
X90874727Y-74596186D01*
X90686132Y-74538976D01*
X90686129Y-74538975D01*
X90490000Y-74519659D01*
X90293870Y-74538975D01*
X90105266Y-74596188D01*
X89931467Y-74689086D01*
X89931460Y-74689090D01*
X89779116Y-74814116D01*
X89654090Y-74966460D01*
X89654086Y-74966467D01*
X89561188Y-75140266D01*
X89503975Y-75328870D01*
X89484659Y-75525000D01*
X85500500Y-75525000D01*
X85500500Y-69624500D01*
X85520185Y-69557461D01*
X85572989Y-69511706D01*
X85624500Y-69500500D01*
X92314703Y-69500500D01*
X92381742Y-69520185D01*
G37*
%TD.AperFunction*%
%TD*%
M02*
