%TF.GenerationSoftware,KiCad,Pcbnew,8.0.8*%
%TF.CreationDate,2025-07-28T16:06:37+02:00*%
%TF.ProjectId,Linefollower Wz.4,4c696e65-666f-46c6-9c6f-77657220577a,4.1*%
%TF.SameCoordinates,Original*%
%TF.FileFunction,Profile,NP*%
%FSLAX46Y46*%
G04 Gerber Fmt 4.6, Leading zero omitted, Abs format (unit mm)*
G04 Created by KiCad (PCBNEW 8.0.8) date 2025-07-28 16:06:37*
%MOMM*%
%LPD*%
G01*
G04 APERTURE LIST*
%TA.AperFunction,Profile*%
%ADD10C,0.050000*%
%TD*%
G04 APERTURE END LIST*
D10*
X159000000Y-94000000D02*
X160000000Y-94000000D01*
X160000000Y-98000000D01*
X159000000Y-98000000D01*
X159000000Y-94000000D01*
X154000000Y-123000000D02*
X159000000Y-123000000D01*
X159000000Y-125000000D01*
X154000000Y-125000000D01*
X154000000Y-123000000D01*
X165000000Y-90000000D02*
X165000000Y-92000000D01*
X165000000Y-140000000D01*
X85000000Y-140000000D01*
X85000000Y-92000000D01*
X85000000Y-90000000D01*
X85000000Y-69000000D01*
X165000000Y-69000000D01*
X165000000Y-90000000D01*
X90000000Y-94000000D02*
X91000000Y-94000000D01*
X91000000Y-98000000D01*
X90000000Y-98000000D01*
X90000000Y-94000000D01*
X160000000Y-86000000D02*
G75*
G02*
X154000000Y-86000000I-3000000J0D01*
G01*
X154000000Y-86000000D02*
G75*
G02*
X160000000Y-86000000I3000000J0D01*
G01*
X96000000Y-125000000D02*
X91000000Y-125000000D01*
X91000000Y-123000000D01*
X96000000Y-123000000D01*
X96000000Y-125000000D01*
X159000000Y-84000000D02*
X160000000Y-84000000D01*
X160000000Y-88000000D01*
X159000000Y-88000000D01*
X159000000Y-84000000D01*
X90000000Y-84000000D02*
X91000000Y-84000000D01*
X91000000Y-88000000D01*
X90000000Y-88000000D01*
X90000000Y-84000000D01*
X139500000Y-109500000D02*
X140500000Y-109500000D01*
X140500000Y-112500000D01*
X139500000Y-112500000D01*
X139500000Y-109500000D01*
X154000000Y-137000000D02*
X159000000Y-137000000D01*
X159000000Y-139000000D01*
X154000000Y-139000000D01*
X154000000Y-137000000D01*
X160000000Y-96000000D02*
G75*
G02*
X154000000Y-96000000I-3000000J0D01*
G01*
X154000000Y-96000000D02*
G75*
G02*
X160000000Y-96000000I3000000J0D01*
G01*
X96000000Y-139000000D02*
X91000000Y-139000000D01*
X91000000Y-137000000D01*
X96000000Y-137000000D01*
X96000000Y-139000000D01*
X146000000Y-109500000D02*
X147000000Y-109500000D01*
X147000000Y-112500000D01*
X146000000Y-112500000D01*
X146000000Y-109500000D01*
X96000000Y-96000000D02*
G75*
G02*
X90000000Y-96000000I-3000000J0D01*
G01*
X90000000Y-96000000D02*
G75*
G02*
X96000000Y-96000000I3000000J0D01*
G01*
X96000000Y-86000000D02*
G75*
G02*
X90000000Y-86000000I-3000000J0D01*
G01*
X90000000Y-86000000D02*
G75*
G02*
X96000000Y-86000000I3000000J0D01*
G01*
M02*
