%TF.GenerationSoftware,KiCad,Pcbnew,8.0.8*%
%TF.CreationDate,2025-07-28T16:06:37+02:00*%
%TF.ProjectId,Linefollower Wz.4,4c696e65-666f-46c6-9c6f-77657220577a,4.1*%
%TF.SameCoordinates,Original*%
%TF.FileFunction,Copper,L1,Top*%
%TF.FilePolarity,Positive*%
%FSLAX46Y46*%
G04 Gerber Fmt 4.6, Leading zero omitted, Abs format (unit mm)*
G04 Created by KiCad (PCBNEW 8.0.8) date 2025-07-28 16:06:37*
%MOMM*%
%LPD*%
G01*
G04 APERTURE LIST*
G04 Aperture macros list*
%AMRoundRect*
0 Rectangle with rounded corners*
0 $1 Rounding radius*
0 $2 $3 $4 $5 $6 $7 $8 $9 X,Y pos of 4 corners*
0 Add a 4 corners polygon primitive as box body*
4,1,4,$2,$3,$4,$5,$6,$7,$8,$9,$2,$3,0*
0 Add four circle primitives for the rounded corners*
1,1,$1+$1,$2,$3*
1,1,$1+$1,$4,$5*
1,1,$1+$1,$6,$7*
1,1,$1+$1,$8,$9*
0 Add four rect primitives between the rounded corners*
20,1,$1+$1,$2,$3,$4,$5,0*
20,1,$1+$1,$4,$5,$6,$7,0*
20,1,$1+$1,$6,$7,$8,$9,0*
20,1,$1+$1,$8,$9,$2,$3,0*%
G04 Aperture macros list end*
%TA.AperFunction,SMDPad,CuDef*%
%ADD10RoundRect,0.250000X0.450000X-0.350000X0.450000X0.350000X-0.450000X0.350000X-0.450000X-0.350000X0*%
%TD*%
%TA.AperFunction,ComponentPad*%
%ADD11R,1.700000X1.700000*%
%TD*%
%TA.AperFunction,ComponentPad*%
%ADD12O,1.700000X1.700000*%
%TD*%
%TA.AperFunction,ComponentPad*%
%ADD13C,1.600000*%
%TD*%
%TA.AperFunction,ComponentPad*%
%ADD14C,1.500000*%
%TD*%
%TA.AperFunction,ComponentPad*%
%ADD15R,2.250000X2.250000*%
%TD*%
%TA.AperFunction,ComponentPad*%
%ADD16C,2.250000*%
%TD*%
%TA.AperFunction,ComponentPad*%
%ADD17R,1.905000X2.000000*%
%TD*%
%TA.AperFunction,ComponentPad*%
%ADD18O,1.905000X2.000000*%
%TD*%
%TA.AperFunction,ComponentPad*%
%ADD19R,1.600000X1.600000*%
%TD*%
%TA.AperFunction,ComponentPad*%
%ADD20O,1.600000X1.600000*%
%TD*%
%TA.AperFunction,SMDPad,CuDef*%
%ADD21RoundRect,0.250000X-0.450000X0.350000X-0.450000X-0.350000X0.450000X-0.350000X0.450000X0.350000X0*%
%TD*%
%TA.AperFunction,ViaPad*%
%ADD22C,1.000000*%
%TD*%
%TA.AperFunction,Conductor*%
%ADD23C,0.500000*%
%TD*%
%TA.AperFunction,Conductor*%
%ADD24C,0.200000*%
%TD*%
G04 APERTURE END LIST*
D10*
%TO.P,R3,1*%
%TO.N,Net-(J4-Pin_2)*%
X87990000Y-72525000D03*
%TO.P,R3,2*%
%TO.N,Net-(D1-A)*%
X87990000Y-70525000D03*
%TD*%
%TO.P,R4,1*%
%TO.N,Net-(R2-Pad2)*%
X87990000Y-81025000D03*
%TO.P,R4,2*%
%TO.N,Net-(U1-A)*%
X87990000Y-79025000D03*
%TD*%
D11*
%TO.P,J3,1,Pin_1*%
%TO.N,Net-(J3-Pin_1)*%
X114840000Y-97000000D03*
D12*
%TO.P,J3,2,Pin_2*%
%TO.N,Net-(J3-Pin_2)*%
X117380000Y-97000000D03*
%TO.P,J3,3,Pin_3*%
%TO.N,Net-(J3-Pin_3)*%
X119920000Y-97000000D03*
%TO.P,J3,4,Pin_4*%
%TO.N,Net-(J3-Pin_4)*%
X122460000Y-97000000D03*
%TO.P,J3,5,Pin_5*%
%TO.N,Net-(J3-Pin_5)*%
X125000000Y-97000000D03*
%TO.P,J3,6,Pin_6*%
%TO.N,Net-(J3-Pin_6)*%
X127540000Y-97000000D03*
%TO.P,J3,7,Pin_7*%
%TO.N,Net-(J3-Pin_7)*%
X130080000Y-97000000D03*
%TO.P,J3,8,Pin_8*%
%TO.N,Net-(J3-Pin_8)*%
X132620000Y-97000000D03*
%TO.P,J3,9,Pin_9*%
%TO.N,Net-(J3-Pin_9)*%
X135160000Y-97000000D03*
%TD*%
D11*
%TO.P,J4,1,Pin_1*%
%TO.N,Net-(D1-K)*%
X107000000Y-88000000D03*
D12*
%TO.P,J4,2,Pin_2*%
%TO.N,Net-(J4-Pin_2)*%
X104460000Y-88000000D03*
%TD*%
D13*
%TO.P,C4,1*%
%TO.N,+5V*%
X125000000Y-131000000D03*
%TO.P,C4,2*%
%TO.N,GND*%
X127500000Y-131000000D03*
%TD*%
D14*
%TO.P,Y1,1,1*%
%TO.N,Net-(U11-PA1{slash}XTAL2)*%
X123000000Y-120550000D03*
%TO.P,Y1,2,2*%
%TO.N,Net-(U11-PA0{slash}XTAL1)*%
X123000000Y-125430000D03*
%TD*%
D11*
%TO.P,12V,1,Pin_1*%
%TO.N,GND*%
X150000000Y-101460000D03*
D12*
%TO.P,12V,2,Pin_2*%
%TO.N,Net-(J2-Pin_2)*%
X150000000Y-104000000D03*
%TD*%
D13*
%TO.P,C2,1*%
%TO.N,GND*%
X89250000Y-123000000D03*
%TO.P,C2,2*%
%TO.N,+12V*%
X86750000Y-123000000D03*
%TD*%
D11*
%TO.P,M1,1,+*%
%TO.N,Net-(M1-+)*%
X108000000Y-129460000D03*
D12*
%TO.P,M1,2,-*%
%TO.N,GND*%
X108000000Y-132000000D03*
%TD*%
D11*
%TO.P,J5,1,Pin_1*%
%TO.N,GND*%
X107000000Y-97000000D03*
D12*
%TO.P,J5,2,Pin_2*%
%TO.N,+5V*%
X104460000Y-97000000D03*
%TD*%
D15*
%TO.P,SW2,1*%
%TO.N,Net-(ICSP1-~{RST})*%
X121500000Y-130750000D03*
D16*
%TO.P,SW2,2*%
%TO.N,GND*%
X121500000Y-137250000D03*
%TD*%
D17*
%TO.P,Q1,1,G*%
%TO.N,Net-(Q1-G)*%
X103460000Y-119230000D03*
D18*
%TO.P,Q1,2,S*%
%TO.N,Net-(M1-+)*%
X106000000Y-119230000D03*
%TO.P,Q1,3,D*%
%TO.N,+12V*%
X108540000Y-119230000D03*
%TD*%
D19*
%TO.P,SW1,1,A*%
%TO.N,Net-(J2-Pin_2)*%
X150000000Y-107732500D03*
D20*
%TO.P,SW1,2,B*%
%TO.N,+12V*%
X150000000Y-115352500D03*
%TD*%
D13*
%TO.P,C3,1*%
%TO.N,+5V*%
X100750000Y-123000000D03*
%TO.P,C3,2*%
%TO.N,GND*%
X98250000Y-123000000D03*
%TD*%
D17*
%TO.P,Q2,1,G*%
%TO.N,Net-(Q2-G)*%
X155460000Y-119230000D03*
D18*
%TO.P,Q2,2,S*%
%TO.N,Net-(M2-+)*%
X158000000Y-119230000D03*
%TO.P,Q2,3,D*%
%TO.N,+12V*%
X160540000Y-119230000D03*
%TD*%
D17*
%TO.P,U10,1,VI*%
%TO.N,+12V*%
X91460000Y-119230000D03*
D18*
%TO.P,U10,2,GND*%
%TO.N,GND*%
X94000000Y-119230000D03*
%TO.P,U10,3,VO*%
%TO.N,+5V*%
X96540000Y-119230000D03*
%TD*%
D19*
%TO.P,U11,1,PA2/~{RESET}*%
%TO.N,Net-(ICSP1-~{RST})*%
X130200000Y-107760000D03*
D20*
%TO.P,U11,2,PD0*%
%TO.N,Net-(J3-Pin_4)*%
X130200000Y-110300000D03*
%TO.P,U11,3,PD1*%
%TO.N,Net-(J3-Pin_5)*%
X130200000Y-112840000D03*
%TO.P,U11,4,PA1/XTAL2*%
%TO.N,Net-(U11-PA1{slash}XTAL2)*%
X130200000Y-115380000D03*
%TO.P,U11,5,PA0/XTAL1*%
%TO.N,Net-(U11-PA0{slash}XTAL1)*%
X130200000Y-117920000D03*
%TO.P,U11,6,PD2*%
%TO.N,Net-(J3-Pin_6)*%
X130200000Y-120460000D03*
%TO.P,U11,7,PD3*%
%TO.N,Net-(J3-Pin_7)*%
X130200000Y-123000000D03*
%TO.P,U11,8,PD4*%
%TO.N,Net-(J3-Pin_8)*%
X130200000Y-125540000D03*
%TO.P,U11,9,PD5*%
%TO.N,Net-(Q1-G)*%
X130200000Y-128080000D03*
%TO.P,U11,10,GND*%
%TO.N,GND*%
X130200000Y-130620000D03*
%TO.P,U11,11,PD6*%
%TO.N,Net-(J3-Pin_9)*%
X137820000Y-130620000D03*
%TO.P,U11,12,PB0*%
%TO.N,Net-(S1-Pin_3)*%
X137820000Y-128080000D03*
%TO.P,U11,13,PB1*%
%TO.N,Net-(J3-Pin_1)*%
X137820000Y-125540000D03*
%TO.P,U11,14,PB2*%
%TO.N,Net-(J3-Pin_2)*%
X137820000Y-123000000D03*
%TO.P,U11,15,PB3*%
%TO.N,Net-(Q2-G)*%
X137820000Y-120460000D03*
%TO.P,U11,16,PB4*%
%TO.N,Net-(J3-Pin_3)*%
X137820000Y-117920000D03*
%TO.P,U11,17,PB5*%
%TO.N,Net-(ICSP1-MOSI)*%
X137820000Y-115380000D03*
%TO.P,U11,18,PB6*%
%TO.N,Net-(ICSP1-MISO)*%
X137820000Y-112840000D03*
%TO.P,U11,19,PB7*%
%TO.N,Net-(ICSP1-SCK)*%
X137820000Y-110300000D03*
%TO.P,U11,20,VCC*%
%TO.N,+5V*%
X137820000Y-107760000D03*
%TD*%
D11*
%TO.P,ICSP1,1,MISO*%
%TO.N,Net-(ICSP1-MISO)*%
X120460000Y-109475000D03*
D12*
%TO.P,ICSP1,2,VCC*%
%TO.N,+5V*%
X123000000Y-109475000D03*
%TO.P,ICSP1,3,SCK*%
%TO.N,Net-(ICSP1-SCK)*%
X120460000Y-112015000D03*
%TO.P,ICSP1,4,MOSI*%
%TO.N,Net-(ICSP1-MOSI)*%
X123000000Y-112015000D03*
%TO.P,ICSP1,5,~{RST}*%
%TO.N,Net-(ICSP1-~{RST})*%
X120460000Y-114555000D03*
%TO.P,ICSP1,6,GND*%
%TO.N,GND*%
X123000000Y-114555000D03*
%TD*%
D11*
%TO.P,M2,1,+*%
%TO.N,Net-(M2-+)*%
X142000000Y-129460000D03*
D12*
%TO.P,M2,2,-*%
%TO.N,GND*%
X142000000Y-132000000D03*
%TD*%
D21*
%TO.P,R1,1*%
%TO.N,Net-(ICSP1-~{RST})*%
X117000000Y-131000000D03*
%TO.P,R1,2*%
%TO.N,+5V*%
X117000000Y-133000000D03*
%TD*%
D10*
%TO.P,R2,1*%
%TO.N,Net-(J4-Pin_2)*%
X87990000Y-85025000D03*
%TO.P,R2,2*%
%TO.N,Net-(R2-Pad2)*%
X87990000Y-83025000D03*
%TD*%
D11*
%TO.P,J1,1,Pin_1*%
%TO.N,Net-(J1-Pin_1)*%
X114840000Y-88000000D03*
D12*
%TO.P,J1,2,Pin_2*%
%TO.N,Net-(J1-Pin_2)*%
X117380000Y-88000000D03*
%TO.P,J1,3,Pin_3*%
%TO.N,Net-(J1-Pin_3)*%
X119920000Y-88000000D03*
%TO.P,J1,4,Pin_4*%
%TO.N,Net-(J1-Pin_4)*%
X122460000Y-88000000D03*
%TO.P,J1,5,Pin_5*%
%TO.N,Net-(J1-Pin_5)*%
X125000000Y-88000000D03*
%TO.P,J1,6,Pin_6*%
%TO.N,Net-(J1-Pin_6)*%
X127540000Y-88000000D03*
%TO.P,J1,7,Pin_7*%
%TO.N,Net-(J1-Pin_7)*%
X130080000Y-88000000D03*
%TO.P,J1,8,Pin_8*%
%TO.N,Net-(J1-Pin_8)*%
X132620000Y-88000000D03*
%TO.P,J1,9,Pin_9*%
%TO.N,Net-(J1-Pin_9)*%
X135160000Y-88000000D03*
%TD*%
D13*
%TO.P,C1,1*%
%TO.N,+5V*%
X138000000Y-105000000D03*
%TO.P,C1,2*%
%TO.N,GND*%
X138000000Y-102500000D03*
%TD*%
D11*
%TO.P,S1,1,Pin_1*%
%TO.N,+5V*%
X145475000Y-120975000D03*
D12*
%TO.P,S1,2,Pin_2*%
%TO.N,GND*%
X148015000Y-120975000D03*
%TO.P,S1,3,Pin_3*%
%TO.N,Net-(S1-Pin_3)*%
X150555000Y-120975000D03*
%TD*%
D22*
%TO.N,Net-(J3-Pin_9)*%
X140589009Y-119589009D03*
X141750000Y-116000000D03*
%TO.N,Net-(ICSP1-MOSI)*%
X121000000Y-104000000D03*
X135000002Y-105000000D03*
%TO.N,Net-(ICSP1-~{RST})*%
X123758763Y-107787760D03*
%TO.N,Net-(U1-A)*%
X90490000Y-75525000D03*
%TO.N,Net-(D1-A)*%
X92990000Y-70525000D03*
%TO.N,Net-(J3-Pin_3)*%
X139000000Y-96000000D03*
%TO.N,Net-(J3-Pin_4)*%
X126250000Y-100790000D03*
%TO.N,Net-(J3-Pin_2)*%
X139093374Y-94359935D03*
%TO.N,Net-(J3-Pin_1)*%
X140000000Y-93000000D03*
%TO.N,Net-(Q2-G)*%
X148000000Y-118000000D03*
%TD*%
D23*
%TO.N,Net-(J3-Pin_9)*%
X141750000Y-118428018D02*
X140589009Y-119589009D01*
X141750000Y-116000000D02*
X141750000Y-118428018D01*
%TO.N,Net-(J3-Pin_2)*%
X143000000Y-98232233D02*
X139127702Y-94359935D01*
X143000000Y-118945786D02*
X143000000Y-98232233D01*
X138945786Y-123000000D02*
X143000000Y-118945786D01*
X137820000Y-123000000D02*
X138945786Y-123000000D01*
X139127702Y-94359935D02*
X139093374Y-94359935D01*
%TO.N,+5V*%
X100750000Y-123000000D02*
X96980000Y-119230000D01*
X96980000Y-119230000D02*
X96540000Y-119230000D01*
%TO.N,Net-(M1-+)*%
X106000000Y-118730000D02*
X106000000Y-127460000D01*
X106000000Y-127460000D02*
X108000000Y-129460000D01*
%TO.N,Net-(M2-+)*%
X157000000Y-122000000D02*
X158000000Y-121000000D01*
X153000000Y-122000000D02*
X157000000Y-122000000D01*
X158000000Y-121000000D02*
X158000000Y-119230000D01*
X142000000Y-129460000D02*
X145540000Y-129460000D01*
X145540000Y-129460000D02*
X153000000Y-122000000D01*
%TO.N,Net-(ICSP1-MOSI)*%
X124600000Y-115217742D02*
X124600000Y-113615000D01*
X123662742Y-116155000D02*
X124600000Y-115217742D01*
X136380000Y-115380000D02*
X137820000Y-115380000D01*
X117860000Y-114217742D02*
X119797258Y-116155000D01*
X135000002Y-105000000D02*
X134750002Y-105250000D01*
X124600000Y-113615000D02*
X123000000Y-112015000D01*
X121000000Y-104000000D02*
X117860000Y-107140000D01*
X119797258Y-116155000D02*
X123662742Y-116155000D01*
X134750002Y-105250000D02*
X134750002Y-113750002D01*
X117860000Y-107140000D02*
X117860000Y-114217742D01*
X134750002Y-113750002D02*
X136380000Y-115380000D01*
%TO.N,Net-(ICSP1-~{RST})*%
X123758763Y-107787760D02*
X118947240Y-107787760D01*
X117250000Y-130750000D02*
X117000000Y-131000000D01*
X121670000Y-130580000D02*
X121500000Y-130750000D01*
X121500000Y-130750000D02*
X117250000Y-130750000D01*
X118860000Y-112955000D02*
X120460000Y-114555000D01*
X118947240Y-107787760D02*
X118860000Y-107875000D01*
X118860000Y-107875000D02*
X118860000Y-112955000D01*
D24*
%TO.N,Net-(ICSP1-MISO)*%
X120460000Y-109960000D02*
X120540000Y-109960000D01*
D23*
%TO.N,Net-(U1-A)*%
X89990000Y-75525000D02*
X87990000Y-77525000D01*
X87990000Y-79025000D02*
X87990000Y-77525000D01*
%TO.N,Net-(D1-A)*%
X92990000Y-70525000D02*
X87990000Y-70525000D01*
%TO.N,Net-(S1-Pin_3)*%
X150555000Y-120975000D02*
X143670000Y-127860000D01*
X143670000Y-127860000D02*
X138040000Y-127860000D01*
X138040000Y-127860000D02*
X137820000Y-128080000D01*
%TO.N,Net-(J3-Pin_6)*%
X131750000Y-118910000D02*
X131750000Y-101210000D01*
X130200000Y-120460000D02*
X131750000Y-118910000D01*
X131750000Y-101210000D02*
X127540000Y-97000000D01*
%TO.N,Net-(J3-Pin_3)*%
X137820000Y-117920000D02*
X142000000Y-113740000D01*
X142000000Y-99000000D02*
X139000000Y-96000000D01*
X142000000Y-113740000D02*
X142000000Y-99000000D01*
%TO.N,Net-(J3-Pin_5)*%
X125000000Y-107640000D02*
X125000000Y-97000000D01*
X130200000Y-112840000D02*
X125000000Y-107640000D01*
%TO.N,Net-(J3-Pin_4)*%
X129640000Y-110300000D02*
X130200000Y-110300000D01*
X126250000Y-100790000D02*
X126250000Y-106910000D01*
X126250000Y-106910000D02*
X129640000Y-110300000D01*
%TO.N,Net-(J3-Pin_7)*%
X132750001Y-99670001D02*
X130080000Y-97000000D01*
X130200000Y-123000000D02*
X132750001Y-120449999D01*
X132750001Y-120449999D02*
X132750001Y-99670001D01*
%TO.N,Net-(J3-Pin_8)*%
X133750002Y-121989998D02*
X133750002Y-98130002D01*
X133750002Y-98130002D02*
X132620000Y-97000000D01*
X130200000Y-125540000D02*
X133750002Y-121989998D01*
%TO.N,Net-(J3-Pin_9)*%
X135160000Y-97000000D02*
X134750002Y-97409998D01*
%TO.N,Net-(J3-Pin_1)*%
X144000000Y-97000000D02*
X140000000Y-93000000D01*
X137820000Y-125540000D02*
X144000000Y-119360000D01*
X144000000Y-119360000D02*
X144000000Y-97000000D01*
%TO.N,Net-(Q1-G)*%
X106600000Y-133600000D02*
X103460000Y-130460000D01*
X130200000Y-128080000D02*
X114182742Y-128080000D01*
X108662742Y-133600000D02*
X106600000Y-133600000D01*
X103460000Y-130460000D02*
X103460000Y-118730000D01*
X114182742Y-128080000D02*
X108662742Y-133600000D01*
%TO.N,Net-(Q2-G)*%
X148000000Y-118000000D02*
X155000000Y-118000000D01*
X155460000Y-118460000D02*
X155460000Y-119230000D01*
X155000000Y-118000000D02*
X155460000Y-118460000D01*
%TO.N,Net-(U11-PA1{slash}XTAL2)*%
X125030000Y-120550000D02*
X130200000Y-115380000D01*
X129620000Y-115380000D02*
X130200000Y-115380000D01*
X125030000Y-120550000D02*
X123000000Y-120550000D01*
X130070000Y-115380000D02*
X130200000Y-115380000D01*
D24*
%TO.N,Net-(U11-PA0{slash}XTAL1)*%
X130380000Y-117880000D02*
X130500000Y-118000000D01*
D23*
X123000000Y-125430000D02*
X130200000Y-118230000D01*
X130200000Y-118230000D02*
X130200000Y-117920000D01*
%TO.N,Net-(R2-Pad2)*%
X87990000Y-83025000D02*
X87990000Y-81025000D01*
%TD*%
%TA.AperFunction,Conductor*%
%TO.N,+5V*%
G36*
X139361888Y-92019685D02*
G01*
X139407643Y-92072489D01*
X139417587Y-92141647D01*
X139388562Y-92205203D01*
X139373514Y-92219853D01*
X139289116Y-92289116D01*
X139164090Y-92441460D01*
X139164086Y-92441467D01*
X139071188Y-92615266D01*
X139013975Y-92803870D01*
X138994659Y-93000000D01*
X139013976Y-93196132D01*
X139019093Y-93213002D01*
X139019716Y-93282869D01*
X138982467Y-93341982D01*
X138919172Y-93371572D01*
X138912590Y-93372399D01*
X138897243Y-93373910D01*
X138708640Y-93431123D01*
X138534841Y-93524021D01*
X138534834Y-93524025D01*
X138382490Y-93649051D01*
X138257464Y-93801395D01*
X138257460Y-93801402D01*
X138164562Y-93975201D01*
X138107349Y-94163805D01*
X138088033Y-94359935D01*
X138107349Y-94556064D01*
X138164562Y-94744668D01*
X138257460Y-94918467D01*
X138257465Y-94918474D01*
X138373298Y-95059618D01*
X138400611Y-95123928D01*
X138388820Y-95192796D01*
X138356110Y-95234136D01*
X138289116Y-95289116D01*
X138164090Y-95441460D01*
X138164086Y-95441467D01*
X138071188Y-95615266D01*
X138013975Y-95803870D01*
X137994659Y-96000000D01*
X138013975Y-96196129D01*
X138013976Y-96196132D01*
X138055632Y-96333454D01*
X138071188Y-96384733D01*
X138164086Y-96558532D01*
X138164090Y-96558539D01*
X138289116Y-96710883D01*
X138441460Y-96835909D01*
X138441467Y-96835913D01*
X138615266Y-96928811D01*
X138615269Y-96928811D01*
X138615273Y-96928814D01*
X138803868Y-96986024D01*
X138893697Y-96994871D01*
X138958485Y-97021031D01*
X138969225Y-97030593D01*
X141213181Y-99274548D01*
X141246666Y-99335871D01*
X141249500Y-99362229D01*
X141249500Y-113377769D01*
X141229815Y-113444808D01*
X141213181Y-113465450D01*
X139327431Y-115351199D01*
X139266108Y-115384684D01*
X139196416Y-115379700D01*
X139140483Y-115337828D01*
X139116222Y-115274327D01*
X139105635Y-115153308D01*
X139046739Y-114933504D01*
X138950568Y-114727266D01*
X138820047Y-114540861D01*
X138820046Y-114540860D01*
X138820045Y-114540858D01*
X138659141Y-114379954D01*
X138472734Y-114249432D01*
X138472728Y-114249429D01*
X138414725Y-114222382D01*
X138362285Y-114176210D01*
X138343133Y-114109017D01*
X138363348Y-114042135D01*
X138414725Y-113997618D01*
X138472734Y-113970568D01*
X138659139Y-113840047D01*
X138820047Y-113679139D01*
X138950568Y-113492734D01*
X139046739Y-113286496D01*
X139105635Y-113066692D01*
X139106697Y-113054550D01*
X139132148Y-112989482D01*
X139188738Y-112948502D01*
X139258500Y-112944623D01*
X139292226Y-112957969D01*
X139306814Y-112966392D01*
X139434108Y-113000500D01*
X139434110Y-113000500D01*
X140565890Y-113000500D01*
X140565892Y-113000500D01*
X140693186Y-112966392D01*
X140807314Y-112900500D01*
X140900500Y-112807314D01*
X140966392Y-112693186D01*
X141000500Y-112565892D01*
X141000500Y-109434108D01*
X140966392Y-109306814D01*
X140900500Y-109192686D01*
X140807314Y-109099500D01*
X140750250Y-109066554D01*
X140693187Y-109033608D01*
X140621366Y-109014364D01*
X140565892Y-108999500D01*
X139565892Y-108999500D01*
X139434108Y-108999500D01*
X139306812Y-109033608D01*
X139192686Y-109099500D01*
X139192683Y-109099502D01*
X139099502Y-109192683D01*
X139099500Y-109192686D01*
X139033609Y-109306812D01*
X139011511Y-109389281D01*
X138975145Y-109448942D01*
X138912298Y-109479470D01*
X138842923Y-109471175D01*
X138804055Y-109444868D01*
X138659141Y-109299954D01*
X138472734Y-109169432D01*
X138472732Y-109169431D01*
X138266497Y-109073261D01*
X138266488Y-109073258D01*
X138046697Y-109014366D01*
X138046693Y-109014365D01*
X138046692Y-109014365D01*
X138046691Y-109014364D01*
X138046686Y-109014364D01*
X137820002Y-108994532D01*
X137819998Y-108994532D01*
X137593313Y-109014364D01*
X137593302Y-109014366D01*
X137373511Y-109073258D01*
X137373502Y-109073261D01*
X137167267Y-109169431D01*
X137167265Y-109169432D01*
X136980858Y-109299954D01*
X136819954Y-109460858D01*
X136689432Y-109647265D01*
X136689431Y-109647267D01*
X136593261Y-109853502D01*
X136593258Y-109853511D01*
X136534366Y-110073302D01*
X136534364Y-110073313D01*
X136514532Y-110299998D01*
X136514532Y-110300001D01*
X136534364Y-110526686D01*
X136534366Y-110526697D01*
X136593258Y-110746488D01*
X136593261Y-110746497D01*
X136689431Y-110952732D01*
X136689432Y-110952734D01*
X136819954Y-111139141D01*
X136980858Y-111300045D01*
X136980861Y-111300047D01*
X137167266Y-111430568D01*
X137225275Y-111457618D01*
X137277714Y-111503791D01*
X137296866Y-111570984D01*
X137276650Y-111637865D01*
X137225275Y-111682382D01*
X137167267Y-111709431D01*
X137167265Y-111709432D01*
X136980858Y-111839954D01*
X136819954Y-112000858D01*
X136689432Y-112187265D01*
X136689431Y-112187267D01*
X136593261Y-112393502D01*
X136593258Y-112393511D01*
X136534366Y-112613302D01*
X136534364Y-112613313D01*
X136514532Y-112839998D01*
X136514532Y-112840001D01*
X136534364Y-113066686D01*
X136534366Y-113066697D01*
X136593258Y-113286488D01*
X136593260Y-113286493D01*
X136593261Y-113286496D01*
X136614479Y-113331998D01*
X136689431Y-113492732D01*
X136689432Y-113492734D01*
X136819954Y-113679141D01*
X136980858Y-113840045D01*
X136980861Y-113840047D01*
X137167266Y-113970568D01*
X137225275Y-113997618D01*
X137277714Y-114043791D01*
X137296866Y-114110984D01*
X137276650Y-114177865D01*
X137225275Y-114222382D01*
X137167267Y-114249431D01*
X137167265Y-114249432D01*
X136980858Y-114379954D01*
X136819952Y-114540860D01*
X136815044Y-114547870D01*
X136760466Y-114591493D01*
X136690967Y-114598684D01*
X136628614Y-114567159D01*
X136625791Y-114564424D01*
X135536821Y-113475453D01*
X135503336Y-113414130D01*
X135500502Y-113387772D01*
X135500502Y-105940969D01*
X135520187Y-105873930D01*
X135555615Y-105837864D01*
X135558530Y-105835915D01*
X135558540Y-105835910D01*
X135710885Y-105710883D01*
X135835912Y-105558538D01*
X135928816Y-105384727D01*
X135986026Y-105196132D01*
X136005343Y-105000000D01*
X135986026Y-104803868D01*
X135928816Y-104615273D01*
X135928813Y-104615269D01*
X135928813Y-104615266D01*
X135835915Y-104441467D01*
X135835911Y-104441460D01*
X135710885Y-104289116D01*
X135558541Y-104164090D01*
X135558534Y-104164086D01*
X135384735Y-104071188D01*
X135384729Y-104071186D01*
X135258999Y-104033046D01*
X135196131Y-104013975D01*
X135000002Y-103994659D01*
X134803871Y-104013975D01*
X134660497Y-104057468D01*
X134590630Y-104058091D01*
X134531518Y-104020843D01*
X134501927Y-103957549D01*
X134500502Y-103938807D01*
X134500502Y-102499998D01*
X136694532Y-102499998D01*
X136694532Y-102500001D01*
X136714364Y-102726686D01*
X136714366Y-102726697D01*
X136773258Y-102946488D01*
X136773261Y-102946497D01*
X136869431Y-103152732D01*
X136869432Y-103152734D01*
X136999954Y-103339141D01*
X137160858Y-103500045D01*
X137160861Y-103500047D01*
X137347266Y-103630568D01*
X137553504Y-103726739D01*
X137773308Y-103785635D01*
X137935230Y-103799801D01*
X137999998Y-103805468D01*
X138000000Y-103805468D01*
X138000002Y-103805468D01*
X138056673Y-103800509D01*
X138226692Y-103785635D01*
X138446496Y-103726739D01*
X138652734Y-103630568D01*
X138839139Y-103500047D01*
X139000047Y-103339139D01*
X139130568Y-103152734D01*
X139226739Y-102946496D01*
X139285635Y-102726692D01*
X139305468Y-102500000D01*
X139285635Y-102273308D01*
X139226739Y-102053504D01*
X139130568Y-101847266D01*
X139000047Y-101660861D01*
X139000045Y-101660858D01*
X138839141Y-101499954D01*
X138652734Y-101369432D01*
X138652732Y-101369431D01*
X138446497Y-101273261D01*
X138446488Y-101273258D01*
X138226697Y-101214366D01*
X138226693Y-101214365D01*
X138226692Y-101214365D01*
X138226691Y-101214364D01*
X138226686Y-101214364D01*
X138000002Y-101194532D01*
X137999998Y-101194532D01*
X137773313Y-101214364D01*
X137773302Y-101214366D01*
X137553511Y-101273258D01*
X137553502Y-101273261D01*
X137347267Y-101369431D01*
X137347265Y-101369432D01*
X137160858Y-101499954D01*
X136999954Y-101660858D01*
X136869432Y-101847265D01*
X136869431Y-101847267D01*
X136773261Y-102053502D01*
X136773258Y-102053511D01*
X136714366Y-102273302D01*
X136714364Y-102273313D01*
X136694532Y-102499998D01*
X134500502Y-102499998D01*
X134500502Y-98377224D01*
X134520187Y-98310185D01*
X134572991Y-98264430D01*
X134642149Y-98254486D01*
X134676908Y-98264843D01*
X134696330Y-98273900D01*
X134696332Y-98273900D01*
X134696337Y-98273903D01*
X134924592Y-98335063D01*
X135104337Y-98350789D01*
X135159999Y-98355659D01*
X135160000Y-98355659D01*
X135160001Y-98355659D01*
X135215663Y-98350789D01*
X135395408Y-98335063D01*
X135623663Y-98273903D01*
X135837830Y-98174035D01*
X136031401Y-98038495D01*
X136198495Y-97871401D01*
X136334035Y-97677830D01*
X136433903Y-97463663D01*
X136495063Y-97235408D01*
X136515659Y-97000000D01*
X136495063Y-96764592D01*
X136433903Y-96536337D01*
X136334035Y-96322171D01*
X136328425Y-96314158D01*
X136198494Y-96128597D01*
X136031402Y-95961506D01*
X136031395Y-95961501D01*
X135837834Y-95825967D01*
X135837830Y-95825965D01*
X135790443Y-95803868D01*
X135623663Y-95726097D01*
X135623659Y-95726096D01*
X135623655Y-95726094D01*
X135395413Y-95664938D01*
X135395403Y-95664936D01*
X135160001Y-95644341D01*
X135159999Y-95644341D01*
X134924596Y-95664936D01*
X134924586Y-95664938D01*
X134696344Y-95726094D01*
X134696335Y-95726098D01*
X134482171Y-95825964D01*
X134482169Y-95825965D01*
X134288597Y-95961505D01*
X134121505Y-96128597D01*
X133991575Y-96314158D01*
X133936998Y-96357783D01*
X133867500Y-96364977D01*
X133805145Y-96333454D01*
X133788425Y-96314158D01*
X133658494Y-96128597D01*
X133491402Y-95961506D01*
X133491395Y-95961501D01*
X133297834Y-95825967D01*
X133297830Y-95825965D01*
X133250443Y-95803868D01*
X133083663Y-95726097D01*
X133083659Y-95726096D01*
X133083655Y-95726094D01*
X132855413Y-95664938D01*
X132855403Y-95664936D01*
X132620001Y-95644341D01*
X132619999Y-95644341D01*
X132384596Y-95664936D01*
X132384586Y-95664938D01*
X132156344Y-95726094D01*
X132156335Y-95726098D01*
X131942171Y-95825964D01*
X131942169Y-95825965D01*
X131748597Y-95961505D01*
X131581505Y-96128597D01*
X131451575Y-96314158D01*
X131396998Y-96357783D01*
X131327500Y-96364977D01*
X131265145Y-96333454D01*
X131248425Y-96314158D01*
X131118494Y-96128597D01*
X130951402Y-95961506D01*
X130951395Y-95961501D01*
X130757834Y-95825967D01*
X130757830Y-95825965D01*
X130710443Y-95803868D01*
X130543663Y-95726097D01*
X130543659Y-95726096D01*
X130543655Y-95726094D01*
X130315413Y-95664938D01*
X130315403Y-95664936D01*
X130080001Y-95644341D01*
X130079999Y-95644341D01*
X129844596Y-95664936D01*
X129844586Y-95664938D01*
X129616344Y-95726094D01*
X129616335Y-95726098D01*
X129402171Y-95825964D01*
X129402169Y-95825965D01*
X129208597Y-95961505D01*
X129041505Y-96128597D01*
X128911575Y-96314158D01*
X128856998Y-96357783D01*
X128787500Y-96364977D01*
X128725145Y-96333454D01*
X128708425Y-96314158D01*
X128578494Y-96128597D01*
X128411402Y-95961506D01*
X128411395Y-95961501D01*
X128217834Y-95825967D01*
X128217830Y-95825965D01*
X128170443Y-95803868D01*
X128003663Y-95726097D01*
X128003659Y-95726096D01*
X128003655Y-95726094D01*
X127775413Y-95664938D01*
X127775403Y-95664936D01*
X127540001Y-95644341D01*
X127539999Y-95644341D01*
X127304596Y-95664936D01*
X127304586Y-95664938D01*
X127076344Y-95726094D01*
X127076335Y-95726098D01*
X126862171Y-95825964D01*
X126862169Y-95825965D01*
X126668597Y-95961505D01*
X126501505Y-96128597D01*
X126371575Y-96314158D01*
X126316998Y-96357783D01*
X126247500Y-96364977D01*
X126185145Y-96333454D01*
X126168425Y-96314158D01*
X126038494Y-96128597D01*
X125871402Y-95961506D01*
X125871395Y-95961501D01*
X125677834Y-95825967D01*
X125677830Y-95825965D01*
X125630443Y-95803868D01*
X125463663Y-95726097D01*
X125463659Y-95726096D01*
X125463655Y-95726094D01*
X125235413Y-95664938D01*
X125235403Y-95664936D01*
X125000001Y-95644341D01*
X124999999Y-95644341D01*
X124764596Y-95664936D01*
X124764586Y-95664938D01*
X124536344Y-95726094D01*
X124536335Y-95726098D01*
X124322171Y-95825964D01*
X124322169Y-95825965D01*
X124128597Y-95961505D01*
X123961505Y-96128597D01*
X123831575Y-96314158D01*
X123776998Y-96357783D01*
X123707500Y-96364977D01*
X123645145Y-96333454D01*
X123628425Y-96314158D01*
X123498494Y-96128597D01*
X123331402Y-95961506D01*
X123331395Y-95961501D01*
X123137834Y-95825967D01*
X123137830Y-95825965D01*
X123090443Y-95803868D01*
X122923663Y-95726097D01*
X122923659Y-95726096D01*
X122923655Y-95726094D01*
X122695413Y-95664938D01*
X122695403Y-95664936D01*
X122460001Y-95644341D01*
X122459999Y-95644341D01*
X122224596Y-95664936D01*
X122224586Y-95664938D01*
X121996344Y-95726094D01*
X121996335Y-95726098D01*
X121782171Y-95825964D01*
X121782169Y-95825965D01*
X121588597Y-95961505D01*
X121421505Y-96128597D01*
X121291575Y-96314158D01*
X121236998Y-96357783D01*
X121167500Y-96364977D01*
X121105145Y-96333454D01*
X121088425Y-96314158D01*
X120958494Y-96128597D01*
X120791402Y-95961506D01*
X120791395Y-95961501D01*
X120597834Y-95825967D01*
X120597830Y-95825965D01*
X120550443Y-95803868D01*
X120383663Y-95726097D01*
X120383659Y-95726096D01*
X120383655Y-95726094D01*
X120155413Y-95664938D01*
X120155403Y-95664936D01*
X119920001Y-95644341D01*
X119919999Y-95644341D01*
X119684596Y-95664936D01*
X119684586Y-95664938D01*
X119456344Y-95726094D01*
X119456335Y-95726098D01*
X119242171Y-95825964D01*
X119242169Y-95825965D01*
X119048597Y-95961505D01*
X118881505Y-96128597D01*
X118751575Y-96314158D01*
X118696998Y-96357783D01*
X118627500Y-96364977D01*
X118565145Y-96333454D01*
X118548425Y-96314158D01*
X118418494Y-96128597D01*
X118251402Y-95961506D01*
X118251395Y-95961501D01*
X118057834Y-95825967D01*
X118057830Y-95825965D01*
X118010443Y-95803868D01*
X117843663Y-95726097D01*
X117843659Y-95726096D01*
X117843655Y-95726094D01*
X117615413Y-95664938D01*
X117615403Y-95664936D01*
X117380001Y-95644341D01*
X117379999Y-95644341D01*
X117144596Y-95664936D01*
X117144586Y-95664938D01*
X116916344Y-95726094D01*
X116916335Y-95726098D01*
X116702171Y-95825964D01*
X116702169Y-95825965D01*
X116508600Y-95961503D01*
X116386673Y-96083430D01*
X116325350Y-96116914D01*
X116255658Y-96111930D01*
X116199725Y-96070058D01*
X116182810Y-96039081D01*
X116133797Y-95907671D01*
X116133793Y-95907664D01*
X116047547Y-95792455D01*
X116047544Y-95792452D01*
X115932335Y-95706206D01*
X115932328Y-95706202D01*
X115797482Y-95655908D01*
X115797483Y-95655908D01*
X115737883Y-95649501D01*
X115737881Y-95649500D01*
X115737873Y-95649500D01*
X115737864Y-95649500D01*
X113942129Y-95649500D01*
X113942123Y-95649501D01*
X113882516Y-95655908D01*
X113747671Y-95706202D01*
X113747664Y-95706206D01*
X113632455Y-95792452D01*
X113632452Y-95792455D01*
X113546206Y-95907664D01*
X113546202Y-95907671D01*
X113495908Y-96042517D01*
X113489501Y-96102116D01*
X113489501Y-96102123D01*
X113489500Y-96102135D01*
X113489500Y-97897870D01*
X113489501Y-97897876D01*
X113495908Y-97957483D01*
X113546202Y-98092328D01*
X113546206Y-98092335D01*
X113632452Y-98207544D01*
X113632455Y-98207547D01*
X113747664Y-98293793D01*
X113747671Y-98293797D01*
X113882517Y-98344091D01*
X113882516Y-98344091D01*
X113889444Y-98344835D01*
X113942127Y-98350500D01*
X115737872Y-98350499D01*
X115797483Y-98344091D01*
X115932331Y-98293796D01*
X116047546Y-98207546D01*
X116133796Y-98092331D01*
X116182810Y-97960916D01*
X116224681Y-97904984D01*
X116290145Y-97880566D01*
X116358418Y-97895417D01*
X116386673Y-97916569D01*
X116508599Y-98038495D01*
X116604738Y-98105812D01*
X116702165Y-98174032D01*
X116702167Y-98174033D01*
X116702170Y-98174035D01*
X116916337Y-98273903D01*
X117144592Y-98335063D01*
X117324337Y-98350789D01*
X117379999Y-98355659D01*
X117380000Y-98355659D01*
X117380001Y-98355659D01*
X117435663Y-98350789D01*
X117615408Y-98335063D01*
X117843663Y-98273903D01*
X118057830Y-98174035D01*
X118251401Y-98038495D01*
X118418495Y-97871401D01*
X118548425Y-97685842D01*
X118603002Y-97642217D01*
X118672500Y-97635023D01*
X118734855Y-97666546D01*
X118751575Y-97685842D01*
X118881500Y-97871395D01*
X118881505Y-97871401D01*
X119048599Y-98038495D01*
X119144738Y-98105812D01*
X119242165Y-98174032D01*
X119242167Y-98174033D01*
X119242170Y-98174035D01*
X119456337Y-98273903D01*
X119684592Y-98335063D01*
X119864337Y-98350789D01*
X119919999Y-98355659D01*
X119920000Y-98355659D01*
X119920001Y-98355659D01*
X119975663Y-98350789D01*
X120155408Y-98335063D01*
X120383663Y-98273903D01*
X120597830Y-98174035D01*
X120791401Y-98038495D01*
X120958495Y-97871401D01*
X121088425Y-97685842D01*
X121143002Y-97642217D01*
X121212500Y-97635023D01*
X121274855Y-97666546D01*
X121291575Y-97685842D01*
X121421500Y-97871395D01*
X121421505Y-97871401D01*
X121588599Y-98038495D01*
X121684738Y-98105812D01*
X121782165Y-98174032D01*
X121782167Y-98174033D01*
X121782170Y-98174035D01*
X121996337Y-98273903D01*
X122224592Y-98335063D01*
X122404337Y-98350789D01*
X122459999Y-98355659D01*
X122460000Y-98355659D01*
X122460001Y-98355659D01*
X122515663Y-98350789D01*
X122695408Y-98335063D01*
X122923663Y-98273903D01*
X123137830Y-98174035D01*
X123331401Y-98038495D01*
X123498495Y-97871401D01*
X123628425Y-97685842D01*
X123683002Y-97642217D01*
X123752500Y-97635023D01*
X123814855Y-97666546D01*
X123831575Y-97685842D01*
X123961501Y-97871396D01*
X123961506Y-97871402D01*
X124128595Y-98038492D01*
X124128598Y-98038494D01*
X124128599Y-98038495D01*
X124196623Y-98086125D01*
X124240248Y-98140701D01*
X124249500Y-98187700D01*
X124249500Y-106723909D01*
X124229815Y-106790948D01*
X124177011Y-106836703D01*
X124107853Y-106846647D01*
X124089511Y-106842571D01*
X123954895Y-106801736D01*
X123954892Y-106801735D01*
X123758763Y-106782419D01*
X123562633Y-106801735D01*
X123374029Y-106858948D01*
X123200230Y-106951846D01*
X123200223Y-106951850D01*
X123130450Y-107009113D01*
X123066140Y-107036426D01*
X123051785Y-107037260D01*
X119323470Y-107037260D01*
X119256431Y-107017575D01*
X119210676Y-106964771D01*
X119200732Y-106895613D01*
X119229757Y-106832057D01*
X119235789Y-106825579D01*
X119658829Y-106402539D01*
X121030775Y-105030591D01*
X121092096Y-104997108D01*
X121106295Y-104994871D01*
X121196132Y-104986024D01*
X121384727Y-104928814D01*
X121558538Y-104835910D01*
X121710883Y-104710883D01*
X121835910Y-104558538D01*
X121898486Y-104441467D01*
X121928811Y-104384733D01*
X121928811Y-104384732D01*
X121928814Y-104384727D01*
X121986024Y-104196132D01*
X122005341Y-104000000D01*
X121986024Y-103803868D01*
X121928814Y-103615273D01*
X121928811Y-103615269D01*
X121928811Y-103615266D01*
X121835913Y-103441467D01*
X121835909Y-103441460D01*
X121710883Y-103289116D01*
X121558539Y-103164090D01*
X121558532Y-103164086D01*
X121384733Y-103071188D01*
X121384727Y-103071186D01*
X121196132Y-103013976D01*
X121196129Y-103013975D01*
X121000000Y-102994659D01*
X120803870Y-103013975D01*
X120615266Y-103071188D01*
X120441467Y-103164086D01*
X120441460Y-103164090D01*
X120289116Y-103289116D01*
X120164090Y-103441460D01*
X120164086Y-103441467D01*
X120071188Y-103615266D01*
X120013975Y-103803870D01*
X120005127Y-103893700D01*
X119978965Y-103958487D01*
X119969405Y-103969225D01*
X117277049Y-106661582D01*
X117277045Y-106661586D01*
X117257948Y-106690170D01*
X117257947Y-106690172D01*
X117194914Y-106784507D01*
X117138343Y-106921082D01*
X117138340Y-106921092D01*
X117109500Y-107066079D01*
X117109500Y-107066082D01*
X117109500Y-114291660D01*
X117109500Y-114291662D01*
X117109499Y-114291662D01*
X117138340Y-114436649D01*
X117138342Y-114436655D01*
X117194916Y-114573237D01*
X117200761Y-114581984D01*
X117200762Y-114581987D01*
X117200763Y-114581987D01*
X117232509Y-114629500D01*
X117277051Y-114696162D01*
X117277052Y-114696163D01*
X119214307Y-116633416D01*
X119318842Y-116737951D01*
X119318845Y-116737953D01*
X119318846Y-116737954D01*
X119441761Y-116820083D01*
X119441764Y-116820085D01*
X119498337Y-116843518D01*
X119498338Y-116843518D01*
X119578346Y-116876659D01*
X119694499Y-116899763D01*
X119713726Y-116903587D01*
X119723339Y-116905500D01*
X119723340Y-116905500D01*
X123736662Y-116905500D01*
X123834204Y-116886096D01*
X123881655Y-116876658D01*
X124018237Y-116820084D01*
X124067471Y-116787186D01*
X124141158Y-116737952D01*
X125182952Y-115696158D01*
X125232186Y-115622471D01*
X125265084Y-115573237D01*
X125321658Y-115436655D01*
X125338657Y-115351199D01*
X125350500Y-115291662D01*
X125350500Y-113541080D01*
X125335812Y-113467244D01*
X125335812Y-113467239D01*
X125321660Y-113396093D01*
X125321659Y-113396092D01*
X125321659Y-113396088D01*
X125276264Y-113286496D01*
X125275644Y-113285000D01*
X125269214Y-113269476D01*
X125265084Y-113259505D01*
X125217998Y-113189035D01*
X125217998Y-113189034D01*
X125182950Y-113136581D01*
X125182947Y-113136578D01*
X124372869Y-112326501D01*
X124339384Y-112265178D01*
X124337022Y-112228012D01*
X124355659Y-112015000D01*
X124355659Y-112014999D01*
X124340344Y-111839953D01*
X124335063Y-111779592D01*
X124273903Y-111551337D01*
X124174035Y-111337171D01*
X124168425Y-111329158D01*
X124038494Y-111143597D01*
X123871402Y-110976506D01*
X123871395Y-110976501D01*
X123837452Y-110952734D01*
X123832521Y-110949281D01*
X123677834Y-110840967D01*
X123677830Y-110840965D01*
X123628174Y-110817810D01*
X123463663Y-110741097D01*
X123463659Y-110741096D01*
X123463655Y-110741094D01*
X123235413Y-110679938D01*
X123235403Y-110679936D01*
X123000001Y-110659341D01*
X122999999Y-110659341D01*
X122764596Y-110679936D01*
X122764586Y-110679938D01*
X122536344Y-110741094D01*
X122536335Y-110741098D01*
X122322171Y-110840964D01*
X122322169Y-110840965D01*
X122128597Y-110976505D01*
X121961505Y-111143597D01*
X121831575Y-111329158D01*
X121776998Y-111372783D01*
X121707500Y-111379977D01*
X121645145Y-111348454D01*
X121628425Y-111329158D01*
X121498496Y-111143600D01*
X121492779Y-111137883D01*
X121376567Y-111021671D01*
X121343084Y-110960351D01*
X121348068Y-110890659D01*
X121389939Y-110834725D01*
X121420915Y-110817810D01*
X121552331Y-110768796D01*
X121667546Y-110682546D01*
X121753796Y-110567331D01*
X121804091Y-110432483D01*
X121810500Y-110372873D01*
X121810499Y-108662259D01*
X121830184Y-108595221D01*
X121882987Y-108549466D01*
X121934499Y-108538260D01*
X123051785Y-108538260D01*
X123118824Y-108557945D01*
X123130450Y-108566407D01*
X123200223Y-108623669D01*
X123200230Y-108623673D01*
X123374029Y-108716571D01*
X123374032Y-108716571D01*
X123374036Y-108716574D01*
X123562631Y-108773784D01*
X123758763Y-108793101D01*
X123954895Y-108773784D01*
X124143490Y-108716574D01*
X124317301Y-108623670D01*
X124469646Y-108498643D01*
X124530534Y-108424449D01*
X124588277Y-108385117D01*
X124658122Y-108383246D01*
X124714067Y-108415435D01*
X128873282Y-112574650D01*
X128906767Y-112635973D01*
X128909129Y-112673137D01*
X128894532Y-112839996D01*
X128894532Y-112840001D01*
X128914364Y-113066686D01*
X128914366Y-113066697D01*
X128973258Y-113286488D01*
X128973260Y-113286493D01*
X128973261Y-113286496D01*
X128994479Y-113331998D01*
X129069431Y-113492732D01*
X129069432Y-113492734D01*
X129199954Y-113679141D01*
X129360858Y-113840045D01*
X129360861Y-113840047D01*
X129547266Y-113970568D01*
X129605275Y-113997618D01*
X129657714Y-114043791D01*
X129676866Y-114110984D01*
X129656650Y-114177865D01*
X129605275Y-114222382D01*
X129547267Y-114249431D01*
X129547265Y-114249432D01*
X129360858Y-114379954D01*
X129199954Y-114540858D01*
X129069432Y-114727265D01*
X129069431Y-114727267D01*
X128973260Y-114933504D01*
X128939916Y-115057944D01*
X128934704Y-115073300D01*
X128898341Y-115161090D01*
X128898340Y-115161093D01*
X128869500Y-115306079D01*
X128869500Y-115453922D01*
X128888957Y-115551738D01*
X128882730Y-115621329D01*
X128855021Y-115663610D01*
X124755451Y-119763181D01*
X124694128Y-119796666D01*
X124667770Y-119799500D01*
X124065624Y-119799500D01*
X123998585Y-119779815D01*
X123964048Y-119746622D01*
X123961598Y-119743123D01*
X123919569Y-119701094D01*
X123806877Y-119588402D01*
X123627639Y-119462898D01*
X123627640Y-119462898D01*
X123627638Y-119462897D01*
X123528484Y-119416661D01*
X123429330Y-119370425D01*
X123429326Y-119370424D01*
X123429322Y-119370422D01*
X123217977Y-119313793D01*
X123000002Y-119294723D01*
X122999998Y-119294723D01*
X122854682Y-119307436D01*
X122782023Y-119313793D01*
X122782020Y-119313793D01*
X122570677Y-119370422D01*
X122570668Y-119370426D01*
X122372361Y-119462898D01*
X122372357Y-119462900D01*
X122193121Y-119588402D01*
X122038402Y-119743121D01*
X121912900Y-119922357D01*
X121912898Y-119922361D01*
X121820426Y-120120668D01*
X121820422Y-120120677D01*
X121763793Y-120332020D01*
X121763793Y-120332024D01*
X121744723Y-120549997D01*
X121744723Y-120550002D01*
X121748008Y-120587546D01*
X121759953Y-120724089D01*
X121763793Y-120767975D01*
X121763793Y-120767979D01*
X121820422Y-120979322D01*
X121820424Y-120979326D01*
X121820425Y-120979330D01*
X121864532Y-121073917D01*
X121912897Y-121177638D01*
X121912898Y-121177639D01*
X122038402Y-121356877D01*
X122193123Y-121511598D01*
X122372361Y-121637102D01*
X122570670Y-121729575D01*
X122782023Y-121786207D01*
X122964926Y-121802208D01*
X122999998Y-121805277D01*
X123000000Y-121805277D01*
X123000002Y-121805277D01*
X123028254Y-121802805D01*
X123217977Y-121786207D01*
X123429330Y-121729575D01*
X123627639Y-121637102D01*
X123806877Y-121511598D01*
X123961598Y-121356877D01*
X123964050Y-121353374D01*
X124018628Y-121309751D01*
X124065624Y-121300500D01*
X125103920Y-121300500D01*
X125215321Y-121278340D01*
X125248913Y-121271658D01*
X125385495Y-121215084D01*
X125441536Y-121177639D01*
X125508416Y-121132952D01*
X128692568Y-117948797D01*
X128753891Y-117915313D01*
X128823583Y-117920297D01*
X128879516Y-117962169D01*
X128903777Y-118025671D01*
X128914364Y-118146687D01*
X128914366Y-118146697D01*
X128960834Y-118320117D01*
X128959171Y-118389966D01*
X128928740Y-118439891D01*
X123219195Y-124149435D01*
X123157872Y-124182920D01*
X123120708Y-124185282D01*
X123000004Y-124174723D01*
X122999998Y-124174723D01*
X122854682Y-124187436D01*
X122782023Y-124193793D01*
X122782020Y-124193793D01*
X122570677Y-124250422D01*
X122570668Y-124250426D01*
X122372361Y-124342898D01*
X122372357Y-124342900D01*
X122193121Y-124468402D01*
X122038402Y-124623121D01*
X121912900Y-124802357D01*
X121912898Y-124802361D01*
X121820426Y-125000668D01*
X121820422Y-125000677D01*
X121763793Y-125212020D01*
X121763793Y-125212024D01*
X121744723Y-125429997D01*
X121744723Y-125430002D01*
X121763793Y-125647975D01*
X121763793Y-125647979D01*
X121820422Y-125859322D01*
X121820424Y-125859326D01*
X121820425Y-125859330D01*
X121866661Y-125958484D01*
X121912897Y-126057638D01*
X121912898Y-126057639D01*
X122038402Y-126236877D01*
X122193123Y-126391598D01*
X122372361Y-126517102D01*
X122570670Y-126609575D01*
X122782023Y-126666207D01*
X122964926Y-126682208D01*
X122999998Y-126685277D01*
X123000000Y-126685277D01*
X123000002Y-126685277D01*
X123028254Y-126682805D01*
X123217977Y-126666207D01*
X123429330Y-126609575D01*
X123627639Y-126517102D01*
X123806877Y-126391598D01*
X123961598Y-126236877D01*
X124087102Y-126057639D01*
X124179575Y-125859330D01*
X124236207Y-125647977D01*
X124255277Y-125430000D01*
X124244716Y-125309290D01*
X124258482Y-125240792D01*
X124280560Y-125210806D01*
X128739318Y-120752047D01*
X128800639Y-120718564D01*
X128870331Y-120723548D01*
X128926264Y-120765420D01*
X128946772Y-120807637D01*
X128973258Y-120906488D01*
X128973261Y-120906497D01*
X129069431Y-121112732D01*
X129069432Y-121112734D01*
X129199954Y-121299141D01*
X129360858Y-121460045D01*
X129360861Y-121460047D01*
X129547266Y-121590568D01*
X129605275Y-121617618D01*
X129657714Y-121663791D01*
X129676866Y-121730984D01*
X129656650Y-121797865D01*
X129605275Y-121842382D01*
X129547267Y-121869431D01*
X129547265Y-121869432D01*
X129360858Y-121999954D01*
X129199954Y-122160858D01*
X129069432Y-122347265D01*
X129069431Y-122347267D01*
X128973261Y-122553502D01*
X128973258Y-122553511D01*
X128914366Y-122773302D01*
X128914364Y-122773313D01*
X128894532Y-122999998D01*
X128894532Y-123000001D01*
X128914364Y-123226686D01*
X128914366Y-123226697D01*
X128973258Y-123446488D01*
X128973261Y-123446497D01*
X129069431Y-123652732D01*
X129069432Y-123652734D01*
X129199954Y-123839141D01*
X129360858Y-124000045D01*
X129360861Y-124000047D01*
X129547266Y-124130568D01*
X129605275Y-124157618D01*
X129657714Y-124203791D01*
X129676866Y-124270984D01*
X129656650Y-124337865D01*
X129605275Y-124382382D01*
X129547267Y-124409431D01*
X129547265Y-124409432D01*
X129360858Y-124539954D01*
X129199954Y-124700858D01*
X129069432Y-124887265D01*
X129069431Y-124887267D01*
X128973261Y-125093502D01*
X128973258Y-125093511D01*
X128914366Y-125313302D01*
X128914364Y-125313313D01*
X128894532Y-125539998D01*
X128894532Y-125540001D01*
X128914364Y-125766686D01*
X128914366Y-125766697D01*
X128973258Y-125986488D01*
X128973261Y-125986497D01*
X129069431Y-126192732D01*
X129069432Y-126192734D01*
X129199954Y-126379141D01*
X129360858Y-126540045D01*
X129360861Y-126540047D01*
X129547266Y-126670568D01*
X129605275Y-126697618D01*
X129657714Y-126743791D01*
X129676866Y-126810984D01*
X129656650Y-126877865D01*
X129605275Y-126922382D01*
X129547267Y-126949431D01*
X129547265Y-126949432D01*
X129360858Y-127079954D01*
X129199954Y-127240858D01*
X129174912Y-127276623D01*
X129120335Y-127320248D01*
X129073337Y-127329500D01*
X114108822Y-127329500D01*
X113963834Y-127358340D01*
X113963828Y-127358342D01*
X113827250Y-127414914D01*
X113827238Y-127414921D01*
X113778011Y-127447813D01*
X113704330Y-127497044D01*
X113704322Y-127497050D01*
X109508427Y-131692945D01*
X109447104Y-131726430D01*
X109377412Y-131721446D01*
X109321479Y-131679574D01*
X109300971Y-131637357D01*
X109273905Y-131536344D01*
X109273904Y-131536343D01*
X109273903Y-131536337D01*
X109174035Y-131322171D01*
X109107182Y-131226695D01*
X109038496Y-131128600D01*
X109013985Y-131104089D01*
X108916567Y-131006671D01*
X108883084Y-130945351D01*
X108888068Y-130875659D01*
X108929939Y-130819725D01*
X108960915Y-130802810D01*
X109092331Y-130753796D01*
X109207546Y-130667546D01*
X109293796Y-130552331D01*
X109344091Y-130417483D01*
X109350500Y-130357873D01*
X109350499Y-128562128D01*
X109344091Y-128502517D01*
X109321875Y-128442954D01*
X109293797Y-128367671D01*
X109293793Y-128367664D01*
X109207547Y-128252455D01*
X109207544Y-128252452D01*
X109092335Y-128166206D01*
X109092328Y-128166202D01*
X108957482Y-128115908D01*
X108957483Y-128115908D01*
X108897883Y-128109501D01*
X108897881Y-128109500D01*
X108897873Y-128109500D01*
X108897865Y-128109500D01*
X107762230Y-128109500D01*
X107695191Y-128089815D01*
X107674549Y-128073181D01*
X106786819Y-127185451D01*
X106753334Y-127124128D01*
X106750500Y-127097770D01*
X106750500Y-120591417D01*
X106770185Y-120524378D01*
X106801615Y-120491099D01*
X106946566Y-120385786D01*
X107108286Y-120224066D01*
X107169683Y-120139559D01*
X107225012Y-120096896D01*
X107294625Y-120090917D01*
X107356420Y-120123523D01*
X107370314Y-120139556D01*
X107431714Y-120224066D01*
X107593434Y-120385786D01*
X107778462Y-120520217D01*
X107907227Y-120585826D01*
X107982244Y-120624049D01*
X108199751Y-120694721D01*
X108199752Y-120694721D01*
X108199755Y-120694722D01*
X108425646Y-120730500D01*
X108425647Y-120730500D01*
X108654353Y-120730500D01*
X108654354Y-120730500D01*
X108880245Y-120694722D01*
X108880248Y-120694721D01*
X108880249Y-120694721D01*
X109097755Y-120624049D01*
X109097755Y-120624048D01*
X109097758Y-120624048D01*
X109301538Y-120520217D01*
X109486566Y-120385786D01*
X109648286Y-120224066D01*
X109782717Y-120039038D01*
X109886548Y-119835258D01*
X109895643Y-119807266D01*
X109957221Y-119617749D01*
X109957221Y-119617748D01*
X109957222Y-119617745D01*
X109993000Y-119391854D01*
X109993000Y-119068146D01*
X109957222Y-118842255D01*
X109957221Y-118842251D01*
X109957221Y-118842250D01*
X109886549Y-118624744D01*
X109868738Y-118589788D01*
X109782717Y-118420962D01*
X109648286Y-118235934D01*
X109486566Y-118074214D01*
X109301538Y-117939783D01*
X109253513Y-117915313D01*
X109097755Y-117835950D01*
X108880248Y-117765278D01*
X108694812Y-117735908D01*
X108654354Y-117729500D01*
X108425646Y-117729500D01*
X108385188Y-117735908D01*
X108199753Y-117765278D01*
X108199750Y-117765278D01*
X107982244Y-117835950D01*
X107778461Y-117939783D01*
X107674194Y-118015538D01*
X107593434Y-118074214D01*
X107593432Y-118074216D01*
X107593431Y-118074216D01*
X107431715Y-118235932D01*
X107370318Y-118320438D01*
X107314987Y-118363103D01*
X107245374Y-118369082D01*
X107183579Y-118336476D01*
X107169682Y-118320438D01*
X107158773Y-118305423D01*
X107108286Y-118235934D01*
X106946566Y-118074214D01*
X106761538Y-117939783D01*
X106713513Y-117915313D01*
X106557755Y-117835950D01*
X106340248Y-117765278D01*
X106154812Y-117735908D01*
X106114354Y-117729500D01*
X105885646Y-117729500D01*
X105845188Y-117735908D01*
X105659753Y-117765278D01*
X105659750Y-117765278D01*
X105442244Y-117835950D01*
X105238461Y-117939783D01*
X105055759Y-118072525D01*
X104989952Y-118096005D01*
X104921898Y-118080180D01*
X104873203Y-118030074D01*
X104866690Y-118015538D01*
X104856296Y-117987669D01*
X104856293Y-117987664D01*
X104770047Y-117872455D01*
X104770044Y-117872452D01*
X104654835Y-117786206D01*
X104654828Y-117786202D01*
X104519982Y-117735908D01*
X104519983Y-117735908D01*
X104460383Y-117729501D01*
X104460381Y-117729500D01*
X104460373Y-117729500D01*
X104460364Y-117729500D01*
X102459629Y-117729500D01*
X102459623Y-117729501D01*
X102400016Y-117735908D01*
X102265171Y-117786202D01*
X102265164Y-117786206D01*
X102149955Y-117872452D01*
X102149952Y-117872455D01*
X102063706Y-117987664D01*
X102063702Y-117987671D01*
X102013408Y-118122517D01*
X102007001Y-118182116D01*
X102007000Y-118182135D01*
X102007000Y-120277870D01*
X102007001Y-120277876D01*
X102013408Y-120337483D01*
X102063702Y-120472328D01*
X102063706Y-120472335D01*
X102149952Y-120587544D01*
X102149955Y-120587547D01*
X102265164Y-120673793D01*
X102265171Y-120673797D01*
X102299729Y-120686686D01*
X102400017Y-120724091D01*
X102459627Y-120730500D01*
X102585500Y-120730499D01*
X102652539Y-120750183D01*
X102698294Y-120802987D01*
X102709500Y-120854499D01*
X102709500Y-130533918D01*
X102709500Y-130533920D01*
X102709499Y-130533920D01*
X102738340Y-130678907D01*
X102738343Y-130678917D01*
X102794913Y-130815490D01*
X102794915Y-130815493D01*
X102794916Y-130815495D01*
X102801910Y-130825962D01*
X102801911Y-130825965D01*
X102801912Y-130825965D01*
X102858158Y-130910145D01*
X102877051Y-130938420D01*
X102877052Y-130938421D01*
X106017049Y-134078416D01*
X106121584Y-134182951D01*
X106121587Y-134182953D01*
X106121588Y-134182954D01*
X106244503Y-134265083D01*
X106244506Y-134265085D01*
X106301079Y-134288518D01*
X106301080Y-134288518D01*
X106381088Y-134321659D01*
X106497241Y-134344763D01*
X106516468Y-134348587D01*
X106526081Y-134350500D01*
X106526082Y-134350500D01*
X108736662Y-134350500D01*
X108834204Y-134331096D01*
X108881655Y-134321658D01*
X109018237Y-134265084D01*
X109067471Y-134232186D01*
X109141158Y-134182952D01*
X112724127Y-130599983D01*
X115799500Y-130599983D01*
X115799500Y-131400001D01*
X115799501Y-131400019D01*
X115810000Y-131502796D01*
X115810001Y-131502799D01*
X115848853Y-131620045D01*
X115865186Y-131669334D01*
X115957288Y-131818656D01*
X116081344Y-131942712D01*
X116230666Y-132034814D01*
X116397203Y-132089999D01*
X116499991Y-132100500D01*
X117500008Y-132100499D01*
X117500016Y-132100498D01*
X117500019Y-132100498D01*
X117556302Y-132094748D01*
X117602797Y-132089999D01*
X117769334Y-132034814D01*
X117918656Y-131942712D01*
X118042712Y-131818656D01*
X118134814Y-131669334D01*
X118162595Y-131585495D01*
X118202368Y-131528051D01*
X118266884Y-131501228D01*
X118280301Y-131500500D01*
X119750501Y-131500500D01*
X119817540Y-131520185D01*
X119863295Y-131572989D01*
X119874501Y-131624500D01*
X119874501Y-131922876D01*
X119880908Y-131982483D01*
X119931202Y-132117328D01*
X119931206Y-132117335D01*
X120017452Y-132232544D01*
X120017455Y-132232547D01*
X120132664Y-132318793D01*
X120132671Y-132318797D01*
X120267517Y-132369091D01*
X120267516Y-132369091D01*
X120274444Y-132369835D01*
X120327127Y-132375500D01*
X122672872Y-132375499D01*
X122732483Y-132369091D01*
X122867331Y-132318796D01*
X122982546Y-132232546D01*
X123068796Y-132117331D01*
X123119091Y-131982483D01*
X123125500Y-131922873D01*
X123125499Y-129577128D01*
X123119091Y-129517517D01*
X123081923Y-129417865D01*
X123068797Y-129382671D01*
X123068793Y-129382664D01*
X122982547Y-129267455D01*
X122982544Y-129267452D01*
X122867335Y-129181206D01*
X122867328Y-129181202D01*
X122732482Y-129130908D01*
X122732483Y-129130908D01*
X122672883Y-129124501D01*
X122672881Y-129124500D01*
X122672873Y-129124500D01*
X122672864Y-129124500D01*
X120327129Y-129124500D01*
X120327123Y-129124501D01*
X120267516Y-129130908D01*
X120132671Y-129181202D01*
X120132664Y-129181206D01*
X120017455Y-129267452D01*
X120017452Y-129267455D01*
X119931206Y-129382664D01*
X119931202Y-129382671D01*
X119880908Y-129517517D01*
X119874501Y-129577116D01*
X119874501Y-129577123D01*
X119874500Y-129577135D01*
X119874500Y-129875500D01*
X119854815Y-129942539D01*
X119802011Y-129988294D01*
X119750500Y-129999500D01*
X117860132Y-129999500D01*
X117795036Y-129981039D01*
X117769334Y-129965186D01*
X117602797Y-129910001D01*
X117602795Y-129910000D01*
X117500010Y-129899500D01*
X116499998Y-129899500D01*
X116499980Y-129899501D01*
X116397203Y-129910000D01*
X116397200Y-129910001D01*
X116230668Y-129965185D01*
X116230663Y-129965187D01*
X116081342Y-130057289D01*
X115957289Y-130181342D01*
X115865187Y-130330663D01*
X115865185Y-130330668D01*
X115859685Y-130347266D01*
X115810001Y-130497203D01*
X115810001Y-130497204D01*
X115810000Y-130497204D01*
X115799500Y-130599983D01*
X112724127Y-130599983D01*
X114457291Y-128866819D01*
X114518614Y-128833334D01*
X114544972Y-128830500D01*
X129073337Y-128830500D01*
X129140376Y-128850185D01*
X129174912Y-128883377D01*
X129199954Y-128919141D01*
X129360858Y-129080045D01*
X129360861Y-129080047D01*
X129547266Y-129210568D01*
X129605275Y-129237618D01*
X129657714Y-129283791D01*
X129676866Y-129350984D01*
X129656650Y-129417865D01*
X129605275Y-129462382D01*
X129547267Y-129489431D01*
X129547265Y-129489432D01*
X129360858Y-129619954D01*
X129199954Y-129780858D01*
X129069432Y-129967265D01*
X129069431Y-129967267D01*
X128973261Y-130173502D01*
X128973258Y-130173511D01*
X128914366Y-130393302D01*
X128914364Y-130393312D01*
X128913256Y-130405984D01*
X128887803Y-130471053D01*
X128831212Y-130512031D01*
X128761450Y-130515909D01*
X128700666Y-130481454D01*
X128677346Y-130447581D01*
X128652035Y-130393302D01*
X128630568Y-130347266D01*
X128500047Y-130160861D01*
X128500045Y-130160858D01*
X128339141Y-129999954D01*
X128152734Y-129869432D01*
X128152732Y-129869431D01*
X127946497Y-129773261D01*
X127946488Y-129773258D01*
X127726697Y-129714366D01*
X127726693Y-129714365D01*
X127726692Y-129714365D01*
X127726691Y-129714364D01*
X127726686Y-129714364D01*
X127500002Y-129694532D01*
X127499998Y-129694532D01*
X127273313Y-129714364D01*
X127273302Y-129714366D01*
X127053511Y-129773258D01*
X127053502Y-129773261D01*
X126847267Y-129869431D01*
X126847265Y-129869432D01*
X126660858Y-129999954D01*
X126499954Y-130160858D01*
X126369432Y-130347265D01*
X126369431Y-130347267D01*
X126273261Y-130553502D01*
X126273258Y-130553511D01*
X126214366Y-130773302D01*
X126214364Y-130773313D01*
X126194532Y-130999998D01*
X126194532Y-131000001D01*
X126214364Y-131226686D01*
X126214366Y-131226697D01*
X126273258Y-131446488D01*
X126273261Y-131446497D01*
X126369431Y-131652732D01*
X126369432Y-131652734D01*
X126499954Y-131839141D01*
X126660858Y-132000045D01*
X126660861Y-132000047D01*
X126847266Y-132130568D01*
X127053504Y-132226739D01*
X127053509Y-132226740D01*
X127053511Y-132226741D01*
X127085857Y-132235408D01*
X127273308Y-132285635D01*
X127435230Y-132299801D01*
X127499998Y-132305468D01*
X127500000Y-132305468D01*
X127500002Y-132305468D01*
X127556673Y-132300509D01*
X127726692Y-132285635D01*
X127946496Y-132226739D01*
X128152734Y-132130568D01*
X128339139Y-132000047D01*
X128500047Y-131839139D01*
X128630568Y-131652734D01*
X128726739Y-131446496D01*
X128785635Y-131226692D01*
X128786743Y-131214017D01*
X128812192Y-131148952D01*
X128868780Y-131107970D01*
X128938542Y-131104089D01*
X128999328Y-131138539D01*
X129022653Y-131172417D01*
X129069432Y-131272734D01*
X129104048Y-131322171D01*
X129199954Y-131459141D01*
X129360858Y-131620045D01*
X129385582Y-131637357D01*
X129547266Y-131750568D01*
X129753504Y-131846739D01*
X129973308Y-131905635D01*
X130135230Y-131919801D01*
X130199998Y-131925468D01*
X130200000Y-131925468D01*
X130200002Y-131925468D01*
X130256673Y-131920509D01*
X130426692Y-131905635D01*
X130646496Y-131846739D01*
X130852734Y-131750568D01*
X131039139Y-131620047D01*
X131200047Y-131459139D01*
X131330568Y-131272734D01*
X131426739Y-131066496D01*
X131485635Y-130846692D01*
X131505468Y-130620000D01*
X131503717Y-130599991D01*
X131494725Y-130497204D01*
X131485635Y-130393308D01*
X131426739Y-130173504D01*
X131330568Y-129967266D01*
X131200047Y-129780861D01*
X131200045Y-129780858D01*
X131039141Y-129619954D01*
X130852734Y-129489432D01*
X130852728Y-129489429D01*
X130794725Y-129462382D01*
X130742285Y-129416210D01*
X130723133Y-129349017D01*
X130743348Y-129282135D01*
X130794725Y-129237618D01*
X130852734Y-129210568D01*
X131039139Y-129080047D01*
X131200047Y-128919139D01*
X131330568Y-128732734D01*
X131426739Y-128526496D01*
X131485635Y-128306692D01*
X131505468Y-128080000D01*
X131504871Y-128073181D01*
X131485635Y-127853313D01*
X131485635Y-127853308D01*
X131426739Y-127633504D01*
X131330568Y-127427266D01*
X131200047Y-127240861D01*
X131200045Y-127240858D01*
X131039141Y-127079954D01*
X130852734Y-126949432D01*
X130852728Y-126949429D01*
X130794725Y-126922382D01*
X130742285Y-126876210D01*
X130723133Y-126809017D01*
X130743348Y-126742135D01*
X130794725Y-126697618D01*
X130852734Y-126670568D01*
X131039139Y-126540047D01*
X131200047Y-126379139D01*
X131330568Y-126192734D01*
X131426739Y-125986496D01*
X131485635Y-125766692D01*
X131505468Y-125540000D01*
X131490869Y-125373137D01*
X131504635Y-125304639D01*
X131526713Y-125274653D01*
X134332954Y-122468414D01*
X134382188Y-122394727D01*
X134415086Y-122345493D01*
X134471660Y-122208911D01*
X134500502Y-122063916D01*
X134500502Y-114861231D01*
X134520187Y-114794192D01*
X134572991Y-114748437D01*
X134642149Y-114738493D01*
X134705705Y-114767518D01*
X134712183Y-114773550D01*
X135901580Y-115962948D01*
X135901584Y-115962951D01*
X136024498Y-116045080D01*
X136024511Y-116045087D01*
X136161082Y-116101656D01*
X136161087Y-116101658D01*
X136161091Y-116101658D01*
X136161092Y-116101659D01*
X136306079Y-116130500D01*
X136306082Y-116130500D01*
X136453917Y-116130500D01*
X136693337Y-116130500D01*
X136760376Y-116150185D01*
X136794912Y-116183377D01*
X136819954Y-116219141D01*
X136980858Y-116380045D01*
X136980861Y-116380047D01*
X137167266Y-116510568D01*
X137225275Y-116537618D01*
X137277714Y-116583791D01*
X137296866Y-116650984D01*
X137276650Y-116717865D01*
X137225275Y-116762382D01*
X137167267Y-116789431D01*
X137167265Y-116789432D01*
X136980858Y-116919954D01*
X136819954Y-117080858D01*
X136689432Y-117267265D01*
X136689431Y-117267267D01*
X136593261Y-117473502D01*
X136593258Y-117473511D01*
X136534366Y-117693302D01*
X136534364Y-117693313D01*
X136514532Y-117919998D01*
X136514532Y-117920001D01*
X136534364Y-118146686D01*
X136534366Y-118146697D01*
X136593258Y-118366488D01*
X136593261Y-118366497D01*
X136689431Y-118572732D01*
X136689432Y-118572734D01*
X136819954Y-118759141D01*
X136980858Y-118920045D01*
X136980861Y-118920047D01*
X137167266Y-119050568D01*
X137225275Y-119077618D01*
X137277714Y-119123791D01*
X137296866Y-119190984D01*
X137276650Y-119257865D01*
X137225275Y-119302382D01*
X137167267Y-119329431D01*
X137167265Y-119329432D01*
X136980858Y-119459954D01*
X136819954Y-119620858D01*
X136689432Y-119807265D01*
X136689431Y-119807267D01*
X136593261Y-120013502D01*
X136593258Y-120013511D01*
X136534366Y-120233302D01*
X136534364Y-120233313D01*
X136514532Y-120459998D01*
X136514532Y-120460001D01*
X136534364Y-120686686D01*
X136534366Y-120686697D01*
X136593258Y-120906488D01*
X136593261Y-120906497D01*
X136689431Y-121112732D01*
X136689432Y-121112734D01*
X136819954Y-121299141D01*
X136980858Y-121460045D01*
X136980861Y-121460047D01*
X137167266Y-121590568D01*
X137225275Y-121617618D01*
X137277714Y-121663791D01*
X137296866Y-121730984D01*
X137276650Y-121797865D01*
X137225275Y-121842382D01*
X137167267Y-121869431D01*
X137167265Y-121869432D01*
X136980858Y-121999954D01*
X136819954Y-122160858D01*
X136689432Y-122347265D01*
X136689431Y-122347267D01*
X136593261Y-122553502D01*
X136593258Y-122553511D01*
X136534366Y-122773302D01*
X136534364Y-122773313D01*
X136514532Y-122999998D01*
X136514532Y-123000001D01*
X136534364Y-123226686D01*
X136534366Y-123226697D01*
X136593258Y-123446488D01*
X136593261Y-123446497D01*
X136689431Y-123652732D01*
X136689432Y-123652734D01*
X136819954Y-123839141D01*
X136980858Y-124000045D01*
X136980861Y-124000047D01*
X137167266Y-124130568D01*
X137225275Y-124157618D01*
X137277714Y-124203791D01*
X137296866Y-124270984D01*
X137276650Y-124337865D01*
X137225275Y-124382382D01*
X137167267Y-124409431D01*
X137167265Y-124409432D01*
X136980858Y-124539954D01*
X136819954Y-124700858D01*
X136689432Y-124887265D01*
X136689431Y-124887267D01*
X136593261Y-125093502D01*
X136593258Y-125093511D01*
X136534366Y-125313302D01*
X136534364Y-125313313D01*
X136514532Y-125539998D01*
X136514532Y-125540001D01*
X136534364Y-125766686D01*
X136534366Y-125766697D01*
X136593258Y-125986488D01*
X136593261Y-125986497D01*
X136689431Y-126192732D01*
X136689432Y-126192734D01*
X136819954Y-126379141D01*
X136980858Y-126540045D01*
X136980861Y-126540047D01*
X137167266Y-126670568D01*
X137225275Y-126697618D01*
X137277714Y-126743791D01*
X137296866Y-126810984D01*
X137276650Y-126877865D01*
X137225275Y-126922382D01*
X137167267Y-126949431D01*
X137167265Y-126949432D01*
X136980858Y-127079954D01*
X136819954Y-127240858D01*
X136689432Y-127427265D01*
X136689431Y-127427267D01*
X136593261Y-127633502D01*
X136593258Y-127633511D01*
X136534366Y-127853302D01*
X136534364Y-127853313D01*
X136514532Y-128079998D01*
X136514532Y-128080001D01*
X136534364Y-128306686D01*
X136534366Y-128306697D01*
X136593258Y-128526488D01*
X136593261Y-128526497D01*
X136689431Y-128732732D01*
X136689432Y-128732734D01*
X136819954Y-128919141D01*
X136980858Y-129080045D01*
X136980861Y-129080047D01*
X137167266Y-129210568D01*
X137225275Y-129237618D01*
X137277714Y-129283791D01*
X137296866Y-129350984D01*
X137276650Y-129417865D01*
X137225275Y-129462382D01*
X137167267Y-129489431D01*
X137167265Y-129489432D01*
X136980858Y-129619954D01*
X136819954Y-129780858D01*
X136689432Y-129967265D01*
X136689431Y-129967267D01*
X136593261Y-130173502D01*
X136593258Y-130173511D01*
X136534366Y-130393302D01*
X136534364Y-130393313D01*
X136514532Y-130619998D01*
X136514532Y-130620001D01*
X136534364Y-130846686D01*
X136534366Y-130846697D01*
X136593258Y-131066488D01*
X136593261Y-131066497D01*
X136689431Y-131272732D01*
X136689432Y-131272734D01*
X136819954Y-131459141D01*
X136980858Y-131620045D01*
X137005582Y-131637357D01*
X137167266Y-131750568D01*
X137373504Y-131846739D01*
X137593308Y-131905635D01*
X137755230Y-131919801D01*
X137819998Y-131925468D01*
X137820000Y-131925468D01*
X137820002Y-131925468D01*
X137876673Y-131920509D01*
X138046692Y-131905635D01*
X138266496Y-131846739D01*
X138472734Y-131750568D01*
X138659139Y-131620047D01*
X138820047Y-131459139D01*
X138950568Y-131272734D01*
X139046739Y-131066496D01*
X139105635Y-130846692D01*
X139125468Y-130620000D01*
X139123717Y-130599991D01*
X139114725Y-130497204D01*
X139105635Y-130393308D01*
X139046739Y-130173504D01*
X138950568Y-129967266D01*
X138820047Y-129780861D01*
X138820045Y-129780858D01*
X138659141Y-129619954D01*
X138472734Y-129489432D01*
X138472728Y-129489429D01*
X138414725Y-129462382D01*
X138362285Y-129416210D01*
X138343133Y-129349017D01*
X138363348Y-129282135D01*
X138414725Y-129237618D01*
X138472734Y-129210568D01*
X138659139Y-129080047D01*
X138820047Y-128919139D01*
X138950568Y-128732734D01*
X138974182Y-128682093D01*
X139020353Y-128629656D01*
X139086563Y-128610500D01*
X140525500Y-128610500D01*
X140592539Y-128630185D01*
X140638294Y-128682989D01*
X140649500Y-128734500D01*
X140649500Y-130357870D01*
X140649501Y-130357876D01*
X140655908Y-130417483D01*
X140706202Y-130552328D01*
X140706206Y-130552335D01*
X140792452Y-130667544D01*
X140792455Y-130667547D01*
X140907664Y-130753793D01*
X140907671Y-130753797D01*
X141039081Y-130802810D01*
X141095015Y-130844681D01*
X141119432Y-130910145D01*
X141104580Y-130978418D01*
X141083430Y-131006673D01*
X140961503Y-131128600D01*
X140825965Y-131322169D01*
X140825964Y-131322171D01*
X140726098Y-131536335D01*
X140726094Y-131536344D01*
X140664938Y-131764586D01*
X140664936Y-131764596D01*
X140644341Y-131999999D01*
X140644341Y-132000000D01*
X140664936Y-132235403D01*
X140664938Y-132235413D01*
X140726094Y-132463655D01*
X140726096Y-132463659D01*
X140726097Y-132463663D01*
X140825965Y-132677830D01*
X140825967Y-132677834D01*
X140934281Y-132832521D01*
X140961505Y-132871401D01*
X141128599Y-133038495D01*
X141225384Y-133106265D01*
X141322165Y-133174032D01*
X141322167Y-133174033D01*
X141322170Y-133174035D01*
X141536337Y-133273903D01*
X141764592Y-133335063D01*
X141952918Y-133351539D01*
X141999999Y-133355659D01*
X142000000Y-133355659D01*
X142000001Y-133355659D01*
X142039234Y-133352226D01*
X142235408Y-133335063D01*
X142463663Y-133273903D01*
X142677830Y-133174035D01*
X142871401Y-133038495D01*
X143038495Y-132871401D01*
X143174035Y-132677830D01*
X143273903Y-132463663D01*
X143335063Y-132235408D01*
X143355659Y-132000000D01*
X143335063Y-131764592D01*
X143273903Y-131536337D01*
X143174035Y-131322171D01*
X143107182Y-131226695D01*
X143038496Y-131128600D01*
X143013985Y-131104089D01*
X142916567Y-131006671D01*
X142883084Y-130945351D01*
X142888068Y-130875659D01*
X142929939Y-130819725D01*
X142960915Y-130802810D01*
X143092331Y-130753796D01*
X143207546Y-130667546D01*
X143293796Y-130552331D01*
X143344091Y-130417483D01*
X143350500Y-130357873D01*
X143350500Y-130334500D01*
X143370185Y-130267461D01*
X143422989Y-130221706D01*
X143474500Y-130210500D01*
X145613920Y-130210500D01*
X145711462Y-130191096D01*
X145758913Y-130181658D01*
X145895495Y-130125084D01*
X145955611Y-130084916D01*
X145955611Y-130084915D01*
X145955613Y-130084915D01*
X145996960Y-130057288D01*
X146018416Y-130042952D01*
X153274548Y-122786818D01*
X153335871Y-122753334D01*
X153362229Y-122750500D01*
X153387098Y-122750500D01*
X153454137Y-122770185D01*
X153499892Y-122822989D01*
X153509836Y-122892147D01*
X153506874Y-122906585D01*
X153499500Y-122934108D01*
X153499500Y-125065892D01*
X153516554Y-125129539D01*
X153533608Y-125193187D01*
X153544484Y-125212024D01*
X153599500Y-125307314D01*
X153692686Y-125400500D01*
X153806814Y-125466392D01*
X153934108Y-125500500D01*
X153934110Y-125500500D01*
X159065890Y-125500500D01*
X159065892Y-125500500D01*
X159193186Y-125466392D01*
X159307314Y-125400500D01*
X159400500Y-125307314D01*
X159466392Y-125193186D01*
X159500500Y-125065892D01*
X159500500Y-122934108D01*
X159466392Y-122806814D01*
X159400500Y-122692686D01*
X159307314Y-122599500D01*
X159236470Y-122558598D01*
X159193187Y-122533608D01*
X159129539Y-122516554D01*
X159065892Y-122499500D01*
X159065891Y-122499500D01*
X157861230Y-122499500D01*
X157794191Y-122479815D01*
X157748436Y-122427011D01*
X157738492Y-122357853D01*
X157767517Y-122294297D01*
X157773549Y-122287819D01*
X158582949Y-121478418D01*
X158582950Y-121478417D01*
X158582949Y-121478417D01*
X158582952Y-121478415D01*
X158630639Y-121407046D01*
X158665084Y-121355495D01*
X158697042Y-121278342D01*
X158721659Y-121218912D01*
X158750500Y-121073917D01*
X158750500Y-120926082D01*
X158750500Y-120591417D01*
X158770185Y-120524378D01*
X158801615Y-120491099D01*
X158946566Y-120385786D01*
X159108286Y-120224066D01*
X159169683Y-120139559D01*
X159225012Y-120096896D01*
X159294625Y-120090917D01*
X159356420Y-120123523D01*
X159370314Y-120139556D01*
X159431714Y-120224066D01*
X159593434Y-120385786D01*
X159778462Y-120520217D01*
X159907227Y-120585826D01*
X159982244Y-120624049D01*
X160199751Y-120694721D01*
X160199752Y-120694721D01*
X160199755Y-120694722D01*
X160425646Y-120730500D01*
X160425647Y-120730500D01*
X160654353Y-120730500D01*
X160654354Y-120730500D01*
X160880245Y-120694722D01*
X160880248Y-120694721D01*
X160880249Y-120694721D01*
X161097755Y-120624049D01*
X161097755Y-120624048D01*
X161097758Y-120624048D01*
X161301538Y-120520217D01*
X161486566Y-120385786D01*
X161648286Y-120224066D01*
X161782717Y-120039038D01*
X161886548Y-119835258D01*
X161895643Y-119807266D01*
X161957221Y-119617749D01*
X161957221Y-119617748D01*
X161957222Y-119617745D01*
X161993000Y-119391854D01*
X161993000Y-119068146D01*
X161957222Y-118842255D01*
X161957221Y-118842251D01*
X161957221Y-118842250D01*
X161886549Y-118624744D01*
X161868738Y-118589788D01*
X161782717Y-118420962D01*
X161648286Y-118235934D01*
X161486566Y-118074214D01*
X161301538Y-117939783D01*
X161253513Y-117915313D01*
X161097755Y-117835950D01*
X160880248Y-117765278D01*
X160694812Y-117735908D01*
X160654354Y-117729500D01*
X160425646Y-117729500D01*
X160385188Y-117735908D01*
X160199753Y-117765278D01*
X160199750Y-117765278D01*
X159982244Y-117835950D01*
X159778461Y-117939783D01*
X159674194Y-118015538D01*
X159593434Y-118074214D01*
X159593432Y-118074216D01*
X159593431Y-118074216D01*
X159431715Y-118235932D01*
X159370318Y-118320438D01*
X159314987Y-118363103D01*
X159245374Y-118369082D01*
X159183579Y-118336476D01*
X159169682Y-118320438D01*
X159158773Y-118305423D01*
X159108286Y-118235934D01*
X158946566Y-118074214D01*
X158761538Y-117939783D01*
X158713513Y-117915313D01*
X158557755Y-117835950D01*
X158340248Y-117765278D01*
X158154812Y-117735908D01*
X158114354Y-117729500D01*
X157885646Y-117729500D01*
X157845188Y-117735908D01*
X157659753Y-117765278D01*
X157659750Y-117765278D01*
X157442244Y-117835950D01*
X157238461Y-117939783D01*
X157055759Y-118072525D01*
X156989952Y-118096005D01*
X156921898Y-118080180D01*
X156873203Y-118030074D01*
X156866690Y-118015538D01*
X156856296Y-117987669D01*
X156856293Y-117987664D01*
X156770047Y-117872455D01*
X156770044Y-117872452D01*
X156654835Y-117786206D01*
X156654828Y-117786202D01*
X156519982Y-117735908D01*
X156519983Y-117735908D01*
X156460383Y-117729501D01*
X156460381Y-117729500D01*
X156460373Y-117729500D01*
X156460365Y-117729500D01*
X155842229Y-117729500D01*
X155775190Y-117709815D01*
X155754552Y-117693185D01*
X155478416Y-117417048D01*
X155478415Y-117417047D01*
X155478414Y-117417046D01*
X155404729Y-117367812D01*
X155404729Y-117367813D01*
X155355491Y-117334913D01*
X155218917Y-117278343D01*
X155218907Y-117278340D01*
X155073920Y-117249500D01*
X155073918Y-117249500D01*
X148706978Y-117249500D01*
X148639939Y-117229815D01*
X148628313Y-117221353D01*
X148558539Y-117164090D01*
X148558532Y-117164086D01*
X148384733Y-117071188D01*
X148384727Y-117071186D01*
X148196132Y-117013976D01*
X148196129Y-117013975D01*
X148000000Y-116994659D01*
X147803870Y-117013975D01*
X147615266Y-117071188D01*
X147441467Y-117164086D01*
X147441460Y-117164090D01*
X147289116Y-117289116D01*
X147164090Y-117441460D01*
X147164086Y-117441467D01*
X147071188Y-117615266D01*
X147013975Y-117803870D01*
X146994659Y-118000000D01*
X147013975Y-118196129D01*
X147013976Y-118196132D01*
X147064626Y-118363103D01*
X147071188Y-118384733D01*
X147164086Y-118558532D01*
X147164090Y-118558539D01*
X147289116Y-118710883D01*
X147441460Y-118835909D01*
X147441467Y-118835913D01*
X147615266Y-118928811D01*
X147615269Y-118928811D01*
X147615273Y-118928814D01*
X147803868Y-118986024D01*
X148000000Y-119005341D01*
X148196132Y-118986024D01*
X148384727Y-118928814D01*
X148558538Y-118835910D01*
X148628313Y-118778647D01*
X148692623Y-118751334D01*
X148706978Y-118750500D01*
X153883000Y-118750500D01*
X153950039Y-118770185D01*
X153995794Y-118822989D01*
X154007000Y-118874500D01*
X154007000Y-120277870D01*
X154007001Y-120277876D01*
X154013408Y-120337483D01*
X154063702Y-120472328D01*
X154063706Y-120472335D01*
X154149952Y-120587544D01*
X154149955Y-120587547D01*
X154265164Y-120673793D01*
X154265171Y-120673797D01*
X154400017Y-120724091D01*
X154400016Y-120724091D01*
X154406944Y-120724835D01*
X154459627Y-120730500D01*
X156460372Y-120730499D01*
X156519983Y-120724091D01*
X156654831Y-120673796D01*
X156770046Y-120587546D01*
X156856296Y-120472331D01*
X156866690Y-120444460D01*
X156908560Y-120388527D01*
X156974023Y-120364108D01*
X157042297Y-120378958D01*
X157055746Y-120387465D01*
X157198387Y-120491101D01*
X157241051Y-120546429D01*
X157249500Y-120591417D01*
X157249500Y-120637770D01*
X157229815Y-120704809D01*
X157213181Y-120725451D01*
X156725451Y-121213181D01*
X156664128Y-121246666D01*
X156637770Y-121249500D01*
X152926080Y-121249500D01*
X152781092Y-121278340D01*
X152781082Y-121278343D01*
X152644511Y-121334912D01*
X152644498Y-121334919D01*
X152521584Y-121417048D01*
X152521580Y-121417051D01*
X145265451Y-128673181D01*
X145204128Y-128706666D01*
X145177770Y-128709500D01*
X144158270Y-128709500D01*
X144091231Y-128689815D01*
X144045476Y-128637011D01*
X144035532Y-128567853D01*
X144064557Y-128504297D01*
X144089381Y-128482397D01*
X144148413Y-128442954D01*
X144148412Y-128442954D01*
X144148416Y-128442952D01*
X150243498Y-122347867D01*
X150304819Y-122314384D01*
X150341983Y-122312022D01*
X150484861Y-122324522D01*
X150554999Y-122330659D01*
X150555000Y-122330659D01*
X150555001Y-122330659D01*
X150594234Y-122327226D01*
X150790408Y-122310063D01*
X151018663Y-122248903D01*
X151232830Y-122149035D01*
X151426401Y-122013495D01*
X151593495Y-121846401D01*
X151729035Y-121652830D01*
X151828903Y-121438663D01*
X151890063Y-121210408D01*
X151910659Y-120975000D01*
X151890063Y-120739592D01*
X151828903Y-120511337D01*
X151729035Y-120297171D01*
X151723425Y-120289158D01*
X151593494Y-120103597D01*
X151426402Y-119936506D01*
X151426395Y-119936501D01*
X151422176Y-119933547D01*
X151286313Y-119838414D01*
X151232834Y-119800967D01*
X151232830Y-119800965D01*
X151151802Y-119763181D01*
X151018663Y-119701097D01*
X151018659Y-119701096D01*
X151018655Y-119701094D01*
X150790413Y-119639938D01*
X150790403Y-119639936D01*
X150555001Y-119619341D01*
X150554999Y-119619341D01*
X150319596Y-119639936D01*
X150319586Y-119639938D01*
X150091344Y-119701094D01*
X150091335Y-119701098D01*
X149877171Y-119800964D01*
X149877169Y-119800965D01*
X149683597Y-119936505D01*
X149516505Y-120103597D01*
X149386575Y-120289158D01*
X149331998Y-120332783D01*
X149262500Y-120339977D01*
X149200145Y-120308454D01*
X149183425Y-120289158D01*
X149053494Y-120103597D01*
X148886402Y-119936506D01*
X148886395Y-119936501D01*
X148882176Y-119933547D01*
X148746313Y-119838414D01*
X148692834Y-119800967D01*
X148692830Y-119800965D01*
X148611802Y-119763181D01*
X148478663Y-119701097D01*
X148478659Y-119701096D01*
X148478655Y-119701094D01*
X148250413Y-119639938D01*
X148250403Y-119639936D01*
X148015001Y-119619341D01*
X148014999Y-119619341D01*
X147779596Y-119639936D01*
X147779586Y-119639938D01*
X147551344Y-119701094D01*
X147551335Y-119701098D01*
X147337171Y-119800964D01*
X147337169Y-119800965D01*
X147143597Y-119936505D01*
X146976505Y-120103597D01*
X146840965Y-120297169D01*
X146840964Y-120297171D01*
X146741098Y-120511335D01*
X146741094Y-120511344D01*
X146679938Y-120739586D01*
X146679936Y-120739596D01*
X146659341Y-120974999D01*
X146659341Y-120975000D01*
X146679936Y-121210403D01*
X146679938Y-121210413D01*
X146741094Y-121438655D01*
X146741096Y-121438659D01*
X146741097Y-121438663D01*
X146794125Y-121552381D01*
X146840965Y-121652830D01*
X146840967Y-121652834D01*
X146925292Y-121773261D01*
X146976505Y-121846401D01*
X147143599Y-122013495D01*
X147240384Y-122081265D01*
X147337165Y-122149032D01*
X147337167Y-122149033D01*
X147337170Y-122149035D01*
X147551337Y-122248903D01*
X147779592Y-122310063D01*
X147863174Y-122317375D01*
X147928242Y-122342827D01*
X147969221Y-122399418D01*
X147973099Y-122469180D01*
X147940047Y-122528584D01*
X143395451Y-127073181D01*
X143334128Y-127106666D01*
X143307770Y-127109500D01*
X138739485Y-127109500D01*
X138672446Y-127089815D01*
X138659786Y-127080495D01*
X138659142Y-127079954D01*
X138472734Y-126949432D01*
X138472728Y-126949429D01*
X138414725Y-126922382D01*
X138362285Y-126876210D01*
X138343133Y-126809017D01*
X138363348Y-126742135D01*
X138414725Y-126697618D01*
X138472734Y-126670568D01*
X138659139Y-126540047D01*
X138820047Y-126379139D01*
X138950568Y-126192734D01*
X139046739Y-125986496D01*
X139105635Y-125766692D01*
X139125468Y-125540000D01*
X139110869Y-125373137D01*
X139124635Y-125304639D01*
X139146713Y-125274653D01*
X144582952Y-119838416D01*
X144607976Y-119800964D01*
X144640693Y-119752000D01*
X144640695Y-119751995D01*
X144640701Y-119751987D01*
X144665084Y-119715495D01*
X144721658Y-119578913D01*
X144744735Y-119462900D01*
X144750500Y-119433920D01*
X144750500Y-115352498D01*
X148694532Y-115352498D01*
X148694532Y-115352501D01*
X148714364Y-115579186D01*
X148714366Y-115579197D01*
X148773258Y-115798988D01*
X148773261Y-115798997D01*
X148869431Y-116005232D01*
X148869432Y-116005234D01*
X148999954Y-116191641D01*
X149160858Y-116352545D01*
X149160861Y-116352547D01*
X149347266Y-116483068D01*
X149553504Y-116579239D01*
X149773308Y-116638135D01*
X149920173Y-116650984D01*
X149999998Y-116657968D01*
X150000000Y-116657968D01*
X150000002Y-116657968D01*
X150079827Y-116650984D01*
X150226692Y-116638135D01*
X150446496Y-116579239D01*
X150652734Y-116483068D01*
X150839139Y-116352547D01*
X151000047Y-116191639D01*
X151130568Y-116005234D01*
X151226739Y-115798996D01*
X151285635Y-115579192D01*
X151305468Y-115352500D01*
X151304184Y-115337828D01*
X151288722Y-115161093D01*
X151285635Y-115125808D01*
X151240916Y-114958915D01*
X151226741Y-114906011D01*
X151226738Y-114906002D01*
X151162161Y-114767518D01*
X151130568Y-114699766D01*
X151000047Y-114513361D01*
X151000045Y-114513358D01*
X150839141Y-114352454D01*
X150652734Y-114221932D01*
X150652732Y-114221931D01*
X150446497Y-114125761D01*
X150446488Y-114125758D01*
X150226697Y-114066866D01*
X150226693Y-114066865D01*
X150226692Y-114066865D01*
X150226691Y-114066864D01*
X150226686Y-114066864D01*
X150000002Y-114047032D01*
X149999998Y-114047032D01*
X149773313Y-114066864D01*
X149773302Y-114066866D01*
X149553511Y-114125758D01*
X149553502Y-114125761D01*
X149347267Y-114221931D01*
X149347265Y-114221932D01*
X149160858Y-114352454D01*
X148999954Y-114513358D01*
X148869432Y-114699765D01*
X148869431Y-114699767D01*
X148773261Y-114906002D01*
X148773258Y-114906011D01*
X148714366Y-115125802D01*
X148714364Y-115125813D01*
X148694532Y-115352498D01*
X144750500Y-115352498D01*
X144750500Y-109434108D01*
X145499500Y-109434108D01*
X145499500Y-112565891D01*
X145533608Y-112693187D01*
X145538028Y-112700842D01*
X145599500Y-112807314D01*
X145692686Y-112900500D01*
X145806814Y-112966392D01*
X145934108Y-113000500D01*
X145934110Y-113000500D01*
X147065890Y-113000500D01*
X147065892Y-113000500D01*
X147193186Y-112966392D01*
X147307314Y-112900500D01*
X147400500Y-112807314D01*
X147466392Y-112693186D01*
X147500500Y-112565892D01*
X147500500Y-109434108D01*
X147466392Y-109306814D01*
X147400500Y-109192686D01*
X147307314Y-109099500D01*
X147250250Y-109066554D01*
X147193187Y-109033608D01*
X147121366Y-109014364D01*
X147065892Y-108999500D01*
X146065892Y-108999500D01*
X145934108Y-108999500D01*
X145806812Y-109033608D01*
X145692686Y-109099500D01*
X145692683Y-109099502D01*
X145599502Y-109192683D01*
X145599500Y-109192686D01*
X145533608Y-109306812D01*
X145499500Y-109434108D01*
X144750500Y-109434108D01*
X144750500Y-106884635D01*
X148699500Y-106884635D01*
X148699500Y-108580370D01*
X148699501Y-108580376D01*
X148705908Y-108639983D01*
X148756202Y-108774828D01*
X148756206Y-108774835D01*
X148842452Y-108890044D01*
X148842455Y-108890047D01*
X148957664Y-108976293D01*
X148957671Y-108976297D01*
X149092517Y-109026591D01*
X149092516Y-109026591D01*
X149099444Y-109027335D01*
X149152127Y-109033000D01*
X150847872Y-109032999D01*
X150907483Y-109026591D01*
X151042331Y-108976296D01*
X151157546Y-108890046D01*
X151243796Y-108774831D01*
X151294091Y-108639983D01*
X151300500Y-108580373D01*
X151300499Y-106884628D01*
X151294848Y-106832057D01*
X151294091Y-106825016D01*
X151243797Y-106690170D01*
X151243793Y-106690164D01*
X151157547Y-106574955D01*
X151157544Y-106574952D01*
X151042335Y-106488706D01*
X151042328Y-106488702D01*
X150907482Y-106438408D01*
X150907483Y-106438408D01*
X150847883Y-106432001D01*
X150847881Y-106432000D01*
X150847873Y-106432000D01*
X150847864Y-106432000D01*
X149152129Y-106432000D01*
X149152123Y-106432001D01*
X149092516Y-106438408D01*
X148957671Y-106488702D01*
X148957664Y-106488706D01*
X148842455Y-106574952D01*
X148842452Y-106574955D01*
X148756206Y-106690164D01*
X148756203Y-106690170D01*
X148705908Y-106825017D01*
X148699501Y-106884616D01*
X148699501Y-106884623D01*
X148699500Y-106884635D01*
X144750500Y-106884635D01*
X144750500Y-103999999D01*
X148644341Y-103999999D01*
X148644341Y-104000000D01*
X148664936Y-104235403D01*
X148664938Y-104235413D01*
X148726094Y-104463655D01*
X148726096Y-104463659D01*
X148726097Y-104463663D01*
X148770338Y-104558538D01*
X148825965Y-104677830D01*
X148825967Y-104677834D01*
X148914218Y-104803868D01*
X148961505Y-104871401D01*
X149128599Y-105038495D01*
X149225384Y-105106265D01*
X149322165Y-105174032D01*
X149322167Y-105174033D01*
X149322170Y-105174035D01*
X149536337Y-105273903D01*
X149764592Y-105335063D01*
X149952918Y-105351539D01*
X149999999Y-105355659D01*
X150000000Y-105355659D01*
X150000001Y-105355659D01*
X150039234Y-105352226D01*
X150235408Y-105335063D01*
X150463663Y-105273903D01*
X150677830Y-105174035D01*
X150871401Y-105038495D01*
X151038495Y-104871401D01*
X151174035Y-104677830D01*
X151273903Y-104463663D01*
X151335063Y-104235408D01*
X151355659Y-104000000D01*
X151352966Y-103969225D01*
X151335063Y-103764596D01*
X151335063Y-103764592D01*
X151273903Y-103536337D01*
X151174035Y-103322171D01*
X151150890Y-103289117D01*
X151038496Y-103128600D01*
X150981082Y-103071186D01*
X150916567Y-103006671D01*
X150883084Y-102945351D01*
X150888068Y-102875659D01*
X150929939Y-102819725D01*
X150960915Y-102802810D01*
X151092331Y-102753796D01*
X151207546Y-102667546D01*
X151293796Y-102552331D01*
X151336113Y-102438872D01*
X155999500Y-102438872D01*
X155999500Y-102701127D01*
X156022479Y-102875659D01*
X156033730Y-102961116D01*
X156101602Y-103214418D01*
X156101605Y-103214428D01*
X156201953Y-103456690D01*
X156201958Y-103456700D01*
X156333075Y-103683803D01*
X156492718Y-103891851D01*
X156492726Y-103891860D01*
X156678140Y-104077274D01*
X156678148Y-104077281D01*
X156886196Y-104236924D01*
X157113299Y-104368041D01*
X157113309Y-104368046D01*
X157344152Y-104463664D01*
X157355581Y-104468398D01*
X157608884Y-104536270D01*
X157868880Y-104570500D01*
X157868887Y-104570500D01*
X158131113Y-104570500D01*
X158131120Y-104570500D01*
X158391116Y-104536270D01*
X158644419Y-104468398D01*
X158886697Y-104368043D01*
X159113803Y-104236924D01*
X159321851Y-104077282D01*
X159321855Y-104077277D01*
X159321860Y-104077274D01*
X159507274Y-103891860D01*
X159507277Y-103891855D01*
X159507282Y-103891851D01*
X159666924Y-103683803D01*
X159798043Y-103456697D01*
X159804352Y-103441467D01*
X159846737Y-103339139D01*
X159898398Y-103214419D01*
X159966270Y-102961116D01*
X160000500Y-102701120D01*
X160000500Y-102438880D01*
X159966270Y-102178884D01*
X159898398Y-101925581D01*
X159865959Y-101847266D01*
X159798046Y-101683309D01*
X159798041Y-101683299D01*
X159666924Y-101456196D01*
X159507281Y-101248148D01*
X159507274Y-101248140D01*
X159321860Y-101062726D01*
X159321851Y-101062718D01*
X159113803Y-100903075D01*
X158886700Y-100771958D01*
X158886690Y-100771953D01*
X158644428Y-100671605D01*
X158644421Y-100671603D01*
X158644419Y-100671602D01*
X158391116Y-100603730D01*
X158316209Y-100593868D01*
X158131127Y-100569500D01*
X158131120Y-100569500D01*
X157868880Y-100569500D01*
X157868872Y-100569500D01*
X157637772Y-100599926D01*
X157608884Y-100603730D01*
X157355581Y-100671602D01*
X157355571Y-100671605D01*
X157113309Y-100771953D01*
X157113299Y-100771958D01*
X156886196Y-100903075D01*
X156678148Y-101062718D01*
X156492718Y-101248148D01*
X156333075Y-101456196D01*
X156201958Y-101683299D01*
X156201953Y-101683309D01*
X156101605Y-101925571D01*
X156101602Y-101925581D01*
X156067324Y-102053511D01*
X156033730Y-102178885D01*
X155999500Y-102438872D01*
X151336113Y-102438872D01*
X151344091Y-102417483D01*
X151350500Y-102357873D01*
X151350499Y-100562128D01*
X151344091Y-100502517D01*
X151307821Y-100405273D01*
X151293797Y-100367671D01*
X151293793Y-100367664D01*
X151207547Y-100252455D01*
X151207544Y-100252452D01*
X151092335Y-100166206D01*
X151092328Y-100166202D01*
X150957482Y-100115908D01*
X150957483Y-100115908D01*
X150897883Y-100109501D01*
X150897881Y-100109500D01*
X150897873Y-100109500D01*
X150897864Y-100109500D01*
X149102129Y-100109500D01*
X149102123Y-100109501D01*
X149042516Y-100115908D01*
X148907671Y-100166202D01*
X148907664Y-100166206D01*
X148792455Y-100252452D01*
X148792452Y-100252455D01*
X148706206Y-100367664D01*
X148706202Y-100367671D01*
X148655908Y-100502517D01*
X148649501Y-100562116D01*
X148649501Y-100562123D01*
X148649500Y-100562135D01*
X148649500Y-102357870D01*
X148649501Y-102357876D01*
X148655908Y-102417483D01*
X148706202Y-102552328D01*
X148706206Y-102552335D01*
X148792452Y-102667544D01*
X148792455Y-102667547D01*
X148907664Y-102753793D01*
X148907671Y-102753797D01*
X149039081Y-102802810D01*
X149095015Y-102844681D01*
X149119432Y-102910145D01*
X149104580Y-102978418D01*
X149083430Y-103006673D01*
X148961503Y-103128600D01*
X148825965Y-103322169D01*
X148825964Y-103322171D01*
X148726098Y-103536335D01*
X148726094Y-103536344D01*
X148664938Y-103764586D01*
X148664936Y-103764596D01*
X148644341Y-103999999D01*
X144750500Y-103999999D01*
X144750500Y-96926079D01*
X144721659Y-96781092D01*
X144721658Y-96781091D01*
X144721658Y-96781087D01*
X144692579Y-96710883D01*
X144665087Y-96644511D01*
X144665080Y-96644498D01*
X144582952Y-96521585D01*
X144582951Y-96521584D01*
X144478416Y-96417049D01*
X144478415Y-96417048D01*
X144061366Y-95999999D01*
X153494696Y-95999999D01*
X153494696Y-96000000D01*
X153513898Y-96366405D01*
X153538476Y-96521584D01*
X153571295Y-96728794D01*
X153642590Y-96994871D01*
X153666260Y-97083206D01*
X153797746Y-97425739D01*
X153964320Y-97752656D01*
X154164147Y-98060364D01*
X154271705Y-98193187D01*
X154395051Y-98345506D01*
X154654494Y-98604949D01*
X154654498Y-98604952D01*
X154939635Y-98835852D01*
X155247343Y-99035679D01*
X155247348Y-99035682D01*
X155574264Y-99202255D01*
X155916801Y-99333742D01*
X156271206Y-99428705D01*
X156633596Y-99486102D01*
X156979734Y-99504241D01*
X156999999Y-99505304D01*
X157000000Y-99505304D01*
X157000001Y-99505304D01*
X157019203Y-99504297D01*
X157366404Y-99486102D01*
X157728794Y-99428705D01*
X158083199Y-99333742D01*
X158425736Y-99202255D01*
X158752652Y-99035682D01*
X159060366Y-98835851D01*
X159345506Y-98604949D01*
X159413636Y-98536819D01*
X159474959Y-98503334D01*
X159501317Y-98500500D01*
X160065890Y-98500500D01*
X160065892Y-98500500D01*
X160193186Y-98466392D01*
X160307314Y-98400500D01*
X160400500Y-98307314D01*
X160466392Y-98193186D01*
X160500500Y-98065892D01*
X160500500Y-96094913D01*
X160500670Y-96088423D01*
X160505304Y-96000000D01*
X160505304Y-95999999D01*
X160500670Y-95911575D01*
X160500500Y-95905085D01*
X160500500Y-93934110D01*
X160500500Y-93934108D01*
X160466392Y-93806814D01*
X160463264Y-93801397D01*
X160425226Y-93735513D01*
X160400500Y-93692686D01*
X160307314Y-93599500D01*
X160250250Y-93566554D01*
X160193187Y-93533608D01*
X160129539Y-93516554D01*
X160065892Y-93499500D01*
X160065891Y-93499500D01*
X159501317Y-93499500D01*
X159434278Y-93479815D01*
X159413636Y-93463181D01*
X159345509Y-93395054D01*
X159345501Y-93395047D01*
X159060364Y-93164147D01*
X158752656Y-92964320D01*
X158425739Y-92797746D01*
X158083206Y-92666260D01*
X158083199Y-92666258D01*
X157728794Y-92571295D01*
X157728790Y-92571294D01*
X157728789Y-92571294D01*
X157366405Y-92513898D01*
X157000001Y-92494696D01*
X156999999Y-92494696D01*
X156633594Y-92513898D01*
X156271211Y-92571294D01*
X156271209Y-92571294D01*
X155916793Y-92666260D01*
X155574260Y-92797746D01*
X155247343Y-92964320D01*
X154939635Y-93164147D01*
X154654498Y-93395047D01*
X154654490Y-93395054D01*
X154395054Y-93654490D01*
X154395047Y-93654498D01*
X154164147Y-93939635D01*
X153964320Y-94247343D01*
X153797746Y-94574260D01*
X153666260Y-94916793D01*
X153571294Y-95271209D01*
X153571294Y-95271211D01*
X153513898Y-95633594D01*
X153494696Y-95999999D01*
X144061366Y-95999999D01*
X141030593Y-92969225D01*
X140997108Y-92907902D01*
X140994871Y-92893697D01*
X140986024Y-92803871D01*
X140986024Y-92803870D01*
X140986024Y-92803868D01*
X140928814Y-92615273D01*
X140928811Y-92615269D01*
X140928811Y-92615266D01*
X140835913Y-92441467D01*
X140835909Y-92441460D01*
X140710883Y-92289116D01*
X140626486Y-92219853D01*
X140587152Y-92162107D01*
X140585281Y-92092262D01*
X140621469Y-92032494D01*
X140684225Y-92001778D01*
X140705151Y-92000000D01*
X164375500Y-92000000D01*
X164442539Y-92019685D01*
X164488294Y-92072489D01*
X164499500Y-92124000D01*
X164499500Y-139375500D01*
X164479815Y-139442539D01*
X164427011Y-139488294D01*
X164375500Y-139499500D01*
X159504315Y-139499500D01*
X159437276Y-139479815D01*
X159391521Y-139427011D01*
X159381577Y-139357853D01*
X159396928Y-139313499D01*
X159400497Y-139307316D01*
X159400500Y-139307314D01*
X159466392Y-139193186D01*
X159500500Y-139065892D01*
X159500500Y-136934108D01*
X159466392Y-136806814D01*
X159400500Y-136692686D01*
X159307314Y-136599500D01*
X159250250Y-136566554D01*
X159193187Y-136533608D01*
X159104172Y-136509757D01*
X159065892Y-136499500D01*
X154065892Y-136499500D01*
X153934108Y-136499500D01*
X153806812Y-136533608D01*
X153692686Y-136599500D01*
X153692683Y-136599502D01*
X153599502Y-136692683D01*
X153599500Y-136692686D01*
X153533608Y-136806812D01*
X153499500Y-136934108D01*
X153499500Y-139065891D01*
X153533608Y-139193187D01*
X153557814Y-139235112D01*
X153599500Y-139307314D01*
X153599502Y-139307316D01*
X153603072Y-139313499D01*
X153619545Y-139381399D01*
X153596693Y-139447426D01*
X153541772Y-139490617D01*
X153495685Y-139499500D01*
X96504315Y-139499500D01*
X96437276Y-139479815D01*
X96391521Y-139427011D01*
X96381577Y-139357853D01*
X96396928Y-139313499D01*
X96400497Y-139307316D01*
X96400500Y-139307314D01*
X96466392Y-139193186D01*
X96500500Y-139065892D01*
X96500500Y-137250000D01*
X119869474Y-137250000D01*
X119889547Y-137505064D01*
X119889547Y-137505067D01*
X119889548Y-137505070D01*
X119893177Y-137520185D01*
X119949279Y-137753864D01*
X120047188Y-137990239D01*
X120047190Y-137990242D01*
X120180875Y-138208396D01*
X120180878Y-138208401D01*
X120256200Y-138296591D01*
X120347044Y-138402956D01*
X120437035Y-138479815D01*
X120541598Y-138569121D01*
X120541603Y-138569124D01*
X120759757Y-138702809D01*
X120759760Y-138702811D01*
X120996135Y-138800720D01*
X120996140Y-138800722D01*
X121244930Y-138860452D01*
X121500000Y-138880526D01*
X121755070Y-138860452D01*
X122003860Y-138800722D01*
X122122051Y-138751765D01*
X122240239Y-138702811D01*
X122240240Y-138702810D01*
X122240243Y-138702809D01*
X122458399Y-138569123D01*
X122652956Y-138402956D01*
X122819123Y-138208399D01*
X122952809Y-137990243D01*
X123050722Y-137753860D01*
X123110452Y-137505070D01*
X123130526Y-137250000D01*
X123110452Y-136994930D01*
X123050722Y-136746140D01*
X123028581Y-136692686D01*
X122952811Y-136509760D01*
X122952809Y-136509757D01*
X122819123Y-136291601D01*
X122819122Y-136291600D01*
X122819121Y-136291598D01*
X122759319Y-136221579D01*
X122652956Y-136097044D01*
X122546591Y-136006200D01*
X122458401Y-135930878D01*
X122458396Y-135930875D01*
X122240242Y-135797190D01*
X122240239Y-135797188D01*
X122003864Y-135699279D01*
X122003860Y-135699278D01*
X121755070Y-135639548D01*
X121755067Y-135639547D01*
X121755064Y-135639547D01*
X121500000Y-135619474D01*
X121244935Y-135639547D01*
X121244931Y-135639547D01*
X121244930Y-135639548D01*
X121120535Y-135669413D01*
X120996135Y-135699279D01*
X120759760Y-135797188D01*
X120759757Y-135797190D01*
X120541603Y-135930875D01*
X120541598Y-135930878D01*
X120347044Y-136097044D01*
X120180878Y-136291598D01*
X120180875Y-136291603D01*
X120047190Y-136509757D01*
X120047188Y-136509760D01*
X119949279Y-136746135D01*
X119889547Y-136994935D01*
X119869474Y-137250000D01*
X96500500Y-137250000D01*
X96500500Y-136934108D01*
X96466392Y-136806814D01*
X96400500Y-136692686D01*
X96307314Y-136599500D01*
X96250250Y-136566554D01*
X96193187Y-136533608D01*
X96104172Y-136509757D01*
X96065892Y-136499500D01*
X91065892Y-136499500D01*
X90934108Y-136499500D01*
X90806812Y-136533608D01*
X90692686Y-136599500D01*
X90692683Y-136599502D01*
X90599502Y-136692683D01*
X90599500Y-136692686D01*
X90533608Y-136806812D01*
X90499500Y-136934108D01*
X90499500Y-139065891D01*
X90533608Y-139193187D01*
X90557814Y-139235112D01*
X90599500Y-139307314D01*
X90599502Y-139307316D01*
X90603072Y-139313499D01*
X90619545Y-139381399D01*
X90596693Y-139447426D01*
X90541772Y-139490617D01*
X90495685Y-139499500D01*
X85624500Y-139499500D01*
X85557461Y-139479815D01*
X85511706Y-139427011D01*
X85500500Y-139375500D01*
X85500500Y-123876160D01*
X85520185Y-123809121D01*
X85572989Y-123763366D01*
X85642147Y-123753422D01*
X85705703Y-123782447D01*
X85726073Y-123805035D01*
X85746319Y-123833950D01*
X85749955Y-123839142D01*
X85910858Y-124000045D01*
X85910861Y-124000047D01*
X86097266Y-124130568D01*
X86303504Y-124226739D01*
X86523308Y-124285635D01*
X86685230Y-124299801D01*
X86749998Y-124305468D01*
X86750000Y-124305468D01*
X86750002Y-124305468D01*
X86806673Y-124300509D01*
X86976692Y-124285635D01*
X87196496Y-124226739D01*
X87402734Y-124130568D01*
X87589139Y-124000047D01*
X87750047Y-123839139D01*
X87880568Y-123652734D01*
X87887618Y-123637614D01*
X87933789Y-123585176D01*
X88000982Y-123566023D01*
X88067864Y-123586238D01*
X88112381Y-123637614D01*
X88119432Y-123652733D01*
X88119432Y-123652734D01*
X88249954Y-123839141D01*
X88410858Y-124000045D01*
X88410861Y-124000047D01*
X88597266Y-124130568D01*
X88803504Y-124226739D01*
X89023308Y-124285635D01*
X89185230Y-124299801D01*
X89249998Y-124305468D01*
X89250000Y-124305468D01*
X89250002Y-124305468D01*
X89306673Y-124300509D01*
X89476692Y-124285635D01*
X89696496Y-124226739D01*
X89902734Y-124130568D01*
X90089139Y-124000047D01*
X90250047Y-123839139D01*
X90273925Y-123805036D01*
X90328500Y-123761412D01*
X90397999Y-123754218D01*
X90460354Y-123785740D01*
X90495768Y-123845969D01*
X90499500Y-123876160D01*
X90499500Y-124934108D01*
X90499500Y-125065892D01*
X90516554Y-125129539D01*
X90533608Y-125193187D01*
X90544484Y-125212024D01*
X90599500Y-125307314D01*
X90692686Y-125400500D01*
X90806814Y-125466392D01*
X90934108Y-125500500D01*
X90934110Y-125500500D01*
X96065890Y-125500500D01*
X96065892Y-125500500D01*
X96193186Y-125466392D01*
X96307314Y-125400500D01*
X96400500Y-125307314D01*
X96466392Y-125193186D01*
X96500500Y-125065892D01*
X96500500Y-122999998D01*
X96944532Y-122999998D01*
X96944532Y-123000001D01*
X96964364Y-123226686D01*
X96964366Y-123226697D01*
X97023258Y-123446488D01*
X97023261Y-123446497D01*
X97119431Y-123652732D01*
X97119432Y-123652734D01*
X97249954Y-123839141D01*
X97410858Y-124000045D01*
X97410861Y-124000047D01*
X97597266Y-124130568D01*
X97803504Y-124226739D01*
X98023308Y-124285635D01*
X98185230Y-124299801D01*
X98249998Y-124305468D01*
X98250000Y-124305468D01*
X98250002Y-124305468D01*
X98306673Y-124300509D01*
X98476692Y-124285635D01*
X98696496Y-124226739D01*
X98902734Y-124130568D01*
X99089139Y-124000047D01*
X99250047Y-123839139D01*
X99380568Y-123652734D01*
X99476739Y-123446496D01*
X99535635Y-123226692D01*
X99555468Y-123000000D01*
X99535635Y-122773308D01*
X99478104Y-122558598D01*
X99476741Y-122553511D01*
X99476738Y-122553502D01*
X99467461Y-122533608D01*
X99380568Y-122347266D01*
X99250047Y-122160861D01*
X99250045Y-122160858D01*
X99089141Y-121999954D01*
X98902734Y-121869432D01*
X98902732Y-121869431D01*
X98696497Y-121773261D01*
X98696488Y-121773258D01*
X98476697Y-121714366D01*
X98476693Y-121714365D01*
X98476692Y-121714365D01*
X98476691Y-121714364D01*
X98476686Y-121714364D01*
X98250002Y-121694532D01*
X98249998Y-121694532D01*
X98023313Y-121714364D01*
X98023302Y-121714366D01*
X97803511Y-121773258D01*
X97803502Y-121773261D01*
X97597267Y-121869431D01*
X97597265Y-121869432D01*
X97410858Y-121999954D01*
X97249954Y-122160858D01*
X97119432Y-122347265D01*
X97119431Y-122347267D01*
X97023261Y-122553502D01*
X97023258Y-122553511D01*
X96964366Y-122773302D01*
X96964364Y-122773313D01*
X96944532Y-122999998D01*
X96500500Y-122999998D01*
X96500500Y-122934108D01*
X96466392Y-122806814D01*
X96400500Y-122692686D01*
X96307314Y-122599500D01*
X96236470Y-122558598D01*
X96193187Y-122533608D01*
X96129539Y-122516554D01*
X96065892Y-122499500D01*
X91065892Y-122499500D01*
X90934108Y-122499500D01*
X90806812Y-122533608D01*
X90692686Y-122599500D01*
X90692681Y-122599504D01*
X90683959Y-122608226D01*
X90622635Y-122641709D01*
X90552943Y-122636722D01*
X90497011Y-122594849D01*
X90479283Y-122558346D01*
X90478593Y-122558598D01*
X90476738Y-122553502D01*
X90467461Y-122533608D01*
X90380568Y-122347266D01*
X90250047Y-122160861D01*
X90250045Y-122160858D01*
X90089141Y-121999954D01*
X89902734Y-121869432D01*
X89902732Y-121869431D01*
X89696497Y-121773261D01*
X89696488Y-121773258D01*
X89476697Y-121714366D01*
X89476693Y-121714365D01*
X89476692Y-121714365D01*
X89476691Y-121714364D01*
X89476686Y-121714364D01*
X89250002Y-121694532D01*
X89249998Y-121694532D01*
X89023313Y-121714364D01*
X89023302Y-121714366D01*
X88803511Y-121773258D01*
X88803502Y-121773261D01*
X88597267Y-121869431D01*
X88597265Y-121869432D01*
X88410858Y-121999954D01*
X88249954Y-122160858D01*
X88139316Y-122318868D01*
X88119432Y-122347266D01*
X88112380Y-122362387D01*
X88066209Y-122414825D01*
X87999015Y-122433976D01*
X87932134Y-122413760D01*
X87887619Y-122362387D01*
X87880568Y-122347266D01*
X87750047Y-122160861D01*
X87750045Y-122160858D01*
X87589141Y-121999954D01*
X87402734Y-121869432D01*
X87402732Y-121869431D01*
X87196497Y-121773261D01*
X87196488Y-121773258D01*
X86976697Y-121714366D01*
X86976693Y-121714365D01*
X86976692Y-121714365D01*
X86976691Y-121714364D01*
X86976686Y-121714364D01*
X86750002Y-121694532D01*
X86749998Y-121694532D01*
X86523313Y-121714364D01*
X86523302Y-121714366D01*
X86303511Y-121773258D01*
X86303502Y-121773261D01*
X86097267Y-121869431D01*
X86097265Y-121869432D01*
X85910858Y-121999954D01*
X85749954Y-122160858D01*
X85726075Y-122194962D01*
X85671498Y-122238587D01*
X85602000Y-122245781D01*
X85539645Y-122214258D01*
X85504231Y-122154029D01*
X85500500Y-122123839D01*
X85500500Y-118182135D01*
X90007000Y-118182135D01*
X90007000Y-120277870D01*
X90007001Y-120277876D01*
X90013408Y-120337483D01*
X90063702Y-120472328D01*
X90063706Y-120472335D01*
X90149952Y-120587544D01*
X90149955Y-120587547D01*
X90265164Y-120673793D01*
X90265171Y-120673797D01*
X90400017Y-120724091D01*
X90400016Y-120724091D01*
X90406944Y-120724835D01*
X90459627Y-120730500D01*
X92460372Y-120730499D01*
X92519983Y-120724091D01*
X92654831Y-120673796D01*
X92770046Y-120587546D01*
X92856296Y-120472331D01*
X92866690Y-120444460D01*
X92908560Y-120388527D01*
X92974023Y-120364108D01*
X93042297Y-120378958D01*
X93055746Y-120387465D01*
X93238462Y-120520217D01*
X93367227Y-120585826D01*
X93442244Y-120624049D01*
X93659751Y-120694721D01*
X93659752Y-120694721D01*
X93659755Y-120694722D01*
X93885646Y-120730500D01*
X93885647Y-120730500D01*
X94114353Y-120730500D01*
X94114354Y-120730500D01*
X94340245Y-120694722D01*
X94340248Y-120694721D01*
X94340249Y-120694721D01*
X94557755Y-120624049D01*
X94557755Y-120624048D01*
X94557758Y-120624048D01*
X94761538Y-120520217D01*
X94946566Y-120385786D01*
X95108286Y-120224066D01*
X95242717Y-120039038D01*
X95346548Y-119835258D01*
X95355643Y-119807266D01*
X95417221Y-119617749D01*
X95417221Y-119617748D01*
X95417222Y-119617745D01*
X95453000Y-119391854D01*
X95453000Y-119068146D01*
X95417222Y-118842255D01*
X95417221Y-118842251D01*
X95417221Y-118842250D01*
X95346549Y-118624744D01*
X95328738Y-118589788D01*
X95242717Y-118420962D01*
X95108286Y-118235934D01*
X94946566Y-118074214D01*
X94761538Y-117939783D01*
X94713513Y-117915313D01*
X94557755Y-117835950D01*
X94340248Y-117765278D01*
X94154812Y-117735908D01*
X94114354Y-117729500D01*
X93885646Y-117729500D01*
X93845188Y-117735908D01*
X93659753Y-117765278D01*
X93659750Y-117765278D01*
X93442244Y-117835950D01*
X93238461Y-117939783D01*
X93055759Y-118072525D01*
X92989952Y-118096005D01*
X92921898Y-118080180D01*
X92873203Y-118030074D01*
X92866690Y-118015538D01*
X92856296Y-117987669D01*
X92856293Y-117987664D01*
X92770047Y-117872455D01*
X92770044Y-117872452D01*
X92654835Y-117786206D01*
X92654828Y-117786202D01*
X92519982Y-117735908D01*
X92519983Y-117735908D01*
X92460383Y-117729501D01*
X92460381Y-117729500D01*
X92460373Y-117729500D01*
X92460364Y-117729500D01*
X90459629Y-117729500D01*
X90459623Y-117729501D01*
X90400016Y-117735908D01*
X90265171Y-117786202D01*
X90265164Y-117786206D01*
X90149955Y-117872452D01*
X90149952Y-117872455D01*
X90063706Y-117987664D01*
X90063702Y-117987671D01*
X90013408Y-118122517D01*
X90007001Y-118182116D01*
X90007000Y-118182135D01*
X85500500Y-118182135D01*
X85500500Y-102438872D01*
X91999500Y-102438872D01*
X91999500Y-102701127D01*
X92022479Y-102875659D01*
X92033730Y-102961116D01*
X92101602Y-103214418D01*
X92101605Y-103214428D01*
X92201953Y-103456690D01*
X92201958Y-103456700D01*
X92333075Y-103683803D01*
X92492718Y-103891851D01*
X92492726Y-103891860D01*
X92678140Y-104077274D01*
X92678148Y-104077281D01*
X92886196Y-104236924D01*
X93113299Y-104368041D01*
X93113309Y-104368046D01*
X93344152Y-104463664D01*
X93355581Y-104468398D01*
X93608884Y-104536270D01*
X93868880Y-104570500D01*
X93868887Y-104570500D01*
X94131113Y-104570500D01*
X94131120Y-104570500D01*
X94391116Y-104536270D01*
X94644419Y-104468398D01*
X94886697Y-104368043D01*
X95113803Y-104236924D01*
X95321851Y-104077282D01*
X95321855Y-104077277D01*
X95321860Y-104077274D01*
X95507274Y-103891860D01*
X95507277Y-103891855D01*
X95507282Y-103891851D01*
X95666924Y-103683803D01*
X95798043Y-103456697D01*
X95804352Y-103441467D01*
X95846737Y-103339139D01*
X95898398Y-103214419D01*
X95966270Y-102961116D01*
X96000500Y-102701120D01*
X96000500Y-102438880D01*
X96000499Y-102438872D01*
X103999500Y-102438872D01*
X103999500Y-102701127D01*
X104022479Y-102875659D01*
X104033730Y-102961116D01*
X104101602Y-103214418D01*
X104101605Y-103214428D01*
X104201953Y-103456690D01*
X104201958Y-103456700D01*
X104333075Y-103683803D01*
X104492718Y-103891851D01*
X104492726Y-103891860D01*
X104678140Y-104077274D01*
X104678148Y-104077281D01*
X104886196Y-104236924D01*
X105113299Y-104368041D01*
X105113309Y-104368046D01*
X105344152Y-104463664D01*
X105355581Y-104468398D01*
X105608884Y-104536270D01*
X105868880Y-104570500D01*
X105868887Y-104570500D01*
X106131113Y-104570500D01*
X106131120Y-104570500D01*
X106391116Y-104536270D01*
X106644419Y-104468398D01*
X106886697Y-104368043D01*
X107113803Y-104236924D01*
X107321851Y-104077282D01*
X107321855Y-104077277D01*
X107321860Y-104077274D01*
X107507274Y-103891860D01*
X107507277Y-103891855D01*
X107507282Y-103891851D01*
X107666924Y-103683803D01*
X107798043Y-103456697D01*
X107804352Y-103441467D01*
X107846737Y-103339139D01*
X107898398Y-103214419D01*
X107966270Y-102961116D01*
X108000500Y-102701120D01*
X108000500Y-102438880D01*
X107966270Y-102178884D01*
X107898398Y-101925581D01*
X107865959Y-101847266D01*
X107798046Y-101683309D01*
X107798041Y-101683299D01*
X107666924Y-101456196D01*
X107507281Y-101248148D01*
X107507274Y-101248140D01*
X107321860Y-101062726D01*
X107321851Y-101062718D01*
X107113803Y-100903075D01*
X106886700Y-100771958D01*
X106886690Y-100771953D01*
X106644428Y-100671605D01*
X106644421Y-100671603D01*
X106644419Y-100671602D01*
X106391116Y-100603730D01*
X106316209Y-100593868D01*
X106131127Y-100569500D01*
X106131120Y-100569500D01*
X105868880Y-100569500D01*
X105868872Y-100569500D01*
X105637772Y-100599926D01*
X105608884Y-100603730D01*
X105355581Y-100671602D01*
X105355571Y-100671605D01*
X105113309Y-100771953D01*
X105113299Y-100771958D01*
X104886196Y-100903075D01*
X104678148Y-101062718D01*
X104492718Y-101248148D01*
X104333075Y-101456196D01*
X104201958Y-101683299D01*
X104201953Y-101683309D01*
X104101605Y-101925571D01*
X104101602Y-101925581D01*
X104067324Y-102053511D01*
X104033730Y-102178885D01*
X103999500Y-102438872D01*
X96000499Y-102438872D01*
X95966270Y-102178884D01*
X95898398Y-101925581D01*
X95865959Y-101847266D01*
X95798046Y-101683309D01*
X95798041Y-101683299D01*
X95666924Y-101456196D01*
X95507281Y-101248148D01*
X95507274Y-101248140D01*
X95321860Y-101062726D01*
X95321851Y-101062718D01*
X95113803Y-100903075D01*
X94886700Y-100771958D01*
X94886690Y-100771953D01*
X94644428Y-100671605D01*
X94644421Y-100671603D01*
X94644419Y-100671602D01*
X94391116Y-100603730D01*
X94316209Y-100593868D01*
X94131127Y-100569500D01*
X94131120Y-100569500D01*
X93868880Y-100569500D01*
X93868872Y-100569500D01*
X93637772Y-100599926D01*
X93608884Y-100603730D01*
X93355581Y-100671602D01*
X93355571Y-100671605D01*
X93113309Y-100771953D01*
X93113299Y-100771958D01*
X92886196Y-100903075D01*
X92678148Y-101062718D01*
X92492718Y-101248148D01*
X92333075Y-101456196D01*
X92201958Y-101683299D01*
X92201953Y-101683309D01*
X92101605Y-101925571D01*
X92101602Y-101925581D01*
X92067324Y-102053511D01*
X92033730Y-102178885D01*
X91999500Y-102438872D01*
X85500500Y-102438872D01*
X85500500Y-95999999D01*
X89494696Y-95999999D01*
X89494696Y-96000000D01*
X89499330Y-96088423D01*
X89499500Y-96094913D01*
X89499500Y-98065892D01*
X89510197Y-98105813D01*
X89533608Y-98193187D01*
X89541899Y-98207547D01*
X89599500Y-98307314D01*
X89692686Y-98400500D01*
X89806814Y-98466392D01*
X89934108Y-98500500D01*
X90065892Y-98500500D01*
X90498683Y-98500500D01*
X90565722Y-98520185D01*
X90586364Y-98536819D01*
X90654494Y-98604949D01*
X90654498Y-98604952D01*
X90939635Y-98835852D01*
X91247343Y-99035679D01*
X91247348Y-99035682D01*
X91574264Y-99202255D01*
X91916801Y-99333742D01*
X92271206Y-99428705D01*
X92633596Y-99486102D01*
X92979734Y-99504241D01*
X92999999Y-99505304D01*
X93000000Y-99505304D01*
X93000001Y-99505304D01*
X93019203Y-99504297D01*
X93366404Y-99486102D01*
X93728794Y-99428705D01*
X94083199Y-99333742D01*
X94425736Y-99202255D01*
X94752652Y-99035682D01*
X95060366Y-98835851D01*
X95345506Y-98604949D01*
X95604949Y-98345506D01*
X95835851Y-98060366D01*
X96035682Y-97752652D01*
X96202255Y-97425736D01*
X96333742Y-97083199D01*
X96428705Y-96728794D01*
X96486102Y-96366404D01*
X96499951Y-96102135D01*
X105649500Y-96102135D01*
X105649500Y-97897870D01*
X105649501Y-97897876D01*
X105655908Y-97957483D01*
X105706202Y-98092328D01*
X105706206Y-98092335D01*
X105792452Y-98207544D01*
X105792455Y-98207547D01*
X105907664Y-98293793D01*
X105907671Y-98293797D01*
X106042517Y-98344091D01*
X106042516Y-98344091D01*
X106049444Y-98344835D01*
X106102127Y-98350500D01*
X107897872Y-98350499D01*
X107957483Y-98344091D01*
X108092331Y-98293796D01*
X108207546Y-98207546D01*
X108293796Y-98092331D01*
X108344091Y-97957483D01*
X108350500Y-97897873D01*
X108350499Y-96102128D01*
X108344091Y-96042517D01*
X108342809Y-96039081D01*
X108293797Y-95907671D01*
X108293793Y-95907664D01*
X108207547Y-95792455D01*
X108207544Y-95792452D01*
X108092335Y-95706206D01*
X108092328Y-95706202D01*
X107957482Y-95655908D01*
X107957483Y-95655908D01*
X107897883Y-95649501D01*
X107897881Y-95649500D01*
X107897873Y-95649500D01*
X107897864Y-95649500D01*
X106102129Y-95649500D01*
X106102123Y-95649501D01*
X106042516Y-95655908D01*
X105907671Y-95706202D01*
X105907664Y-95706206D01*
X105792455Y-95792452D01*
X105792452Y-95792455D01*
X105706206Y-95907664D01*
X105706202Y-95907671D01*
X105655908Y-96042517D01*
X105649501Y-96102116D01*
X105649501Y-96102123D01*
X105649500Y-96102135D01*
X96499951Y-96102135D01*
X96505304Y-96000000D01*
X96486102Y-95633596D01*
X96428705Y-95271206D01*
X96333742Y-94916801D01*
X96202255Y-94574264D01*
X96035682Y-94247348D01*
X95981429Y-94163805D01*
X95835852Y-93939635D01*
X95604952Y-93654498D01*
X95604949Y-93654494D01*
X95345506Y-93395051D01*
X95206973Y-93282869D01*
X95060364Y-93164147D01*
X94752656Y-92964320D01*
X94425739Y-92797746D01*
X94083206Y-92666260D01*
X94083199Y-92666258D01*
X93728794Y-92571295D01*
X93728790Y-92571294D01*
X93728789Y-92571294D01*
X93366405Y-92513898D01*
X93000001Y-92494696D01*
X92999999Y-92494696D01*
X92633594Y-92513898D01*
X92271211Y-92571294D01*
X92271209Y-92571294D01*
X91916793Y-92666260D01*
X91574260Y-92797746D01*
X91247343Y-92964320D01*
X90939635Y-93164147D01*
X90654498Y-93395047D01*
X90654490Y-93395054D01*
X90586364Y-93463181D01*
X90525041Y-93496666D01*
X90498683Y-93499500D01*
X89934108Y-93499500D01*
X89806812Y-93533608D01*
X89692686Y-93599500D01*
X89692683Y-93599502D01*
X89599502Y-93692683D01*
X89599500Y-93692686D01*
X89533608Y-93806812D01*
X89499500Y-93934108D01*
X89499500Y-95905085D01*
X89499330Y-95911575D01*
X89494696Y-95999999D01*
X85500500Y-95999999D01*
X85500500Y-92124000D01*
X85520185Y-92056961D01*
X85572989Y-92011206D01*
X85624500Y-92000000D01*
X139294849Y-92000000D01*
X139361888Y-92019685D01*
G37*
%TD.AperFunction*%
%TD*%
%TA.AperFunction,Conductor*%
%TO.N,Net-(J4-Pin_2)*%
G36*
X86920962Y-69520185D02*
G01*
X86966717Y-69572989D01*
X86976661Y-69642147D01*
X86951188Y-69701413D01*
X86947287Y-69706345D01*
X86855187Y-69855663D01*
X86855186Y-69855666D01*
X86800001Y-70022203D01*
X86800001Y-70022204D01*
X86800000Y-70022204D01*
X86789500Y-70124983D01*
X86789500Y-70925001D01*
X86789501Y-70925019D01*
X86800000Y-71027796D01*
X86800001Y-71027799D01*
X86818472Y-71083539D01*
X86855186Y-71194334D01*
X86947288Y-71343656D01*
X87071344Y-71467712D01*
X87220666Y-71559814D01*
X87387203Y-71614999D01*
X87489991Y-71625500D01*
X88490008Y-71625499D01*
X88490016Y-71625498D01*
X88490019Y-71625498D01*
X88546302Y-71619748D01*
X88592797Y-71614999D01*
X88759334Y-71559814D01*
X88908656Y-71467712D01*
X89032712Y-71343656D01*
X89038420Y-71334402D01*
X89090368Y-71287678D01*
X89143958Y-71275500D01*
X92283022Y-71275500D01*
X92350061Y-71295185D01*
X92361687Y-71303647D01*
X92431460Y-71360909D01*
X92431467Y-71360913D01*
X92605266Y-71453811D01*
X92605269Y-71453811D01*
X92605273Y-71453814D01*
X92793868Y-71511024D01*
X92990000Y-71530341D01*
X93186132Y-71511024D01*
X93374727Y-71453814D01*
X93548538Y-71360910D01*
X93700883Y-71235883D01*
X93825910Y-71083538D01*
X93918814Y-70909727D01*
X93976024Y-70721132D01*
X93995341Y-70525000D01*
X93976024Y-70328868D01*
X93918814Y-70140273D01*
X93918811Y-70140269D01*
X93918811Y-70140266D01*
X93825913Y-69966467D01*
X93825909Y-69966460D01*
X93700883Y-69814116D01*
X93586632Y-69720353D01*
X93547298Y-69662608D01*
X93545427Y-69592763D01*
X93581615Y-69532995D01*
X93644370Y-69502279D01*
X93665297Y-69500500D01*
X164375500Y-69500500D01*
X164442539Y-69520185D01*
X164488294Y-69572989D01*
X164499500Y-69624500D01*
X164499500Y-89901000D01*
X164479815Y-89968039D01*
X164427011Y-90013794D01*
X164375500Y-90025000D01*
X85624500Y-90025000D01*
X85557461Y-90005315D01*
X85511706Y-89952511D01*
X85500500Y-89901000D01*
X85500500Y-85999999D01*
X89494696Y-85999999D01*
X89494696Y-86000000D01*
X89499330Y-86088423D01*
X89499500Y-86094913D01*
X89499500Y-88065892D01*
X89510197Y-88105813D01*
X89533608Y-88193187D01*
X89557982Y-88235403D01*
X89599500Y-88307314D01*
X89692686Y-88400500D01*
X89806814Y-88466392D01*
X89934108Y-88500500D01*
X90065892Y-88500500D01*
X90498683Y-88500500D01*
X90565722Y-88520185D01*
X90586364Y-88536819D01*
X90654494Y-88604949D01*
X90813311Y-88733557D01*
X90939635Y-88835852D01*
X91247343Y-89035679D01*
X91247348Y-89035682D01*
X91574264Y-89202255D01*
X91916801Y-89333742D01*
X92271206Y-89428705D01*
X92633596Y-89486102D01*
X92979734Y-89504241D01*
X92999999Y-89505304D01*
X93000000Y-89505304D01*
X93000001Y-89505304D01*
X93019203Y-89504297D01*
X93366404Y-89486102D01*
X93728794Y-89428705D01*
X94083199Y-89333742D01*
X94425736Y-89202255D01*
X94752652Y-89035682D01*
X95060366Y-88835851D01*
X95345506Y-88604949D01*
X95604949Y-88345506D01*
X95835851Y-88060366D01*
X96035682Y-87752652D01*
X96202255Y-87425736D01*
X96326473Y-87102135D01*
X105649500Y-87102135D01*
X105649500Y-88897870D01*
X105649501Y-88897876D01*
X105655908Y-88957483D01*
X105706202Y-89092328D01*
X105706206Y-89092335D01*
X105792452Y-89207544D01*
X105792455Y-89207547D01*
X105907664Y-89293793D01*
X105907671Y-89293797D01*
X106042517Y-89344091D01*
X106042516Y-89344091D01*
X106049444Y-89344835D01*
X106102127Y-89350500D01*
X107897872Y-89350499D01*
X107957483Y-89344091D01*
X108092331Y-89293796D01*
X108207546Y-89207546D01*
X108293796Y-89092331D01*
X108344091Y-88957483D01*
X108350500Y-88897873D01*
X108350499Y-87102135D01*
X113489500Y-87102135D01*
X113489500Y-88897870D01*
X113489501Y-88897876D01*
X113495908Y-88957483D01*
X113546202Y-89092328D01*
X113546206Y-89092335D01*
X113632452Y-89207544D01*
X113632455Y-89207547D01*
X113747664Y-89293793D01*
X113747671Y-89293797D01*
X113882517Y-89344091D01*
X113882516Y-89344091D01*
X113889444Y-89344835D01*
X113942127Y-89350500D01*
X115737872Y-89350499D01*
X115797483Y-89344091D01*
X115932331Y-89293796D01*
X116047546Y-89207546D01*
X116133796Y-89092331D01*
X116182810Y-88960916D01*
X116224681Y-88904984D01*
X116290145Y-88880566D01*
X116358418Y-88895417D01*
X116386673Y-88916569D01*
X116508599Y-89038495D01*
X116605384Y-89106265D01*
X116702165Y-89174032D01*
X116702167Y-89174033D01*
X116702170Y-89174035D01*
X116916337Y-89273903D01*
X117144592Y-89335063D01*
X117321034Y-89350500D01*
X117379999Y-89355659D01*
X117380000Y-89355659D01*
X117380001Y-89355659D01*
X117438966Y-89350500D01*
X117615408Y-89335063D01*
X117843663Y-89273903D01*
X118057830Y-89174035D01*
X118251401Y-89038495D01*
X118418495Y-88871401D01*
X118548425Y-88685842D01*
X118603002Y-88642217D01*
X118672500Y-88635023D01*
X118734855Y-88666546D01*
X118751575Y-88685842D01*
X118881500Y-88871395D01*
X118881505Y-88871401D01*
X119048599Y-89038495D01*
X119145384Y-89106265D01*
X119242165Y-89174032D01*
X119242167Y-89174033D01*
X119242170Y-89174035D01*
X119456337Y-89273903D01*
X119684592Y-89335063D01*
X119861034Y-89350500D01*
X119919999Y-89355659D01*
X119920000Y-89355659D01*
X119920001Y-89355659D01*
X119978966Y-89350500D01*
X120155408Y-89335063D01*
X120383663Y-89273903D01*
X120597830Y-89174035D01*
X120791401Y-89038495D01*
X120958495Y-88871401D01*
X121088425Y-88685842D01*
X121143002Y-88642217D01*
X121212500Y-88635023D01*
X121274855Y-88666546D01*
X121291575Y-88685842D01*
X121421500Y-88871395D01*
X121421505Y-88871401D01*
X121588599Y-89038495D01*
X121685384Y-89106265D01*
X121782165Y-89174032D01*
X121782167Y-89174033D01*
X121782170Y-89174035D01*
X121996337Y-89273903D01*
X122224592Y-89335063D01*
X122401034Y-89350500D01*
X122459999Y-89355659D01*
X122460000Y-89355659D01*
X122460001Y-89355659D01*
X122518966Y-89350500D01*
X122695408Y-89335063D01*
X122923663Y-89273903D01*
X123137830Y-89174035D01*
X123331401Y-89038495D01*
X123498495Y-88871401D01*
X123628425Y-88685842D01*
X123683002Y-88642217D01*
X123752500Y-88635023D01*
X123814855Y-88666546D01*
X123831575Y-88685842D01*
X123961500Y-88871395D01*
X123961505Y-88871401D01*
X124128599Y-89038495D01*
X124225384Y-89106265D01*
X124322165Y-89174032D01*
X124322167Y-89174033D01*
X124322170Y-89174035D01*
X124536337Y-89273903D01*
X124764592Y-89335063D01*
X124941034Y-89350500D01*
X124999999Y-89355659D01*
X125000000Y-89355659D01*
X125000001Y-89355659D01*
X125058966Y-89350500D01*
X125235408Y-89335063D01*
X125463663Y-89273903D01*
X125677830Y-89174035D01*
X125871401Y-89038495D01*
X126038495Y-88871401D01*
X126168425Y-88685842D01*
X126223002Y-88642217D01*
X126292500Y-88635023D01*
X126354855Y-88666546D01*
X126371575Y-88685842D01*
X126501500Y-88871395D01*
X126501505Y-88871401D01*
X126668599Y-89038495D01*
X126765384Y-89106265D01*
X126862165Y-89174032D01*
X126862167Y-89174033D01*
X126862170Y-89174035D01*
X127076337Y-89273903D01*
X127304592Y-89335063D01*
X127481034Y-89350500D01*
X127539999Y-89355659D01*
X127540000Y-89355659D01*
X127540001Y-89355659D01*
X127598966Y-89350500D01*
X127775408Y-89335063D01*
X128003663Y-89273903D01*
X128217830Y-89174035D01*
X128411401Y-89038495D01*
X128578495Y-88871401D01*
X128708425Y-88685842D01*
X128763002Y-88642217D01*
X128832500Y-88635023D01*
X128894855Y-88666546D01*
X128911575Y-88685842D01*
X129041500Y-88871395D01*
X129041505Y-88871401D01*
X129208599Y-89038495D01*
X129305384Y-89106265D01*
X129402165Y-89174032D01*
X129402167Y-89174033D01*
X129402170Y-89174035D01*
X129616337Y-89273903D01*
X129844592Y-89335063D01*
X130021034Y-89350500D01*
X130079999Y-89355659D01*
X130080000Y-89355659D01*
X130080001Y-89355659D01*
X130138966Y-89350500D01*
X130315408Y-89335063D01*
X130543663Y-89273903D01*
X130757830Y-89174035D01*
X130951401Y-89038495D01*
X131118495Y-88871401D01*
X131248425Y-88685842D01*
X131303002Y-88642217D01*
X131372500Y-88635023D01*
X131434855Y-88666546D01*
X131451575Y-88685842D01*
X131581500Y-88871395D01*
X131581505Y-88871401D01*
X131748599Y-89038495D01*
X131845384Y-89106265D01*
X131942165Y-89174032D01*
X131942167Y-89174033D01*
X131942170Y-89174035D01*
X132156337Y-89273903D01*
X132384592Y-89335063D01*
X132561034Y-89350500D01*
X132619999Y-89355659D01*
X132620000Y-89355659D01*
X132620001Y-89355659D01*
X132678966Y-89350500D01*
X132855408Y-89335063D01*
X133083663Y-89273903D01*
X133297830Y-89174035D01*
X133491401Y-89038495D01*
X133658495Y-88871401D01*
X133788425Y-88685842D01*
X133843002Y-88642217D01*
X133912500Y-88635023D01*
X133974855Y-88666546D01*
X133991575Y-88685842D01*
X134121500Y-88871395D01*
X134121505Y-88871401D01*
X134288599Y-89038495D01*
X134385384Y-89106265D01*
X134482165Y-89174032D01*
X134482167Y-89174033D01*
X134482170Y-89174035D01*
X134696337Y-89273903D01*
X134924592Y-89335063D01*
X135101034Y-89350500D01*
X135159999Y-89355659D01*
X135160000Y-89355659D01*
X135160001Y-89355659D01*
X135218966Y-89350500D01*
X135395408Y-89335063D01*
X135623663Y-89273903D01*
X135837830Y-89174035D01*
X136031401Y-89038495D01*
X136198495Y-88871401D01*
X136334035Y-88677830D01*
X136433903Y-88463663D01*
X136495063Y-88235408D01*
X136515659Y-88000000D01*
X136495063Y-87764592D01*
X136433903Y-87536337D01*
X136334035Y-87322171D01*
X136328425Y-87314158D01*
X136198494Y-87128597D01*
X136031402Y-86961506D01*
X136031395Y-86961501D01*
X135837834Y-86825967D01*
X135837830Y-86825965D01*
X135837828Y-86825964D01*
X135623663Y-86726097D01*
X135623659Y-86726096D01*
X135623655Y-86726094D01*
X135395413Y-86664938D01*
X135395403Y-86664936D01*
X135160001Y-86644341D01*
X135159999Y-86644341D01*
X134924596Y-86664936D01*
X134924586Y-86664938D01*
X134696344Y-86726094D01*
X134696335Y-86726098D01*
X134482171Y-86825964D01*
X134482169Y-86825965D01*
X134288597Y-86961505D01*
X134121505Y-87128597D01*
X133991575Y-87314158D01*
X133936998Y-87357783D01*
X133867500Y-87364977D01*
X133805145Y-87333454D01*
X133788425Y-87314158D01*
X133658494Y-87128597D01*
X133491402Y-86961506D01*
X133491395Y-86961501D01*
X133297834Y-86825967D01*
X133297830Y-86825965D01*
X133297828Y-86825964D01*
X133083663Y-86726097D01*
X133083659Y-86726096D01*
X133083655Y-86726094D01*
X132855413Y-86664938D01*
X132855403Y-86664936D01*
X132620001Y-86644341D01*
X132619999Y-86644341D01*
X132384596Y-86664936D01*
X132384586Y-86664938D01*
X132156344Y-86726094D01*
X132156335Y-86726098D01*
X131942171Y-86825964D01*
X131942169Y-86825965D01*
X131748597Y-86961505D01*
X131581505Y-87128597D01*
X131451575Y-87314158D01*
X131396998Y-87357783D01*
X131327500Y-87364977D01*
X131265145Y-87333454D01*
X131248425Y-87314158D01*
X131118494Y-87128597D01*
X130951402Y-86961506D01*
X130951395Y-86961501D01*
X130757834Y-86825967D01*
X130757830Y-86825965D01*
X130757828Y-86825964D01*
X130543663Y-86726097D01*
X130543659Y-86726096D01*
X130543655Y-86726094D01*
X130315413Y-86664938D01*
X130315403Y-86664936D01*
X130080001Y-86644341D01*
X130079999Y-86644341D01*
X129844596Y-86664936D01*
X129844586Y-86664938D01*
X129616344Y-86726094D01*
X129616335Y-86726098D01*
X129402171Y-86825964D01*
X129402169Y-86825965D01*
X129208597Y-86961505D01*
X129041505Y-87128597D01*
X128911575Y-87314158D01*
X128856998Y-87357783D01*
X128787500Y-87364977D01*
X128725145Y-87333454D01*
X128708425Y-87314158D01*
X128578494Y-87128597D01*
X128411402Y-86961506D01*
X128411395Y-86961501D01*
X128217834Y-86825967D01*
X128217830Y-86825965D01*
X128217828Y-86825964D01*
X128003663Y-86726097D01*
X128003659Y-86726096D01*
X128003655Y-86726094D01*
X127775413Y-86664938D01*
X127775403Y-86664936D01*
X127540001Y-86644341D01*
X127539999Y-86644341D01*
X127304596Y-86664936D01*
X127304586Y-86664938D01*
X127076344Y-86726094D01*
X127076335Y-86726098D01*
X126862171Y-86825964D01*
X126862169Y-86825965D01*
X126668597Y-86961505D01*
X126501505Y-87128597D01*
X126371575Y-87314158D01*
X126316998Y-87357783D01*
X126247500Y-87364977D01*
X126185145Y-87333454D01*
X126168425Y-87314158D01*
X126038494Y-87128597D01*
X125871402Y-86961506D01*
X125871395Y-86961501D01*
X125677834Y-86825967D01*
X125677830Y-86825965D01*
X125677828Y-86825964D01*
X125463663Y-86726097D01*
X125463659Y-86726096D01*
X125463655Y-86726094D01*
X125235413Y-86664938D01*
X125235403Y-86664936D01*
X125000001Y-86644341D01*
X124999999Y-86644341D01*
X124764596Y-86664936D01*
X124764586Y-86664938D01*
X124536344Y-86726094D01*
X124536335Y-86726098D01*
X124322171Y-86825964D01*
X124322169Y-86825965D01*
X124128597Y-86961505D01*
X123961505Y-87128597D01*
X123831575Y-87314158D01*
X123776998Y-87357783D01*
X123707500Y-87364977D01*
X123645145Y-87333454D01*
X123628425Y-87314158D01*
X123498494Y-87128597D01*
X123331402Y-86961506D01*
X123331395Y-86961501D01*
X123137834Y-86825967D01*
X123137830Y-86825965D01*
X123137828Y-86825964D01*
X122923663Y-86726097D01*
X122923659Y-86726096D01*
X122923655Y-86726094D01*
X122695413Y-86664938D01*
X122695403Y-86664936D01*
X122460001Y-86644341D01*
X122459999Y-86644341D01*
X122224596Y-86664936D01*
X122224586Y-86664938D01*
X121996344Y-86726094D01*
X121996335Y-86726098D01*
X121782171Y-86825964D01*
X121782169Y-86825965D01*
X121588597Y-86961505D01*
X121421505Y-87128597D01*
X121291575Y-87314158D01*
X121236998Y-87357783D01*
X121167500Y-87364977D01*
X121105145Y-87333454D01*
X121088425Y-87314158D01*
X120958494Y-87128597D01*
X120791402Y-86961506D01*
X120791395Y-86961501D01*
X120597834Y-86825967D01*
X120597830Y-86825965D01*
X120597828Y-86825964D01*
X120383663Y-86726097D01*
X120383659Y-86726096D01*
X120383655Y-86726094D01*
X120155413Y-86664938D01*
X120155403Y-86664936D01*
X119920001Y-86644341D01*
X119919999Y-86644341D01*
X119684596Y-86664936D01*
X119684586Y-86664938D01*
X119456344Y-86726094D01*
X119456335Y-86726098D01*
X119242171Y-86825964D01*
X119242169Y-86825965D01*
X119048597Y-86961505D01*
X118881505Y-87128597D01*
X118751575Y-87314158D01*
X118696998Y-87357783D01*
X118627500Y-87364977D01*
X118565145Y-87333454D01*
X118548425Y-87314158D01*
X118418494Y-87128597D01*
X118251402Y-86961506D01*
X118251395Y-86961501D01*
X118057834Y-86825967D01*
X118057830Y-86825965D01*
X118057828Y-86825964D01*
X117843663Y-86726097D01*
X117843659Y-86726096D01*
X117843655Y-86726094D01*
X117615413Y-86664938D01*
X117615403Y-86664936D01*
X117380001Y-86644341D01*
X117379999Y-86644341D01*
X117144596Y-86664936D01*
X117144586Y-86664938D01*
X116916344Y-86726094D01*
X116916335Y-86726098D01*
X116702171Y-86825964D01*
X116702169Y-86825965D01*
X116508600Y-86961503D01*
X116386673Y-87083430D01*
X116325350Y-87116914D01*
X116255658Y-87111930D01*
X116199725Y-87070058D01*
X116182810Y-87039081D01*
X116133797Y-86907671D01*
X116133793Y-86907664D01*
X116047547Y-86792455D01*
X116047544Y-86792452D01*
X115932335Y-86706206D01*
X115932328Y-86706202D01*
X115797482Y-86655908D01*
X115797483Y-86655908D01*
X115737883Y-86649501D01*
X115737881Y-86649500D01*
X115737873Y-86649500D01*
X115737864Y-86649500D01*
X113942129Y-86649500D01*
X113942123Y-86649501D01*
X113882516Y-86655908D01*
X113747671Y-86706202D01*
X113747664Y-86706206D01*
X113632455Y-86792452D01*
X113632452Y-86792455D01*
X113546206Y-86907664D01*
X113546202Y-86907671D01*
X113495908Y-87042517D01*
X113491535Y-87083199D01*
X113489501Y-87102123D01*
X113489500Y-87102135D01*
X108350499Y-87102135D01*
X108350499Y-87102128D01*
X108344091Y-87042517D01*
X108342809Y-87039081D01*
X108293797Y-86907671D01*
X108293793Y-86907664D01*
X108207547Y-86792455D01*
X108207544Y-86792452D01*
X108092335Y-86706206D01*
X108092328Y-86706202D01*
X107957482Y-86655908D01*
X107957483Y-86655908D01*
X107897883Y-86649501D01*
X107897881Y-86649500D01*
X107897873Y-86649500D01*
X107897864Y-86649500D01*
X106102129Y-86649500D01*
X106102123Y-86649501D01*
X106042516Y-86655908D01*
X105907671Y-86706202D01*
X105907664Y-86706206D01*
X105792455Y-86792452D01*
X105792452Y-86792455D01*
X105706206Y-86907664D01*
X105706202Y-86907671D01*
X105655908Y-87042517D01*
X105651535Y-87083199D01*
X105649501Y-87102123D01*
X105649500Y-87102135D01*
X96326473Y-87102135D01*
X96333742Y-87083199D01*
X96428705Y-86728794D01*
X96486102Y-86366404D01*
X96505304Y-86000000D01*
X153494696Y-86000000D01*
X153513898Y-86366404D01*
X153571295Y-86728794D01*
X153633649Y-86961503D01*
X153666260Y-87083206D01*
X153797746Y-87425739D01*
X153964320Y-87752656D01*
X154164147Y-88060364D01*
X154271705Y-88193187D01*
X154395051Y-88345506D01*
X154654494Y-88604949D01*
X154813311Y-88733557D01*
X154939635Y-88835852D01*
X155247343Y-89035679D01*
X155247348Y-89035682D01*
X155574264Y-89202255D01*
X155916801Y-89333742D01*
X156271206Y-89428705D01*
X156633596Y-89486102D01*
X156979734Y-89504241D01*
X156999999Y-89505304D01*
X157000000Y-89505304D01*
X157000001Y-89505304D01*
X157019203Y-89504297D01*
X157366404Y-89486102D01*
X157728794Y-89428705D01*
X158083199Y-89333742D01*
X158425736Y-89202255D01*
X158752652Y-89035682D01*
X159060366Y-88835851D01*
X159345506Y-88604949D01*
X159413636Y-88536819D01*
X159474959Y-88503334D01*
X159501317Y-88500500D01*
X160065890Y-88500500D01*
X160065892Y-88500500D01*
X160193186Y-88466392D01*
X160307314Y-88400500D01*
X160400500Y-88307314D01*
X160466392Y-88193186D01*
X160500500Y-88065892D01*
X160500500Y-86094913D01*
X160500670Y-86088423D01*
X160505304Y-86000000D01*
X160505304Y-85999999D01*
X160500670Y-85911575D01*
X160500500Y-85905085D01*
X160500500Y-83934110D01*
X160500500Y-83934108D01*
X160466392Y-83806814D01*
X160400500Y-83692686D01*
X160307314Y-83599500D01*
X160250250Y-83566554D01*
X160193187Y-83533608D01*
X160129539Y-83516554D01*
X160065892Y-83499500D01*
X160065891Y-83499500D01*
X159501317Y-83499500D01*
X159434278Y-83479815D01*
X159413636Y-83463181D01*
X159345509Y-83395054D01*
X159345501Y-83395047D01*
X159060364Y-83164147D01*
X158752656Y-82964320D01*
X158425739Y-82797746D01*
X158083206Y-82666260D01*
X157929215Y-82624998D01*
X157728794Y-82571295D01*
X157728790Y-82571294D01*
X157728789Y-82571294D01*
X157366405Y-82513898D01*
X157000001Y-82494696D01*
X156999999Y-82494696D01*
X156633594Y-82513898D01*
X156271211Y-82571294D01*
X156271209Y-82571294D01*
X155916793Y-82666260D01*
X155574260Y-82797746D01*
X155247343Y-82964320D01*
X154939635Y-83164147D01*
X154654498Y-83395047D01*
X154654490Y-83395054D01*
X154395054Y-83654490D01*
X154395047Y-83654498D01*
X154164147Y-83939635D01*
X153964320Y-84247343D01*
X153797746Y-84574260D01*
X153666260Y-84916793D01*
X153571294Y-85271209D01*
X153571294Y-85271211D01*
X153513898Y-85633596D01*
X153494696Y-86000000D01*
X96505304Y-86000000D01*
X96486102Y-85633596D01*
X96428705Y-85271206D01*
X96333742Y-84916801D01*
X96202255Y-84574264D01*
X96035682Y-84247348D01*
X96035679Y-84247343D01*
X95835852Y-83939635D01*
X95604952Y-83654498D01*
X95604949Y-83654494D01*
X95345506Y-83395051D01*
X95060366Y-83164149D01*
X95060364Y-83164147D01*
X94752656Y-82964320D01*
X94425739Y-82797746D01*
X94083206Y-82666260D01*
X93929215Y-82624998D01*
X93728794Y-82571295D01*
X93728790Y-82571294D01*
X93728789Y-82571294D01*
X93366405Y-82513898D01*
X93000001Y-82494696D01*
X92999999Y-82494696D01*
X92633594Y-82513898D01*
X92271211Y-82571294D01*
X92271209Y-82571294D01*
X91916793Y-82666260D01*
X91574260Y-82797746D01*
X91247343Y-82964320D01*
X90939635Y-83164147D01*
X90654498Y-83395047D01*
X90654490Y-83395054D01*
X90586364Y-83463181D01*
X90525041Y-83496666D01*
X90498683Y-83499500D01*
X89934108Y-83499500D01*
X89806812Y-83533608D01*
X89692686Y-83599500D01*
X89692683Y-83599502D01*
X89599502Y-83692683D01*
X89599500Y-83692686D01*
X89533608Y-83806812D01*
X89499500Y-83934108D01*
X89499500Y-85905085D01*
X89499330Y-85911575D01*
X89494696Y-85999999D01*
X85500500Y-85999999D01*
X85500500Y-78624983D01*
X86789500Y-78624983D01*
X86789500Y-79425001D01*
X86789501Y-79425019D01*
X86800000Y-79527796D01*
X86800001Y-79527799D01*
X86855185Y-79694331D01*
X86855187Y-79694336D01*
X86947289Y-79843657D01*
X87040951Y-79937319D01*
X87074436Y-79998642D01*
X87069452Y-80068334D01*
X87040951Y-80112681D01*
X86947289Y-80206342D01*
X86855187Y-80355663D01*
X86855186Y-80355666D01*
X86800001Y-80522203D01*
X86800001Y-80522204D01*
X86800000Y-80522204D01*
X86789500Y-80624983D01*
X86789500Y-81425001D01*
X86789501Y-81425019D01*
X86800000Y-81527796D01*
X86800001Y-81527799D01*
X86855185Y-81694331D01*
X86855187Y-81694336D01*
X86947289Y-81843657D01*
X87040951Y-81937319D01*
X87074436Y-81998642D01*
X87069452Y-82068334D01*
X87040951Y-82112681D01*
X86947289Y-82206342D01*
X86855187Y-82355663D01*
X86855186Y-82355666D01*
X86800001Y-82522203D01*
X86800001Y-82522204D01*
X86800000Y-82522204D01*
X86789500Y-82624983D01*
X86789500Y-83425001D01*
X86789501Y-83425019D01*
X86800000Y-83527796D01*
X86800001Y-83527799D01*
X86854639Y-83692683D01*
X86855186Y-83694334D01*
X86947288Y-83843656D01*
X87071344Y-83967712D01*
X87220666Y-84059814D01*
X87387203Y-84114999D01*
X87489991Y-84125500D01*
X88490008Y-84125499D01*
X88490016Y-84125498D01*
X88490019Y-84125498D01*
X88546302Y-84119748D01*
X88592797Y-84114999D01*
X88759334Y-84059814D01*
X88908656Y-83967712D01*
X89032712Y-83843656D01*
X89124814Y-83694334D01*
X89179999Y-83527797D01*
X89190500Y-83425009D01*
X89190499Y-82624992D01*
X89179999Y-82522203D01*
X89124814Y-82355666D01*
X89032712Y-82206344D01*
X88939049Y-82112681D01*
X88905564Y-82051358D01*
X88910548Y-81981666D01*
X88939049Y-81937319D01*
X89032712Y-81843656D01*
X89124814Y-81694334D01*
X89179999Y-81527797D01*
X89190500Y-81425009D01*
X89190499Y-80624992D01*
X89179999Y-80522203D01*
X89124814Y-80355666D01*
X89032712Y-80206344D01*
X88939049Y-80112681D01*
X88905564Y-80051358D01*
X88910548Y-79981666D01*
X88939049Y-79937319D01*
X89032712Y-79843656D01*
X89124814Y-79694334D01*
X89179999Y-79527797D01*
X89190500Y-79425009D01*
X89190499Y-78624992D01*
X89179999Y-78522203D01*
X89124814Y-78355666D01*
X89032712Y-78206344D01*
X88908656Y-78082288D01*
X88799402Y-78014900D01*
X88752679Y-77962953D01*
X88740500Y-77909362D01*
X88740500Y-77887228D01*
X88760185Y-77820189D01*
X88776814Y-77799552D01*
X90065978Y-76510387D01*
X90127299Y-76476904D01*
X90189653Y-76479410D01*
X90293865Y-76511023D01*
X90293867Y-76511024D01*
X90313184Y-76512926D01*
X90490000Y-76530341D01*
X90686132Y-76511024D01*
X90874727Y-76453814D01*
X91048538Y-76360910D01*
X91200883Y-76235883D01*
X91325910Y-76083538D01*
X91418814Y-75909727D01*
X91476024Y-75721132D01*
X91495341Y-75525000D01*
X91476024Y-75328868D01*
X91418814Y-75140273D01*
X91418811Y-75140269D01*
X91418811Y-75140266D01*
X91325913Y-74966467D01*
X91325909Y-74966460D01*
X91200883Y-74814116D01*
X91048539Y-74689090D01*
X91048532Y-74689086D01*
X90874733Y-74596188D01*
X90874727Y-74596186D01*
X90686132Y-74538976D01*
X90686129Y-74538975D01*
X90490000Y-74519659D01*
X90293870Y-74538975D01*
X90105266Y-74596188D01*
X89931467Y-74689086D01*
X89931461Y-74689090D01*
X89823022Y-74778083D01*
X89776465Y-74800109D01*
X89776910Y-74801576D01*
X89771083Y-74803343D01*
X89634504Y-74859916D01*
X89511585Y-74942047D01*
X89511578Y-74942053D01*
X87407050Y-77046580D01*
X87407044Y-77046588D01*
X87357812Y-77120268D01*
X87357813Y-77120269D01*
X87324921Y-77169496D01*
X87324914Y-77169508D01*
X87268342Y-77306086D01*
X87268340Y-77306092D01*
X87239500Y-77451079D01*
X87239500Y-77909362D01*
X87219815Y-77976401D01*
X87180598Y-78014899D01*
X87112288Y-78057033D01*
X87071342Y-78082289D01*
X86947289Y-78206342D01*
X86855187Y-78355663D01*
X86855186Y-78355666D01*
X86800001Y-78522203D01*
X86800001Y-78522204D01*
X86800000Y-78522204D01*
X86789500Y-78624983D01*
X85500500Y-78624983D01*
X85500500Y-69624500D01*
X85520185Y-69557461D01*
X85572989Y-69511706D01*
X85624500Y-69500500D01*
X86853923Y-69500500D01*
X86920962Y-69520185D01*
G37*
%TD.AperFunction*%
%TD*%
M02*
