%TF.GenerationSoftware,KiCad,Pcbnew,8.0.8*%
%TF.CreationDate,2025-07-28T16:06:43+02:00*%
%TF.ProjectId,Linefollower Wz.4,4c696e65-666f-46c6-9c6f-77657220577a,4.1*%
%TF.SameCoordinates,Original*%
%TF.FileFunction,Plated,1,2,PTH,Drill*%
%TF.FilePolarity,Positive*%
%FSLAX46Y46*%
G04 Gerber Fmt 4.6, Leading zero omitted, Abs format (unit mm)*
G04 Created by KiCad (PCBNEW 8.0.8) date 2025-07-28 16:06:43*
%MOMM*%
%LPD*%
G01*
G04 APERTURE LIST*
%TA.AperFunction,ViaDrill*%
%ADD10C,0.500000*%
%TD*%
%TA.AperFunction,ComponentDrill*%
%ADD11C,0.800000*%
%TD*%
%TA.AperFunction,ComponentDrill*%
%ADD12C,1.000000*%
%TD*%
%TA.AperFunction,ComponentDrill*%
%ADD13C,1.100000*%
%TD*%
%TA.AperFunction,ComponentDrill*%
%ADD14C,1.300000*%
%TD*%
G04 APERTURE END LIST*
D10*
X90490000Y-75525000D03*
X92990000Y-70525000D03*
X121000000Y-104000000D03*
X123758763Y-107787760D03*
X126250000Y-100790000D03*
X135000002Y-105000000D03*
X139000000Y-96000000D03*
X139093374Y-94359935D03*
X140000000Y-93000000D03*
X140589009Y-119589009D03*
X141750000Y-116000000D03*
X148000000Y-118000000D03*
D11*
%TO.C,C2*%
X86750000Y-123000000D03*
X89250000Y-123000000D03*
%TO.C,C3*%
X98250000Y-123000000D03*
X100750000Y-123000000D03*
%TO.C,Y1*%
X123000000Y-120550000D03*
X123000000Y-125430000D03*
%TO.C,C4*%
X125000000Y-131000000D03*
X127500000Y-131000000D03*
%TO.C,U11*%
X130200000Y-107760000D03*
X130200000Y-110300000D03*
X130200000Y-112840000D03*
X130200000Y-115380000D03*
X130200000Y-117920000D03*
X130200000Y-120460000D03*
X130200000Y-123000000D03*
X130200000Y-125540000D03*
X130200000Y-128080000D03*
X130200000Y-130620000D03*
X137820000Y-107760000D03*
X137820000Y-110300000D03*
X137820000Y-112840000D03*
X137820000Y-115380000D03*
X137820000Y-117920000D03*
X137820000Y-120460000D03*
X137820000Y-123000000D03*
X137820000Y-125540000D03*
X137820000Y-128080000D03*
X137820000Y-130620000D03*
%TO.C,C1*%
X138000000Y-102500000D03*
X138000000Y-105000000D03*
%TO.C,SW1*%
X150000000Y-107732500D03*
X150000000Y-115352500D03*
D12*
%TO.C,J4*%
X104460000Y-88000000D03*
%TO.C,J5*%
X104460000Y-97000000D03*
%TO.C,J4*%
X107000000Y-88000000D03*
%TO.C,J5*%
X107000000Y-97000000D03*
%TO.C,M1*%
X108000000Y-129460000D03*
X108000000Y-132000000D03*
%TO.C,J1*%
X114840000Y-88000000D03*
%TO.C,J3*%
X114840000Y-97000000D03*
%TO.C,J1*%
X117380000Y-88000000D03*
%TO.C,J3*%
X117380000Y-97000000D03*
%TO.C,J1*%
X119920000Y-88000000D03*
%TO.C,J3*%
X119920000Y-97000000D03*
%TO.C,ICSP1*%
X120460000Y-109475000D03*
X120460000Y-112015000D03*
X120460000Y-114555000D03*
%TO.C,J1*%
X122460000Y-88000000D03*
%TO.C,J3*%
X122460000Y-97000000D03*
%TO.C,ICSP1*%
X123000000Y-109475000D03*
X123000000Y-112015000D03*
X123000000Y-114555000D03*
%TO.C,J1*%
X125000000Y-88000000D03*
%TO.C,J3*%
X125000000Y-97000000D03*
%TO.C,J1*%
X127540000Y-88000000D03*
%TO.C,J3*%
X127540000Y-97000000D03*
%TO.C,J1*%
X130080000Y-88000000D03*
%TO.C,J3*%
X130080000Y-97000000D03*
%TO.C,J1*%
X132620000Y-88000000D03*
%TO.C,J3*%
X132620000Y-97000000D03*
%TO.C,J1*%
X135160000Y-88000000D03*
%TO.C,J3*%
X135160000Y-97000000D03*
%TO.C,M2*%
X142000000Y-129460000D03*
X142000000Y-132000000D03*
%TO.C,S1*%
X145475000Y-120975000D03*
X148015000Y-120975000D03*
%TO.C,12V*%
X150000000Y-101460000D03*
X150000000Y-104000000D03*
%TO.C,S1*%
X150555000Y-120975000D03*
D13*
%TO.C,U10*%
X91460000Y-119230000D03*
X94000000Y-119230000D03*
X96540000Y-119230000D03*
%TO.C,Q1*%
X103460000Y-119230000D03*
X106000000Y-119230000D03*
X108540000Y-119230000D03*
%TO.C,Q2*%
X155460000Y-119230000D03*
X158000000Y-119230000D03*
X160540000Y-119230000D03*
D14*
%TO.C,SW2*%
X121500000Y-130750000D03*
X121500000Y-137250000D03*
M02*
