%TF.GenerationSoftware,KiCad,Pcbnew,8.0.8*%
%TF.CreationDate,2025-07-28T16:06:37+02:00*%
%TF.ProjectId,Linefollower Wz.4,4c696e65-666f-46c6-9c6f-77657220577a,4.1*%
%TF.SameCoordinates,Original*%
%TF.FileFunction,Legend,Bot*%
%TF.FilePolarity,Positive*%
%FSLAX46Y46*%
G04 Gerber Fmt 4.6, Leading zero omitted, Abs format (unit mm)*
G04 Created by KiCad (PCBNEW 8.0.8) date 2025-07-28 16:06:37*
%MOMM*%
%LPD*%
G01*
G04 APERTURE LIST*
%ADD10C,0.100000*%
%ADD11C,0.150000*%
%ADD12C,0.120000*%
G04 APERTURE END LIST*
D10*
X87000000Y-70500000D02*
X90000000Y-70500000D01*
X90000000Y-75500000D01*
X87000000Y-75500000D01*
X87000000Y-70500000D01*
X160000000Y-70500000D02*
X163000000Y-70500000D01*
X163000000Y-75500000D01*
X160000000Y-75500000D01*
X160000000Y-70500000D01*
D11*
X131094819Y-70786905D02*
X130094819Y-70786905D01*
X130094819Y-70786905D02*
X130094819Y-71025000D01*
X130094819Y-71025000D02*
X130142438Y-71167857D01*
X130142438Y-71167857D02*
X130237676Y-71263095D01*
X130237676Y-71263095D02*
X130332914Y-71310714D01*
X130332914Y-71310714D02*
X130523390Y-71358333D01*
X130523390Y-71358333D02*
X130666247Y-71358333D01*
X130666247Y-71358333D02*
X130856723Y-71310714D01*
X130856723Y-71310714D02*
X130951961Y-71263095D01*
X130951961Y-71263095D02*
X131047200Y-71167857D01*
X131047200Y-71167857D02*
X131094819Y-71025000D01*
X131094819Y-71025000D02*
X131094819Y-70786905D01*
X130094819Y-72263095D02*
X130094819Y-71786905D01*
X130094819Y-71786905D02*
X130571009Y-71739286D01*
X130571009Y-71739286D02*
X130523390Y-71786905D01*
X130523390Y-71786905D02*
X130475771Y-71882143D01*
X130475771Y-71882143D02*
X130475771Y-72120238D01*
X130475771Y-72120238D02*
X130523390Y-72215476D01*
X130523390Y-72215476D02*
X130571009Y-72263095D01*
X130571009Y-72263095D02*
X130666247Y-72310714D01*
X130666247Y-72310714D02*
X130904342Y-72310714D01*
X130904342Y-72310714D02*
X130999580Y-72263095D01*
X130999580Y-72263095D02*
X131047200Y-72215476D01*
X131047200Y-72215476D02*
X131094819Y-72120238D01*
X131094819Y-72120238D02*
X131094819Y-71882143D01*
X131094819Y-71882143D02*
X131047200Y-71786905D01*
X131047200Y-71786905D02*
X130999580Y-71739286D01*
D10*
X157751904Y-79182419D02*
X157751904Y-79991942D01*
X157751904Y-79991942D02*
X157704285Y-80087180D01*
X157704285Y-80087180D02*
X157656666Y-80134800D01*
X157656666Y-80134800D02*
X157561428Y-80182419D01*
X157561428Y-80182419D02*
X157370952Y-80182419D01*
X157370952Y-80182419D02*
X157275714Y-80134800D01*
X157275714Y-80134800D02*
X157228095Y-80087180D01*
X157228095Y-80087180D02*
X157180476Y-79991942D01*
X157180476Y-79991942D02*
X157180476Y-79182419D01*
X156275714Y-79182419D02*
X156466190Y-79182419D01*
X156466190Y-79182419D02*
X156561428Y-79230038D01*
X156561428Y-79230038D02*
X156609047Y-79277657D01*
X156609047Y-79277657D02*
X156704285Y-79420514D01*
X156704285Y-79420514D02*
X156751904Y-79610990D01*
X156751904Y-79610990D02*
X156751904Y-79991942D01*
X156751904Y-79991942D02*
X156704285Y-80087180D01*
X156704285Y-80087180D02*
X156656666Y-80134800D01*
X156656666Y-80134800D02*
X156561428Y-80182419D01*
X156561428Y-80182419D02*
X156370952Y-80182419D01*
X156370952Y-80182419D02*
X156275714Y-80134800D01*
X156275714Y-80134800D02*
X156228095Y-80087180D01*
X156228095Y-80087180D02*
X156180476Y-79991942D01*
X156180476Y-79991942D02*
X156180476Y-79753847D01*
X156180476Y-79753847D02*
X156228095Y-79658609D01*
X156228095Y-79658609D02*
X156275714Y-79610990D01*
X156275714Y-79610990D02*
X156370952Y-79563371D01*
X156370952Y-79563371D02*
X156561428Y-79563371D01*
X156561428Y-79563371D02*
X156656666Y-79610990D01*
X156656666Y-79610990D02*
X156704285Y-79658609D01*
X156704285Y-79658609D02*
X156751904Y-79753847D01*
D11*
X139094819Y-70761905D02*
X138094819Y-70761905D01*
X138094819Y-70761905D02*
X138094819Y-71000000D01*
X138094819Y-71000000D02*
X138142438Y-71142857D01*
X138142438Y-71142857D02*
X138237676Y-71238095D01*
X138237676Y-71238095D02*
X138332914Y-71285714D01*
X138332914Y-71285714D02*
X138523390Y-71333333D01*
X138523390Y-71333333D02*
X138666247Y-71333333D01*
X138666247Y-71333333D02*
X138856723Y-71285714D01*
X138856723Y-71285714D02*
X138951961Y-71238095D01*
X138951961Y-71238095D02*
X139047200Y-71142857D01*
X139047200Y-71142857D02*
X139094819Y-71000000D01*
X139094819Y-71000000D02*
X139094819Y-70761905D01*
X138094819Y-72190476D02*
X138094819Y-72000000D01*
X138094819Y-72000000D02*
X138142438Y-71904762D01*
X138142438Y-71904762D02*
X138190057Y-71857143D01*
X138190057Y-71857143D02*
X138332914Y-71761905D01*
X138332914Y-71761905D02*
X138523390Y-71714286D01*
X138523390Y-71714286D02*
X138904342Y-71714286D01*
X138904342Y-71714286D02*
X138999580Y-71761905D01*
X138999580Y-71761905D02*
X139047200Y-71809524D01*
X139047200Y-71809524D02*
X139094819Y-71904762D01*
X139094819Y-71904762D02*
X139094819Y-72095238D01*
X139094819Y-72095238D02*
X139047200Y-72190476D01*
X139047200Y-72190476D02*
X138999580Y-72238095D01*
X138999580Y-72238095D02*
X138904342Y-72285714D01*
X138904342Y-72285714D02*
X138666247Y-72285714D01*
X138666247Y-72285714D02*
X138571009Y-72238095D01*
X138571009Y-72238095D02*
X138523390Y-72190476D01*
X138523390Y-72190476D02*
X138475771Y-72095238D01*
X138475771Y-72095238D02*
X138475771Y-71904762D01*
X138475771Y-71904762D02*
X138523390Y-71809524D01*
X138523390Y-71809524D02*
X138571009Y-71761905D01*
X138571009Y-71761905D02*
X138666247Y-71714286D01*
X155094819Y-70786905D02*
X154094819Y-70786905D01*
X154094819Y-70786905D02*
X154094819Y-71025000D01*
X154094819Y-71025000D02*
X154142438Y-71167857D01*
X154142438Y-71167857D02*
X154237676Y-71263095D01*
X154237676Y-71263095D02*
X154332914Y-71310714D01*
X154332914Y-71310714D02*
X154523390Y-71358333D01*
X154523390Y-71358333D02*
X154666247Y-71358333D01*
X154666247Y-71358333D02*
X154856723Y-71310714D01*
X154856723Y-71310714D02*
X154951961Y-71263095D01*
X154951961Y-71263095D02*
X155047200Y-71167857D01*
X155047200Y-71167857D02*
X155094819Y-71025000D01*
X155094819Y-71025000D02*
X155094819Y-70786905D01*
X154523390Y-71929762D02*
X154475771Y-71834524D01*
X154475771Y-71834524D02*
X154428152Y-71786905D01*
X154428152Y-71786905D02*
X154332914Y-71739286D01*
X154332914Y-71739286D02*
X154285295Y-71739286D01*
X154285295Y-71739286D02*
X154190057Y-71786905D01*
X154190057Y-71786905D02*
X154142438Y-71834524D01*
X154142438Y-71834524D02*
X154094819Y-71929762D01*
X154094819Y-71929762D02*
X154094819Y-72120238D01*
X154094819Y-72120238D02*
X154142438Y-72215476D01*
X154142438Y-72215476D02*
X154190057Y-72263095D01*
X154190057Y-72263095D02*
X154285295Y-72310714D01*
X154285295Y-72310714D02*
X154332914Y-72310714D01*
X154332914Y-72310714D02*
X154428152Y-72263095D01*
X154428152Y-72263095D02*
X154475771Y-72215476D01*
X154475771Y-72215476D02*
X154523390Y-72120238D01*
X154523390Y-72120238D02*
X154523390Y-71929762D01*
X154523390Y-71929762D02*
X154571009Y-71834524D01*
X154571009Y-71834524D02*
X154618628Y-71786905D01*
X154618628Y-71786905D02*
X154713866Y-71739286D01*
X154713866Y-71739286D02*
X154904342Y-71739286D01*
X154904342Y-71739286D02*
X154999580Y-71786905D01*
X154999580Y-71786905D02*
X155047200Y-71834524D01*
X155047200Y-71834524D02*
X155094819Y-71929762D01*
X155094819Y-71929762D02*
X155094819Y-72120238D01*
X155094819Y-72120238D02*
X155047200Y-72215476D01*
X155047200Y-72215476D02*
X154999580Y-72263095D01*
X154999580Y-72263095D02*
X154904342Y-72310714D01*
X154904342Y-72310714D02*
X154713866Y-72310714D01*
X154713866Y-72310714D02*
X154618628Y-72263095D01*
X154618628Y-72263095D02*
X154571009Y-72215476D01*
X154571009Y-72215476D02*
X154523390Y-72120238D01*
X99094819Y-70786905D02*
X98094819Y-70786905D01*
X98094819Y-70786905D02*
X98094819Y-71025000D01*
X98094819Y-71025000D02*
X98142438Y-71167857D01*
X98142438Y-71167857D02*
X98237676Y-71263095D01*
X98237676Y-71263095D02*
X98332914Y-71310714D01*
X98332914Y-71310714D02*
X98523390Y-71358333D01*
X98523390Y-71358333D02*
X98666247Y-71358333D01*
X98666247Y-71358333D02*
X98856723Y-71310714D01*
X98856723Y-71310714D02*
X98951961Y-71263095D01*
X98951961Y-71263095D02*
X99047200Y-71167857D01*
X99047200Y-71167857D02*
X99094819Y-71025000D01*
X99094819Y-71025000D02*
X99094819Y-70786905D01*
X99094819Y-72310714D02*
X99094819Y-71739286D01*
X99094819Y-72025000D02*
X98094819Y-72025000D01*
X98094819Y-72025000D02*
X98237676Y-71929762D01*
X98237676Y-71929762D02*
X98332914Y-71834524D01*
X98332914Y-71834524D02*
X98380533Y-71739286D01*
X107094819Y-70786905D02*
X106094819Y-70786905D01*
X106094819Y-70786905D02*
X106094819Y-71025000D01*
X106094819Y-71025000D02*
X106142438Y-71167857D01*
X106142438Y-71167857D02*
X106237676Y-71263095D01*
X106237676Y-71263095D02*
X106332914Y-71310714D01*
X106332914Y-71310714D02*
X106523390Y-71358333D01*
X106523390Y-71358333D02*
X106666247Y-71358333D01*
X106666247Y-71358333D02*
X106856723Y-71310714D01*
X106856723Y-71310714D02*
X106951961Y-71263095D01*
X106951961Y-71263095D02*
X107047200Y-71167857D01*
X107047200Y-71167857D02*
X107094819Y-71025000D01*
X107094819Y-71025000D02*
X107094819Y-70786905D01*
X106190057Y-71739286D02*
X106142438Y-71786905D01*
X106142438Y-71786905D02*
X106094819Y-71882143D01*
X106094819Y-71882143D02*
X106094819Y-72120238D01*
X106094819Y-72120238D02*
X106142438Y-72215476D01*
X106142438Y-72215476D02*
X106190057Y-72263095D01*
X106190057Y-72263095D02*
X106285295Y-72310714D01*
X106285295Y-72310714D02*
X106380533Y-72310714D01*
X106380533Y-72310714D02*
X106523390Y-72263095D01*
X106523390Y-72263095D02*
X107094819Y-71691667D01*
X107094819Y-71691667D02*
X107094819Y-72310714D01*
D10*
X149751904Y-79182419D02*
X149751904Y-79991942D01*
X149751904Y-79991942D02*
X149704285Y-80087180D01*
X149704285Y-80087180D02*
X149656666Y-80134800D01*
X149656666Y-80134800D02*
X149561428Y-80182419D01*
X149561428Y-80182419D02*
X149370952Y-80182419D01*
X149370952Y-80182419D02*
X149275714Y-80134800D01*
X149275714Y-80134800D02*
X149228095Y-80087180D01*
X149228095Y-80087180D02*
X149180476Y-79991942D01*
X149180476Y-79991942D02*
X149180476Y-79182419D01*
X148799523Y-79182419D02*
X148132857Y-79182419D01*
X148132857Y-79182419D02*
X148561428Y-80182419D01*
D11*
X115094819Y-70786905D02*
X114094819Y-70786905D01*
X114094819Y-70786905D02*
X114094819Y-71025000D01*
X114094819Y-71025000D02*
X114142438Y-71167857D01*
X114142438Y-71167857D02*
X114237676Y-71263095D01*
X114237676Y-71263095D02*
X114332914Y-71310714D01*
X114332914Y-71310714D02*
X114523390Y-71358333D01*
X114523390Y-71358333D02*
X114666247Y-71358333D01*
X114666247Y-71358333D02*
X114856723Y-71310714D01*
X114856723Y-71310714D02*
X114951961Y-71263095D01*
X114951961Y-71263095D02*
X115047200Y-71167857D01*
X115047200Y-71167857D02*
X115094819Y-71025000D01*
X115094819Y-71025000D02*
X115094819Y-70786905D01*
X114094819Y-71691667D02*
X114094819Y-72310714D01*
X114094819Y-72310714D02*
X114475771Y-71977381D01*
X114475771Y-71977381D02*
X114475771Y-72120238D01*
X114475771Y-72120238D02*
X114523390Y-72215476D01*
X114523390Y-72215476D02*
X114571009Y-72263095D01*
X114571009Y-72263095D02*
X114666247Y-72310714D01*
X114666247Y-72310714D02*
X114904342Y-72310714D01*
X114904342Y-72310714D02*
X114999580Y-72263095D01*
X114999580Y-72263095D02*
X115047200Y-72215476D01*
X115047200Y-72215476D02*
X115094819Y-72120238D01*
X115094819Y-72120238D02*
X115094819Y-71834524D01*
X115094819Y-71834524D02*
X115047200Y-71739286D01*
X115047200Y-71739286D02*
X114999580Y-71691667D01*
D10*
X133751904Y-79182419D02*
X133751904Y-79991942D01*
X133751904Y-79991942D02*
X133704285Y-80087180D01*
X133704285Y-80087180D02*
X133656666Y-80134800D01*
X133656666Y-80134800D02*
X133561428Y-80182419D01*
X133561428Y-80182419D02*
X133370952Y-80182419D01*
X133370952Y-80182419D02*
X133275714Y-80134800D01*
X133275714Y-80134800D02*
X133228095Y-80087180D01*
X133228095Y-80087180D02*
X133180476Y-79991942D01*
X133180476Y-79991942D02*
X133180476Y-79182419D01*
X132656666Y-80182419D02*
X132466190Y-80182419D01*
X132466190Y-80182419D02*
X132370952Y-80134800D01*
X132370952Y-80134800D02*
X132323333Y-80087180D01*
X132323333Y-80087180D02*
X132228095Y-79944323D01*
X132228095Y-79944323D02*
X132180476Y-79753847D01*
X132180476Y-79753847D02*
X132180476Y-79372895D01*
X132180476Y-79372895D02*
X132228095Y-79277657D01*
X132228095Y-79277657D02*
X132275714Y-79230038D01*
X132275714Y-79230038D02*
X132370952Y-79182419D01*
X132370952Y-79182419D02*
X132561428Y-79182419D01*
X132561428Y-79182419D02*
X132656666Y-79230038D01*
X132656666Y-79230038D02*
X132704285Y-79277657D01*
X132704285Y-79277657D02*
X132751904Y-79372895D01*
X132751904Y-79372895D02*
X132751904Y-79610990D01*
X132751904Y-79610990D02*
X132704285Y-79706228D01*
X132704285Y-79706228D02*
X132656666Y-79753847D01*
X132656666Y-79753847D02*
X132561428Y-79801466D01*
X132561428Y-79801466D02*
X132370952Y-79801466D01*
X132370952Y-79801466D02*
X132275714Y-79753847D01*
X132275714Y-79753847D02*
X132228095Y-79706228D01*
X132228095Y-79706228D02*
X132180476Y-79610990D01*
D11*
X122944819Y-70786905D02*
X121944819Y-70786905D01*
X121944819Y-70786905D02*
X121944819Y-71025000D01*
X121944819Y-71025000D02*
X121992438Y-71167857D01*
X121992438Y-71167857D02*
X122087676Y-71263095D01*
X122087676Y-71263095D02*
X122182914Y-71310714D01*
X122182914Y-71310714D02*
X122373390Y-71358333D01*
X122373390Y-71358333D02*
X122516247Y-71358333D01*
X122516247Y-71358333D02*
X122706723Y-71310714D01*
X122706723Y-71310714D02*
X122801961Y-71263095D01*
X122801961Y-71263095D02*
X122897200Y-71167857D01*
X122897200Y-71167857D02*
X122944819Y-71025000D01*
X122944819Y-71025000D02*
X122944819Y-70786905D01*
X122278152Y-72215476D02*
X122944819Y-72215476D01*
X121897200Y-71977381D02*
X122611485Y-71739286D01*
X122611485Y-71739286D02*
X122611485Y-72358333D01*
D10*
X93751904Y-79182419D02*
X93751904Y-79991942D01*
X93751904Y-79991942D02*
X93704285Y-80087180D01*
X93704285Y-80087180D02*
X93656666Y-80134800D01*
X93656666Y-80134800D02*
X93561428Y-80182419D01*
X93561428Y-80182419D02*
X93370952Y-80182419D01*
X93370952Y-80182419D02*
X93275714Y-80134800D01*
X93275714Y-80134800D02*
X93228095Y-80087180D01*
X93228095Y-80087180D02*
X93180476Y-79991942D01*
X93180476Y-79991942D02*
X93180476Y-79182419D01*
X92180476Y-80182419D02*
X92751904Y-80182419D01*
X92466190Y-80182419D02*
X92466190Y-79182419D01*
X92466190Y-79182419D02*
X92561428Y-79325276D01*
X92561428Y-79325276D02*
X92656666Y-79420514D01*
X92656666Y-79420514D02*
X92751904Y-79468133D01*
X141751904Y-79182419D02*
X141751904Y-79991942D01*
X141751904Y-79991942D02*
X141704285Y-80087180D01*
X141704285Y-80087180D02*
X141656666Y-80134800D01*
X141656666Y-80134800D02*
X141561428Y-80182419D01*
X141561428Y-80182419D02*
X141370952Y-80182419D01*
X141370952Y-80182419D02*
X141275714Y-80134800D01*
X141275714Y-80134800D02*
X141228095Y-80087180D01*
X141228095Y-80087180D02*
X141180476Y-79991942D01*
X141180476Y-79991942D02*
X141180476Y-79182419D01*
X140561428Y-79610990D02*
X140656666Y-79563371D01*
X140656666Y-79563371D02*
X140704285Y-79515752D01*
X140704285Y-79515752D02*
X140751904Y-79420514D01*
X140751904Y-79420514D02*
X140751904Y-79372895D01*
X140751904Y-79372895D02*
X140704285Y-79277657D01*
X140704285Y-79277657D02*
X140656666Y-79230038D01*
X140656666Y-79230038D02*
X140561428Y-79182419D01*
X140561428Y-79182419D02*
X140370952Y-79182419D01*
X140370952Y-79182419D02*
X140275714Y-79230038D01*
X140275714Y-79230038D02*
X140228095Y-79277657D01*
X140228095Y-79277657D02*
X140180476Y-79372895D01*
X140180476Y-79372895D02*
X140180476Y-79420514D01*
X140180476Y-79420514D02*
X140228095Y-79515752D01*
X140228095Y-79515752D02*
X140275714Y-79563371D01*
X140275714Y-79563371D02*
X140370952Y-79610990D01*
X140370952Y-79610990D02*
X140561428Y-79610990D01*
X140561428Y-79610990D02*
X140656666Y-79658609D01*
X140656666Y-79658609D02*
X140704285Y-79706228D01*
X140704285Y-79706228D02*
X140751904Y-79801466D01*
X140751904Y-79801466D02*
X140751904Y-79991942D01*
X140751904Y-79991942D02*
X140704285Y-80087180D01*
X140704285Y-80087180D02*
X140656666Y-80134800D01*
X140656666Y-80134800D02*
X140561428Y-80182419D01*
X140561428Y-80182419D02*
X140370952Y-80182419D01*
X140370952Y-80182419D02*
X140275714Y-80134800D01*
X140275714Y-80134800D02*
X140228095Y-80087180D01*
X140228095Y-80087180D02*
X140180476Y-79991942D01*
X140180476Y-79991942D02*
X140180476Y-79801466D01*
X140180476Y-79801466D02*
X140228095Y-79706228D01*
X140228095Y-79706228D02*
X140275714Y-79658609D01*
X140275714Y-79658609D02*
X140370952Y-79610990D01*
D11*
X147094819Y-70786905D02*
X146094819Y-70786905D01*
X146094819Y-70786905D02*
X146094819Y-71025000D01*
X146094819Y-71025000D02*
X146142438Y-71167857D01*
X146142438Y-71167857D02*
X146237676Y-71263095D01*
X146237676Y-71263095D02*
X146332914Y-71310714D01*
X146332914Y-71310714D02*
X146523390Y-71358333D01*
X146523390Y-71358333D02*
X146666247Y-71358333D01*
X146666247Y-71358333D02*
X146856723Y-71310714D01*
X146856723Y-71310714D02*
X146951961Y-71263095D01*
X146951961Y-71263095D02*
X147047200Y-71167857D01*
X147047200Y-71167857D02*
X147094819Y-71025000D01*
X147094819Y-71025000D02*
X147094819Y-70786905D01*
X146094819Y-71691667D02*
X146094819Y-72358333D01*
X146094819Y-72358333D02*
X147094819Y-71929762D01*
D10*
X101751904Y-79182419D02*
X101751904Y-79991942D01*
X101751904Y-79991942D02*
X101704285Y-80087180D01*
X101704285Y-80087180D02*
X101656666Y-80134800D01*
X101656666Y-80134800D02*
X101561428Y-80182419D01*
X101561428Y-80182419D02*
X101370952Y-80182419D01*
X101370952Y-80182419D02*
X101275714Y-80134800D01*
X101275714Y-80134800D02*
X101228095Y-80087180D01*
X101228095Y-80087180D02*
X101180476Y-79991942D01*
X101180476Y-79991942D02*
X101180476Y-79182419D01*
X100751904Y-79277657D02*
X100704285Y-79230038D01*
X100704285Y-79230038D02*
X100609047Y-79182419D01*
X100609047Y-79182419D02*
X100370952Y-79182419D01*
X100370952Y-79182419D02*
X100275714Y-79230038D01*
X100275714Y-79230038D02*
X100228095Y-79277657D01*
X100228095Y-79277657D02*
X100180476Y-79372895D01*
X100180476Y-79372895D02*
X100180476Y-79468133D01*
X100180476Y-79468133D02*
X100228095Y-79610990D01*
X100228095Y-79610990D02*
X100799523Y-80182419D01*
X100799523Y-80182419D02*
X100180476Y-80182419D01*
X125751904Y-79182419D02*
X125751904Y-79991942D01*
X125751904Y-79991942D02*
X125704285Y-80087180D01*
X125704285Y-80087180D02*
X125656666Y-80134800D01*
X125656666Y-80134800D02*
X125561428Y-80182419D01*
X125561428Y-80182419D02*
X125370952Y-80182419D01*
X125370952Y-80182419D02*
X125275714Y-80134800D01*
X125275714Y-80134800D02*
X125228095Y-80087180D01*
X125228095Y-80087180D02*
X125180476Y-79991942D01*
X125180476Y-79991942D02*
X125180476Y-79182419D01*
X124228095Y-79182419D02*
X124704285Y-79182419D01*
X124704285Y-79182419D02*
X124751904Y-79658609D01*
X124751904Y-79658609D02*
X124704285Y-79610990D01*
X124704285Y-79610990D02*
X124609047Y-79563371D01*
X124609047Y-79563371D02*
X124370952Y-79563371D01*
X124370952Y-79563371D02*
X124275714Y-79610990D01*
X124275714Y-79610990D02*
X124228095Y-79658609D01*
X124228095Y-79658609D02*
X124180476Y-79753847D01*
X124180476Y-79753847D02*
X124180476Y-79991942D01*
X124180476Y-79991942D02*
X124228095Y-80087180D01*
X124228095Y-80087180D02*
X124275714Y-80134800D01*
X124275714Y-80134800D02*
X124370952Y-80182419D01*
X124370952Y-80182419D02*
X124609047Y-80182419D01*
X124609047Y-80182419D02*
X124704285Y-80134800D01*
X124704285Y-80134800D02*
X124751904Y-80087180D01*
X109751904Y-79182419D02*
X109751904Y-79991942D01*
X109751904Y-79991942D02*
X109704285Y-80087180D01*
X109704285Y-80087180D02*
X109656666Y-80134800D01*
X109656666Y-80134800D02*
X109561428Y-80182419D01*
X109561428Y-80182419D02*
X109370952Y-80182419D01*
X109370952Y-80182419D02*
X109275714Y-80134800D01*
X109275714Y-80134800D02*
X109228095Y-80087180D01*
X109228095Y-80087180D02*
X109180476Y-79991942D01*
X109180476Y-79991942D02*
X109180476Y-79182419D01*
X108799523Y-79182419D02*
X108180476Y-79182419D01*
X108180476Y-79182419D02*
X108513809Y-79563371D01*
X108513809Y-79563371D02*
X108370952Y-79563371D01*
X108370952Y-79563371D02*
X108275714Y-79610990D01*
X108275714Y-79610990D02*
X108228095Y-79658609D01*
X108228095Y-79658609D02*
X108180476Y-79753847D01*
X108180476Y-79753847D02*
X108180476Y-79991942D01*
X108180476Y-79991942D02*
X108228095Y-80087180D01*
X108228095Y-80087180D02*
X108275714Y-80134800D01*
X108275714Y-80134800D02*
X108370952Y-80182419D01*
X108370952Y-80182419D02*
X108656666Y-80182419D01*
X108656666Y-80182419D02*
X108751904Y-80134800D01*
X108751904Y-80134800D02*
X108799523Y-80087180D01*
X117751904Y-79182419D02*
X117751904Y-79991942D01*
X117751904Y-79991942D02*
X117704285Y-80087180D01*
X117704285Y-80087180D02*
X117656666Y-80134800D01*
X117656666Y-80134800D02*
X117561428Y-80182419D01*
X117561428Y-80182419D02*
X117370952Y-80182419D01*
X117370952Y-80182419D02*
X117275714Y-80134800D01*
X117275714Y-80134800D02*
X117228095Y-80087180D01*
X117228095Y-80087180D02*
X117180476Y-79991942D01*
X117180476Y-79991942D02*
X117180476Y-79182419D01*
X116275714Y-79515752D02*
X116275714Y-80182419D01*
X116513809Y-79134800D02*
X116751904Y-79849085D01*
X116751904Y-79849085D02*
X116132857Y-79849085D01*
D12*
%TO.C,D5*%
X128030000Y-70525000D02*
X128030000Y-73385000D01*
X128030000Y-73385000D02*
X129950000Y-73385000D01*
X129950000Y-73385000D02*
X129950000Y-70525000D01*
D10*
%TO.C,U6*%
X155290000Y-74175000D02*
X155290000Y-76875000D01*
X155290000Y-76875000D02*
X158690000Y-76875000D01*
X158290000Y-74175000D02*
X155290000Y-74175000D01*
X158690000Y-74525000D02*
X158290000Y-74175000D01*
X158690000Y-74525000D02*
X158690000Y-76875000D01*
D12*
%TO.C,D6*%
X136030000Y-70500000D02*
X136030000Y-73360000D01*
X136030000Y-73360000D02*
X137950000Y-73360000D01*
X137950000Y-73360000D02*
X137950000Y-70500000D01*
%TO.C,D8*%
X152030000Y-70525000D02*
X152030000Y-73385000D01*
X152030000Y-73385000D02*
X153950000Y-73385000D01*
X153950000Y-73385000D02*
X153950000Y-70525000D01*
%TO.C,D1*%
X96030000Y-70525000D02*
X96030000Y-73385000D01*
X96030000Y-73385000D02*
X97950000Y-73385000D01*
X97950000Y-73385000D02*
X97950000Y-70525000D01*
%TO.C,D2*%
X104030000Y-70525000D02*
X104030000Y-73385000D01*
X104030000Y-73385000D02*
X105950000Y-73385000D01*
X105950000Y-73385000D02*
X105950000Y-70525000D01*
D10*
%TO.C,U7*%
X147290000Y-74175000D02*
X147290000Y-76875000D01*
X147290000Y-76875000D02*
X150690000Y-76875000D01*
X150290000Y-74175000D02*
X147290000Y-74175000D01*
X150690000Y-74525000D02*
X150290000Y-74175000D01*
X150690000Y-74525000D02*
X150690000Y-76875000D01*
D12*
%TO.C,D3*%
X112030000Y-70525000D02*
X112030000Y-73385000D01*
X112030000Y-73385000D02*
X113950000Y-73385000D01*
X113950000Y-73385000D02*
X113950000Y-70525000D01*
D10*
%TO.C,U9*%
X131290000Y-74175000D02*
X131290000Y-76875000D01*
X131290000Y-76875000D02*
X134690000Y-76875000D01*
X134290000Y-74175000D02*
X131290000Y-74175000D01*
X134690000Y-74525000D02*
X134290000Y-74175000D01*
X134690000Y-74525000D02*
X134690000Y-76875000D01*
D12*
%TO.C,D4*%
X120005000Y-70525000D02*
X120005000Y-73385000D01*
X120005000Y-73385000D02*
X121925000Y-73385000D01*
X121925000Y-73385000D02*
X121925000Y-70525000D01*
D10*
%TO.C,U1*%
X91290000Y-74175000D02*
X91290000Y-76875000D01*
X91290000Y-76875000D02*
X94690000Y-76875000D01*
X94290000Y-74175000D02*
X91290000Y-74175000D01*
X94690000Y-74525000D02*
X94290000Y-74175000D01*
X94690000Y-74525000D02*
X94690000Y-76875000D01*
%TO.C,U8*%
X139290000Y-74175000D02*
X139290000Y-76875000D01*
X139290000Y-76875000D02*
X142690000Y-76875000D01*
X142290000Y-74175000D02*
X139290000Y-74175000D01*
X142690000Y-74525000D02*
X142290000Y-74175000D01*
X142690000Y-74525000D02*
X142690000Y-76875000D01*
D12*
%TO.C,D7*%
X144030000Y-70525000D02*
X144030000Y-73385000D01*
X144030000Y-73385000D02*
X145950000Y-73385000D01*
X145950000Y-73385000D02*
X145950000Y-70525000D01*
D10*
%TO.C,U2*%
X99290000Y-74175000D02*
X99290000Y-76875000D01*
X99290000Y-76875000D02*
X102690000Y-76875000D01*
X102290000Y-74175000D02*
X99290000Y-74175000D01*
X102690000Y-74525000D02*
X102290000Y-74175000D01*
X102690000Y-74525000D02*
X102690000Y-76875000D01*
%TO.C,U5*%
X123290000Y-74175000D02*
X123290000Y-76875000D01*
X123290000Y-76875000D02*
X126690000Y-76875000D01*
X126290000Y-74175000D02*
X123290000Y-74175000D01*
X126690000Y-74525000D02*
X126290000Y-74175000D01*
X126690000Y-74525000D02*
X126690000Y-76875000D01*
%TO.C,U3*%
X107290000Y-74175000D02*
X107290000Y-76875000D01*
X107290000Y-76875000D02*
X110690000Y-76875000D01*
X110290000Y-74175000D02*
X107290000Y-74175000D01*
X110690000Y-74525000D02*
X110290000Y-74175000D01*
X110690000Y-74525000D02*
X110690000Y-76875000D01*
%TO.C,U4*%
X115290000Y-74175000D02*
X115290000Y-76875000D01*
X115290000Y-76875000D02*
X118690000Y-76875000D01*
X118290000Y-74175000D02*
X115290000Y-74175000D01*
X118690000Y-74525000D02*
X118290000Y-74175000D01*
X118690000Y-74525000D02*
X118690000Y-76875000D01*
%TD*%
M02*
