%TF.GenerationSoftware,KiCad,Pcbnew,8.0.8*%
%TF.CreationDate,2025-07-28T16:06:37+02:00*%
%TF.ProjectId,Linefollower Wz.4,4c696e65-666f-46c6-9c6f-77657220577a,4.1*%
%TF.SameCoordinates,Original*%
%TF.FileFunction,Legend,Top*%
%TF.FilePolarity,Positive*%
%FSLAX46Y46*%
G04 Gerber Fmt 4.6, Leading zero omitted, Abs format (unit mm)*
G04 Created by KiCad (PCBNEW 8.0.8) date 2025-07-28 16:06:37*
%MOMM*%
%LPD*%
G01*
G04 APERTURE LIST*
%ADD10C,0.100000*%
%ADD11C,0.150000*%
%ADD12C,0.120000*%
G04 APERTURE END LIST*
D10*
X146000000Y-125000000D02*
X165000000Y-125000000D01*
X165000000Y-137000000D01*
X146000000Y-137000000D01*
X146000000Y-125000000D01*
X85000000Y-125000000D02*
X104000000Y-125000000D01*
X104000000Y-137000000D01*
X85000000Y-137000000D01*
X85000000Y-125000000D01*
X165000000Y-125000000D02*
X165000000Y-137000000D01*
X85000000Y-137000000D02*
X85000000Y-125000000D01*
X131208646Y-137872419D02*
X131446741Y-138872419D01*
X131446741Y-138872419D02*
X131637217Y-138158133D01*
X131637217Y-138158133D02*
X131827693Y-138872419D01*
X131827693Y-138872419D02*
X132065789Y-137872419D01*
X132875312Y-138872419D02*
X132875312Y-138348609D01*
X132875312Y-138348609D02*
X132827693Y-138253371D01*
X132827693Y-138253371D02*
X132732455Y-138205752D01*
X132732455Y-138205752D02*
X132541979Y-138205752D01*
X132541979Y-138205752D02*
X132446741Y-138253371D01*
X132875312Y-138824800D02*
X132780074Y-138872419D01*
X132780074Y-138872419D02*
X132541979Y-138872419D01*
X132541979Y-138872419D02*
X132446741Y-138824800D01*
X132446741Y-138824800D02*
X132399122Y-138729561D01*
X132399122Y-138729561D02*
X132399122Y-138634323D01*
X132399122Y-138634323D02*
X132446741Y-138539085D01*
X132446741Y-138539085D02*
X132541979Y-138491466D01*
X132541979Y-138491466D02*
X132780074Y-138491466D01*
X132780074Y-138491466D02*
X132875312Y-138443847D01*
X133256265Y-138205752D02*
X133494360Y-138872419D01*
X133732455Y-138205752D02*
X133494360Y-138872419D01*
X133494360Y-138872419D02*
X133399122Y-139110514D01*
X133399122Y-139110514D02*
X133351503Y-139158133D01*
X133351503Y-139158133D02*
X133256265Y-139205752D01*
X134018170Y-137872419D02*
X134256265Y-138872419D01*
X134256265Y-138872419D02*
X134446741Y-138158133D01*
X134446741Y-138158133D02*
X134637217Y-138872419D01*
X134637217Y-138872419D02*
X134875313Y-137872419D01*
X135684836Y-138872419D02*
X135684836Y-138348609D01*
X135684836Y-138348609D02*
X135637217Y-138253371D01*
X135637217Y-138253371D02*
X135541979Y-138205752D01*
X135541979Y-138205752D02*
X135351503Y-138205752D01*
X135351503Y-138205752D02*
X135256265Y-138253371D01*
X135684836Y-138824800D02*
X135589598Y-138872419D01*
X135589598Y-138872419D02*
X135351503Y-138872419D01*
X135351503Y-138872419D02*
X135256265Y-138824800D01*
X135256265Y-138824800D02*
X135208646Y-138729561D01*
X135208646Y-138729561D02*
X135208646Y-138634323D01*
X135208646Y-138634323D02*
X135256265Y-138539085D01*
X135256265Y-138539085D02*
X135351503Y-138491466D01*
X135351503Y-138491466D02*
X135589598Y-138491466D01*
X135589598Y-138491466D02*
X135684836Y-138443847D01*
X136065789Y-138205752D02*
X136303884Y-138872419D01*
X136541979Y-138205752D02*
X136303884Y-138872419D01*
X136303884Y-138872419D02*
X136208646Y-139110514D01*
X136208646Y-139110514D02*
X136161027Y-139158133D01*
X136161027Y-139158133D02*
X136065789Y-139205752D01*
X136827694Y-137872419D02*
X137065789Y-138872419D01*
X137065789Y-138872419D02*
X137256265Y-138158133D01*
X137256265Y-138158133D02*
X137446741Y-138872419D01*
X137446741Y-138872419D02*
X137684837Y-137872419D01*
X138494360Y-138872419D02*
X138494360Y-138348609D01*
X138494360Y-138348609D02*
X138446741Y-138253371D01*
X138446741Y-138253371D02*
X138351503Y-138205752D01*
X138351503Y-138205752D02*
X138161027Y-138205752D01*
X138161027Y-138205752D02*
X138065789Y-138253371D01*
X138494360Y-138824800D02*
X138399122Y-138872419D01*
X138399122Y-138872419D02*
X138161027Y-138872419D01*
X138161027Y-138872419D02*
X138065789Y-138824800D01*
X138065789Y-138824800D02*
X138018170Y-138729561D01*
X138018170Y-138729561D02*
X138018170Y-138634323D01*
X138018170Y-138634323D02*
X138065789Y-138539085D01*
X138065789Y-138539085D02*
X138161027Y-138491466D01*
X138161027Y-138491466D02*
X138399122Y-138491466D01*
X138399122Y-138491466D02*
X138494360Y-138443847D01*
X138875313Y-138205752D02*
X139113408Y-138872419D01*
X139351503Y-138205752D02*
X139113408Y-138872419D01*
X139113408Y-138872419D02*
X139018170Y-139110514D01*
X139018170Y-139110514D02*
X138970551Y-139158133D01*
X138970551Y-139158133D02*
X138875313Y-139205752D01*
D11*
X87833333Y-74454819D02*
X87500000Y-73978628D01*
X87261905Y-74454819D02*
X87261905Y-73454819D01*
X87261905Y-73454819D02*
X87642857Y-73454819D01*
X87642857Y-73454819D02*
X87738095Y-73502438D01*
X87738095Y-73502438D02*
X87785714Y-73550057D01*
X87785714Y-73550057D02*
X87833333Y-73645295D01*
X87833333Y-73645295D02*
X87833333Y-73788152D01*
X87833333Y-73788152D02*
X87785714Y-73883390D01*
X87785714Y-73883390D02*
X87738095Y-73931009D01*
X87738095Y-73931009D02*
X87642857Y-73978628D01*
X87642857Y-73978628D02*
X87261905Y-73978628D01*
X88166667Y-73454819D02*
X88785714Y-73454819D01*
X88785714Y-73454819D02*
X88452381Y-73835771D01*
X88452381Y-73835771D02*
X88595238Y-73835771D01*
X88595238Y-73835771D02*
X88690476Y-73883390D01*
X88690476Y-73883390D02*
X88738095Y-73931009D01*
X88738095Y-73931009D02*
X88785714Y-74026247D01*
X88785714Y-74026247D02*
X88785714Y-74264342D01*
X88785714Y-74264342D02*
X88738095Y-74359580D01*
X88738095Y-74359580D02*
X88690476Y-74407200D01*
X88690476Y-74407200D02*
X88595238Y-74454819D01*
X88595238Y-74454819D02*
X88309524Y-74454819D01*
X88309524Y-74454819D02*
X88214286Y-74407200D01*
X88214286Y-74407200D02*
X88166667Y-74359580D01*
X90444819Y-80191666D02*
X89968628Y-80524999D01*
X90444819Y-80763094D02*
X89444819Y-80763094D01*
X89444819Y-80763094D02*
X89444819Y-80382142D01*
X89444819Y-80382142D02*
X89492438Y-80286904D01*
X89492438Y-80286904D02*
X89540057Y-80239285D01*
X89540057Y-80239285D02*
X89635295Y-80191666D01*
X89635295Y-80191666D02*
X89778152Y-80191666D01*
X89778152Y-80191666D02*
X89873390Y-80239285D01*
X89873390Y-80239285D02*
X89921009Y-80286904D01*
X89921009Y-80286904D02*
X89968628Y-80382142D01*
X89968628Y-80382142D02*
X89968628Y-80763094D01*
X89778152Y-79334523D02*
X90444819Y-79334523D01*
X89397200Y-79572618D02*
X90111485Y-79810713D01*
X90111485Y-79810713D02*
X90111485Y-79191666D01*
X111524819Y-97333333D02*
X112239104Y-97333333D01*
X112239104Y-97333333D02*
X112381961Y-97380952D01*
X112381961Y-97380952D02*
X112477200Y-97476190D01*
X112477200Y-97476190D02*
X112524819Y-97619047D01*
X112524819Y-97619047D02*
X112524819Y-97714285D01*
X111524819Y-96952380D02*
X111524819Y-96333333D01*
X111524819Y-96333333D02*
X111905771Y-96666666D01*
X111905771Y-96666666D02*
X111905771Y-96523809D01*
X111905771Y-96523809D02*
X111953390Y-96428571D01*
X111953390Y-96428571D02*
X112001009Y-96380952D01*
X112001009Y-96380952D02*
X112096247Y-96333333D01*
X112096247Y-96333333D02*
X112334342Y-96333333D01*
X112334342Y-96333333D02*
X112429580Y-96380952D01*
X112429580Y-96380952D02*
X112477200Y-96428571D01*
X112477200Y-96428571D02*
X112524819Y-96523809D01*
X112524819Y-96523809D02*
X112524819Y-96809523D01*
X112524819Y-96809523D02*
X112477200Y-96904761D01*
X112477200Y-96904761D02*
X112429580Y-96952380D01*
X108784819Y-88333333D02*
X109499104Y-88333333D01*
X109499104Y-88333333D02*
X109641961Y-88380952D01*
X109641961Y-88380952D02*
X109737200Y-88476190D01*
X109737200Y-88476190D02*
X109784819Y-88619047D01*
X109784819Y-88619047D02*
X109784819Y-88714285D01*
X109118152Y-87428571D02*
X109784819Y-87428571D01*
X108737200Y-87666666D02*
X109451485Y-87904761D01*
X109451485Y-87904761D02*
X109451485Y-87285714D01*
X126083333Y-129059580D02*
X126035714Y-129107200D01*
X126035714Y-129107200D02*
X125892857Y-129154819D01*
X125892857Y-129154819D02*
X125797619Y-129154819D01*
X125797619Y-129154819D02*
X125654762Y-129107200D01*
X125654762Y-129107200D02*
X125559524Y-129011961D01*
X125559524Y-129011961D02*
X125511905Y-128916723D01*
X125511905Y-128916723D02*
X125464286Y-128726247D01*
X125464286Y-128726247D02*
X125464286Y-128583390D01*
X125464286Y-128583390D02*
X125511905Y-128392914D01*
X125511905Y-128392914D02*
X125559524Y-128297676D01*
X125559524Y-128297676D02*
X125654762Y-128202438D01*
X125654762Y-128202438D02*
X125797619Y-128154819D01*
X125797619Y-128154819D02*
X125892857Y-128154819D01*
X125892857Y-128154819D02*
X126035714Y-128202438D01*
X126035714Y-128202438D02*
X126083333Y-128250057D01*
X126940476Y-128488152D02*
X126940476Y-129154819D01*
X126702381Y-128107200D02*
X126464286Y-128821485D01*
X126464286Y-128821485D02*
X127083333Y-128821485D01*
X126503628Y-123466190D02*
X126979819Y-123466190D01*
X125979819Y-123799523D02*
X126503628Y-123466190D01*
X126503628Y-123466190D02*
X125979819Y-123132857D01*
X126979819Y-122275714D02*
X126979819Y-122847142D01*
X126979819Y-122561428D02*
X125979819Y-122561428D01*
X125979819Y-122561428D02*
X126122676Y-122656666D01*
X126122676Y-122656666D02*
X126217914Y-122751904D01*
X126217914Y-122751904D02*
X126265533Y-122847142D01*
X149380952Y-99584819D02*
X148809524Y-99584819D01*
X149095238Y-99584819D02*
X149095238Y-98584819D01*
X149095238Y-98584819D02*
X149000000Y-98727676D01*
X149000000Y-98727676D02*
X148904762Y-98822914D01*
X148904762Y-98822914D02*
X148809524Y-98870533D01*
X149761905Y-98680057D02*
X149809524Y-98632438D01*
X149809524Y-98632438D02*
X149904762Y-98584819D01*
X149904762Y-98584819D02*
X150142857Y-98584819D01*
X150142857Y-98584819D02*
X150238095Y-98632438D01*
X150238095Y-98632438D02*
X150285714Y-98680057D01*
X150285714Y-98680057D02*
X150333333Y-98775295D01*
X150333333Y-98775295D02*
X150333333Y-98870533D01*
X150333333Y-98870533D02*
X150285714Y-99013390D01*
X150285714Y-99013390D02*
X149714286Y-99584819D01*
X149714286Y-99584819D02*
X150333333Y-99584819D01*
X150619048Y-98584819D02*
X150952381Y-99584819D01*
X150952381Y-99584819D02*
X151285714Y-98584819D01*
X87833333Y-121359580D02*
X87785714Y-121407200D01*
X87785714Y-121407200D02*
X87642857Y-121454819D01*
X87642857Y-121454819D02*
X87547619Y-121454819D01*
X87547619Y-121454819D02*
X87404762Y-121407200D01*
X87404762Y-121407200D02*
X87309524Y-121311961D01*
X87309524Y-121311961D02*
X87261905Y-121216723D01*
X87261905Y-121216723D02*
X87214286Y-121026247D01*
X87214286Y-121026247D02*
X87214286Y-120883390D01*
X87214286Y-120883390D02*
X87261905Y-120692914D01*
X87261905Y-120692914D02*
X87309524Y-120597676D01*
X87309524Y-120597676D02*
X87404762Y-120502438D01*
X87404762Y-120502438D02*
X87547619Y-120454819D01*
X87547619Y-120454819D02*
X87642857Y-120454819D01*
X87642857Y-120454819D02*
X87785714Y-120502438D01*
X87785714Y-120502438D02*
X87833333Y-120550057D01*
X88214286Y-120550057D02*
X88261905Y-120502438D01*
X88261905Y-120502438D02*
X88357143Y-120454819D01*
X88357143Y-120454819D02*
X88595238Y-120454819D01*
X88595238Y-120454819D02*
X88690476Y-120502438D01*
X88690476Y-120502438D02*
X88738095Y-120550057D01*
X88738095Y-120550057D02*
X88785714Y-120645295D01*
X88785714Y-120645295D02*
X88785714Y-120740533D01*
X88785714Y-120740533D02*
X88738095Y-120883390D01*
X88738095Y-120883390D02*
X88166667Y-121454819D01*
X88166667Y-121454819D02*
X88785714Y-121454819D01*
X108784819Y-97333333D02*
X109499104Y-97333333D01*
X109499104Y-97333333D02*
X109641961Y-97380952D01*
X109641961Y-97380952D02*
X109737200Y-97476190D01*
X109737200Y-97476190D02*
X109784819Y-97619047D01*
X109784819Y-97619047D02*
X109784819Y-97714285D01*
X108784819Y-96380952D02*
X108784819Y-96857142D01*
X108784819Y-96857142D02*
X109261009Y-96904761D01*
X109261009Y-96904761D02*
X109213390Y-96857142D01*
X109213390Y-96857142D02*
X109165771Y-96761904D01*
X109165771Y-96761904D02*
X109165771Y-96523809D01*
X109165771Y-96523809D02*
X109213390Y-96428571D01*
X109213390Y-96428571D02*
X109261009Y-96380952D01*
X109261009Y-96380952D02*
X109356247Y-96333333D01*
X109356247Y-96333333D02*
X109594342Y-96333333D01*
X109594342Y-96333333D02*
X109689580Y-96380952D01*
X109689580Y-96380952D02*
X109737200Y-96428571D01*
X109737200Y-96428571D02*
X109784819Y-96523809D01*
X109784819Y-96523809D02*
X109784819Y-96761904D01*
X109784819Y-96761904D02*
X109737200Y-96857142D01*
X109737200Y-96857142D02*
X109689580Y-96904761D01*
X124607200Y-137333332D02*
X124654819Y-137190475D01*
X124654819Y-137190475D02*
X124654819Y-136952380D01*
X124654819Y-136952380D02*
X124607200Y-136857142D01*
X124607200Y-136857142D02*
X124559580Y-136809523D01*
X124559580Y-136809523D02*
X124464342Y-136761904D01*
X124464342Y-136761904D02*
X124369104Y-136761904D01*
X124369104Y-136761904D02*
X124273866Y-136809523D01*
X124273866Y-136809523D02*
X124226247Y-136857142D01*
X124226247Y-136857142D02*
X124178628Y-136952380D01*
X124178628Y-136952380D02*
X124131009Y-137142856D01*
X124131009Y-137142856D02*
X124083390Y-137238094D01*
X124083390Y-137238094D02*
X124035771Y-137285713D01*
X124035771Y-137285713D02*
X123940533Y-137333332D01*
X123940533Y-137333332D02*
X123845295Y-137333332D01*
X123845295Y-137333332D02*
X123750057Y-137285713D01*
X123750057Y-137285713D02*
X123702438Y-137238094D01*
X123702438Y-137238094D02*
X123654819Y-137142856D01*
X123654819Y-137142856D02*
X123654819Y-136904761D01*
X123654819Y-136904761D02*
X123702438Y-136761904D01*
X123654819Y-136428570D02*
X124654819Y-136190475D01*
X124654819Y-136190475D02*
X123940533Y-135999999D01*
X123940533Y-135999999D02*
X124654819Y-135809523D01*
X124654819Y-135809523D02*
X123654819Y-135571428D01*
X123750057Y-135238094D02*
X123702438Y-135190475D01*
X123702438Y-135190475D02*
X123654819Y-135095237D01*
X123654819Y-135095237D02*
X123654819Y-134857142D01*
X123654819Y-134857142D02*
X123702438Y-134761904D01*
X123702438Y-134761904D02*
X123750057Y-134714285D01*
X123750057Y-134714285D02*
X123845295Y-134666666D01*
X123845295Y-134666666D02*
X123940533Y-134666666D01*
X123940533Y-134666666D02*
X124083390Y-134714285D01*
X124083390Y-134714285D02*
X124654819Y-135285713D01*
X124654819Y-135285713D02*
X124654819Y-134666666D01*
X112550057Y-106095238D02*
X112502438Y-106190476D01*
X112502438Y-106190476D02*
X112407200Y-106285714D01*
X112407200Y-106285714D02*
X112264342Y-106428571D01*
X112264342Y-106428571D02*
X112216723Y-106523809D01*
X112216723Y-106523809D02*
X112216723Y-106619047D01*
X112454819Y-106571428D02*
X112407200Y-106666666D01*
X112407200Y-106666666D02*
X112311961Y-106761904D01*
X112311961Y-106761904D02*
X112121485Y-106809523D01*
X112121485Y-106809523D02*
X111788152Y-106809523D01*
X111788152Y-106809523D02*
X111597676Y-106761904D01*
X111597676Y-106761904D02*
X111502438Y-106666666D01*
X111502438Y-106666666D02*
X111454819Y-106571428D01*
X111454819Y-106571428D02*
X111454819Y-106380952D01*
X111454819Y-106380952D02*
X111502438Y-106285714D01*
X111502438Y-106285714D02*
X111597676Y-106190476D01*
X111597676Y-106190476D02*
X111788152Y-106142857D01*
X111788152Y-106142857D02*
X112121485Y-106142857D01*
X112121485Y-106142857D02*
X112311961Y-106190476D01*
X112311961Y-106190476D02*
X112407200Y-106285714D01*
X112407200Y-106285714D02*
X112454819Y-106380952D01*
X112454819Y-106380952D02*
X112454819Y-106571428D01*
X112454819Y-105190476D02*
X112454819Y-105761904D01*
X112454819Y-105476190D02*
X111454819Y-105476190D01*
X111454819Y-105476190D02*
X111597676Y-105571428D01*
X111597676Y-105571428D02*
X111692914Y-105666666D01*
X111692914Y-105666666D02*
X111740533Y-105761904D01*
X144666667Y-115407200D02*
X144809524Y-115454819D01*
X144809524Y-115454819D02*
X145047619Y-115454819D01*
X145047619Y-115454819D02*
X145142857Y-115407200D01*
X145142857Y-115407200D02*
X145190476Y-115359580D01*
X145190476Y-115359580D02*
X145238095Y-115264342D01*
X145238095Y-115264342D02*
X145238095Y-115169104D01*
X145238095Y-115169104D02*
X145190476Y-115073866D01*
X145190476Y-115073866D02*
X145142857Y-115026247D01*
X145142857Y-115026247D02*
X145047619Y-114978628D01*
X145047619Y-114978628D02*
X144857143Y-114931009D01*
X144857143Y-114931009D02*
X144761905Y-114883390D01*
X144761905Y-114883390D02*
X144714286Y-114835771D01*
X144714286Y-114835771D02*
X144666667Y-114740533D01*
X144666667Y-114740533D02*
X144666667Y-114645295D01*
X144666667Y-114645295D02*
X144714286Y-114550057D01*
X144714286Y-114550057D02*
X144761905Y-114502438D01*
X144761905Y-114502438D02*
X144857143Y-114454819D01*
X144857143Y-114454819D02*
X145095238Y-114454819D01*
X145095238Y-114454819D02*
X145238095Y-114502438D01*
X145571429Y-114454819D02*
X145809524Y-115454819D01*
X145809524Y-115454819D02*
X146000000Y-114740533D01*
X146000000Y-114740533D02*
X146190476Y-115454819D01*
X146190476Y-115454819D02*
X146428572Y-114454819D01*
X147333333Y-115454819D02*
X146761905Y-115454819D01*
X147047619Y-115454819D02*
X147047619Y-114454819D01*
X147047619Y-114454819D02*
X146952381Y-114597676D01*
X146952381Y-114597676D02*
X146857143Y-114692914D01*
X146857143Y-114692914D02*
X146761905Y-114740533D01*
X99333333Y-121359580D02*
X99285714Y-121407200D01*
X99285714Y-121407200D02*
X99142857Y-121454819D01*
X99142857Y-121454819D02*
X99047619Y-121454819D01*
X99047619Y-121454819D02*
X98904762Y-121407200D01*
X98904762Y-121407200D02*
X98809524Y-121311961D01*
X98809524Y-121311961D02*
X98761905Y-121216723D01*
X98761905Y-121216723D02*
X98714286Y-121026247D01*
X98714286Y-121026247D02*
X98714286Y-120883390D01*
X98714286Y-120883390D02*
X98761905Y-120692914D01*
X98761905Y-120692914D02*
X98809524Y-120597676D01*
X98809524Y-120597676D02*
X98904762Y-120502438D01*
X98904762Y-120502438D02*
X99047619Y-120454819D01*
X99047619Y-120454819D02*
X99142857Y-120454819D01*
X99142857Y-120454819D02*
X99285714Y-120502438D01*
X99285714Y-120502438D02*
X99333333Y-120550057D01*
X99666667Y-120454819D02*
X100285714Y-120454819D01*
X100285714Y-120454819D02*
X99952381Y-120835771D01*
X99952381Y-120835771D02*
X100095238Y-120835771D01*
X100095238Y-120835771D02*
X100190476Y-120883390D01*
X100190476Y-120883390D02*
X100238095Y-120931009D01*
X100238095Y-120931009D02*
X100285714Y-121026247D01*
X100285714Y-121026247D02*
X100285714Y-121264342D01*
X100285714Y-121264342D02*
X100238095Y-121359580D01*
X100238095Y-121359580D02*
X100190476Y-121407200D01*
X100190476Y-121407200D02*
X100095238Y-121454819D01*
X100095238Y-121454819D02*
X99809524Y-121454819D01*
X99809524Y-121454819D02*
X99714286Y-121407200D01*
X99714286Y-121407200D02*
X99666667Y-121359580D01*
X161904761Y-99200057D02*
X161809523Y-99152438D01*
X161809523Y-99152438D02*
X161714285Y-99057200D01*
X161714285Y-99057200D02*
X161571428Y-98914342D01*
X161571428Y-98914342D02*
X161476190Y-98866723D01*
X161476190Y-98866723D02*
X161380952Y-98866723D01*
X161428571Y-99104819D02*
X161333333Y-99057200D01*
X161333333Y-99057200D02*
X161238095Y-98961961D01*
X161238095Y-98961961D02*
X161190476Y-98771485D01*
X161190476Y-98771485D02*
X161190476Y-98438152D01*
X161190476Y-98438152D02*
X161238095Y-98247676D01*
X161238095Y-98247676D02*
X161333333Y-98152438D01*
X161333333Y-98152438D02*
X161428571Y-98104819D01*
X161428571Y-98104819D02*
X161619047Y-98104819D01*
X161619047Y-98104819D02*
X161714285Y-98152438D01*
X161714285Y-98152438D02*
X161809523Y-98247676D01*
X161809523Y-98247676D02*
X161857142Y-98438152D01*
X161857142Y-98438152D02*
X161857142Y-98771485D01*
X161857142Y-98771485D02*
X161809523Y-98961961D01*
X161809523Y-98961961D02*
X161714285Y-99057200D01*
X161714285Y-99057200D02*
X161619047Y-99104819D01*
X161619047Y-99104819D02*
X161428571Y-99104819D01*
X162238095Y-98200057D02*
X162285714Y-98152438D01*
X162285714Y-98152438D02*
X162380952Y-98104819D01*
X162380952Y-98104819D02*
X162619047Y-98104819D01*
X162619047Y-98104819D02*
X162714285Y-98152438D01*
X162714285Y-98152438D02*
X162761904Y-98200057D01*
X162761904Y-98200057D02*
X162809523Y-98295295D01*
X162809523Y-98295295D02*
X162809523Y-98390533D01*
X162809523Y-98390533D02*
X162761904Y-98533390D01*
X162761904Y-98533390D02*
X162190476Y-99104819D01*
X162190476Y-99104819D02*
X162809523Y-99104819D01*
X87454819Y-107238094D02*
X88264342Y-107238094D01*
X88264342Y-107238094D02*
X88359580Y-107190475D01*
X88359580Y-107190475D02*
X88407200Y-107142856D01*
X88407200Y-107142856D02*
X88454819Y-107047618D01*
X88454819Y-107047618D02*
X88454819Y-106857142D01*
X88454819Y-106857142D02*
X88407200Y-106761904D01*
X88407200Y-106761904D02*
X88359580Y-106714285D01*
X88359580Y-106714285D02*
X88264342Y-106666666D01*
X88264342Y-106666666D02*
X87454819Y-106666666D01*
X88454819Y-105666666D02*
X88454819Y-106238094D01*
X88454819Y-105952380D02*
X87454819Y-105952380D01*
X87454819Y-105952380D02*
X87597676Y-106047618D01*
X87597676Y-106047618D02*
X87692914Y-106142856D01*
X87692914Y-106142856D02*
X87740533Y-106238094D01*
X87454819Y-105047618D02*
X87454819Y-104952380D01*
X87454819Y-104952380D02*
X87502438Y-104857142D01*
X87502438Y-104857142D02*
X87550057Y-104809523D01*
X87550057Y-104809523D02*
X87645295Y-104761904D01*
X87645295Y-104761904D02*
X87835771Y-104714285D01*
X87835771Y-104714285D02*
X88073866Y-104714285D01*
X88073866Y-104714285D02*
X88264342Y-104761904D01*
X88264342Y-104761904D02*
X88359580Y-104809523D01*
X88359580Y-104809523D02*
X88407200Y-104857142D01*
X88407200Y-104857142D02*
X88454819Y-104952380D01*
X88454819Y-104952380D02*
X88454819Y-105047618D01*
X88454819Y-105047618D02*
X88407200Y-105142856D01*
X88407200Y-105142856D02*
X88359580Y-105190475D01*
X88359580Y-105190475D02*
X88264342Y-105238094D01*
X88264342Y-105238094D02*
X88073866Y-105285713D01*
X88073866Y-105285713D02*
X87835771Y-105285713D01*
X87835771Y-105285713D02*
X87645295Y-105238094D01*
X87645295Y-105238094D02*
X87550057Y-105190475D01*
X87550057Y-105190475D02*
X87502438Y-105142856D01*
X87502438Y-105142856D02*
X87454819Y-105047618D01*
X132771905Y-104884819D02*
X132771905Y-105694342D01*
X132771905Y-105694342D02*
X132819524Y-105789580D01*
X132819524Y-105789580D02*
X132867143Y-105837200D01*
X132867143Y-105837200D02*
X132962381Y-105884819D01*
X132962381Y-105884819D02*
X133152857Y-105884819D01*
X133152857Y-105884819D02*
X133248095Y-105837200D01*
X133248095Y-105837200D02*
X133295714Y-105789580D01*
X133295714Y-105789580D02*
X133343333Y-105694342D01*
X133343333Y-105694342D02*
X133343333Y-104884819D01*
X134343333Y-105884819D02*
X133771905Y-105884819D01*
X134057619Y-105884819D02*
X134057619Y-104884819D01*
X134057619Y-104884819D02*
X133962381Y-105027676D01*
X133962381Y-105027676D02*
X133867143Y-105122914D01*
X133867143Y-105122914D02*
X133771905Y-105170533D01*
X135295714Y-105884819D02*
X134724286Y-105884819D01*
X135010000Y-105884819D02*
X135010000Y-104884819D01*
X135010000Y-104884819D02*
X134914762Y-105027676D01*
X134914762Y-105027676D02*
X134819524Y-105122914D01*
X134819524Y-105122914D02*
X134724286Y-105170533D01*
X119777619Y-107599819D02*
X119777619Y-106599819D01*
X120825237Y-107504580D02*
X120777618Y-107552200D01*
X120777618Y-107552200D02*
X120634761Y-107599819D01*
X120634761Y-107599819D02*
X120539523Y-107599819D01*
X120539523Y-107599819D02*
X120396666Y-107552200D01*
X120396666Y-107552200D02*
X120301428Y-107456961D01*
X120301428Y-107456961D02*
X120253809Y-107361723D01*
X120253809Y-107361723D02*
X120206190Y-107171247D01*
X120206190Y-107171247D02*
X120206190Y-107028390D01*
X120206190Y-107028390D02*
X120253809Y-106837914D01*
X120253809Y-106837914D02*
X120301428Y-106742676D01*
X120301428Y-106742676D02*
X120396666Y-106647438D01*
X120396666Y-106647438D02*
X120539523Y-106599819D01*
X120539523Y-106599819D02*
X120634761Y-106599819D01*
X120634761Y-106599819D02*
X120777618Y-106647438D01*
X120777618Y-106647438D02*
X120825237Y-106695057D01*
X121206190Y-107552200D02*
X121349047Y-107599819D01*
X121349047Y-107599819D02*
X121587142Y-107599819D01*
X121587142Y-107599819D02*
X121682380Y-107552200D01*
X121682380Y-107552200D02*
X121729999Y-107504580D01*
X121729999Y-107504580D02*
X121777618Y-107409342D01*
X121777618Y-107409342D02*
X121777618Y-107314104D01*
X121777618Y-107314104D02*
X121729999Y-107218866D01*
X121729999Y-107218866D02*
X121682380Y-107171247D01*
X121682380Y-107171247D02*
X121587142Y-107123628D01*
X121587142Y-107123628D02*
X121396666Y-107076009D01*
X121396666Y-107076009D02*
X121301428Y-107028390D01*
X121301428Y-107028390D02*
X121253809Y-106980771D01*
X121253809Y-106980771D02*
X121206190Y-106885533D01*
X121206190Y-106885533D02*
X121206190Y-106790295D01*
X121206190Y-106790295D02*
X121253809Y-106695057D01*
X121253809Y-106695057D02*
X121301428Y-106647438D01*
X121301428Y-106647438D02*
X121396666Y-106599819D01*
X121396666Y-106599819D02*
X121634761Y-106599819D01*
X121634761Y-106599819D02*
X121777618Y-106647438D01*
X122206190Y-107599819D02*
X122206190Y-106599819D01*
X122206190Y-106599819D02*
X122587142Y-106599819D01*
X122587142Y-106599819D02*
X122682380Y-106647438D01*
X122682380Y-106647438D02*
X122729999Y-106695057D01*
X122729999Y-106695057D02*
X122777618Y-106790295D01*
X122777618Y-106790295D02*
X122777618Y-106933152D01*
X122777618Y-106933152D02*
X122729999Y-107028390D01*
X122729999Y-107028390D02*
X122682380Y-107076009D01*
X122682380Y-107076009D02*
X122587142Y-107123628D01*
X122587142Y-107123628D02*
X122206190Y-107123628D01*
X123729999Y-107599819D02*
X123158571Y-107599819D01*
X123444285Y-107599819D02*
X123444285Y-106599819D01*
X123444285Y-106599819D02*
X123349047Y-106742676D01*
X123349047Y-106742676D02*
X123253809Y-106837914D01*
X123253809Y-106837914D02*
X123158571Y-106885533D01*
X141190476Y-127454819D02*
X141190476Y-126454819D01*
X141190476Y-126454819D02*
X141523809Y-127169104D01*
X141523809Y-127169104D02*
X141857142Y-126454819D01*
X141857142Y-126454819D02*
X141857142Y-127454819D01*
X142285714Y-126550057D02*
X142333333Y-126502438D01*
X142333333Y-126502438D02*
X142428571Y-126454819D01*
X142428571Y-126454819D02*
X142666666Y-126454819D01*
X142666666Y-126454819D02*
X142761904Y-126502438D01*
X142761904Y-126502438D02*
X142809523Y-126550057D01*
X142809523Y-126550057D02*
X142857142Y-126645295D01*
X142857142Y-126645295D02*
X142857142Y-126740533D01*
X142857142Y-126740533D02*
X142809523Y-126883390D01*
X142809523Y-126883390D02*
X142238095Y-127454819D01*
X142238095Y-127454819D02*
X142857142Y-127454819D01*
X119104819Y-132166666D02*
X118628628Y-132499999D01*
X119104819Y-132738094D02*
X118104819Y-132738094D01*
X118104819Y-132738094D02*
X118104819Y-132357142D01*
X118104819Y-132357142D02*
X118152438Y-132261904D01*
X118152438Y-132261904D02*
X118200057Y-132214285D01*
X118200057Y-132214285D02*
X118295295Y-132166666D01*
X118295295Y-132166666D02*
X118438152Y-132166666D01*
X118438152Y-132166666D02*
X118533390Y-132214285D01*
X118533390Y-132214285D02*
X118581009Y-132261904D01*
X118581009Y-132261904D02*
X118628628Y-132357142D01*
X118628628Y-132357142D02*
X118628628Y-132738094D01*
X119104819Y-131214285D02*
X119104819Y-131785713D01*
X119104819Y-131499999D02*
X118104819Y-131499999D01*
X118104819Y-131499999D02*
X118247676Y-131595237D01*
X118247676Y-131595237D02*
X118342914Y-131690475D01*
X118342914Y-131690475D02*
X118390533Y-131785713D01*
X87833333Y-87454819D02*
X87500000Y-86978628D01*
X87261905Y-87454819D02*
X87261905Y-86454819D01*
X87261905Y-86454819D02*
X87642857Y-86454819D01*
X87642857Y-86454819D02*
X87738095Y-86502438D01*
X87738095Y-86502438D02*
X87785714Y-86550057D01*
X87785714Y-86550057D02*
X87833333Y-86645295D01*
X87833333Y-86645295D02*
X87833333Y-86788152D01*
X87833333Y-86788152D02*
X87785714Y-86883390D01*
X87785714Y-86883390D02*
X87738095Y-86931009D01*
X87738095Y-86931009D02*
X87642857Y-86978628D01*
X87642857Y-86978628D02*
X87261905Y-86978628D01*
X88214286Y-86550057D02*
X88261905Y-86502438D01*
X88261905Y-86502438D02*
X88357143Y-86454819D01*
X88357143Y-86454819D02*
X88595238Y-86454819D01*
X88595238Y-86454819D02*
X88690476Y-86502438D01*
X88690476Y-86502438D02*
X88738095Y-86550057D01*
X88738095Y-86550057D02*
X88785714Y-86645295D01*
X88785714Y-86645295D02*
X88785714Y-86740533D01*
X88785714Y-86740533D02*
X88738095Y-86883390D01*
X88738095Y-86883390D02*
X88166667Y-87454819D01*
X88166667Y-87454819D02*
X88785714Y-87454819D01*
X111524819Y-88333333D02*
X112239104Y-88333333D01*
X112239104Y-88333333D02*
X112381961Y-88380952D01*
X112381961Y-88380952D02*
X112477200Y-88476190D01*
X112477200Y-88476190D02*
X112524819Y-88619047D01*
X112524819Y-88619047D02*
X112524819Y-88714285D01*
X112524819Y-87333333D02*
X112524819Y-87904761D01*
X112524819Y-87619047D02*
X111524819Y-87619047D01*
X111524819Y-87619047D02*
X111667676Y-87714285D01*
X111667676Y-87714285D02*
X111762914Y-87809523D01*
X111762914Y-87809523D02*
X111810533Y-87904761D01*
X137833333Y-101359580D02*
X137785714Y-101407200D01*
X137785714Y-101407200D02*
X137642857Y-101454819D01*
X137642857Y-101454819D02*
X137547619Y-101454819D01*
X137547619Y-101454819D02*
X137404762Y-101407200D01*
X137404762Y-101407200D02*
X137309524Y-101311961D01*
X137309524Y-101311961D02*
X137261905Y-101216723D01*
X137261905Y-101216723D02*
X137214286Y-101026247D01*
X137214286Y-101026247D02*
X137214286Y-100883390D01*
X137214286Y-100883390D02*
X137261905Y-100692914D01*
X137261905Y-100692914D02*
X137309524Y-100597676D01*
X137309524Y-100597676D02*
X137404762Y-100502438D01*
X137404762Y-100502438D02*
X137547619Y-100454819D01*
X137547619Y-100454819D02*
X137642857Y-100454819D01*
X137642857Y-100454819D02*
X137785714Y-100502438D01*
X137785714Y-100502438D02*
X137833333Y-100550057D01*
X138785714Y-101454819D02*
X138214286Y-101454819D01*
X138500000Y-101454819D02*
X138500000Y-100454819D01*
X138500000Y-100454819D02*
X138404762Y-100597676D01*
X138404762Y-100597676D02*
X138309524Y-100692914D01*
X138309524Y-100692914D02*
X138214286Y-100740533D01*
X148462200Y-124736904D02*
X148509819Y-124594047D01*
X148509819Y-124594047D02*
X148509819Y-124355952D01*
X148509819Y-124355952D02*
X148462200Y-124260714D01*
X148462200Y-124260714D02*
X148414580Y-124213095D01*
X148414580Y-124213095D02*
X148319342Y-124165476D01*
X148319342Y-124165476D02*
X148224104Y-124165476D01*
X148224104Y-124165476D02*
X148128866Y-124213095D01*
X148128866Y-124213095D02*
X148081247Y-124260714D01*
X148081247Y-124260714D02*
X148033628Y-124355952D01*
X148033628Y-124355952D02*
X147986009Y-124546428D01*
X147986009Y-124546428D02*
X147938390Y-124641666D01*
X147938390Y-124641666D02*
X147890771Y-124689285D01*
X147890771Y-124689285D02*
X147795533Y-124736904D01*
X147795533Y-124736904D02*
X147700295Y-124736904D01*
X147700295Y-124736904D02*
X147605057Y-124689285D01*
X147605057Y-124689285D02*
X147557438Y-124641666D01*
X147557438Y-124641666D02*
X147509819Y-124546428D01*
X147509819Y-124546428D02*
X147509819Y-124308333D01*
X147509819Y-124308333D02*
X147557438Y-124165476D01*
X148509819Y-123213095D02*
X148509819Y-123784523D01*
X148509819Y-123498809D02*
X147509819Y-123498809D01*
X147509819Y-123498809D02*
X147652676Y-123594047D01*
X147652676Y-123594047D02*
X147747914Y-123689285D01*
X147747914Y-123689285D02*
X147795533Y-123784523D01*
D12*
%TO.C,R3*%
X87255000Y-71752064D02*
X87255000Y-71297936D01*
X88725000Y-71752064D02*
X88725000Y-71297936D01*
%TO.C,R4*%
X87255000Y-80252064D02*
X87255000Y-79797936D01*
X88725000Y-80252064D02*
X88725000Y-79797936D01*
%TO.C,J3*%
X113510000Y-95670000D02*
X114840000Y-95670000D01*
X113510000Y-97000000D02*
X113510000Y-95670000D01*
X116110000Y-95670000D02*
X136490000Y-95670000D01*
X116110000Y-98330000D02*
X116110000Y-95670000D01*
X116110000Y-98330000D02*
X136490000Y-98330000D01*
X136490000Y-98330000D02*
X136490000Y-95670000D01*
%TO.C,J4*%
X103130000Y-86670000D02*
X103130000Y-89330000D01*
X105730000Y-86670000D02*
X103130000Y-86670000D01*
X105730000Y-86670000D02*
X105730000Y-89330000D01*
X105730000Y-89330000D02*
X103130000Y-89330000D01*
X107000000Y-86670000D02*
X108330000Y-86670000D01*
X108330000Y-86670000D02*
X108330000Y-88000000D01*
%TO.C,C4*%
X124430000Y-129830000D02*
X124430000Y-130075000D01*
X124430000Y-129830000D02*
X128070000Y-129830000D01*
X124430000Y-131925000D02*
X124430000Y-132170000D01*
X124430000Y-132170000D02*
X128070000Y-132170000D01*
X128070000Y-129830000D02*
X128070000Y-130075000D01*
X128070000Y-131925000D02*
X128070000Y-132170000D01*
%TO.C,Y1*%
X120475000Y-119865000D02*
X120475000Y-126115000D01*
X125525000Y-119865000D02*
X125525000Y-126115000D01*
X120475000Y-119865000D02*
G75*
G02*
X125525000Y-119865000I2525000J0D01*
G01*
X125525000Y-126115000D02*
G75*
G02*
X120475000Y-126115000I-2525000J0D01*
G01*
%TO.C,12V*%
X148670000Y-100130000D02*
X150000000Y-100130000D01*
X148670000Y-101460000D02*
X148670000Y-100130000D01*
X148670000Y-102730000D02*
X148670000Y-105330000D01*
X148670000Y-102730000D02*
X151330000Y-102730000D01*
X148670000Y-105330000D02*
X151330000Y-105330000D01*
X151330000Y-102730000D02*
X151330000Y-105330000D01*
%TO.C,C2*%
X86180000Y-122075000D02*
X86180000Y-121830000D01*
X86180000Y-124170000D02*
X86180000Y-123925000D01*
X89820000Y-121830000D02*
X86180000Y-121830000D01*
X89820000Y-122075000D02*
X89820000Y-121830000D01*
X89820000Y-124170000D02*
X86180000Y-124170000D01*
X89820000Y-124170000D02*
X89820000Y-123925000D01*
%TO.C,M1*%
X106670000Y-128130000D02*
X108000000Y-128130000D01*
X106670000Y-129460000D02*
X106670000Y-128130000D01*
X106670000Y-130730000D02*
X106670000Y-133330000D01*
X106670000Y-130730000D02*
X109330000Y-130730000D01*
X106670000Y-133330000D02*
X109330000Y-133330000D01*
X109330000Y-130730000D02*
X109330000Y-133330000D01*
%TO.C,J5*%
X103130000Y-95670000D02*
X103130000Y-98330000D01*
X105730000Y-95670000D02*
X103130000Y-95670000D01*
X105730000Y-95670000D02*
X105730000Y-98330000D01*
X105730000Y-98330000D02*
X103130000Y-98330000D01*
X107000000Y-95670000D02*
X108330000Y-95670000D01*
X108330000Y-95670000D02*
X108330000Y-97000000D01*
%TO.C,SW2*%
X119650000Y-130900000D02*
X119650000Y-137100000D01*
X120110000Y-130900000D02*
X119650000Y-130900000D01*
X120110000Y-137100000D02*
X119650000Y-137100000D01*
X122890000Y-130900000D02*
X122890000Y-129900000D01*
X123350000Y-130900000D02*
X122890000Y-130900000D01*
X123350000Y-137100000D02*
X122890000Y-137100000D01*
X123350000Y-137100000D02*
X123350000Y-130900000D01*
X122050000Y-132500000D02*
X121000000Y-132500000D01*
X121000000Y-135350000D01*
X122050000Y-135350000D01*
X122050000Y-132500000D01*
%TO.C,Q1*%
X100880000Y-99650000D02*
X100880000Y-115540000D01*
X100880000Y-99650000D02*
X111120000Y-99650000D01*
X100880000Y-115540000D02*
X111120000Y-115540000D01*
X103460000Y-115540000D02*
X103460000Y-118080000D01*
X106000000Y-115540000D02*
X106000000Y-118080000D01*
X108540000Y-115540000D02*
X108540000Y-118080000D01*
X111120000Y-99650000D02*
X111120000Y-115540000D01*
%TO.C,SW1*%
X147580000Y-106592500D02*
X147580000Y-116492500D01*
X149365000Y-109512500D02*
X149365000Y-113572500D01*
X149365000Y-113572500D02*
X150635000Y-113572500D01*
X149435000Y-109512500D02*
X149435000Y-110865833D01*
X149555000Y-109512500D02*
X149555000Y-110865833D01*
X149675000Y-109512500D02*
X149675000Y-110865833D01*
X149795000Y-109512500D02*
X149795000Y-110865833D01*
X149915000Y-109512500D02*
X149915000Y-110865833D01*
X150035000Y-109512500D02*
X150035000Y-110865833D01*
X150155000Y-109512500D02*
X150155000Y-110865833D01*
X150275000Y-109512500D02*
X150275000Y-110865833D01*
X150395000Y-109512500D02*
X150395000Y-110865833D01*
X150515000Y-109512500D02*
X150515000Y-110865833D01*
X150635000Y-109512500D02*
X149365000Y-109512500D01*
X150635000Y-110865833D02*
X149365000Y-110865833D01*
X150635000Y-113572500D02*
X150635000Y-109512500D01*
X152420000Y-106592500D02*
X147580000Y-106592500D01*
X152420000Y-106592500D02*
X152420000Y-116492500D01*
X152420000Y-116492500D02*
X147580000Y-116492500D01*
X152660000Y-106352500D02*
X151277000Y-106352500D01*
X152660000Y-106352500D02*
X152660000Y-107736500D01*
%TO.C,C3*%
X97680000Y-122075000D02*
X97680000Y-121830000D01*
X97680000Y-124170000D02*
X97680000Y-123925000D01*
X101320000Y-121830000D02*
X97680000Y-121830000D01*
X101320000Y-122075000D02*
X101320000Y-121830000D01*
X101320000Y-124170000D02*
X97680000Y-124170000D01*
X101320000Y-124170000D02*
X101320000Y-123925000D01*
%TO.C,Q2*%
X152880000Y-99650000D02*
X152880000Y-115540000D01*
X152880000Y-99650000D02*
X163120000Y-99650000D01*
X152880000Y-115540000D02*
X163120000Y-115540000D01*
X155460000Y-115540000D02*
X155460000Y-118080000D01*
X158000000Y-115540000D02*
X158000000Y-118080000D01*
X160540000Y-115540000D02*
X160540000Y-118080000D01*
X163120000Y-99650000D02*
X163120000Y-115540000D01*
%TO.C,U10*%
X88880000Y-99650000D02*
X88880000Y-115540000D01*
X88880000Y-99650000D02*
X99120000Y-99650000D01*
X88880000Y-115540000D02*
X99120000Y-115540000D01*
X91460000Y-115540000D02*
X91460000Y-118080000D01*
X94000000Y-115540000D02*
X94000000Y-118080000D01*
X96540000Y-115540000D02*
X96540000Y-118080000D01*
X99120000Y-99650000D02*
X99120000Y-115540000D01*
%TO.C,U11*%
X131360000Y-106430000D02*
X131360000Y-131950000D01*
X131360000Y-131950000D02*
X136660000Y-131950000D01*
X133010000Y-106430000D02*
X131360000Y-106430000D01*
X136660000Y-106430000D02*
X135010000Y-106430000D01*
X136660000Y-131950000D02*
X136660000Y-106430000D01*
X135010000Y-106430000D02*
G75*
G02*
X133010000Y-106430000I-1000000J0D01*
G01*
%TO.C,ICSP1*%
X119130000Y-108145000D02*
X120460000Y-108145000D01*
X119130000Y-109475000D02*
X119130000Y-108145000D01*
X119130000Y-110745000D02*
X119130000Y-115885000D01*
X119130000Y-110745000D02*
X121730000Y-110745000D01*
X119130000Y-115885000D02*
X124330000Y-115885000D01*
X121730000Y-108145000D02*
X124330000Y-108145000D01*
X121730000Y-110745000D02*
X121730000Y-108145000D01*
X124330000Y-108145000D02*
X124330000Y-115885000D01*
%TO.C,M2*%
X140670000Y-128130000D02*
X142000000Y-128130000D01*
X140670000Y-129460000D02*
X140670000Y-128130000D01*
X140670000Y-130730000D02*
X140670000Y-133330000D01*
X140670000Y-130730000D02*
X143330000Y-130730000D01*
X140670000Y-133330000D02*
X143330000Y-133330000D01*
X143330000Y-130730000D02*
X143330000Y-133330000D01*
%TO.C,R1*%
X116265000Y-131772936D02*
X116265000Y-132227064D01*
X117735000Y-131772936D02*
X117735000Y-132227064D01*
%TO.C,R2*%
X87255000Y-84252064D02*
X87255000Y-83797936D01*
X88725000Y-84252064D02*
X88725000Y-83797936D01*
%TO.C,J1*%
X113510000Y-86670000D02*
X114840000Y-86670000D01*
X113510000Y-88000000D02*
X113510000Y-86670000D01*
X116110000Y-86670000D02*
X136490000Y-86670000D01*
X116110000Y-89330000D02*
X116110000Y-86670000D01*
X116110000Y-89330000D02*
X136490000Y-89330000D01*
X136490000Y-89330000D02*
X136490000Y-86670000D01*
%TO.C,C1*%
X136830000Y-101930000D02*
X137075000Y-101930000D01*
X136830000Y-105570000D02*
X136830000Y-101930000D01*
X136830000Y-105570000D02*
X137075000Y-105570000D01*
X138925000Y-101930000D02*
X139170000Y-101930000D01*
X138925000Y-105570000D02*
X139170000Y-105570000D01*
X139170000Y-105570000D02*
X139170000Y-101930000D01*
%TO.C,S1*%
X144145000Y-119645000D02*
X145475000Y-119645000D01*
X144145000Y-120975000D02*
X144145000Y-119645000D01*
X146745000Y-119645000D02*
X151885000Y-119645000D01*
X146745000Y-122305000D02*
X146745000Y-119645000D01*
X146745000Y-122305000D02*
X151885000Y-122305000D01*
X151885000Y-122305000D02*
X151885000Y-119645000D01*
%TD*%
M02*
